<?xml version="1.0" encoding="utf-8"?>
<!-- Generator: Adobe Illustrator 23.0.2, SVG Export Plug-In . SVG Version: 6.00 Build 0)  -->
<svg version="1.1" id="Calque_1" xmlns="http://www.w3.org/2000/svg" xmlns:xlink="http://www.w3.org/1999/xlink" x="0px" y="0px"
	 viewBox="0 0 1412 978.1" style="enable-background:new 0 0 1412 978.1;" xml:space="preserve">
<style type="text/css">
	.st0{fill:#0F0D12;}
	.st1{fill:#F2F2F2;}
	.st2{fill:none;stroke:#F2F2F2;stroke-miterlimit:10;}
</style>
<polygon class="st0" points="1412,586.2 0,586.2 0,239.6 103,199 253.5,239.6 559.4,281.2 1074.3,283.2 1149.5,152.5 1401.1,152.5 
	1412,152.5 "/>
<g>
	<path class="st1" d="M733.2,522.8C733.2,522.7,733.2,522.7,733.2,522.8L733.2,522.8L733.2,522.8z"/>
	<path class="st1" d="M733.2,527.8c1-0.2,2.1-0.5,3.2-0.8c-1.2-0.2-2.2-0.1-3.2,0.1V527.8z"/>
	<path class="st1" d="M733.2,493.4v3.4c3.1-0.5,6.1-1.7,7.7-3.2c-0.4,0-0.8,0-1.2,0C737.5,493.6,735.3,493.7,733.2,493.4z"/>
	<path class="st1" d="M733.2,542.2c0.8,0,1.7-0.2,2.6-0.6c1.7-0.8,3.3-1.5,4.5-3.1c-0.7-0.6-2.1-0.8-1.8-1.9
		c0.2-1.1,1.5-0.5,2.2-0.6c5-1.1,13.9-6.5,15-13.8c-3.1,2-6.2,4-9.3,5.9c-4.1,2.6-8.6,3.7-13.3,4.1L733.2,542.2L733.2,542.2z"/>
	<path class="st1" d="M795.6,481.9c-5.2-0.5-9.1,1.5-12.4,5.2c3.1,0.5,5.4-1.6,8.1-1.7C792.5,484,794.6,483.7,795.6,481.9z"/>
	<path class="st1" d="M733.4,522.6c1.4-0.5,2.7-0.1,4,0.6C736.2,521.5,735,521.1,733.4,522.6z"/>
	<path class="st1" d="M816.2,429c0.8,0.1,1-0.5,1.1-1.1C816.7,428,816.3,428.3,816.2,429z"/>
	<path class="st1" d="M779.3,492.3c6.3,2.8,12.1,3.2,17.2-2.5c0.8-0.8,1.5-1.5,1-2.6s-1.2-1.7-2.5-1.7c-1.2-0.1-2.5-0.1-3.7-0.2
		c-0.3,2.7-2.5,3.5-4.7,4.1c-3.7,1-7.5,1.4-11.4,1.4C776.6,491.3,778,491.7,779.3,492.3z"/>
	<path class="st1" d="M751.2,497.7c1.6-1.4,2.4-2.7,2.3-4.1c-0.2,0.1-0.3,0.2-0.5,0.3c-4.1,3.8-7.9,8.5-14.7,6c-0.5-0.2-1-0.2-1.5,0
		c-1.2,0.3-2.4,0.4-3.6,0.3v19.4h0.1c3.2-0.1,6.5-0.1,9.7-0.1c1.2,0,2.3-0.3,3.2-1c2.8-2.2,5.7-4.4,8.5-6.5c0.8-0.7,1.8-1.6,1.8-2.6
		c-0.5-4.1,0.5-8.2-1.2-12.3c-0.8,1.1-1.4,2.1-2.5,2.9c-1,0.7-1.8,1.7-2.8,2.3c-0.8,0.5-1.8,1.2-2.6,0.3c-0.6-0.8,0.2-1.6,0.8-2.2
		C749.2,499.5,750.2,498.6,751.2,497.7z"/>
	<path class="st1" d="M817.5,427.5c0,0.2-0.1,0.2-0.1,0.4C817.6,427.7,817.8,427.7,817.5,427.5z"/>
	<path class="st1" d="M-0.8,252.4c-0.3,9.2-0.2,18.4,0.2,27.6c0.2,6.3,1.7,12.5,1.8,18.9c0.1,1.1,0,2.4,0.1,3.6
		c0.2-0.1,0.4-0.1,0.6,0c0.6,0.2,0.9,0.7,0.9,1.3c0.1,0.6,0,1.3,0,2c0,0.8-0.1,1.5-0.1,2.3c0.3,0.5,0.8,0.8,1.4,0.4
		c1.1-0.7,2.5-1.9,1.6-3.8c-0.4-0.8-0.8-1.6-1.1-2.5c-0.3-1.5,0.1-2.8,1.7-3s2.1,1,2,2.3c-0.3,2.8,1.5,3.9,3.5,5.8
		c-0.8-3.5,1.9-4.4,3.1-6.3c0.4-0.7,2.6-1.7,3.8-0.5c1.3,1.3-0.1,2.3-0.8,3.4c-0.5,0.8-1.1,1.8-1.2,2.8c-0.2,1.6,0.8,2.5,2,2.6
		c1.3,0.1,0.5-1.2,0.6-1.9c0.5-1.7,0-4.8,3.3-3.2c0.2,0.2,0.8-0.2,1-0.4c1.5-1.4,2.8-1,4.1,0.4c1.7,1.7,2.8,1.4,3.7-0.9
		c1.2-2.7,3-4.9,5.6-5.3c5.7-1,11.3-2.8,17.2-1.8c5.4,0.9,10.6-0.8,15.9-1.5c5.7-0.7,11.2,1.4,17,1.1c1.9-0.1,3.9,1.1,4.9,3.2
		c2.5,5.3,6.4,9.8,8.2,15.6c0.5,1.7,1.1,2.6,2.4,0.5c0.5-0.8,1.5-1.7,2.5-0.8c1.1,1-0.1,1.9-0.5,2.7c-0.3,0.6-1.4,1.3-0.4,2
		c0.7,0.6,1.4,1.5,2.5,0.7c3.5-2.4,6.4-5.5,9.1-9.1c-2-0.8-2.8,0.8-3.8,1.4c-1,0.7-1.8,1.7-3.1,1.4c-0.5-0.1-1-0.2-1.1-0.8
		c0-0.2,0.2-0.7,0.3-0.8c3.4-1,4.1-5,6.5-7.1c2.7-2.3,5-5.1,6.7-8.5c-2,1.4-3.8,3.1-6.4,3.3c-1.1,0.1-2.3-0.1-2.7-1.3
		c-0.4-1,0.6-1.7,1.3-2.1c1-0.7,2-1.1,2.8-2.1c4.5-5.2,6.8-11.4,8.7-18.1c0.8-2.8,1-5.6,2.5-8.3c0.8,3.2,2.4,5.9,3.6,8.7
		c2.2,5.2,3.5,8,10.1,6c1.2-0.4,2.6-0.8,3.7-0.5c2.3,0.8,3.3-0.7,4-2.4c0.8-1.7,1.6-2.7,3.5-3.2c2.4-0.6,2.6-2.2,0.7-3.6
		c-1.5-1.1-1.2-2,0.1-2.9c1.9-1.3,3.5-2.9,5.1-4.6c1.1-1.2,1.2-2.2-0.5-2.7c-1.6-0.5-1.4-1.4-0.5-2.4c1.5-1.7,2.2-3.3-0.9-4.4
		c3.9-2.4,4.4-6.8,6.5-10.1c0.4-0.6,0.5-1.5,1.3-1.5c0.9,0.1,0.5,1.1,0.8,1.7c1.2,3.7,3.4,6.7,5.8,9.5c0.7,0.8,1.4,0.7,2.1,0.3
		c0.7-0.4,1.3-0.8,1.2-1.9c-0.4-2.9,1.6-4,3.4-5.1c0.8-0.5,1.9-0.7,2.1-1.5c0.7-3.4,2.8-6.1,3.2-9.6c0.5-3.4,0.8-6.9,2.5-10
		c2.8,1.7,1,5.2,2.5,7.5c0.3-2-0.2-3.7,0.8-6.2c0.8,3.9,1.5,7.1,2,10.3c0.9,5.9,2.1,11.7,6.2,16.1c1.1,1.1,1.7,2.7,2.5,4.1
		c-0.2,0.3-0.4,0.5-0.6,0.8c-3.2-1-4.8-4.1-7.1-6.4c1.8,4.3,2.8,8.8,5.2,12.7c0.6,1,1.1,2.2,1.5,3.3c0.3,0.8,0.6,1.7-0.2,2.3
		c-0.7,0.5-1.2-0.3-1.7-0.8c-1-1-1.9-2-3.4-3.5c2.3,5.2,4.5,9.5,7.7,13.2c1.6,1.7,2.8,3.9,4.1,5.9c0.5,0.8,0.8,1.7,0.1,2.6
		c-0.7,0.8-1.5,0.4-2.1,0.2c-0.9-0.2-1.8-0.8-2.5-1.5c-1.2-1.2-2.1-2.7-4.1-3.8c1.5,2.4,1.8,4.7,2.6,6.8c1.1,3.3,2.1,6.7,3.6,9.8
		c2,4.1,3.7,8.4,6.4,12.2c0.5,0.7,0.8,1.4,0,2.2c-0.7,0.6-1.3,0.3-2-0.3c-1.1-0.9-2.1-1.8-3.2-2.7c2.5,4.7,4.7,9.6,7.8,13.7
		c1.4,1.7,2.8,2.1,4.5,1.4c2.1-0.9,4.1-0.9,5.8,0.9c0.4,0.5,1.3,0.9,1.8,0.8c2.8-0.8,3.8,1.1,4.6,3.3c0.6,1.7,1.6,1.6,2.6,0.5
		c0.5-0.6,0.8-1.5,1.2-2.1c1.1-1.3,2.2-3.2,3.7-0.3c0.2,0.5,0.8,0.9,1.2,0.8c3.2-0.5,3.5,2,3.8,5c0.5-1.7,1-2.6,0.8-3.7
		c-0.4-2.2,0.9-2.9,2.5-2.9c1.5,0.1,1.4,1.6,1.2,2.9c-0.5,2-0.2,3.9,0.3,5.9c0.1,0.5,0.2,1.1,0.8,1.2c0.5,0.2,0.9-0.3,1-0.8
		c0.5-1.9,1.6-1.7,2.9-1.2c1.5,0.5,2.5,1.2,2,3.1c-0.3,1.1,0.1,1.6,0.8,2c1.5,0.8,1.5,2.3,1.6,3.8c0.1,1.3-0.3,2.7,0.8,3.8
		c1.4-0.5,0.8-2.9,2.5-3.1l0.1,0.1c0.4,0.8-0.2,2.4,1,2.6c1,0.1,0.9-1.4,1.3-2.1c0.7-1.3,1.5-2.4,2.2-3.6c0.4-0.6,1.1-1.2,0.7-1.9
		c-1.2-2,0.2-2.9,1.2-3.9c1.1-1.4,2.2-2.6,2.8-4.3c-2.6-0.1-1.5-1.4-0.6-2.4c2.5-2.8,4.1-6,5.6-9.4c0.5-0.9,0.5-2.5,1.7-2.1
		c1,0.2,0.9,1.7,0.9,2.7c0.1,3.8-0.2,7.6,1.8,10.9c0.5,0.8,0.3,1.6-0.7,1.5c-3.2-0.2-1.1,1.7-0.8,2.7c0.3,1.2,2.1,2.6,1,3.5
		c-1.4,1.3-1.5-1.7-2.7-1.8c-0.1,0.2-0.3,0.5-0.2,0.6c0.5,1.7,1,3.4,1.5,5c0.2,0.8,0.5,1.3,0.2,2.3c-1.3,3-0.9,4.1,1.8,6.2
		c0.8-0.9,0.5-2.3,1.5-3.2c1.3-1.2,1.6-2.6-0.5-3.3c-0.7-0.2-1.4-0.8-1.2-1.9c0.2-0.8,0.8-1.1,1.5-1.2c1.6-0.5,3.1-0.8,4.8-0.8
		c2,0.1,4.8-0.5,5.4-2c0.9-2.6,2.8-3.2,4.5-4.2c3.3-2,6.4-4.4,8.8-7.4c0-0.6,0-1.2,0-1.8c0-0.7-0.2-1.4,0.8-1.4c0.5-0.1,1,0,1.4,0.2
		c0.5-0.8,0.8-1.5,0-2.3c-1.7-1.7-1.3-2.9-0.6-4.9c0.5-1.7,1.7-4.7-0.1-5.6c-1.5-0.8-2.6,2-3.8,3.3c-2.9,3.2-5.2,7-9.2,8.8
		c-1.2,0.5-2.5,1.6-3.4,0.2c-0.7-1.1,0.4-2.3,1.2-3.2c1.3-1.7,2.7-3.2,3.8-5c1-1.7,2.4-3.2,3.6-4.8c-5.5,4.6-11.8,6.8-18.3,8.7
		c4-6.8,11.4-9,16.3-14.9c-1.8,0.3-3.1,0.6-4.6,0.7c-0.7,0-1.7,0.2-2.1-0.7c-0.5-1.2,0.7-1.5,1.3-2.1c2.1-2.1,5-2.2,7.3-3.6
		c6.8-4.1,8.7-6.1,7.1-13.6c-0.5-2.6-1.5-1.9-2.7-0.8c-1.4,1.3-2.7,2.7-4.1,3.8c-0.9,0.8-2.1,0.5-2.8-0.5c-0.8-1.1,0.4-1.5,0.9-2.2
		c1.3-1.7,2.5-3.5,4.2-6c-2.1,0.8-2.8,2.1-3.7,2.9c-2.6,2.3-5.2,4.6-8.8,4.7c-0.7,0.1-1.5,0.4-1.8-0.4c-0.4-0.8-0.2-1.7,0.3-2.3
		c0.5-0.7,1-1.4,1.7-1.7c5.8-3.2,9.1-9,12.9-14.3c1.3-1.8,3.5-3.5,3.1-6.5c-0.9,0.6-2,0.9-2.3,1.6c-0.8,2.1-3,2.4-4.2,4
		c-0.7,0.9-2.2,1.7-3.3,0.5c-0.9-1.1,0-2.4,0.7-3.4c0.8-1.2,1.8-2.4,2.8-3.5c2.9-3.1,5.1-6.2,5.6-11.1c0.5-4.4,0-8.7,0.1-13.1
		c0-0.8-0.2-1.5,0.8-1.6c0.8-0.1,1.5,0.1,1.8,1.1c0.2,0.8,0.2,1.4,0.3,2.2c0.7,7.3,4,13.4,8.1,19.1c0.6,0.9,2.1,1.8,1.6,2.9
		s-2.2,0.6-3.5,0.8c-0.8,0.1-1.2-0.5-1.7-1c-1.4-1.4-1.8-0.6-1.8,1c-0.2,3.1,5.1,9.9,8.4,10.7c3,0.7,6,1.2,9,1.9
		c1,0.2,2.2,0.4,1.8,2.1c-0.8,2.8-0.4,5.4,0.5,8.1c0.5,1.5,1.8,3,0.9,5c-0.9,1.9,0.2,4.8,2.1,4.8c4.1-0.1,7.4,2.7,11.4,2.9
		c2.8,0.2,5.8,1.3,8.5,0.8c5.1-0.8,9.1,4.8,14.4,2.5c0.3-0.2,1,0.5,1.5,0.8c2.5,2.3,5.5,3.8,8.5,5.1c2.1,1,3.9,2.3,3.8,5.3
		c0,1.4,1,2.2,2,2.9c3.8,2.6,7.6,5.3,11.4,7.8c0.9,0.6,2,1.2,2.8,0.1c3.3-4.3,7.7-7.7,8.7-13.7c0.2-0.9,0.6-1.7,1.4-2.3
		c0.6-0.4,1-1.5,1.9-0.9c0.8,0.6,0.5,1.4,0.2,2.3c-0.8,2.9-1.1,5.9-0.5,9c0.5,2.7,1.7,5,3.3,7.1c0.7,1,2.3,2.5,0.8,3.7
		c-1.2,1-2-1-2.8-1.9c-0.6-0.6-0.8-1.7-1.9-2c1.3,4,3.3,7.4,5.8,10.4c0.6,0.7,1.2,1.5,0.4,2.4c-0.8,0.8-1.6,0.5-2.3-0.2
		c-1.3-1.2-2.5-2.4-4.1-3.9c1.2,3.9,3.5,6,6.1,7.8c0.7,0.5,1.5,1.2,1,2.3c-0.5,1.1-1.5,1-2.3,0.8c-0.8-0.3-1.8-0.8-2.5-1.4
		c-1.8-1.2-2.9-3.2-4.5-5.1c-0.1,2.3,0.4,3.8,1.4,5.1c1.8,2.5,3.8,4.9,5.7,7.4c0.8,1,2.1,2.3,0.8,3.5c-1.2,1.1-2.3-0.4-3.2-1.2
		c-1.5-1.4-2.8-2.9-4.1-4.3c-0.3,0.4-0.5,0.7-0.8,1c1.7,1.5,3.4,3.1,5,4.7c0.6,0.7,1.9,1.3,1.1,2.5c-0.6,0.9-1.8,0.5-2.7,0.3
		c-1.8-0.5-2.8-2.3-4.8-3.6c1.7,3.8,3.7,6.2,6,8.5c1.3,1.2,2.8,2.6,1.6,4.7c-1.2,1.9-2.8,0.5-4.1,0c-0.2-0.1-0.5-0.2-0.8-0.2
		c0.8,5.1,5.2,6.2,8.4,8.4c0.7,0.5,1.8,0.6,1.6,1.8c-0.2,1.1-1.3,1-2.1,1.1c-1.8,0.3-3.3-1.1-5.5-1.7c1.8,2.6,3.5,4.4,5.4,5.9
		c0.7,0.5,1.6,1.1,1.2,2.3c-0.5,1.1-1.3,1-2.2,0.5c-0.4-0.2-1.2-0.6-1.1,0.2c0.5,3.3-1.8,1.3-3.1,1.7c1.5,3.2,2.6,6.5,5.1,8.9
		c0.5-1.4,0.3-2.8,1.5-4.1c0.3,3.5-0.1,6.5-0.8,9.3c-0.9,3.9,2.6,5.7,2.9,8.9c0,0.2,0.5,0.5,0.7,0.5c1.1,0.2,3.7-3.5,3.3-4.7
		c-1.1-3.6-0.5-4.7,2.8-6c0.5-0.2,1.2-0.2,1.3-1.1c-0.8,0.1-1.7,0.2-2.5,0.2c-1.4-0.1-2.1-1.3-2.4-2.4c-0.4-1.4,1.1-1.1,1.7-1.7
		c2.3-2,4.8-3.8,7.1-5.7c0.6-0.5,1.3-1.1,0.9-2.1c-0.5-1.1-1.4-0.9-2.2-0.8c-1.5,0.2-3.3,0.6-3.8-1.1c-0.5-1.8,1.6-1.9,2.6-2.6
		c1.5-1.2,3.9-1.9,4.1-4.1c0.2-2.3,1.3-3.6,2.4-5.1c1.7-2.3,3.7-4.3,4.6-7.1c0.2-0.7,0.6-1.5,1.5-1.1c0.8,0.3,0.7,1.1,0.6,1.9
		c-0.4,3,0.7,5.5,2.2,7.8c0.5,0.8,1.8,1.6,1,2.6c-0.8,1.1-1.7-0.5-2.5-0.6c-0.2,0-0.5,0.1-1,0.1c0.6,2.8,1,5.5,3.5,7
		c0.8,0.6,1.9,1.4,1.4,2.7c-0.5,1.5-1.7,1-2.7,0.5c-1.7-0.8-1.8,0.2-1.5,1.6c0.4,2,1.5,3.3,2.9,4.5c0.7,0.6,1.1,1.5,0.8,2.5
		c-0.3,1.4-1.3,1.2-2.3,1.1c0.4,1.4,1.4,2.3,2.3,3.1c1.2,1.1,2.4,3.4,1.9,4.1c-1.5,2.3,0.1,3.5,1,4.9c0.5,0.8,0.8,1.6,0.3,2.3
		c-0.6,1-1.5,0.5-2.3,0.2c-0.7-0.2-1.4-0.9-2.1-0.5c-0.4,1.5,3,3,0,4.4c1.2,1.9,2.1,3.9,3.5,5.6c0.7,0.8,2,4,3.1,0
		c0.1-0.3,0.6-0.6,0.9-0.5c2.2,0.4,2.8-1.1,2.8-2.9c0-1.4,0.8-2.3,1.7-3.2c0.8-0.9,1.8-1.5,2.1-3.2c-2.8,1.5-3.1-2-5.4-2.3
		c1.2-0.9,2.2-1.3,2.7-2.1c0.8-1.2,2.7-2,1.8-4.1c-0.9-2.1-0.2-3.6,1-5.3c1.7-2.5,4.1-4.6,5.3-8.3c-1.2,1-1.8,1.4-2.3,2
		c-1.2,1.1-2.4,2.6-3.9,0.9c-1.8-1.9,0.6-2.6,1.1-3.8c0.5-1.4,2.5-2,1.7-3.9c-0.5-1.3-0.2-2.2,0.2-3.2c2.6-6.8,6.7-13.2,6.9-21
		c0-0.8,0.4-1.5,1.2-1.5c0.7,0,1.3,0.5,1.3,1.1c-0.1,3.2,2,5.7,2.3,8.8c0.5,5,2.8,9,6.9,11.7c0.5,0.4,1.3,0.5,1.2,1.4
		c-0.2,1-0.9,1.4-1.7,1.4c-1.9,0-1.8,0.9-0.9,2.3c0.6,1,1.3,2,2.1,2.9c1.5,1.7,2.7,3.3,1.7,5.8c-0.3,0.8,0.2,1,0.7,1.4
		c1,0.7,2.7,1.2,2.1,2.9c-0.6,1.6-2.1,0.9-3.4,0.7c-0.4-0.1-0.8-0.2-1.2-0.2c-0.5,0-1.1,0.1-1.3,0.4c-0.5,0.6,0.2,1.2,0.5,1.6
		c1.1,1.1,2.8,1.7,2.8,3.4c0.2,5.6,0.1,11.3,0.1,16.9c1.6,0.2,1.8-0.9,2.2-2.1c1.2-4.1,1.7-8.1,1.5-12.3c-0.1-2.5,0.2-4.7,3.5-4
		c0.7,0.2,1.1-0.4,1.3-1c0.1,0,0.1,0,0.1,0c-1.1-0.2-2.5-0.2-2.8-1.6c-0.4-1.5,0.5-2.5,1.5-3.5c1.5-1.6,3.1-3.2,4.5-4.8
		c0.7-0.8,2.1-1.7-0.1-2.7c-1.5-0.7-1.5-2.2-0.2-3.5c2.2-2.5,4.4-5,6.1-8.3c-1.5,0.4-2.6,2.5-3.8,0.8c-1.2-1.6,0.5-2.7,1.2-3.7
		c3.6-4.4,4-10.2,6.3-15.1c-2.8,1.5-4.2,5.1-7.9,5.9c0.2-0.8,0.2-1.2,0.5-1.4c3.7-4.2,6.2-9.4,9.3-14.2c1.2-2,2.2-4.3,2.6-6.8
		c0.1-1-0.2-2.5,1.1-2.5c1.2,0,1.1,1.6,1.2,2.5c0.7,5.3,1.6,10.5,5.8,14.1c0.4,0.3,0.7,0.8,0.4,1.4c-0.3,0.5-0.8,0.6-1.3,0.5
		c-0.6-0.2-1.2-0.5-2.1-0.8c0.6,2.3,2.2,3.5,3,5.2c0.4,0.9,1.2,2,0.2,2.9c-0.8,0.8-1.5,0.2-2.3-0.4c-0.5-0.5-1.2-1.3-1.8-0.8
		c-0.8,0.7-0.1,1.6,0.3,2.2c1.7,2.9,3.5,5.8,5.1,8.7c0.6,1,1.1,2.1,0,3.1c-1.2,1.1-2.1,0.3-3-0.6c-1.1-1.2-2-2.5-3-3.8
		c0.8,3.5,2.2,6.5,4.2,9.2c0.8,1,2.3,2.2,1.5,3.4c-0.8,1.2-1.8-1-3.4-0.7c1.2,3.2,2.5,6.1,4.8,8.3c1.2,1.1,1.9,2.1,0.2,3.5
		c-1.2,0.9-0.4,2.1,0.2,3c0.4,0.6,1.1,0.9,1.5,1.4c0.6,0.7,1.8,1.5,1.1,2.6c-0.8,1.2-1.8,0.3-2.8-0.1c-0.8-0.3-1.2-1.5-2.5-1.1
		c0.8,2,2.6,1.8,3.9,2.5c0.6,0.3,2,0.5,1.2,1.5s-0.9,1.7,0.3,2c1.6,0.4,0.9-1.1,1.1-1.9c0.4-1.9-0.6-4.7,2.8-4.4
		c0.2,0,0.6-0.8,0.7-1.3c0.7-3.5,2.2-6.6,3.2-10c0.2-0.7,0.2-1.9,1.2-1.8c0.7,0,0.8,1,1.1,1.7c0.2,0.5,0.3,1.1,0.5,1.5
		c0.8,2,1.1,4.4,2.4,5.6c1.2,1.1,3.1-0.9,4.8-1.1c0.2,0,0.4,0,0.5-0.1c5.2-1.4,10.4-3.2,14.6-6.9c1.4-1.2,3.2-2.3,3.4-4.4
		c0.5-5.6,0.6-11.1,0.1-17.5c-4.9,7.4-10.8,12.3-18.1,15.3c1.2-2.1,2.7-4,4.1-5.9c0.2-0.2,1.4-0.8,0.2-1.1c-1.2-0.4-0.9-0.8-0.2-1.3
		c2.8-2.2,5.5-4.4,8.5-6.8c-0.8-0.3-2.5,1-1.7-0.9c2.1-4.5,3.4-9.6,6.3-13.6c1.5-2,1.3-4.1,0.9-6.5c-2,1.4-3.7,2.8-5.4,4
		c-0.6,0.5-1.3,1.2-2.1,0.7c-1.2-0.8,0.7-1.5-0.1-2.6c-0.9,0.7-1.8,1.3-2.8,1.9c-1.2,0.7-2.5,1.1-3.8,0.8c-0.6-0.1-1.1-0.5-1.2-1.2
		c-0.2-0.8,0.2-1.3,0.8-1.4c3.5-0.3,5.8-2.9,8-5.2c3.8-4.1,6.4-9.1,8.2-14.7c-2.1,2.1-4.6,3-6.9,4.5c-0.9,0.5-1.9,0.5-2.5-0.6
		c-0.7-1.1,0.3-1.6,0.9-2.2c1.6-1.6,3.1-3.2,5.1-4.4c-1.7,0.5-3.1,1.5-4.6,1.9c-1.2,0.2-3.1,1.4-3.6-0.2s1.6-1.9,2.8-2.5
		c5.4-2.8,11.1-5.1,11.2-13.3c0-2.6,2.6-1.6,4.1-1.8c1.2-0.2,0.6,1.3,0.6,2c0.1,1.2,0.2,2.5,1.4,2.8c2,0.5,3.6,2,5.8,2.3
		c3.3,0.5,3,4.1,3.9,6.6c0.8,1.9-1.4,1.3-1.7,2c-1.2,2.6-3.3,1.4-5,1.7c-0.8,0.2-2.3-0.1-1.2,1.7c1.5,2.6-0.2,2.6-1.7,2.4
		c-1.8-0.3-2.1,2-3.6,2c0,1.5,1.2,2.2,2,2.9c0.8,0.8,1.9,1.4,2.9,2c3.6,2.3,7.1,4.8,11,6.5c-3.7,1.4-7.1,1.1-10.5-1.3
		c0.6,3.1,3.4,3.2,4.5,5.3c-4.6,1.4-6.7-3.4-10.7-5.1c1.9,7.1,0.2,13.6,0.8,20.2c0.5,6.3,3.1,10.8,7.2,14.8c1.5,1.4,2.6,1.2,3.7-0.8
		c1.8-3.3,2.7-6.9,4-10.4c-0.6,0.4-1.1,0.9-1.6,1.4c-0.7,0.7-1.5,1.4-2.3,0.6c-0.8-0.9,0.4-1.4,0.8-2c2.5-3.6,4.9-7.1,7.3-10.8
		c0.7-1.1,0.8-2.9,2.5-2.6c1.5,0.4,1.5,2,1.7,3.3c0.5,5,1.5,9.8,4.2,14.1c1.2,1.7,0.4,4.9-0.5,5.4c-2.7,1.5-1,2.9-0.3,4.1
		c0.8,1.3,1.9,2.3,3,3.3c1.2,1.1,1.8,1.9,0.4,3.5c-1.2,1.4-2.1,3.4,0.2,4.7c3.2,1.9,4.1,6.3,7.6,7.8c0.5,0.2,0.8,0.7,0.5,1.3
		c-0.2,0.5-0.8,0.6-1.2,0.5c-0.8-0.2-1.8-0.5-2.7-0.8c0.7,1.1,1.5,1.6,2.3,2.1c0.5,0.4,0.8,0.8,0.4,1.5c-0.4,0.5-1.8,0.6-0.8,1.8
		c0.8,1,1.7,1.7,3,1.1c0.7-0.3,1.5-0.8,2,0.2s-0.2,1.7-0.8,2.5c-0.5,0.7-1.5,0.6-1.8,1.7c1.5,0.6,2.1,1.9,1.9,3.6
		c-0.2,1.9-0.8,4.3,1.2,4.9c1.8,0.6,2.6,1.9,3.7,3.2c0.2,0.2,0.6,0.1,0.8,0c3.5-1.4,7.5-1.4,9.9-5.5c1-1.7,2.3-3.5,4.6-3.8
		c1-0.2,1.6-1.9,1.4-2.1c-2.1-2,0.5-3.4,0.6-5.2c-1.4,0.1-2.4,0.7-3.1,1.7c-0.3,0.4-0.6,0.9-1.2,0.4c-0.5-0.5-0.3-1,0-1.4
		c0.8-1.3,1.5-2.6,2.7-3.6c2.8-2.3,4-5.7,4.8-9.3c-1.2,1.6-2.1,3.2-3.6,4.4c-0.7,0.6-1.5,2-2.4,1.1c-1-0.9-0.2-2.1,0.4-3.1
		c1.3-2,2.6-3.9,3.7-7c-1.2,1.1-1.8,1.7-2.5,2.3c-0.6,0.5-1.3,1.4-2,0.5c-0.8-0.9,0.2-1.5,0.7-2c2.8-2.2,3.9-5.5,5-8.9
		c1.6-5.2,3.2-10.4,4.8-15.6c0.3-0.8,0.5-1.7,1.5-1.7c1.1,0.1,1,1.1,1.1,1.9c0.1,0.9,0.1,1.9,0,2.8c-0.4,4.8,0.5,9.3,2.7,13.5
		c1,1.9,2.4,3.2,3.8,4.6c0.4,0.4,0.9,0.8,0.6,1.6c-0.3,0.8-1,0.5-1.5,0.4c-0.5-0.2-1.1-0.3-1.6-0.5l0,0c0.4,0.6,0.9,1.2,1.3,1.8
		c1.5,1.8,1.5,3.2-1.1,4c1.4,1.4,2.6,2.9,4.5,3.2c0.5,0.2,1.2,0.4,1.2,1.1c-0.1,0.8-0.8,0.9-1.3,1.1c-1.7,0.5-3.2-0.3-5-0.8
		c0.7,2.6,2.4,3.3,4.1,3.8c1,0.3,1.8,0.9,2.1,2c0.3,0.8-0.3,1.1-0.8,1.4c-1.2,0.6-2.3,1.6-1.5,3.1c0.6,1.4,1.8,2.3,3.5,2
		c3.2-0.6,6.4-0.9,9.6-1.9c12.5-3.8,25.3-3.8,38.1-2.9c2.3,0.2,9.1,10.2,8.2,12.6c-2.7,7.7-2.6,16.2-5.9,23.7
		c-0.7,1.7-0.2,2.7,1.1,4c2.4,2.3,5.6,3.8,6.7,7.1c1.2,3.5,3.3,4.3,6.3,4.7c2.6,0.4,5.7-0.3,7.7,2c2.2,2.5,4.9,4,7.6,5.6
		c2.5,1.5,5,3.2,6.8,5.6c1.3,1.7,1.3-1,4.6,2s0,12.8,0,12.8c5.4,0.2,10.7-0.8,15.7-3.2c4.6-2.3,7.1-6.2,6.2-11.1
		c-0.2-1.3,0.1-2.6,0-3.9c-0.2-2.2,0.9-4.5-0.2-6.9c-3.3,3.2-6.1,6.4-10.5,7.5c-1,0.2-2.4,0.9-3-0.1c-0.8-1.2,1.2-1.3,1.5-2.2
		c-2.2,0.2-4.5,0.5-6.8,0.8c-1.3,0.2-3.5,1.3-3.8-0.5c-0.3-1.7,2.1-1.7,3.5-2.1c5.1-1.5,10.1-3.1,14.2-6.5c1.8-1.5,4.3-2.8,4.2-5.6
		c-0.1-4-0.3-8-0.5-12c0-0.5,0.4-1.2-0.4-1.4c-0.7-0.2-1.2,0.3-1.4,0.8c-1.3,2.6-3.6,4.4-5.8,6.2c-3.2,2.9-7,5.2-11.1,6.7
		c-0.8,0.2-1.8,0.7-2.3-0.4c-0.4-0.8,0.5-1.4,1.1-1.8c1.8-1.4,3.6-2.8,5.6-4.3c-1.4-0.1-2.5,1-3.7,0c0.8-1.4,2.5-1.7,3.6-2.6
		c2-1.6,5-2,6.4-4.4c-2.8,1.6-5.7,2.5-8.9,2.6c-0.2-0.2-0.2-0.3-0.4-0.5c9.2-4.4,18-16.6,16.1-22.6c-1.6,1.2-3.1,2.5-4.8,3.6
		c-0.8,0.5-1.6,1.8-2.7,1c-1.1-0.8,1.1-1.4,0.5-2.4c-0.8-0.2-1.2,0.5-1.7,0.8c-1.5,0.9-2.8,2-4.7,2c-0.9,0-1.8,0-2-1.1
		s0.6-1.5,1.6-1.4c0.9,0.1,1.5-0.5,2.1-0.8c6.8-4.3,10.4-10.8,12.9-17.9c-2.1,1.5-4.3,2.9-6.4,4.4c-1,0.6-2.2,1-3.1-0.2
		c-0.8-1.1,0.5-1.5,1.1-2.2c2.1-2.4,5.1-3.9,7.1-6.4c1.5-1.7,1.5-4,3-5.6c0.5-0.6,0.8-1.4,1.8-1.3c0.9,0.2,1.2,1.1,1.2,1.7
		c0.2,4.1,2.6,7,5.3,9.7c0.5,0.4,1.3,0.7,0.7,1.5c-0.4,0.5-1.1,0.8-1.8,0.7c-1.5-0.2-2.8-1.1-4-1.9c-0.8,4,1,6.1,4.4,7.6
		c4,1.8,7.6,4.3,12.6,5.8c-4.4,1.2-7.7,1.7-11.2-0.7c0.8,2.9,3.6,2.9,5,4.7c-2.9,0.8-4.9-0.4-6.9-1.7c-0.8-0.6-1.7-1.2-2.6-1.7
		c-0.6-0.5-1.3-0.2-1.2,0.5c0.8,3.5-0.2,7.3,3.2,10.1c3.3,2.6,7,3.6,11,4.1c2,0.2,4.1-0.3,6.1,0.8c-2.9,2.6-6.4,2.3-9.6,2.8
		c1.7,1.9,4.1,1.1,6.1,1.1c4.4,0.2,8.3,1.8,12.4,3c-9.6,1.8-19,2.6-27.6-3.1c-0.5,7.4,2.8,12.6,8.4,16.9c5.8,4.4,12.5,3.9,19.2,3.9
		c-7.3,3.3-14.6,2.2-22.2-0.2c4.9,4.7,11.1,5,16.9,6.2c-4.9,2.3-10.2,2.3-15.8,0.2c-0.8-0.3-1.8-1.1-2.6-0.1c-0.6,0.8-1,1.9-0.5,2.9
		c0.2,0.6,0.5,1.4,1,1.7c1.9,1.7,3.1,4.1,5.3,5.5c1.8,1.2,1.2,2-0.5,2.7c-1,0.4-2.2,0.4-2.8,1.7c8.8,3.7,34.2-3.4,35.5-9.9
		c-1.5,0.5-3,0.8-4.5,1.2c-0.5,0.2-1.2,0.4-1.6-0.2c-0.5-0.7,0.1-1.4,0.5-1.7c0.9-0.8,2-1.4,3-2c-0.5-1.1-2.4-0.9-1.9-2.3
		c0.4-1.3,1.8-1.1,2.9-1.4c1.6-0.3,3.2-0.5,4.8-0.8c1.1-0.3,2.5-0.8,1.9-2.3c-0.5-1.4-1.6-0.2-2.5-0.2c-0.5,0-1.1,0.2-1.6,0.5
		c-0.8,0.3-1.8,0.8-2.2-0.4c-0.5-1-1.6-2.2,0.2-3l0,0c-0.1-0.1-0.1-0.1-0.2-0.2c0.1,0,0.2,0,0.3,0c0.2-1.9,1.2-2.9,3-3.9
		c2.4-1.4,4.3-3.6,6.8-5c-2.5,0.5-4.8,1.1-7.1,2c-0.8,0.3-1.6,0.5-2-0.5c-0.5-1.1,0.4-1.2,1.1-1.6c1-0.5,2.3-0.8,3.1-1.8
		c-1.2-0.7-2.7,0.3-3.8-1.3c4.1-0.5,7.4-2,9.9-5c-2.8,0.8-3.5-4.4-7-1.9c3-3,5.9-5.5,8.9-7.9c1-0.8,1.5-1.7,1.3-2.9
		c-2.4,1.2-4.5,3.2-7.4,2.9l-0.1-0.1c0.6-1.7,2.8-2.3,3.6-4.1c-1.4-0.5-2.6,0.8-3.9-0.5c1.1-0.6,2.5-0.8,2.7-2.3
		c0.2-2-2.4-0.2-2.5-1.8c1.1-1.7,3.4-1.9,4.7-3.4c-0.9-0.9-2.2,0-3.1-1.1c1.6-2,4.4-2.3,6-4.1c0.5-1.3-1.1-0.5-1.2-1.2
		c0-0.3-0.1-0.5-0.1-0.8c0.8-0.9,1.7-1.7,2.5-2.6c0.5-0.3,1.5-0.5,0.8-1.3c-0.4-0.4-0.9,0.4-1.2,0.8c-0.8,0.3-1.6,0.5-2.4,0.8
		c-0.6-0.5-0.5-1-0.2-1.5c2.3-1.1,3.8-2.8,3.2-5.5c-1.5,0.6-2.9,1.1-4.4,1.7c-0.1-0.2-0.2-0.2-0.4-0.1c1.2-2.1,2.8-3.7,4.9-4.9
		c3-1.7,4.3-4.4,5.1-7.6c-1.5-0.2-2.8,1.7-4.1,0c0.5-0.3,1.1-0.5,1.3-1c1.8-3.5,5-6.2,5.9-10.2c0.3-1.3,1.2-1.7,2.3-1.7
		c1.2-0.1,1,1.1,1.2,1.9c0.5,1.9,0.7,3.9,1.5,5.6c1.5,3,2.7,6.5,6.8,7c0.2,1.7-0.8,1.2-1.8,1.1c-1.7-0.2-2.4-2.2-4.1-2.3
		c-0.2,0-0.5,0-0.7,0c0.1,0.2,0.2,0.5,0.3,0.7c0.7,2.3,2.7,3.6,3.9,5.5c1.5,2.3,1.8,5.2,4.2,6.8c-0.5,0.1-1.2,0.1-1.8,0.2
		c-2.1,1.2-4.1,2.3-2.1,5.1c0.2,0.3,0.3,0.7,0.5,1c0.1,0.7,0.1,1.4,0.8,1.7c2.5,1.1,3.7,3.5,5.5,5.4c-1.8,0.9-3.5-0.8-5.4-0.1
		c0.7,0.6,1.3,1,1.7,1.5c0.9,1.4,0,5.3-1.2,5.1c-1.2-0.2-2.3-0.4-2.6,0.9c-0.3,1.1,1,1.7,1.8,2.3c2.4,1.8,5,3.2,8.4,4.4
		c-2.9,1.2-5.2,0.8-7.4,0c-0.6-0.3-1.3-0.5-1.8,0.2c-0.4,0.8,0.2,1.3,0.7,1.7c1.5,1.4,3.2,2.6,4.8,3.9c0.4,0.4,1.5,0.5,1,1.4
		c-0.4,0.8-1.2,0.9-2,0.7c-1.5-0.4-2.9-0.9-4.4-1.4c-0.8-0.3-1.7-1.1-2.6-0.2c-0.9,1,0,1.8,0.5,2.6c1.2,2,2.7,3.8,4.6,5.3
		c1.5,1.1,3,2.3,4.5,3.5c0.7,0.6,0.8,1.2-0.3,1.6c-0.7,0.2-1.4,0.4-2,0.6c0.1,1.2,2.1,1.2,1.5,2.3c-0.8,1.3-2.4,0.3-4.2,0.5
		c1.9,0.9,3.3,1.7,4.8,2.3c1.4,0.6,1.6,1.5,1.2,2.9c-1.2,3.6,0.2,6,4.1,7.1c1.9,0.5,4.1,0.9,2.1,3.9c2.7-1.6,5.1-3.4,5.8-6
		c0.9-4,4.3-6.5,5.2-10.4c0.3-1.4,1.5-1.5,2.5-1.2c1.2,0.3,0.5,1.3,0.3,1.9c-1,3.5-1.2,7.1-0.6,10.6c0.3,2,0.4,4.7,2.1,5.7
		c1.7,1.1,2.4,2.2,2.8,3.8c-0.2,0.2-0.2,0.2-0.4,0.4c-2.3,1.1-3.5-0.7-5.7-2.4c1.7,3.3,3.1,5.7,5.4,7.7c0.8-1.5,1.2-2.9,2.5-3.8
		c0.5-0.3,0.5-0.7,0.2-1.2c-1-2.4,0.1-4.4,2.6-4.2c6,0.4,11-2.6,16.3-4.5c2.5-0.9,3.2-2.8,3.8-5.6c-1.8,1.2-2.9,2.2-4.2,2.9
		c-2.1,1.1-4.6,3.8-6.5,2.9c-3.3-1.5-6.3-0.5-9.4-0.5c-0.8,0-1.2,0-1.4-0.8c-0.4-2.1-1.8-3.4-3.5-4.8c2.7,1.2,5.3-1.1,7.4-0.4
		c5.2,1.8,9.1-0.2,13-2.9l0,0c0-0.1,0-0.1,0.1-0.2c-2.4-0.5-5,1.2-7.4,0.2c0.5-1.8,2.8-1.6,3.3-3.2c-1.6-0.3-2.8,0.8-4.2,0.8
		l0.1,0.1c-3.5,0.4-6.4-2.1-9.8-2.4c-0.8-0.1-0.8-0.6-0.6-1.2c0.6-2.8,1.5-3.5,3.8-1.7c2.2,1.7,4.1,1.1,6.1,0.8c0.5,0,0.9,0,1.4-0.2
		c1.8-0.5,3.7-1.1,5.1-3c-3.7,0.3-7,2.3-10.4-0.2c2.2-1,4.5-1.2,6.8-2.9c-3.3,0.1-5.8-0.2-7.8-2.4c4.3,1,8.2-0.2,11.8-2.1
		c3.8-2,5.4-2.4,7.4-8.7c-8.9,4-10.8,4.2-12.7,1.2c1.1-0.3,2.1-0.5,3.1-0.8c2.3-0.8,4.7-1.7,6.3-3.7c0.4-0.6,1.2-1.2,0.6-2
		c-0.5-0.6-1.3-0.2-1.8,0.1c-4,2.3-7.5-0.2-11.2-1c-0.8-0.2-1.6-0.8-1.3-1.9c0.3-0.9,1.3-0.9,2-0.7c1.5,0.5,2.9,0,5.1-0.4
		c-3.1-1.2-6.7-0.4-8-3.8c0.5-0.5,0.9-0.2,1.4,0c4.4,2.2,8.7,1.1,12.7-0.5c2.6-1.1,5.3-2.3,7.1-4.7c1-1.3,1.5-2.9,0.6-4.1
		c-1-1.4-2.2,0.1-3.3,0.5c-3.6,1.4-7.1,2.1-11.1,0.8c1.1-1.5,2.9-0.7,4.1-1.9c-0.7-0.2-1.2-0.4-1.7-0.5c-0.9-0.2-2.5-0.4-2.2-1.6
		c0.2-1.2,1.8-0.7,2.8-0.5c1.6,0.3,3,0.2,4.5-1c-1.6-1-3.6-0.6-4.7-2.1c-0.7-0.8-1-1.7-0.5-2.7c1.3,0,1.7,1.4,2.8,1.7
		c0.2,0.1,0.4,0.1,0.6,0.2c0.4,0,0.7-0.1,1.1-0.1c2.9,1.3,5.6,0.4,8.4-0.6c-1.2-1.6-2.6-1-3.7-1.5c-0.5-0.2-1.6-0.2-1.5-1.1
		c0.2-0.9,1-0.8,1.8-0.7c3.8,0.4,6-1.9,5.7-5.5c-0.1-0.5-0.2-0.9-0.8-0.8c-0.7,0.2-1.5,0.4-1.7-0.5c-0.3-0.9,0.8-1.1,1.3-1.6
		c0.5-0.3,0.8-0.8,1.2-1.2c0.5-0.8,1.7-1.6,1.2-2.4c-0.6-1.1-1.7-0.2-2.5,0c-0.8,0.1-1.5-0.4-2.1-1c3.2-1.7,6.3-3.4,7.8-7.3
		c-2.5,0.7-4.2,1.8-6.4,2c-0.7,0.1-1.6,0.7-1.8-0.5c-0.2-0.8,0.8-0.9,1.4-1.1c2.4-0.6,4.1-2.1,5.4-4c1.2-1.7,2.2-3.4,3.8-5
		c1.1,2,1.5,3.6,1,5.6s-0.9,4.1-0.2,6.1c1.4,3.8,2.6,7.7,5.4,10.9c0.5,0.5,0.8,1.1,1.1,1.7c0.5,0.8,0,1.2-0.8,1.2
		c-1.2,0.1-1.8-0.8-2.8-1.3c-1.2-0.7-1.5-2.5-3.4-2.4c0.3,3.1,0.8,5.7,3.9,7.3c2.7,1.4,5.8,1.3,9.3,2.4c-2.6,1.2-4.5,2-6.7,2
		c-0.5,0-1.6-0.2-1.3,0.9c0.6,2.6-1.1,2-2.4,1.5c-2-0.7-3.5-2.2-5-3.5c0.9,7.9,5.5,12,13.8,12c-1.7,2.6-4.7,1.5-6.8,2.9
		c0.9,1,1.8,1.7,3,1.9c1,0.2,1.8,0.7,1.6,1.7c-0.2,1.1-1.3,0.8-2.1,0.8c-0.5,0-1.2-0.2-1.7-0.2c-3.3-0.2-5.3-2.9-8.2-3.8
		c-0.8-0.3-1.4-0.7-2.1,0s-0.5,1.4,0,2c2.4,2.9,4.5,6.2,8.2,7.9c4,1.8,7.8,4.1,12.3,4.5c0.4,0.1,1,0.2,0.8,1.1
		c-2.1,0.9-4.4,0.8-6.7,0.7c-1,0-2.5-0.5-2.2,1.1c0.2,1.4-1.2,3.5,1.2,4.1c1.2,0.3,2.8,1.1,3.3-1.2c0.2-1,1.2-1.6,2.2-1.4
		c1.2,0.2,1.8,1.1,1.9,2.2c0.2,2.3-0.3,4.4-3,5.3c2.1,2,5,1.8,7.3,2.9c1.1,0.5,1.9-0.4,2.2-1.5c-2.5-0.7-2.3-2-0.7-3.5
		c4.4-4.3,7.5-9.4,9-15.4c0.3-1.3-0.1-3.6,2.1-3.4c1.8,0.2,1.2,2.6,1.8,3.8c0.2,0.4,0.1,0.9-0.1,1.4c-1.5,4.4,0.4,8.3,2.1,12.2
		c0.9,1.9,2.1,3.9,4.8,3.9c0.9,0,1.2,0.6,1,1.4s-0.8,0.8-1.4,0.7c-1.9-0.5-4.1-0.2-5.8-2c-0.2,2,0.4,3.5,0.5,5
		c0.3,3,2.3,3.7,4.6,3.2c4.9-1.1,8.1-4.8,12.3-7.7c-2.7-0.8-3.8,1.8-6.1,1.2c1.1-2.3,4.7-3.3,2.9-6.6c-0.5,0.2-1,0.4-1.5,0.5
		c-0.8,0.2-1.7,1.3-2.2,0.3c-0.6-1.1,0.8-1.4,1.5-2c0.2-0.2,0.5-0.2,0.8-0.4c5.4-3.8,9.8-8.2,11.8-14.6c-0.3,0.2-0.7,0.2-1,0.4
		c-0.7,0.4-1.2,1.7-2.1,0.8c-0.6-0.6,0.5-1.3,0.8-1.9c1.6-3.1,4.5-5.4,5.9-8.8c1-2.2,1.8-4.8,4.3-6.4c1,1.1,0.9,2.3,0.8,3.5
		c-0.5,4.8,1.2,9.2,2.5,13.7c0.4,1.3,2.9,2.9-0.6,3.7c-0.5,0.2,0,0.8,0.2,1.2c1,2.2,2,4.4,3.1,6.5c0.8,1.6,0.3,2-1.2,2.1
		c-0.2,1.3,1.9,1.3,1.6,2.6c-2.4,1-4.1-0.3-6.1-1.4c3.8,5.8,3.1,13.2,8.3,18.7c-2.9-0.1-4.1-2.2-6.1-2.4c1.1,3.2,4.6,3.6,6.8,5.5
		c0.6,0.5,0.8-0.2,1-0.8c1.1-4.1,2.2-8.2,6.9-9.9c0.5-0.2,1.1-0.8,1.4-1.4c0.9-1.7,2.4-2,4.1-1.9c2.4,0.2,4.6-0.3,6.8-1.5
		c3.9-2.1,8-4.7,12.9-2.7c0.2,0.1,0.6,0.1,0.8-0.1c2.6-1.1,4.8-0.3,6.9,1.3c2.1,1.5,4.1,1.2,5.7-1c2-2.8,4.8-5.3,4.7-9.1
		c0-1,0.9-1.4,1.6-1.9c3.2-2.6,7.1-3.6,10.8-5.2c3.5-1.6,7.7-2.1,10.6-4.8c2.8-2.6,5.8-5,9.1-6.8c1.9-1.1,2.4-2.2,1.1-4
		c-1.5-2-1.5-4.3-0.8-6.7c1.2-3.6,2.1-7.2,3.2-10.8c2-6.3,0.5-11.7-4.7-15.9c-4.1-3.5-6.8-8.2-10.7-12c-0.5-0.5-0.9-1.1-0.9-1.7
		c0-1.7-0.8-2.8-1.9-3.6c-3.2-2.3-2.8-5.2-2.1-8.4c1.2-5.6,3.3-10.9,4.5-16.5c1.2-5.1,3.4-6.4,7.4-6.4c4.8,0,9.7,0.2,14.5,0.5
		c9,0.6,18,0.6,27,0.5c3.7-0.1,7.4-0.7,11.1,0.5c1.2,0.4,2.2,1.4,3.7,1.4c3.5,0.1,7.1,0.4,10.6,0.6c4,0.2,3.8,0.2,4-3.8
		c0.1-2.9-0.6-5.9,0.8-8.9c0.2,3.2,0.5,6.4,0.7,9.6c0.7-1.9,0.3-3.8,0.5-5.6c0.6-5.9,1.2-11.8,1.2-17.8c-0.1-1.9,0-4.7,1.8-5.4
		c1.4-0.5,1.4-1.1,1.5-2c0.2-2.3,0.2-4.7,0.5-7c1.5-9.5,1.2-19.2,4.5-28.3c0.2-0.5,0.2-1,0.8-1.1c0.8-0.1,0.9,0.6,1,1.1
		c0.3,1.4,0.2,2.9,0.1,4.4c1.1-2.9,0.5-6.2,2.5-9c-0.2,13.4-2.3,26.6-3.5,39.9c1.8-3.2,1.3-7.1,3.9-9.9c-0.5,8.7-3.1,17-3.5,25.6
		c1.5,0.8,0.2,2.5,1.2,3.6c6.2-6,12.4-11.8,18.2-18.1c1-1.1,1.9-2,3.5-2.4c6-1.4,11.4-3.6,16.5-7.4c3.5-2.6,7.8-4.1,10.2-7.9
		c0.4-0.7,1.4-1.1,2.1-1.4c4.5-1.5,8.6-4,12.9-5.9c4.9-2.2,9.9-4.1,11.5-9.9c0.2-0.5,0.7-0.7,1.2-0.4c2.1,1.4,2.6-0.5,3-1.7
		c1.5-4.1,2.8-8.2,5.1-12c1.6-2.6,1.8-6,3.6-8.5c5.4-7.7,4.9-16,3.5-24.6c-0.2-2.5-0.4-5-0.5-7.5c-0.5-13.6-1.2-27.3-0.9-40.9
		c0.1-4.1-0.3-8.3-0.5-12.6c0-1,0.4-1.7,1.3-1.9c1.2-0.2,1.4,0.8,1.5,1.7c0.2,1.7,0.3,3.4,0.5,5c-0.2,0.5-0.2,1,0.1,1.4
		c0,1.1,0.1,2,0.1,3.1c-0.5,8.1,1.6,15.8,3.5,23.5c0.1,2,0.2,3.9,0.3,5.8c0.1,5,0.2,9.9,0.1,14.8c-0.1,2.1-0.2,3.8,2.6,3.8
		c0.1,0.8,0.2,1.4,0.3,2.2c1,1.3,1.9,2.6,2.9,3.8c0.2,0.2,0.4,0.5,0.6,0.7c2.4,0.4,3,2.6,4.5,3.8l0.2,0.2c0.4,0.3,0.7,0.7,1,1.1
		c0.2,0.2,0.3,0.3,0.5,0.5c0.3,0.4,0.6,0.8,0.8,1.2c0.4,2.3,2.4,3.3,3.9,4.6c1.2,1,1.6,3.4,3.1,3.2s2.9-1.7,4.3-2.6
		c0.3-0.2,0.5-0.5,0.8-0.8c0.2-0.3,0.5-0.6,0.2-1c-2.1-3.4,0.3-6.2,1.2-9.3c0.8-0.9,0.8-2,0.8-3.1c0.8-1,2-1.4,3.1-2
		c1.2-0.6,2.1-1.4,3-2.6c0,0.2,0.1,0.2,0.2,0.3c1,1.3,2.4,1.4,3.8,0.9c-0.2,0.2-0.2,0.6-0.5,0.7c-2.6,0.7-3.3,1.9-1.3,4
		c0.2,0.2,0.2,0.5,0.2,0.8c-0.1,4,3.2,5.6,5.8,7.6c1,0.7,1.5,0.2,2.1-0.6c1-1.2,2.7-2.4,3.8-2c2.2,0.8,3.1-0.7,4.5-1.5
		c2.3-1.4,4.1-3.7,7.6-2.9c1.8,0.5,3.5-1.3,4.6-2.9c0.6-0.8,0.8-2.3-0.6-2.9c-1.8-0.6-2.8-2.3-4.9-2.7c3.1-1.1,6.3-2,9.6-3.8
		c-2.1,0.1-3.9,0.5-4.8-1.4c2.3-0.9,2.3-3.6,4.4-5c-1.7,0.2-3-0.2-4.2-0.5c-0.5-0.2-1.2-0.2-1.2-1c-0.1-0.8,0.6-1.2,1.2-1.4
		c4.4-1.1,7.6-4,11.1-6.5c0.1-0.2,0.4-0.5,0.3-0.5c-0.3-0.4-0.6-0.2-0.8,0.1c-1.2,0.4-2.5,0.8-3.8,1.2c-0.8,0.3-1.5,0.4-1.9-0.5
		c-0.5-0.9,0-1.4,0.7-1.9c0.5-0.3,0.8-0.8,1.3-1.1c3.1-1.5,5.1-4,7.6-6.2c-2.4-0.7-2.7-1.4-0.8-3.4c4.9-5.2,7.1-11.8,10.1-18.1
		c1.1-2.3,1.6-5,4.2-6.7c0.2,1.6,0.7,2.9,0.6,4.1c-0.5,5.8,1.5,11,3.9,15.9c1.6,3.4,1.3,5.5-1.7,7.1c-0.7,0.4-1,1.1-0.8,2
		c0.4,0.9,0.7,1.9,1.5,2.6c1.3,1.3,2.9,2.4,3.8,4.1c0.8,1.5-0.5,3.8-2.8,3.8c3,0.7,4.8,2.3,7.1,3.3c0.9,0.4,1.5,0.5,2.5,0.1
		c1.3-0.6,0.2-1.2,0.1-1.8c-0.4-1.7,0.8-1.7,1.8-1.6c2.5,0.4,4.9,0.1,7.1-1.2c2.6-1.7,5.5-2.9,8.4-4.1c1.5-0.6,2.8-2.1,4.8-0.4
		c1.1,1,0.3-0.3,0.3-0.6c0.1-0.8,0.8-0.7,1-0.5c1.2,2.4,3.2-1.8,4.3,0.7c0.5-1.7,2.3-0.7,3.3-1.3c3.8,0.2,7.2,1.3,9.4,4.6
		c0.2,0.4,0.9,0.5,1.4,0.8c3.1,2.2,7.4,2.1,10.2,4.8c1.6,1.6,2.5,1.1,3.4-0.5c0.8-0.5,0.8-1.4,1-2.2c0.6-3.1,2.2-5.2,4.4-6.1v-16.9
		v-65.6l-16.9-15.9l-19.2-17.2V66l-52.2-8.9c0,0-26.9-13.3-38.4-17.2s-23-13.3-35.3-23.8s-75.2-12.2-75.2-12.2l-9.2-3.9l-23.8,5
		l1.5,15l6.1,18.3l-5.4,28.3l-10,12.2l-6.9,15l2.3,22.7l14.6,25.5l-10,17.8c0,0-6.9,25.5-16.1,31.1s-13.8,7.2-13.8,7.2v16.1v7.7
		l-6.1,5.6l-14.6-5.6h-6.9l-43.7,40.5l-18.4-1.7l-23.8-7.2h-20.7c0,0-5.4-6.1-29.2-10.5s-30.7-7.2-30.7-7.2l-13,3.3l-10.7,4.4
		l-5.4,1.1l-16.1,10.5l-12.3-2.3l-8.4,2.3c0,0-6.9-0.5-13,3.9s-45.3,9.4-45.3,9.4l-2.3-0.5l-3.8-1.7l-2.3-2.8l-3.1-0.3l-6.9-2.3
		h-8.4l-6.1-2.3l-4.6-1.7l-4.6-1.7L740,254l-3.1-2.8l-2.3-1.1l-6.1-1.7l-6.1-3.3v1.7l-10.7-3.9v7.2l-6.1,5l-3.8-1.7l-3.1-0.5
		l-2.3-1.7l-3.1-1.1l-6.1-4.4l-1.5,3.9l-6.9-2.8c0,0-3.8-3.9-4.6-5s-13-2.8-13-2.8l-8.4,10.1l-4.6,2.8l-3.8-1.1l-3.1,3.9v4.4
		l-5.4,1.7l-10.7,8.9l-3.8-1.1l-22.3,2.2l-35.3-5.6l-7.7,6.7l-23.5-6.8l-34.8-39l-63.1-37.7l0.4,8.4l-53.3-37.6l-8.3,0.7l-52.1-27.3
		H301l-19-18.2l-14.2-24.7l-104.1,41l-9.4-5.2l-28.1,12.4l-58.4,26l-21.3,45.5l-14.2-1.3l-31.2,22C0.4,237.6-0.6,245-0.8,252.4z
		 M1280.6,213.6c-0.3,0.6-0.7,1.2-1.1,1.7C1279.1,214.7,1279.4,214.1,1280.6,213.6z M952.5,339.8c0,0,26.9,1.1,38.4,1.1
		c1.5,3.9-8.4,2.3-8.4,2.3s-9.4,7.4-4.6,6.6c5.8-0.9,50.7,1.7,64.5,2.3c6.1,1.4,0,2,0,2l1.5,1.7c0,0-2.3,2.8-5.4,2.3
		c3.1,2.3-13.8,6.1-16.9,7.2c-3.8-1.7-3.1-5.6-3.1-5.6s-1.5,5-8.4,5.6s-16.1-0.5-16.1-0.5s-1.5-7.7-6.9-6.6s-21.5,2.8-21.5,2.8
		s-10.7-6.1-9.2-7.7c1.5-1.7-5.4-10-5.4-10L952.5,339.8z M873.5,314.1c-11.5-1.1-16.1-3.9-16.1-3.9c0-1.7,2.3-0.5,3.1-0.5
		s2.3-1.1,9.2,0.5c10,0.6,41.4,0.6,39.9,0.6s-12.3,5-12.3,5s-1.5,5-6.1,3.9s-25.3,5-26.1,6.6c-0.8,1.7,3.8,0.5,3.8,0.5
		s22.5-0.1,19.2,1.7c-2.9,1.5-11.5,4.2-12.3,3.9c0,0-0.8-2.2-10.7-1.1c-10,1.1-13.8-5-13.8-5s1.5,2.8-7.7,0.5c0-1.7-2.3-1.7-2.3-3.3
		C844.3,319.6,873.5,320.7,873.5,314.1z M802.9,305.3c2.5-0.6,9-0.4,16.1,0c2.2,0.1,2.3,0.8,0,2.2c-2.3,1.7-12.3,1.7-13.8,1.1
		C803.6,307.5,801.3,305.8,802.9,305.3z"/>
	<path class="st1" d="M635.2,391.4c-0.2-0.2-0.3-0.1-0.2,0.2c0.1,0.1,0.2,0.1,0.3,0.2C635.4,391.7,635.4,391.5,635.2,391.4z"/>
	<path class="st1" d="M888.8,459.4c1.1-0.5,2.2-1,2.9-2.2c-1.2,0.5-2.5,0.7-2.9,2.1c0.1,0,0.1,0,0.2,0
		C889,459.3,888.9,459.4,888.8,459.4z"/>
	<path class="st1" d="M804.7,458.5c-0.9,0.1-1.7,0.3-2.6,0.4c0,0.1,0,0.2,0,0.2C803.4,460.3,803.5,460.2,804.7,458.5z"/>
	<path class="st1" d="M325.3,290.9c-0.2-0.6-0.5-1.1-1.1-1.3c-0.5-0.1-0.8,0.2-0.7,0.7c0.1,0.6,0.3,1.2,1,1.3
		C325,291.7,325.3,291.5,325.3,290.9z"/>
	<path class="st1" d="M498.4,359.6C498.4,359.5,498.4,359.5,498.4,359.6c0-0.1,0-0.2,0-0.2C498.3,359.5,498.3,359.5,498.4,359.6
		c-0.1,0-0.2,0.1-0.2,0.2v0.1h0.1C498.4,359.8,498.4,359.7,498.4,359.6z"/>
	<path class="st1" d="M833.4,415.7c-0.2-0.2-0.2-0.4-0.4-0.5c-0.2,0.1-0.2,0.2-0.4,0.3c0.1,0.2,0.2,0.4,0.3,0.4
		C833.1,416,833.2,415.8,833.4,415.7z"/>
	<path class="st1" d="M583.3,378.4c0-0.7-0.2-1.1-0.6-1.4c-0.5-0.2-0.7,0.2-0.5,0.6c0.2,0.5,0.5,0.8,0.7,1.2
		C583,378.7,583.1,378.5,583.3,378.4z"/>
	<path class="st1" d="M584.7,375.1c0.1,0.2,0.1,0.2,0.2,0.4C584.8,375.3,584.8,375.2,584.7,375.1c-0.1-0.2-0.1-0.2-0.2-0.2
		c-0.2-0.3-0.4-0.6-0.5-0.8c-0.1,0.1-0.2,0.1-0.1,0.3c0.2,0.2,0.5,0.4,0.7,0.6C584.7,375,584.7,375,584.7,375.1z"/>
	<path class="st1" d="M495.4,375c-0.2,0.4-0.4,0.8-0.5,1.3C495.1,375.9,495.3,375.5,495.4,375z"/>
	<path class="st1" d="M574.3,369.5c-0.1,0.2-0.1,0.2-0.2,0.4C574.2,369.7,574.3,369.6,574.3,369.5z"/>
	<path class="st1" d="M530.5,411.7c-1.1-0.4-1.8-1.2-2.1-2.3c-0.5-1.5-0.8-3.1-1.3-5c-0.5,2-0.1,3.6,0.3,5.1
		c0.6,2.3,2.7,3.8,3.6,5.9c0.5,1.1,1.6,2.7,0.2,3.5c-1.1,0.6-1.5-1.2-2-2.1c-0.2-0.5-0.3-1.1-0.9-1.1c0.8,4.5,3.8,7.2,7.6,7.2
		c3.5,0.1,6.5-1.3,9.6-2.8c3.5-1.7,5.5-4.3,6.4-7.7c-1.4,0.7-2.7,1.3-4,2c-0.9,0.5-1.9,0.4-2.5-0.5c-0.7-1,0.3-1.4,0.9-2
		c1.6-1.4,3.1-2.9,5.1-3.9c-1.7,0.4-3.1,1.4-4.6,1.7c-1.2,0.3-3.1,1.3-3.6-0.2c-0.5-1.4,1.6-1.7,2.8-2.3c2.2-1.1,4.5-2,6.4-3.4
		c0.2-2.8,0.5-5.6,0.7-8.7c-3.8,3.4-6.8,7.1-11.5,8c-0.8,0.2-2.1,1-2.6-0.2s1.2-1.4,1.7-2.1c0.2-0.2,0.2-0.4,0.3-0.8
		c-3.2,1.4-6.5,1-9.7,1.4c-1.6,0.2-1.8,1-1.5,2.2c0.6,2,0.8,4.3,2.1,6.1c0.3,0.5,0.5,0.9,0.2,1.4C531.5,412,530.9,411.8,530.5,411.7
		z"/>
	<path class="st1" d="M946.6,465.4c-0.8-1.1-1.8-2.2-2.8-3.4c-0.9,1.8-3,3.3-0.5,5.3c0.5-0.6,1.1-0.5,1.8-0.4
		c1.8,0.4,3.6,0.7,5.4,0.9c1.9,0.2,3.5-1.7,2.8-2.5c-1.5-2,0-2.6,1.4-3.7c-1.9-0.2-3.9-0.1-4.5-1.5c-0.5-1.4,1.7-0.2,2.3-1.6
		c-2.6,0.1-4.6-1.7-7.2-1.3c0.8,2.6,2.7,4.8,1.7,7.6C946.9,465,946.8,465.2,946.6,465.4z"/>
	<path class="st1" d="M979.8,438.1c0.1,0.6,0.5,1,1.1,1.1C980.7,438.5,980.4,438.1,979.8,438.1z"/>
	<path class="st1" d="M904.8,403c-0.1,0-0.2,0.2-0.2,0.2c0.1,0.5,0.4,0.5,0.8,0.5C905.4,403.3,905.4,402.9,904.8,403z"/>
	<path class="st1" d="M769.4,439c0,0-0.1,0-0.2,0C769.3,439,769.4,439.1,769.4,439C769.5,439,769.4,439,769.4,439z"/>
	<path class="st1" d="M978.7,436.4c0.3-0.4-0.1-1.1-0.7-1.2c-0.5,0.2-0.4,0.5-0.2,0.8C978,436.2,978.1,437,978.7,436.4z"/>
	<path class="st1" d="M1341.7,196.1c-0.2-0.1-0.3-0.2-0.5-0.2c-0.1,0-0.2,0.2-0.2,0.4c0.2,0.1,0.3,0.2,0.5,0.2
		C1341.5,196.5,1341.5,196.2,1341.7,196.1z"/>
	<path class="st1" d="M749.3,421.6c0.5-0.2,0.6-0.6,0.7-1.1c-0.5,0.1-0.8,0.4-0.9,0.9C749.1,421.5,749.2,421.6,749.3,421.6z"/>
	<path class="st1" d="M547.7,348.8c-0.4,0.4-0.8,0.7-1.7,1.4C547.3,349.8,547.5,349.2,547.7,348.8z"/>
	<path class="st1" d="M867.1,491.6c-1-1.1-1.3-2.6-3-2.2c-0.5,0.1-0.8,1.1-0.5,1.7C864.5,492.6,865.6,492.2,867.1,491.6z"/>
	<path class="st1" d="M747.6,423.5c0.1-0.1,0.2-0.2,0.2-0.4c-0.1,0-0.2-0.1-0.2-0.1c-0.1,0.1-0.2,0.2-0.2,0.4
		C747.4,423.4,747.5,423.5,747.6,423.5z"/>
	<path class="st1" d="M747.6,441.9c-0.2,0.2-0.2,0.4-0.4,0.6C747.4,442.4,747.9,442.4,747.6,441.9z"/>
	<path class="st1" d="M1261.3,237.4c0.6-0.2,1.5,0,1.7-0.8s-0.6-1.4-1.2-1.7c-1.5-1.2-3.7-1.7-5.2-3.5c0,0.9-0.1,1.8,0,2.7
		C1256.9,238.7,1257,238.8,1261.3,237.4z"/>
	<path class="st1" d="M926.1,450.8c-0.5-0.5-1.6-1.2-2-0.5c-1.1,1.7-2.6,1-4.1,1.1c-3.5,0.2-4.1,0.8-3.1,4.1
		c0.4,1.3,0.6,2.6,0.8,3.8c0.3,1.7,1.2,2.6,3,1.7c3.8-1.8,7.2-4.2,10.1-7.3c0.3-0.3,0.9-0.8,0.1-1.5c-3.1,1.2-5.2,4.4-9.9,4.2
		c1.9-1.8,3.3-3,4.7-4.3C926,451.8,926.7,451.4,926.1,450.8z"/>
	<path class="st1" d="M948.2,470.3c-1.8-0.1-2.7-1.7-4.1-2.3C945.3,471.7,945.9,472.1,948.2,470.3z"/>
	<path class="st1" d="M1250.4,240.8c1.8-0.4,4.8-0.3,4.8-2.6c0-3-0.6-6.1-0.8-9.2c-0.1-0.6-0.4-1.1-0.9-1.4
		c-2.1-1.1-3.5-3.1-5.3-5.3c-0.2,5.8-0.4,11.1,1.1,16.2C1249.4,239.4,1248.9,241.2,1250.4,240.8z"/>
	<path class="st1" d="M878,487.2c-1.9,0.5-3.5,0.9-5-0.8c-0.6-0.7-2.8-0.6-3.3,0.9c-0.3,0.8-1.3,2.4,0.6,3
		C871.8,490.8,876.7,488.9,878,487.2z"/>
	<path class="st1" d="M953.7,472.4c-4.4,0.2-7.7,3.7-12.2,4C945.8,479.7,952,477.5,953.7,472.4z"/>
	<path class="st1" d="M888.3,482.2c1.9-0.7,3.7-1.5,3.2-4.1c-1.6,0.2-2.8,1.4-4.2,2c-0.6,0.3-1,1-0.5,1.7
		C887.1,482.3,887.7,482.4,888.3,482.2z"/>
	<path class="st1" d="M908.3,438.7c0.7-1-0.1-1.4-0.7-1.7c-2.1-1.5-4.4-2.9-6.3-4.8c1.2,2.6,3,4.8,5,6.9
		C906.9,439.7,907.8,439.4,908.3,438.7z"/>
	<path class="st1" d="M958.6,456.5c0.5,0.6,1.5,0.7,2.3,0c1.2-1,1.7-2.3,2-3.7c-1.2,0.7-2.4,1.4-3.5,2.2
		C959,455.3,957.8,455.6,958.6,456.5z"/>
	<path class="st1" d="M977.6,455.4c-0.1,0-0.4,0.2-0.4,0.2c0.1,0.8,0.6,1.1,1.3,1C978.4,456.1,978.1,455.6,977.6,455.4z"/>
	<path class="st1" d="M980.1,467.9c0.5,0,1.1-1,0.9-1.6c-0.4-1.7-2.1-1-3.4-1.4C978.4,466.1,978.4,467.9,980.1,467.9z"/>
	<path class="st1" d="M1241.5,242.3c-0.5,2.9-2.5,4.7-2.3,7.2C1242.5,248.2,1243.1,246,1241.5,242.3z"/>
	<path class="st1" d="M962,444.9c0-0.1,0-0.2,0-0.2c-0.2,0-0.2,0.1-0.4,0.2c0.1,0.1,0.1,0.2,0.2,0.2
		C961.9,445,961.9,444.9,962,444.9z"/>
</g>
<rect x="0.4" y="586.2" class="st0" width="1412" height="391.9"/>
<g>
	<path class="st1" d="M212.1,607.3v-10.8h1v10.8H212.1z"/>
	<path class="st1" d="M220.6,601.3c-0.2-0.3-0.6-0.7-0.9-0.9c-0.1-0.1-0.2-0.1-0.3-0.1h-0.9c-0.1,0-0.2,0-0.3,0.1
		c-0.3,0.2-1.1,0.6-1.4,1.1v5.7h-1v-6.5l-0.1-1.3h1l0.1,0.9c0.2-0.2,0.5-0.5,0.7-0.6c0.3-0.2,0.6-0.4,0.9-0.4h0.9
		c0.4,0,0.8,0.1,1.1,0.3c0.3,0.2,0.6,0.7,0.8,0.9c0.1,0.1,0.2,0.3,0.3,0.4L220.6,601.3z"/>
	<path class="st1" d="M228.1,599.5h1l-2.5,7.7h-1.4l-2.6-7.7h1l2.1,6.8h0.1L228.1,599.5z"/>
	<path class="st1" d="M231,597.7v-1.4h1.4v1.4H231z M231.2,607.3v-7.7h1v7.7H231.2z"/>
	<path class="st1" d="M239.9,607.3v-5.6c0-0.1,0-0.2,0-0.3c-0.2-0.3-0.6-0.7-0.9-0.9c-0.1-0.1-0.2-0.1-0.3-0.1h-1.3
		c-0.1,0-0.2,0-0.3,0.1c-0.3,0.2-1.1,0.6-1.4,1.1v5.8h-1v-6.5l-0.1-1.3h1l0.1,0.9c0.2-0.2,0.5-0.5,0.7-0.6c0.3-0.2,0.6-0.4,0.9-0.4
		h1.4c0.4,0,0.8,0.1,1.1,0.3c0.3,0.2,0.7,0.7,0.8,0.9c0.2,0.3,0.3,0.6,0.3,1v5.7H239.9z"/>
	<path class="st1" d="M248.5,599.8c0.3-0.2,0.7-0.3,1.1-0.3h1.4c0.3,0,0.6,0.2,0.9,0.4c0.2,0.2,0.4,0.4,0.7,0.6v-4h1v9.5l0.1,1.3h-1
		l-0.1-1c-0.2,0.3-0.5,0.5-0.7,0.7c-0.3,0.2-0.6,0.4-0.9,0.4h-1.4c-0.4,0-0.8-0.1-1.1-0.3c-0.2-0.2-0.7-0.7-0.8-0.9
		c-0.2-0.3-0.3-0.6-0.3-1v-3.6c0-0.4,0.1-0.7,0.3-1C247.8,600.4,248.2,600,248.5,599.8z M248.4,605.5c0.2,0.3,0.6,0.7,0.8,0.9
		c0.1,0.1,0.2,0.1,0.3,0.1h1.3c0.1,0,0.2,0,0.3-0.1c0.3-0.1,1.1-0.7,1.4-1.1c0,0,0,0,0-0.1v-3.6c0-0.1,0-0.1,0-0.1
		c-0.2-0.4-1.1-1-1.4-1.1c-0.1,0-0.2-0.1-0.3-0.1h-1.3c-0.1,0-0.2,0-0.3,0.1c-0.3,0.2-0.7,0.6-0.8,0.9c0,0.1-0.1,0.2-0.1,0.3v3.5
		C248.3,605.3,248.4,605.4,248.4,605.5z"/>
	<path class="st1" d="M261.2,605.4l1,0.3c-0.1,0.1-0.1,0.2-0.3,0.4c-0.1,0.2-0.6,0.7-0.8,0.9c-0.3,0.2-0.7,0.3-1.1,0.3h-1.8
		c-0.4,0-0.8-0.1-1.1-0.3c-0.3-0.2-0.7-0.7-0.8-0.9c-0.2-0.3-0.3-0.6-0.3-1v-3.6c0-0.4,0.1-0.7,0.3-1c0.1-0.2,0.6-0.7,0.8-0.9
		c0.3-0.2,0.7-0.3,1.1-0.3h1.8c0.4,0,0.8,0.1,1.1,0.3c0.3,0.2,0.7,0.7,0.8,0.9c0.2,0.3,0.3,0.6,0.3,1v2.2h-5.2v1.4
		c0,0.1,0,0.2,0.1,0.3c0.2,0.3,0.6,0.7,0.8,0.9c0.1,0.1,0.2,0.1,0.3,0.1h1.9c0.1,0,0.2,0,0.3-0.1
		C260.7,606.2,261.1,605.7,261.2,605.4L261.2,605.4z M256.9,601.6v1.3h4.2v-1.3c0-0.1,0-0.2,0-0.3c-0.2-0.3-0.6-0.7-0.9-0.9
		c-0.1-0.1-0.2-0.1-0.3-0.1h-1.8c-0.1,0-0.2,0-0.3,0.1c-0.3,0.2-0.7,0.6-0.9,0.9C257,601.4,256.9,601.5,256.9,601.6z"/>
	<path class="st1" d="M274.9,601.6v3.6c0,0.4-0.1,0.7-0.3,1c-0.1,0.2-0.6,0.7-0.8,0.9c-0.3,0.2-0.7,0.3-1.1,0.3h-1.4
		c-0.3,0-0.6-0.2-0.9-0.4c-0.2-0.2-0.5-0.4-0.7-0.7l-0.1,1h-1l0.1-1.3v-9.5h1v4c0.3-0.3,0.5-0.5,0.7-0.6c0.3-0.2,0.6-0.4,0.9-0.4
		h1.4c0.4,0,0.8,0.1,1.1,0.3c0.3,0.2,0.7,0.7,0.8,0.9C274.8,600.9,274.9,601.2,274.9,601.6z M273.9,601.6c0-0.1,0-0.2-0.1-0.3
		c-0.2-0.3-0.6-0.7-0.8-0.9c-0.1-0.1-0.2-0.1-0.3-0.1h-1.3c-0.1,0-0.2,0-0.3,0.1c-0.3,0.1-1.1,0.7-1.4,1.1c0,0,0,0,0,0.1v3.6
		c0,0.1,0,0.1,0,0.1c0.2,0.4,1.1,1,1.4,1.1c0.1,0,0.2,0.1,0.3,0.1h1.3c0.1,0,0.2,0,0.3-0.1c0.3-0.2,0.7-0.6,0.8-0.9
		c0-0.1,0.1-0.2,0.1-0.3V601.6z"/>
	<path class="st1" d="M282.1,601.3c-0.2-0.3-0.6-0.7-0.9-0.9c-0.1-0.1-0.2-0.1-0.3-0.1h-0.9c-0.1,0-0.2,0-0.3,0.1
		c-0.3,0.2-1.1,0.6-1.4,1.1v5.7h-1v-6.5l-0.1-1.3h1l0.1,0.9c0.2-0.2,0.5-0.5,0.7-0.6c0.3-0.2,0.6-0.4,0.9-0.4h0.9
		c0.4,0,0.8,0.1,1.1,0.3c0.3,0.2,0.6,0.7,0.8,0.9c0.1,0.1,0.2,0.3,0.3,0.4L282.1,601.3z"/>
	<path class="st1" d="M290,607.3l-0.1-0.9c-0.2,0.2-0.5,0.5-0.7,0.6c-0.3,0.2-0.6,0.4-0.9,0.4h-1.4c-0.4,0-0.8-0.1-1.1-0.3
		c-0.3-0.2-0.7-0.7-0.8-0.9c-0.2-0.3-0.3-0.6-0.3-1v-5.7h1v5.6c0,0.1,0,0.2,0,0.3c0.2,0.3,0.6,0.7,0.9,0.9c0.1,0.1,0.2,0.1,0.3,0.1
		h1.3c0.1,0,0.2,0,0.3-0.1c0.3-0.2,1.1-0.6,1.4-1.1v-5.8h1v6.5l0.1,1.3H290z"/>
	<path class="st1" d="M299.2,599.5l-3.5,10.8h-1l1-3h-0.4l-2.5-7.7h1l2.1,6.8h0.1l2.1-6.8H299.2z"/>
	<path class="st1" d="M306.2,607.3v-5.6c0-0.1,0-0.2,0-0.3c-0.2-0.3-0.6-0.7-0.9-0.9c-0.1-0.1-0.2-0.1-0.3-0.1h-1.3
		c-0.1,0-0.2,0-0.3,0.1c-0.3,0.2-1.1,0.6-1.4,1.1v5.8h-1v-6.5l-0.1-1.3h1l0.1,0.9c0.2-0.2,0.5-0.5,0.7-0.6c0.3-0.2,0.6-0.4,0.9-0.4
		h1.4c0.4,0,0.8,0.1,1.1,0.3c0.3,0.2,0.7,0.7,0.8,0.9c0.2,0.3,0.3,0.6,0.3,1v5.7H306.2z"/>
	<path class="st1" d="M314.8,605.4l1,0.3c-0.1,0.1-0.1,0.2-0.3,0.4c-0.1,0.2-0.6,0.7-0.8,0.9c-0.3,0.2-0.7,0.3-1.1,0.3h-1.8
		c-0.4,0-0.8-0.1-1.1-0.3c-0.3-0.2-0.7-0.7-0.8-0.9c-0.2-0.3-0.3-0.6-0.3-1v-3.6c0-0.4,0.1-0.7,0.3-1c0.1-0.2,0.6-0.7,0.8-0.9
		c0.3-0.2,0.7-0.3,1.1-0.3h1.8c0.4,0,0.8,0.1,1.1,0.3c0.3,0.2,0.7,0.7,0.8,0.9c0.2,0.3,0.3,0.6,0.3,1v2.2h-5.2v1.4
		c0,0.1,0,0.2,0.1,0.3c0.2,0.3,0.6,0.7,0.8,0.9c0.1,0.1,0.2,0.1,0.3,0.1h1.9c0.1,0,0.2,0,0.3-0.1
		C314.2,606.2,314.6,605.7,314.8,605.4L314.8,605.4z M310.5,601.6v1.3h4.2v-1.3c0-0.1,0-0.2,0-0.3c-0.2-0.3-0.6-0.7-0.9-0.9
		c-0.1-0.1-0.2-0.1-0.3-0.1h-1.8c-0.1,0-0.2,0-0.3,0.1c-0.3,0.2-0.7,0.6-0.9,0.9C310.5,601.4,310.5,601.5,310.5,601.6z"/>
	<path class="st1" d="M318.6,608.8h-1.1l1.2-3l1,0.3L318.6,608.8z"/>
	<path class="st1" d="M331.9,601.6l-3.8,2c-0.3,0.2-0.6,0.5-0.6,0.8v1.8h5.3v1h-6.4v-2.9c0-0.8,0.4-1.3,1.2-1.7l3.8-2
		c0.3-0.2,0.5-0.5,0.5-0.8v-1.2c0-0.1,0-0.2-0.1-0.3c-0.2-0.3-0.6-0.7-0.9-0.9c-0.1-0.1-0.2-0.1-0.3-0.1h-2c-0.1,0-0.2,0-0.3,0.1
		c-0.4,0.2-1,0.9-1.2,1.4l-1-0.3c0.1-0.3,0.3-0.5,0.4-0.7c0.3-0.3,0.7-0.9,1.1-1.1c0.3-0.2,0.6-0.3,0.9-0.3h2c0.4,0,0.8,0.1,1.1,0.3
		c0.2,0.2,0.8,0.8,0.9,1c0.2,0.3,0.3,0.6,0.3,0.9v1.3C333,600.6,332.5,601.2,331.9,601.6z"/>
	<path class="st1" d="M341.8,606c-0.1,0.2-0.7,0.8-0.9,1c-0.3,0.2-0.7,0.3-1.1,0.3h-2.3c-0.4,0-0.8-0.1-1.1-0.3
		c-0.2-0.2-0.8-0.8-0.9-1c-0.2-0.3-0.3-0.6-0.3-0.9v-6.5c0-0.3,0.1-0.7,0.3-0.9c0.1-0.2,0.7-0.8,0.9-1c0.3-0.2,0.7-0.3,1.1-0.3h2.1
		c0.3,0,0.7,0.1,0.9,0.3c0.4,0.2,0.9,0.8,1.1,1.2c0.1,0.2,0.3,0.5,0.4,0.7l-1,0.3c-0.2-0.5-0.8-1.2-1.2-1.3c-0.1,0-0.2-0.1-0.3-0.1
		h-2c-0.1,0-0.2,0-0.3,0.1c-0.3,0.2-0.7,0.6-0.8,0.9c0,0.1-0.1,0.2-0.1,0.3v2.8c0.2-0.2,0.4-0.5,0.6-0.6c0.3-0.2,0.6-0.3,0.9-0.3
		h1.9c0.4,0,0.8,0.1,1.1,0.3c0.2,0.2,0.8,0.7,0.9,0.9c0.2,0.3,0.3,0.6,0.3,1v2.3C342.1,605.5,342,605.8,341.8,606z M341,602.8
		c0-0.1,0-0.2-0.1-0.3c-0.2-0.3-0.6-0.7-0.8-0.9c-0.1-0.1-0.2-0.1-0.3-0.1H338c-0.1,0-0.2,0-0.3,0.1c-0.3,0.2-1,0.6-1.3,1.1
		c0,0-0.1,0.1-0.1,0.2v2.2c0,0.1,0,0.2,0.1,0.3c0.2,0.3,0.6,0.7,0.9,0.9c0.1,0.1,0.2,0.1,0.3,0.1h2.2c0.1,0,0.2,0,0.3-0.1
		c0.3-0.2,0.7-0.6,0.8-0.9c0-0.1,0.1-0.2,0.1-0.3V602.8z"/>
	<path class="st1" d="M353.7,607.3l-0.2-0.9c-0.2,0.2-0.5,0.5-0.7,0.6c-0.3,0.2-0.6,0.4-0.9,0.4h-1.6c-0.4,0-0.8-0.1-1.1-0.3
		c-0.2-0.2-0.6-0.6-0.8-0.8c-0.2-0.3-0.3-0.6-0.3-1v-0.4c0-0.4,0.1-0.7,0.3-1c0.1-0.2,0.6-0.6,0.8-0.8c0.3-0.2,0.7-0.3,1.1-0.3h3.1
		v-1.1c0-0.1,0-0.2,0-0.3c-0.2-0.3-0.6-0.7-0.9-0.9c-0.1-0.1-0.2-0.1-0.3-0.1h-1.7c-0.1,0-0.2,0-0.3,0.1c-0.3,0.2-0.7,0.6-0.9,0.9
		l-0.9-0.3c0.1-0.1,0.1-0.3,0.3-0.4c0.2-0.2,0.6-0.7,0.8-0.9c0.3-0.2,0.7-0.3,1.1-0.3h1.7c0.4,0,0.8,0.1,1.1,0.3
		c0.3,0.2,0.7,0.6,0.8,0.8c0.2,0.3,0.3,0.6,0.3,1v4.4l0.2,1.3H353.7z M353.5,605.3v-1.6h-3.1c-0.1,0-0.2,0-0.3,0.1
		c-0.3,0.2-0.7,0.6-0.8,0.9c0,0.1-0.1,0.2-0.1,0.3v0.4c0,0.1,0,0.2,0.1,0.3c0.2,0.3,0.5,0.7,0.8,0.8c0.1,0.1,0.2,0.1,0.3,0.1h1.5
		c0.1,0,0.2,0,0.3-0.1C352.4,606.2,353.2,605.7,353.5,605.3z"/>
	<path class="st1" d="M362.2,607.3v-5.6c0-0.1,0-0.2,0-0.3c-0.2-0.3-0.6-0.7-0.9-0.9c-0.1-0.1-0.2-0.1-0.3-0.1h-1.3
		c-0.1,0-0.2,0-0.3,0.1c-0.3,0.2-1.1,0.6-1.4,1.1v5.8h-1v-6.5l-0.1-1.3h1l0.1,0.9c0.2-0.2,0.5-0.5,0.7-0.6c0.3-0.2,0.6-0.4,0.9-0.4
		h1.4c0.4,0,0.8,0.1,1.1,0.3c0.3,0.2,0.7,0.7,0.8,0.9c0.2,0.3,0.3,0.6,0.3,1v5.7H362.2z"/>
	<path class="st1" d="M371.5,606.2c-0.1,0.2-0.5,0.6-0.7,0.8c-0.3,0.2-0.7,0.3-1.1,0.3h-2.2c-0.4,0-0.8-0.1-1.1-0.3
		c-0.3-0.2-0.6-0.6-0.8-0.8c-0.1-0.1-0.2-0.3-0.3-0.4l0.9-0.3c0.1,0.3,0.6,0.8,0.8,0.9c0.1,0.1,0.2,0.1,0.3,0.1h2.2
		c0.1,0,0.2,0,0.3-0.1c0.3-0.2,0.6-0.5,0.8-0.8c0-0.1,0.1-0.2,0.1-0.3v-0.6c0-0.4-0.3-0.6-0.7-0.7l-3-0.2c-0.9-0.1-1.6-0.8-1.6-1.6
		v-0.5c0-0.4,0.1-0.7,0.3-1c0.1-0.2,0.5-0.6,0.7-0.8c0.3-0.2,0.7-0.3,1.1-0.3h1.9c0.4,0,0.8,0.1,1.1,0.3c0.3,0.2,0.7,0.7,0.8,0.9
		c0.1,0.1,0.2,0.3,0.3,0.4l-0.9,0.3c-0.1-0.3-0.6-0.8-0.9-0.9c-0.1-0.1-0.2-0.1-0.3-0.1h-1.9c-0.1,0-0.2,0-0.3,0.1
		c-0.3,0.2-0.6,0.5-0.8,0.8c0,0.1-0.1,0.2-0.1,0.3v0.5c0,0.4,0.3,0.6,0.7,0.7l3,0.2c0.9,0.1,1.6,0.8,1.6,1.6v0.6
		C371.7,605.6,371.6,605.9,371.5,606.2z"/>
	<path class="st1" d="M374.1,607.3v-1.4h1.4v1.4H374.1z"/>
	<path class="st1" d="M218.9,622.8c-0.1,0.2-0.7,0.8-0.9,0.9c-0.3,0.2-0.7,0.3-1.1,0.3h-3.8v4.8h-1V618h4.9c0.4,0,0.8,0.1,1.1,0.3
		c0.2,0.2,0.8,0.8,0.9,1c0.2,0.3,0.3,0.6,0.3,0.9v1.6C219.2,622.2,219.1,622.5,218.9,622.8z M218.1,620.3c0-0.1,0-0.2,0-0.3
		c-0.2-0.3-0.6-0.7-0.9-0.9c-0.1-0.1-0.2-0.1-0.3-0.1h-3.8v4h3.8c0.1,0,0.2,0,0.3-0.1c0.3-0.2,0.7-0.6,0.9-0.9c0-0.1,0-0.2,0-0.3
		V620.3z"/>
	<path class="st1" d="M226.4,628.9l-0.2-0.9c-0.2,0.2-0.5,0.5-0.7,0.6c-0.3,0.2-0.6,0.4-0.9,0.4h-1.6c-0.4,0-0.8-0.1-1.1-0.3
		c-0.2-0.2-0.6-0.6-0.8-0.8c-0.2-0.3-0.3-0.6-0.3-1v-0.4c0-0.4,0.1-0.7,0.3-1c0.1-0.2,0.6-0.6,0.8-0.8c0.3-0.2,0.7-0.3,1.1-0.3h3.1
		v-1.1c0-0.1,0-0.2,0-0.3c-0.2-0.3-0.6-0.7-0.9-0.9c-0.1-0.1-0.2-0.1-0.3-0.1h-1.7c-0.1,0-0.2,0-0.3,0.1c-0.3,0.2-0.7,0.6-0.9,0.9
		l-0.9-0.3c0.1-0.1,0.1-0.3,0.3-0.4c0.2-0.2,0.6-0.7,0.8-0.9c0.3-0.2,0.7-0.3,1.1-0.3h1.7c0.4,0,0.8,0.1,1.1,0.3
		c0.3,0.2,0.7,0.6,0.8,0.8c0.2,0.3,0.3,0.6,0.3,1v4.4l0.2,1.3H226.4z M226.2,626.9v-1.6h-3.1c-0.1,0-0.2,0-0.3,0.1
		c-0.3,0.2-0.7,0.6-0.8,0.9c0,0.1-0.1,0.2-0.1,0.3v0.4c0,0.1,0,0.2,0.1,0.3c0.2,0.3,0.5,0.7,0.8,0.8c0.1,0.1,0.2,0.1,0.3,0.1h1.5
		c0.1,0,0.2,0,0.3-0.1C225.2,627.8,226,627.3,226.2,626.9z"/>
	<path class="st1" d="M235.6,627.8c-0.1,0.2-0.5,0.6-0.7,0.8c-0.3,0.2-0.7,0.3-1.1,0.3h-2.2c-0.4,0-0.8-0.1-1.1-0.3
		c-0.3-0.2-0.6-0.6-0.8-0.8c-0.1-0.1-0.2-0.3-0.3-0.4l0.9-0.3c0.1,0.3,0.6,0.8,0.8,0.9c0.1,0.1,0.2,0.1,0.3,0.1h2.2
		c0.1,0,0.2,0,0.3-0.1c0.3-0.2,0.6-0.5,0.8-0.8c0-0.1,0.1-0.2,0.1-0.3v-0.6c0-0.4-0.3-0.6-0.7-0.7l-3-0.2c-0.9-0.1-1.6-0.8-1.6-1.6
		v-0.5c0-0.4,0.1-0.7,0.3-1c0.1-0.2,0.5-0.6,0.7-0.8c0.3-0.2,0.7-0.3,1.1-0.3h1.9c0.4,0,0.8,0.1,1.1,0.3c0.3,0.2,0.7,0.7,0.8,0.9
		c0.1,0.1,0.2,0.3,0.3,0.4l-0.9,0.3c-0.1-0.3-0.6-0.8-0.9-0.9c-0.1-0.1-0.2-0.1-0.3-0.1h-1.9c-0.1,0-0.2,0-0.3,0.1
		c-0.3,0.2-0.6,0.5-0.8,0.8c0,0.1-0.1,0.2-0.1,0.3v0.5c0,0.4,0.3,0.6,0.7,0.7l3,0.2c0.9,0.1,1.6,0.8,1.6,1.6v0.6
		C235.8,627.2,235.7,627.5,235.6,627.8z"/>
	<path class="st1" d="M244,627.8c-0.1,0.2-0.5,0.6-0.7,0.8c-0.3,0.2-0.7,0.3-1.1,0.3H240c-0.4,0-0.8-0.1-1.1-0.3
		c-0.3-0.2-0.6-0.6-0.8-0.8c-0.1-0.1-0.2-0.3-0.3-0.4l0.9-0.3c0.1,0.3,0.6,0.8,0.8,0.9c0.1,0.1,0.2,0.1,0.3,0.1h2.2
		c0.1,0,0.2,0,0.3-0.1c0.3-0.2,0.6-0.5,0.8-0.8c0-0.1,0.1-0.2,0.1-0.3v-0.6c0-0.4-0.3-0.6-0.7-0.7l-3-0.2c-0.9-0.1-1.6-0.8-1.6-1.6
		v-0.5c0-0.4,0.1-0.7,0.3-1c0.1-0.2,0.5-0.6,0.7-0.8c0.3-0.2,0.7-0.3,1.1-0.3h1.9c0.4,0,0.8,0.1,1.1,0.3c0.3,0.2,0.7,0.7,0.8,0.9
		c0.1,0.1,0.2,0.3,0.3,0.4l-0.9,0.3c-0.1-0.3-0.6-0.8-0.9-0.9c-0.1-0.1-0.2-0.1-0.3-0.1h-1.9c-0.1,0-0.2,0-0.3,0.1
		c-0.3,0.2-0.6,0.5-0.8,0.8c0,0.1-0.1,0.2-0.1,0.3v0.5c0,0.4,0.3,0.6,0.7,0.7l3,0.2c0.9,0.1,1.6,0.8,1.6,1.6v0.6
		C244.2,627.2,244.2,627.5,244,627.8z"/>
	<path class="st1" d="M251.8,628.9v-5.6c0-0.1,0-0.2,0-0.3c-0.2-0.3-0.6-0.7-0.9-0.9c-0.1-0.1-0.2-0.1-0.3-0.1h-1.3
		c-0.1,0-0.2,0-0.3,0.1c-0.3,0.2-1.1,0.6-1.4,1.1v5.8h-1v-6.5l-0.1-1.3h1l0.1,0.9c0.2-0.2,0.5-0.5,0.7-0.6c0.3-0.2,0.6-0.4,0.9-0.4
		h1.4c0.4,0,0.8,0.1,1.1,0.3c0.3,0.2,0.7,0.7,0.8,0.9c0.2,0.3,0.3,0.6,0.3,1v5.7H251.8z"/>
	<path class="st1" d="M255.3,619.3V618h1.4v1.4H255.3z M255.5,628.9v-7.7h1v7.7H255.5z"/>
	<path class="st1" d="M264.8,627.7c-0.1,0.2-0.6,0.7-0.8,0.9c-0.3,0.2-0.7,0.3-1.1,0.3h-1.8c-0.4,0-0.8-0.1-1.1-0.3
		c-0.3-0.2-0.7-0.7-0.8-0.9c-0.2-0.3-0.3-0.6-0.3-1v-3.6c0-0.4,0.1-0.7,0.3-1c0.1-0.2,0.6-0.7,0.8-0.9c0.3-0.2,0.7-0.3,1.1-0.3h1.8
		c0.4,0,0.8,0.1,1.1,0.3c0.3,0.2,0.7,0.7,0.8,0.9c0.2,0.3,0.3,0.6,0.3,1v3.6C265.1,627.1,265,627.5,264.8,627.7z M264.1,623.2
		c0-0.1,0-0.2,0-0.3c-0.2-0.3-0.6-0.7-0.9-0.9c-0.1-0.1-0.2-0.1-0.3-0.1h-1.8c-0.1,0-0.2,0-0.3,0.1c-0.3,0.2-0.7,0.6-0.8,0.9
		c0,0.1-0.1,0.2-0.1,0.3v3.5c0,0.1,0,0.2,0.1,0.3c0.2,0.3,0.6,0.7,0.8,0.9c0.1,0.1,0.2,0.1,0.3,0.1h1.8c0.1,0,0.2,0,0.3-0.1
		c0.3-0.2,0.7-0.6,0.9-0.9c0-0.1,0-0.2,0-0.3V623.2z"/>
	<path class="st1" d="M272.7,628.9v-5.6c0-0.1,0-0.2,0-0.3c-0.2-0.3-0.6-0.7-0.9-0.9c-0.1-0.1-0.2-0.1-0.3-0.1h-1.3
		c-0.1,0-0.2,0-0.3,0.1c-0.3,0.2-1.1,0.6-1.4,1.1v5.8h-1v-6.5l-0.1-1.3h1l0.1,0.9c0.2-0.2,0.5-0.5,0.7-0.6c0.3-0.2,0.6-0.4,0.9-0.4
		h1.4c0.4,0,0.8,0.1,1.1,0.3c0.3,0.2,0.7,0.7,0.8,0.9c0.2,0.3,0.3,0.6,0.3,1v5.7H272.7z"/>
	<path class="st1" d="M281.4,627l1,0.3c-0.1,0.1-0.1,0.2-0.3,0.4c-0.1,0.2-0.6,0.7-0.8,0.9c-0.3,0.2-0.7,0.3-1.1,0.3h-1.8
		c-0.4,0-0.8-0.1-1.1-0.3c-0.3-0.2-0.7-0.7-0.8-0.9c-0.2-0.3-0.3-0.6-0.3-1v-3.6c0-0.4,0.1-0.7,0.3-1c0.1-0.2,0.6-0.7,0.8-0.9
		c0.3-0.2,0.7-0.3,1.1-0.3h1.8c0.4,0,0.8,0.1,1.1,0.3c0.3,0.2,0.7,0.7,0.8,0.9c0.2,0.3,0.3,0.6,0.3,1v2.2h-5.2v1.4
		c0,0.1,0,0.2,0.1,0.3c0.2,0.3,0.6,0.7,0.8,0.9c0.1,0.1,0.2,0.1,0.3,0.1h1.9c0.1,0,0.2,0,0.3-0.1C280.9,627.8,281.3,627.3,281.4,627
		L281.4,627z M277.1,623.2v1.3h4.2v-1.3c0-0.1,0-0.2,0-0.3c-0.2-0.3-0.6-0.7-0.9-0.9c-0.1-0.1-0.2-0.1-0.3-0.1h-1.8
		c-0.1,0-0.2,0-0.3,0.1c-0.3,0.2-0.7,0.6-0.9,0.9C277.2,623,277.1,623.1,277.1,623.2z M278,619.4l1.5-2h1.3l-1.8,2.3L278,619.4z"/>
	<path class="st1" d="M289.8,621.4c0.3-0.2,0.7-0.3,1.1-0.3h1.4c0.3,0,0.6,0.2,0.9,0.4c0.2,0.2,0.4,0.4,0.7,0.6v-4h1v9.5l0.1,1.3h-1
		l-0.1-1c-0.2,0.3-0.5,0.5-0.7,0.7c-0.3,0.2-0.6,0.4-0.9,0.4h-1.4c-0.4,0-0.8-0.1-1.1-0.3c-0.2-0.2-0.7-0.7-0.8-0.9
		c-0.2-0.3-0.3-0.6-0.3-1v-3.6c0-0.4,0.1-0.7,0.3-1C289.1,622,289.5,621.6,289.8,621.4z M289.7,627.1c0.2,0.3,0.6,0.7,0.8,0.9
		c0.1,0.1,0.2,0.1,0.3,0.1h1.3c0.1,0,0.2,0,0.3-0.1c0.3-0.1,1.1-0.7,1.4-1.1c0,0,0,0,0-0.1v-3.6c0-0.1,0-0.1,0-0.1
		c-0.2-0.4-1.1-1-1.4-1.1c-0.1,0-0.2-0.1-0.3-0.1h-1.3c-0.1,0-0.2,0-0.3,0.1c-0.3,0.2-0.7,0.6-0.8,0.9c0,0.1-0.1,0.2-0.1,0.3v3.5
		C289.7,626.9,289.7,627,289.7,627.1z"/>
	<path class="st1" d="M302.5,627l1,0.3c-0.1,0.1-0.1,0.2-0.3,0.4c-0.1,0.2-0.6,0.7-0.8,0.9c-0.3,0.2-0.7,0.3-1.1,0.3h-1.8
		c-0.4,0-0.8-0.1-1.1-0.3c-0.3-0.2-0.7-0.7-0.8-0.9c-0.2-0.3-0.3-0.6-0.3-1v-3.6c0-0.4,0.1-0.7,0.3-1c0.1-0.2,0.6-0.7,0.8-0.9
		c0.3-0.2,0.7-0.3,1.1-0.3h1.8c0.4,0,0.8,0.1,1.1,0.3c0.3,0.2,0.7,0.7,0.8,0.9c0.2,0.3,0.3,0.6,0.3,1v2.2h-5.2v1.4
		c0,0.1,0,0.2,0.1,0.3c0.2,0.3,0.6,0.7,0.8,0.9c0.1,0.1,0.2,0.1,0.3,0.1h1.9c0.1,0,0.2,0,0.3-0.1C302,627.8,302.4,627.3,302.5,627
		L302.5,627z M298.3,623.2v1.3h4.2v-1.3c0-0.1,0-0.2,0-0.3c-0.2-0.3-0.6-0.7-0.9-0.9c-0.1-0.1-0.2-0.1-0.3-0.1h-1.8
		c-0.1,0-0.2,0-0.3,0.1c-0.3,0.2-0.7,0.6-0.9,0.9C298.3,623,298.3,623.1,298.3,623.2z"/>
	<path class="st1" d="M318,628.9v-9.7l-3.1,6.8h-0.7l-3.1-6.8v9.7h-1V618h1.5l2.9,6.3l3-6.3h1.5v10.8H318z"/>
	<path class="st1" d="M327.5,627.7c-0.1,0.2-0.6,0.7-0.8,0.9c-0.3,0.2-0.7,0.3-1.1,0.3h-1.8c-0.4,0-0.8-0.1-1.1-0.3
		c-0.3-0.2-0.7-0.7-0.8-0.9c-0.2-0.3-0.3-0.6-0.3-1v-3.6c0-0.4,0.1-0.7,0.3-1c0.1-0.2,0.6-0.7,0.8-0.9c0.3-0.2,0.7-0.3,1.1-0.3h1.8
		c0.4,0,0.8,0.1,1.1,0.3c0.3,0.2,0.7,0.7,0.8,0.9c0.2,0.3,0.3,0.6,0.3,1v3.6C327.7,627.1,327.7,627.5,327.5,627.7z M326.8,623.2
		c0-0.1,0-0.2,0-0.3c-0.2-0.3-0.6-0.7-0.9-0.9c-0.1-0.1-0.2-0.1-0.3-0.1h-1.8c-0.1,0-0.2,0-0.3,0.1c-0.3,0.2-0.7,0.6-0.8,0.9
		c0,0.1-0.1,0.2-0.1,0.3v3.5c0,0.1,0,0.2,0.1,0.3c0.2,0.3,0.6,0.7,0.8,0.9c0.1,0.1,0.2,0.1,0.3,0.1h1.8c0.1,0,0.2,0,0.3-0.1
		c0.3-0.2,0.7-0.6,0.9-0.9c0-0.1,0-0.2,0-0.3V623.2z"/>
	<path class="st1" d="M335.4,628.9v-5.6c0-0.1,0-0.2,0-0.3c-0.2-0.3-0.6-0.7-0.9-0.9c-0.1-0.1-0.2-0.1-0.3-0.1h-1.3
		c-0.1,0-0.2,0-0.3,0.1c-0.3,0.2-1.1,0.6-1.4,1.1v5.8h-1v-6.5l-0.1-1.3h1l0.1,0.9c0.2-0.2,0.5-0.5,0.7-0.6c0.3-0.2,0.6-0.4,0.9-0.4
		h1.4c0.4,0,0.8,0.1,1.1,0.3c0.3,0.2,0.7,0.7,0.8,0.9c0.2,0.3,0.3,0.6,0.3,1v5.7H335.4z"/>
	<path class="st1" d="M340.5,622v4.6c0,0.1,0,0.3,0.1,0.3c0.2,0.3,0.5,0.7,0.8,0.8c0.1,0.1,0.2,0.1,0.4,0.1h1.1v0.9h-1.2
		c-0.4,0-0.8-0.1-1.1-0.3c-0.3-0.2-0.7-0.7-0.8-0.9c-0.2-0.3-0.3-0.6-0.3-1V622h-1.3v-0.9h1.3V618h1v3.1h2.4v0.9H340.5z"/>
	<path class="st1" d="M350,628.9l-0.2-0.9c-0.2,0.2-0.5,0.5-0.7,0.6c-0.3,0.2-0.6,0.4-0.9,0.4h-1.6c-0.4,0-0.8-0.1-1.1-0.3
		c-0.2-0.2-0.6-0.6-0.8-0.8c-0.2-0.3-0.3-0.6-0.3-1v-0.4c0-0.4,0.1-0.7,0.3-1c0.1-0.2,0.6-0.6,0.8-0.8c0.3-0.2,0.7-0.3,1.1-0.3h3.1
		v-1.1c0-0.1,0-0.2,0-0.3c-0.2-0.3-0.6-0.7-0.9-0.9c-0.1-0.1-0.2-0.1-0.3-0.1h-1.7c-0.1,0-0.2,0-0.3,0.1c-0.3,0.2-0.7,0.6-0.9,0.9
		l-0.9-0.3c0.1-0.1,0.1-0.3,0.3-0.4c0.2-0.2,0.6-0.7,0.8-0.9c0.3-0.2,0.7-0.3,1.1-0.3h1.7c0.4,0,0.8,0.1,1.1,0.3
		c0.3,0.2,0.7,0.6,0.8,0.8c0.2,0.3,0.3,0.6,0.3,1v4.4l0.2,1.3H350z M349.8,626.9v-1.6h-3.1c-0.1,0-0.2,0-0.3,0.1
		c-0.3,0.2-0.7,0.6-0.8,0.9c0,0.1-0.1,0.2-0.1,0.3v0.4c0,0.1,0,0.2,0.1,0.3c0.2,0.3,0.5,0.7,0.8,0.8c0.1,0.1,0.2,0.1,0.3,0.1h1.5
		c0.1,0,0.2,0,0.3-0.1C348.8,627.8,349.6,627.3,349.8,626.9z"/>
	<path class="st1" d="M359.6,622.4v7.4c0,0.4-0.1,0.7-0.3,1c-0.1,0.2-0.6,0.7-0.8,0.9c-0.3,0.2-0.7,0.3-1.1,0.3h-1.8
		c-0.4,0-0.8-0.1-1.1-0.3c-0.5-0.3-0.8-0.9-1.1-1.3l0.9-0.3l0,0c0.1,0.3,0.6,0.7,0.8,0.9c0.1,0.1,0.2,0.1,0.3,0.1h1.9
		c0.1,0,0.2,0,0.3-0.1c0.3-0.2,0.7-0.6,0.9-0.9c0-0.1,0-0.2,0-0.3v-1.9c-0.2,0.3-0.5,0.5-0.7,0.6c-0.3,0.2-0.6,0.4-0.9,0.4h-1.5
		c-0.4,0-0.8-0.1-1.1-0.3c-0.3-0.2-0.7-0.7-0.8-0.9c-0.2-0.3-0.3-0.6-0.3-1v-3.6c0-0.4,0.1-0.7,0.3-1c0.1-0.2,0.6-0.7,0.8-0.9
		c0.3-0.2,0.7-0.3,1.1-0.3h1.5c0.3,0,0.6,0.2,0.9,0.4c0.2,0.2,0.5,0.4,0.7,0.7l0.1-1h1L359.6,622.4z M358.6,623.2L358.6,623.2
		c-0.3-0.5-1.1-1-1.4-1.2c-0.1,0-0.2-0.1-0.3-0.1h-1.4c-0.1,0-0.2,0-0.3,0.1c-0.3,0.2-0.7,0.6-0.8,0.9c0,0.1-0.1,0.2-0.1,0.3v3.5
		c0,0.1,0,0.2,0.1,0.3c0.2,0.3,0.6,0.7,0.8,0.9c0.1,0.1,0.2,0.1,0.3,0.1h1.4c0.1,0,0.2,0,0.3-0.1c0.3-0.2,1-0.7,1.4-1.1l0-0.1V623.2
		z"/>
	<path class="st1" d="M367.5,628.9v-5.6c0-0.1,0-0.2,0-0.3c-0.2-0.3-0.6-0.7-0.9-0.9c-0.1-0.1-0.2-0.1-0.3-0.1H365
		c-0.1,0-0.2,0-0.3,0.1c-0.3,0.2-1.1,0.6-1.4,1.1v5.8h-1v-6.5l-0.1-1.3h1l0.1,0.9c0.2-0.2,0.5-0.5,0.7-0.6c0.3-0.2,0.6-0.4,0.9-0.4
		h1.4c0.4,0,0.8,0.1,1.1,0.3c0.3,0.2,0.7,0.7,0.8,0.9c0.2,0.3,0.3,0.6,0.3,1v5.7H367.5z"/>
	<path class="st1" d="M376.1,627l1,0.3c-0.1,0.1-0.1,0.2-0.3,0.4c-0.1,0.2-0.6,0.7-0.8,0.9c-0.3,0.2-0.7,0.3-1.1,0.3H373
		c-0.4,0-0.8-0.1-1.1-0.3c-0.3-0.2-0.7-0.7-0.8-0.9c-0.2-0.3-0.3-0.6-0.3-1v-3.6c0-0.4,0.1-0.7,0.3-1c0.1-0.2,0.6-0.7,0.8-0.9
		c0.3-0.2,0.7-0.3,1.1-0.3h1.8c0.4,0,0.8,0.1,1.1,0.3c0.3,0.2,0.7,0.7,0.8,0.9c0.2,0.3,0.3,0.6,0.3,1v2.2h-5.2v1.4
		c0,0.1,0,0.2,0.1,0.3c0.2,0.3,0.6,0.7,0.8,0.9c0.1,0.1,0.2,0.1,0.3,0.1h1.9c0.1,0,0.2,0,0.3-0.1C375.5,627.8,375.9,627.3,376.1,627
		L376.1,627z M371.8,623.2v1.3h4.2v-1.3c0-0.1,0-0.2,0-0.3c-0.2-0.3-0.6-0.7-0.9-0.9c-0.1-0.1-0.2-0.1-0.3-0.1H373
		c-0.1,0-0.2,0-0.3,0.1c-0.3,0.2-0.7,0.6-0.9,0.9C371.8,623,371.8,623.1,371.8,623.2z"/>
	<path class="st1" d="M388.7,627l1,0.3c-0.1,0.1-0.1,0.2-0.3,0.4c-0.1,0.2-0.6,0.7-0.8,0.9c-0.3,0.2-0.7,0.3-1.1,0.3h-1.8
		c-0.4,0-0.8-0.1-1.1-0.3c-0.3-0.2-0.7-0.7-0.8-0.9c-0.2-0.3-0.3-0.6-0.3-1v-3.6c0-0.4,0.1-0.7,0.3-1c0.1-0.2,0.6-0.7,0.8-0.9
		c0.3-0.2,0.7-0.3,1.1-0.3h1.8c0.4,0,0.8,0.1,1.1,0.3c0.3,0.2,0.7,0.7,0.8,0.9c0.2,0.3,0.3,0.6,0.3,1v2.2h-5.2v1.4
		c0,0.1,0,0.2,0.1,0.3c0.2,0.3,0.6,0.7,0.8,0.9c0.1,0.1,0.2,0.1,0.3,0.1h1.9c0.1,0,0.2,0,0.3-0.1C388.1,627.8,388.5,627.3,388.7,627
		L388.7,627z M384.4,623.2v1.3h4.2v-1.3c0-0.1,0-0.2,0-0.3c-0.2-0.3-0.6-0.7-0.9-0.9c-0.1-0.1-0.2-0.1-0.3-0.1h-1.8
		c-0.1,0-0.2,0-0.3,0.1c-0.3,0.2-0.7,0.6-0.9,0.9C384.4,623,384.4,623.1,384.4,623.2z"/>
	<path class="st1" d="M393.7,622v4.6c0,0.1,0,0.3,0.1,0.3c0.2,0.3,0.5,0.7,0.8,0.8c0.1,0.1,0.2,0.1,0.4,0.1h1.1v0.9h-1.2
		c-0.4,0-0.8-0.1-1.1-0.3c-0.3-0.2-0.7-0.7-0.8-0.9c-0.2-0.3-0.3-0.6-0.3-1V622h-1.3v-0.9h1.3V618h1v3.1h2.4v0.9H393.7z"/>
	<path class="st1" d="M403.1,621.4c0.3-0.2,0.7-0.3,1.1-0.3h1.4c0.3,0,0.6,0.2,0.9,0.4c0.2,0.2,0.5,0.4,0.7,0.6v-4h1v9.5l0.1,1.3h-1
		l-0.1-1c-0.2,0.3-0.5,0.5-0.7,0.7c-0.3,0.2-0.6,0.4-0.9,0.4h-1.4c-0.4,0-0.8-0.1-1.1-0.3c-0.2-0.2-0.7-0.7-0.8-0.9
		c-0.2-0.3-0.3-0.6-0.3-1v-3.6c0-0.4,0.1-0.7,0.3-1C402.5,622,402.9,621.6,403.1,621.4z M403.1,627.1c0.2,0.3,0.6,0.7,0.8,0.9
		c0.1,0.1,0.2,0.1,0.3,0.1h1.3c0.1,0,0.2,0,0.3-0.1c0.3-0.1,1.1-0.7,1.4-1.1c0,0,0,0,0-0.1v-3.6c0-0.1,0-0.1,0-0.1
		c-0.2-0.4-1.1-1-1.4-1.1c-0.1,0-0.2-0.1-0.3-0.1h-1.3c-0.1,0-0.2,0-0.3,0.1c-0.3,0.2-0.7,0.6-0.8,0.9c0,0.1-0.1,0.2-0.1,0.3v3.5
		C403,626.9,403.1,627,403.1,627.1z"/>
	<path class="st1" d="M415.9,627l1,0.3c-0.1,0.1-0.1,0.2-0.3,0.4c-0.1,0.2-0.6,0.7-0.8,0.9c-0.3,0.2-0.7,0.3-1.1,0.3h-1.8
		c-0.4,0-0.8-0.1-1.1-0.3c-0.3-0.2-0.7-0.7-0.8-0.9c-0.2-0.3-0.3-0.6-0.3-1v-3.6c0-0.4,0.1-0.7,0.3-1c0.1-0.2,0.6-0.7,0.8-0.9
		c0.3-0.2,0.7-0.3,1.1-0.3h1.8c0.4,0,0.8,0.1,1.1,0.3c0.3,0.2,0.7,0.7,0.8,0.9c0.2,0.3,0.3,0.6,0.3,1v2.2h-5.2v1.4
		c0,0.1,0,0.2,0.1,0.3c0.2,0.3,0.6,0.7,0.8,0.9c0.1,0.1,0.2,0.1,0.3,0.1h1.9c0.1,0,0.2,0,0.3-0.1C415.3,627.8,415.7,627.3,415.9,627
		L415.9,627z M411.6,623.2v1.3h4.2v-1.3c0-0.1,0-0.2,0-0.3c-0.2-0.3-0.6-0.7-0.9-0.9c-0.1-0.1-0.2-0.1-0.3-0.1h-1.8
		c-0.1,0-0.2,0-0.3,0.1c-0.3,0.2-0.7,0.6-0.9,0.9C411.7,623,411.6,623.1,411.6,623.2z"/>
	<path class="st1" d="M428.8,627.4c-0.2,0.3-0.9,1-1.2,1.2c-0.3,0.2-0.6,0.3-0.9,0.3h-1.4c-0.3,0-0.7-0.1-0.9-0.3
		c-0.4-0.2-0.8-0.8-1.1-1.1c-0.1-0.2-0.3-0.5-0.4-0.7l1-0.3c0.3,0.5,0.8,1.2,1.2,1.4c0.1,0,0.2,0.1,0.3,0.1h1.3c0.1,0,0.2,0,0.2-0.1
		c0.3-0.1,0.9-0.7,1.1-1.1c0-0.1,0.1-0.1,0.1-0.2V618h1v8.5C429,626.8,428.9,627.1,428.8,627.4z"/>
	<path class="st1" d="M436.7,627l1,0.3c-0.1,0.1-0.1,0.2-0.3,0.4c-0.1,0.2-0.6,0.7-0.8,0.9c-0.3,0.2-0.7,0.3-1.1,0.3h-1.8
		c-0.4,0-0.8-0.1-1.1-0.3c-0.3-0.2-0.7-0.7-0.8-0.9c-0.2-0.3-0.3-0.6-0.3-1v-3.6c0-0.4,0.1-0.7,0.3-1c0.1-0.2,0.6-0.7,0.8-0.9
		c0.3-0.2,0.7-0.3,1.1-0.3h1.8c0.4,0,0.8,0.1,1.1,0.3c0.3,0.2,0.7,0.7,0.8,0.9c0.2,0.3,0.3,0.6,0.3,1v2.2h-5.2v1.4
		c0,0.1,0,0.2,0.1,0.3c0.2,0.3,0.6,0.7,0.8,0.9c0.1,0.1,0.2,0.1,0.3,0.1h1.9c0.1,0,0.2,0,0.3-0.1C436.1,627.8,436.5,627.3,436.7,627
		L436.7,627z M432.4,623.2v1.3h4.2v-1.3c0-0.1,0-0.2,0-0.3c-0.2-0.3-0.6-0.7-0.9-0.9c-0.1-0.1-0.2-0.1-0.3-0.1h-1.8
		c-0.1,0-0.2,0-0.3,0.1c-0.3,0.2-0.7,0.6-0.9,0.9C432.4,623,432.4,623.1,432.4,623.2z"/>
	<path class="st1" d="M445.1,628.9L445,628c-0.2,0.2-0.5,0.5-0.7,0.6c-0.3,0.2-0.6,0.4-0.9,0.4h-1.4c-0.4,0-0.8-0.1-1.1-0.3
		c-0.3-0.2-0.7-0.7-0.8-0.9c-0.2-0.3-0.3-0.6-0.3-1v-5.7h1v5.6c0,0.1,0,0.2,0,0.3c0.2,0.3,0.6,0.7,0.9,0.9c0.1,0.1,0.2,0.1,0.3,0.1
		h1.3c0.1,0,0.2,0,0.3-0.1c0.3-0.2,1.1-0.6,1.4-1.1v-5.8h1v6.5l0.1,1.3H445.1z"/>
	<path class="st1" d="M451.1,625.7l-2,3.2H448l2.6-4l-2.5-3.8h1.2l1.9,3l1.8-3h1.2l-2.4,3.8l2.6,4h-1.2L451.1,625.7z"/>
	<path class="st1" d="M464.6,628.9H463l-3.4-10.8h1.1l3,9.7h0.3l3-9.7h1.1L464.6,628.9z"/>
	<path class="st1" d="M469.8,619.3V618h1.4v1.4H469.8z M470,628.9v-7.7h1v7.7H470z"/>
	<path class="st1" d="M474.5,621.4c0.3-0.2,0.7-0.3,1.1-0.3h1.4c0.3,0,0.6,0.2,0.9,0.4c0.2,0.2,0.4,0.4,0.7,0.6v-4h1v9.5l0.1,1.3h-1
		l-0.1-1c-0.2,0.3-0.5,0.5-0.7,0.7c-0.3,0.2-0.6,0.4-0.9,0.4h-1.4c-0.4,0-0.8-0.1-1.1-0.3c-0.2-0.2-0.7-0.7-0.8-0.9
		c-0.2-0.3-0.3-0.6-0.3-1v-3.6c0-0.4,0.1-0.7,0.3-1C473.9,622,474.3,621.6,474.5,621.4z M474.5,627.1c0.2,0.3,0.6,0.7,0.8,0.9
		c0.1,0.1,0.2,0.1,0.3,0.1h1.3c0.1,0,0.2,0,0.3-0.1c0.3-0.1,1.1-0.7,1.4-1.1c0,0,0,0,0-0.1v-3.6c0-0.1,0-0.1,0-0.1
		c-0.2-0.4-1.1-1-1.4-1.1c-0.1,0-0.2-0.1-0.3-0.1h-1.3c-0.1,0-0.2,0-0.3,0.1c-0.3,0.2-0.7,0.6-0.8,0.9c0,0.1-0.1,0.2-0.1,0.3v3.5
		C474.4,626.9,474.4,627,474.5,627.1z"/>
	<path class="st1" d="M487.4,627l1,0.3c-0.1,0.1-0.1,0.2-0.3,0.4c-0.1,0.2-0.6,0.7-0.8,0.9c-0.3,0.2-0.7,0.3-1.1,0.3h-1.8
		c-0.4,0-0.8-0.1-1.1-0.3c-0.3-0.2-0.7-0.7-0.8-0.9c-0.2-0.3-0.3-0.6-0.3-1v-3.6c0-0.4,0.1-0.7,0.3-1c0.1-0.2,0.6-0.7,0.8-0.9
		c0.3-0.2,0.7-0.3,1.1-0.3h1.8c0.4,0,0.8,0.1,1.1,0.3c0.3,0.2,0.7,0.7,0.8,0.9c0.2,0.3,0.3,0.6,0.3,1v2.2h-5.2v1.4
		c0,0.1,0,0.2,0.1,0.3c0.2,0.3,0.6,0.7,0.8,0.9c0.1,0.1,0.2,0.1,0.3,0.1h1.9c0.1,0,0.2,0,0.3-0.1C486.8,627.8,487.2,627.3,487.4,627
		L487.4,627z M483.1,623.2v1.3h4.2v-1.3c0-0.1,0-0.2,0-0.3c-0.2-0.3-0.6-0.7-0.9-0.9c-0.1-0.1-0.2-0.1-0.3-0.1h-1.8
		c-0.1,0-0.2,0-0.3,0.1c-0.3,0.2-0.7,0.6-0.9,0.9C483.1,623,483.1,623.1,483.1,623.2z M483.9,619.4l1.5-2h1.3l-1.8,2.3L483.9,619.4z
		"/>
	<path class="st1" d="M496.5,627.7c-0.1,0.2-0.6,0.7-0.8,0.9c-0.3,0.2-0.7,0.3-1.1,0.3h-1.8c-0.4,0-0.8-0.1-1.1-0.3
		c-0.3-0.2-0.7-0.7-0.8-0.9c-0.2-0.3-0.3-0.6-0.3-1v-3.6c0-0.4,0.1-0.7,0.3-1c0.1-0.2,0.6-0.7,0.8-0.9c0.3-0.2,0.7-0.3,1.1-0.3h1.8
		c0.4,0,0.8,0.1,1.1,0.3c0.3,0.2,0.7,0.7,0.8,0.9c0.2,0.3,0.3,0.6,0.3,1v3.6C496.7,627.1,496.7,627.5,496.5,627.7z M495.8,623.2
		c0-0.1,0-0.2,0-0.3c-0.2-0.3-0.6-0.7-0.9-0.9c-0.1-0.1-0.2-0.1-0.3-0.1h-1.8c-0.1,0-0.2,0-0.3,0.1c-0.3,0.2-0.7,0.6-0.8,0.9
		c0,0.1-0.1,0.2-0.1,0.3v3.5c0,0.1,0,0.2,0.1,0.3c0.2,0.3,0.6,0.7,0.8,0.9c0.1,0.1,0.2,0.1,0.3,0.1h1.8c0.1,0,0.2,0,0.3-0.1
		c0.3-0.2,0.7-0.6,0.9-0.9c0-0.1,0-0.2,0-0.3V623.2z"/>
	<path class="st1" d="M505,627.8c-0.1,0.2-0.5,0.6-0.7,0.8c-0.3,0.2-0.7,0.3-1.1,0.3H501c-0.4,0-0.8-0.1-1.1-0.3
		c-0.3-0.2-0.6-0.6-0.8-0.8c-0.1-0.1-0.2-0.3-0.3-0.4l0.9-0.3c0.1,0.3,0.6,0.8,0.8,0.9c0.1,0.1,0.2,0.1,0.3,0.1h2.2
		c0.1,0,0.2,0,0.3-0.1c0.3-0.2,0.6-0.5,0.8-0.8c0-0.1,0.1-0.2,0.1-0.3v-0.6c0-0.4-0.3-0.6-0.7-0.7l-3-0.2c-0.9-0.1-1.6-0.8-1.6-1.6
		v-0.5c0-0.4,0.1-0.7,0.3-1c0.1-0.2,0.5-0.6,0.7-0.8c0.3-0.2,0.7-0.3,1.1-0.3h1.9c0.4,0,0.8,0.1,1.1,0.3c0.3,0.2,0.7,0.7,0.8,0.9
		c0.1,0.1,0.2,0.3,0.3,0.4l-0.9,0.3c-0.1-0.3-0.6-0.8-0.9-0.9c-0.1-0.1-0.2-0.1-0.3-0.1h-1.9c-0.1,0-0.2,0-0.3,0.1
		c-0.3,0.2-0.6,0.5-0.8,0.8c0,0.1-0.1,0.2-0.1,0.3v0.5c0,0.4,0.3,0.6,0.7,0.7l3,0.2c0.9,0.1,1.6,0.8,1.6,1.6v0.6
		C505.2,627.2,505.1,627.5,505,627.8z"/>
</g>
<g>
	<g>
		<path class="st1" d="M231.8,572.6c-0.4,0.6-1.9,2.1-2.5,2.6c-1,0.7-2.3,1.1-3.5,1.1h-13.5v-28.7h13.5c1.2,0,2.5,0.4,3.5,1.1
			c0.7,0.5,2.1,2,2.5,2.6c0.6,0.9,0.8,2,0.8,3v3.6c0,2-0.8,3.1-1.9,4.2c1.1,1.1,1.9,2.1,1.9,4.1v3.6
			C232.6,570.7,232.4,571.7,231.8,572.6z M227.6,557.6v-3.4c0-0.1,0-0.2,0-0.2c-0.4-0.8-1.3-1.7-1.8-1.7h-8.4v7.2h8.4
			c0.4,0,1.4-0.9,1.7-1.6C227.5,558,227.6,557.9,227.6,557.6z M227.6,569.5v-3.4c0-0.1,0-0.2,0-0.2c-0.4-0.8-1.3-1.6-1.8-1.6h-8.4
			v7.2h8.4c0.4,0,1.4-0.9,1.7-1.6C227.5,569.8,227.6,569.7,227.6,569.5z"/>
		<path class="st1" d="M238.8,552.6v-5.1h5.1v5.1H238.8z M238.9,576.2v-20.7h4.8v20.7H238.9z"/>
		<path class="st1" d="M254.1,568.2v2c0,0.1,0,0.2,0,0.2c0.4,0.7,1.4,1.5,1.9,1.5h4.7c0.5,0,1.5-0.9,1.8-1.2c0,0,0.1-0.2,0.1-0.2
			l4.5,1.3c-0.5,1.2-2.3,3-3.1,3.6c-0.9,0.6-2.3,1.1-3.5,1.1H256c-1.2,0-2.5-0.3-3.5-1c-0.7-0.5-1.9-1.8-2.3-2.3
			c-0.6-0.9-0.9-1.9-0.9-3v-8.6c0-1.1,0.3-2.1,0.9-2.9c0.4-0.5,1.6-1.8,2.3-2.3c1-0.7,2.3-1.1,3.5-1.1h4.4c1.2,0,2.5,0.4,3.5,1.1
			c0.7,0.5,1.9,1.7,2.3,2.3c0.7,0.9,0.9,2,0.9,2.9v6.6H254.1z M262.3,561.6c0,0,0-0.2,0-0.3c-0.3-0.5-1-1.2-1.6-1.5
			c-0.1,0-0.2,0-0.3,0H256c-0.5,0-1.4,0.8-1.9,1.5c0,0.1,0,0.3,0,0.3v2.3h8.2V561.6z"/>
		<path class="st1" d="M285.8,576.2v-14.6c0,0,0-0.2,0-0.3c-0.3-0.5-1-1.2-1.5-1.5c0,0-0.2,0-0.4,0h-3.4c-0.9,0-2.2,1.3-2.8,2v14.4
			h-4.8v-16.5l-0.5-4.3h4.7l0.2,1.1c0.9-0.6,1.9-1.3,3-1.3h3.6c1.2,0,2.5,0.4,3.5,1.1c0.7,0.5,1.9,1.7,2.3,2.3
			c0.7,0.9,0.9,2,0.9,2.9v14.7H285.8z"/>
		<path class="st1" d="M306.5,576.2h-5.1l-7.6-20.7h5.4l4.8,14.1l4.9-14.1h5.1L306.5,576.2z"/>
		<path class="st1" d="M321.7,568.2v2c0,0.1,0,0.2,0,0.2c0.4,0.7,1.4,1.5,1.9,1.5h4.7c0.5,0,1.5-0.9,1.8-1.2c0,0,0.1-0.2,0.1-0.2
			l4.5,1.3c-0.5,1.2-2.3,3-3.1,3.6c-0.9,0.6-2.3,1.1-3.5,1.1h-4.5c-1.2,0-2.5-0.3-3.5-1c-0.7-0.5-1.9-1.8-2.3-2.3
			c-0.6-0.9-0.9-1.9-0.9-3v-8.6c0-1.1,0.3-2.1,0.9-2.9c0.4-0.5,1.6-1.8,2.3-2.3c1-0.7,2.3-1.1,3.5-1.1h4.4c1.2,0,2.5,0.4,3.5,1.1
			c0.7,0.5,1.9,1.7,2.3,2.3c0.7,0.9,0.9,2,0.9,2.9v6.6H321.7z M329.9,561.6c0,0,0-0.2,0-0.3c-0.3-0.5-1-1.2-1.6-1.5
			c-0.1,0-0.2,0-0.3,0h-4.4c-0.5,0-1.4,0.8-1.9,1.5c0,0.1,0,0.3,0,0.3v2.3h8.2V561.6z"/>
		<path class="st1" d="M353.4,576.2v-14.6c0,0,0-0.2,0-0.3c-0.3-0.5-1-1.2-1.5-1.5c0,0-0.2,0-0.4,0h-3.4c-0.9,0-2.2,1.3-2.8,2v14.4
			h-4.8v-16.5l-0.5-4.3h4.7l0.2,1.1c0.9-0.6,1.9-1.3,3-1.3h3.6c1.2,0,2.5,0.4,3.5,1.1c0.7,0.5,1.9,1.7,2.3,2.3
			c0.7,0.9,0.9,2,0.9,2.9v14.7H353.4z"/>
		<path class="st1" d="M377.1,576.2l-0.2-1.2c-0.9,0.6-1.9,1.4-3,1.4h-3.6c-1.2,0-2.5-0.3-3.5-1c-0.7-0.5-1.9-1.8-2.3-2.4
			c-0.7-0.9-0.9-2-0.9-2.9v-14.6h4.8V570c0,0,0,0.2,0,0.3c0.3,0.5,1.1,1.1,1.6,1.4c0.1,0,0.1,0,0.3,0h3.4c0.5,0,2.2-1.2,2.8-1.9
			v-14.5h4.8V572l0.4,4.3H377.1z"/>
		<path class="st1" d="M392.1,568.2v2c0,0.1,0,0.2,0,0.2c0.4,0.7,1.4,1.5,1.9,1.5h4.7c0.5,0,1.5-0.9,1.8-1.2c0,0,0.1-0.2,0.1-0.2
			l4.5,1.3c-0.5,1.2-2.3,3-3.1,3.6c-0.9,0.6-2.3,1.1-3.5,1.1H394c-1.2,0-2.5-0.3-3.5-1c-0.7-0.5-1.9-1.8-2.3-2.3
			c-0.6-0.9-0.9-1.9-0.9-3v-8.6c0-1.1,0.3-2.1,0.9-2.9c0.4-0.5,1.6-1.8,2.3-2.3c1-0.7,2.3-1.1,3.5-1.1h4.4c1.2,0,2.5,0.4,3.5,1.1
			c0.7,0.5,1.9,1.7,2.3,2.3c0.7,0.9,0.9,2,0.9,2.9v6.6H392.1z M400.3,561.6c0,0,0-0.2,0-0.3c-0.3-0.5-1-1.2-1.6-1.5
			c-0.1,0-0.2,0-0.3,0H394c-0.5,0-1.4,0.8-1.9,1.5c0,0.1,0,0.3,0,0.3v2.3h8.2V561.6z"/>
	</g>
</g>
<g>
	<path class="st2" d="M211.2,656.2c-4.2,137.1,22.5,198.2-13.3,222.6"/>
	<ellipse class="st2" cx="201.6" cy="884.9" rx="16.9" ry="5.4"/>
	<ellipse class="st2" cx="204.5" cy="883.6" rx="15" ry="5.4"/>
	<ellipse class="st2" cx="207" cy="883.5" rx="15.1" ry="3.7"/>
	<g>
		<path class="st1" d="M216.2,729.9c-0.3,0-0.5-0.1-0.7-0.3c-1.1-1-2.2-2.1-3.3-3.1c-0.1,0-1.1-0.1-1.3-0.1
			c-0.3,0.1-0.5,0.4-0.5,0.8c-0.3,1.2-0.7,2.5-1,3.7c-0.2,0.9,0,1.3,0.9,1.6c0.7,0.3,1.4,0.6,2.2,0.8c0.4,0.1,0.5,0.3,0.4,0.7
			c-0.2,0.9-0.5,1.8-0.5,2.8c0,0.4-0.2,0.5-0.6,0.6c-1.3,0.4-2.6,0.8-4,1.1c-0.9,0.3-1.3,0.8-1.2,1.7c0,0.7,0.1,1.5,0.1,2.2
			c0,0.1,0.1,3.1,0.2,3.6c0.7,0.8,1.2,1,1.9,0.8c0.6-0.3,0.9-0.8,0.8-1.8c0-0.8,0-1.6-0.1-2.4c-0.2-1.6-0.2-1.6,1.2-2
			c0.2,0,0.3-0.2,0.5-0.1c-0.6,0.6-1.5,1-1.6,2c0.1,0.3,0.1,0.6,0.3,0.9c0.9,1.6,1.8,3.2,2.7,4.7c0.4,0.7,1.2,0.9,1.9,0.6
			c0.7-0.4,0.9-1.2,0.5-1.9c-0.3-0.6-0.7-1.2-1-1.8c-0.4-0.7-1.3-1.5-1.1-2.2c0.2-0.7,1.1-1.2,1.7-1.8c0.2-0.2,1-1,1.2-1.1
			c1-0.5,1.3-1.4,1.7-2.3c0.5-1.5,1-2.9,1.5-4.4C219.4,731.5,218.2,729.8,216.2,729.9z M214,731.9c-0.5,0-2.9-0.8-2.9-0.7
			c0.2-0.9,0.5-2,0.8-2.4c0.1,0,1.2,1.1,1.3,1.2C213.3,730.2,215.1,731.2,214,731.9z"/>
		<path class="st1" d="M220,726.2c-0.2-0.1-0.2-0.3-0.3-0.5c-0.6-1-1.8-1.4-2.9-1c-1,0.3-1.7,1.4-1.6,2.5c0.1,1.1,0.9,2.1,2,2.3
			c1.1,0.2,2.2-0.4,2.7-1.4c0.1-0.2,0.1-0.5,0.3-0.6C220.1,727.1,220,726.7,220,726.2z"/>
	</g>
</g>
<g id="XMLID_472_">
	<path id="XMLID_473_" class="st0" d="M296.9,154.2c0.4-0.4,0.4-1,0-1.4c-0.4-0.4-1-0.4-1.4,0c-0.4,0.4-0.4,1,0,1.4
		C295.9,154.6,296.5,154.6,296.9,154.2z"/>
	<path id="XMLID_474_" class="st0" d="M298.1,162.9c-0.1-0.2-0.4-0.3-0.6-0.2c-0.4,0.2-0.9,0.5-1.6,0.2l-1.1-0.4l0.6-2.4
		c0.1-0.2,0-0.4-0.2-0.6l-1.4-1.5l0.9-0.9l0.1,0.5c0.1,0.2,0.2,0.3,0.4,0.4l1.8,0.5c0.3,0.1,0.6-0.1,0.7-0.4
		c0.1-0.3-0.1-0.6-0.4-0.7l-1.5-0.4l-0.2-0.7c0.3-0.3,0.3-0.9,0-1.2l-0.3-0.3c-0.1-0.1-0.3-0.2-0.4-0.2l-2.2-0.5
		c-0.2,0-0.4,0-0.5,0.2l-1.3,1.4c-0.2,0.2-0.2,0.6,0,0.8c0.2,0.2,0.6,0.2,0.8,0l1.1-1.2l0.7,0.2l-1.5,1.5c-0.3,0.2-0.4,0.5-0.3,0.8
		l0.6,1.4l-2.9,1.5l0,0c-0.7-0.2-0.9-0.7-1.1-1.2c-0.1-0.2-0.4-0.3-0.6-0.2c-0.2,0.1-0.3,0.4-0.2,0.6c0.2,0.4,0.5,1.3,1.6,1.6
		l6.5,2.3c1.1,0.4,1.8,0,2.3-0.3C298.1,163.4,298.2,163.2,298.1,162.9z M293.5,160c0.1,0,0.2-0.1,0.2-0.2l0.3,0.4l-0.5,2l-2.4-0.9
		L293.5,160z"/>
</g>
</svg>
