<?xml version="1.0" encoding="utf-8"?>
<!-- Generator: Adobe Illustrator 23.0.2, SVG Export Plug-In . SVG Version: 6.00 Build 0)  -->
<svg version="1.1" id="Calque_1" xmlns="http://www.w3.org/2000/svg" xmlns:xlink="http://www.w3.org/1999/xlink" x="0px" y="0px"
	 viewBox="0 0 1412 590" style="enable-background:new 0 0 1412 590;" xml:space="preserve">
<style type="text/css">
	.st0{fill:#0F0D12;}
	.st1{fill:#F2F2F2;}
</style>
<polygon class="st0" points="1412,590.1 0,590.1 0,243.5 103,202.9 253.5,243.5 559.4,285.1 1074.3,287.1 1149.5,156.4 
	1401.1,156.4 1412,156.4 "/>
<g>
	<path class="st1" d="M733.2,526.7C733.2,526.6,733.2,526.6,733.2,526.7L733.2,526.7L733.2,526.7z"/>
	<path class="st1" d="M733.2,531.7c1-0.2,2.1-0.5,3.2-0.8c-1.2-0.2-2.2-0.1-3.2,0.1V531.7z"/>
	<path class="st1" d="M733.2,497.3v3.4c3.1-0.5,6.1-1.7,7.7-3.2c-0.4,0-0.8,0-1.2,0C737.5,497.5,735.3,497.6,733.2,497.3z"/>
	<path class="st1" d="M733.2,546.1c0.8,0,1.7-0.2,2.6-0.6c1.7-0.8,3.3-1.5,4.5-3.1c-0.7-0.6-2.1-0.8-1.8-1.9
		c0.2-1.1,1.5-0.5,2.2-0.6c5-1.1,13.9-6.5,15-13.8c-3.1,2-6.2,4-9.3,5.9c-4.1,2.6-8.6,3.7-13.3,4.1V546.1z"/>
	<path class="st1" d="M795.6,485.8c-5.2-0.5-9.1,1.5-12.4,5.2c3.1,0.5,5.4-1.6,8.1-1.7C792.5,487.9,794.6,487.6,795.6,485.8z"/>
	<path class="st1" d="M733.4,526.5c1.4-0.5,2.7-0.1,4,0.6C736.2,525.4,735,525,733.4,526.5z"/>
	<path class="st1" d="M816.2,432.9c0.8,0.1,1-0.5,1.1-1.1C816.7,431.9,816.3,432.2,816.2,432.9z"/>
	<path class="st1" d="M779.3,496.2c6.3,2.8,12.1,3.2,17.2-2.5c0.8-0.8,1.5-1.5,1-2.6c-0.5-1.1-1.2-1.7-2.5-1.7
		c-1.2-0.1-2.5-0.1-3.7-0.2c-0.3,2.7-2.5,3.5-4.7,4.1c-3.7,1-7.5,1.4-11.4,1.4C776.6,495.2,778,495.6,779.3,496.2z"/>
	<path class="st1" d="M751.2,501.6c1.6-1.4,2.4-2.7,2.3-4.1c-0.2,0.1-0.3,0.2-0.5,0.3c-4.1,3.8-7.9,8.5-14.7,6c-0.5-0.2-1-0.2-1.5,0
		c-1.2,0.3-2.4,0.4-3.6,0.3v19.4h0.1c3.2-0.1,6.5-0.1,9.7-0.1c1.2,0,2.3-0.3,3.2-1c2.8-2.2,5.7-4.4,8.5-6.5c0.8-0.7,1.8-1.6,1.8-2.6
		c-0.5-4.1,0.5-8.2-1.2-12.3c-0.8,1.1-1.4,2.1-2.5,2.9c-1,0.7-1.8,1.7-2.8,2.3c-0.8,0.5-1.8,1.2-2.6,0.3c-0.6-0.8,0.2-1.6,0.8-2.2
		C749.2,503.4,750.2,502.5,751.2,501.6z"/>
	<path class="st1" d="M817.5,431.4c0,0.2-0.1,0.2-0.1,0.4C817.6,431.6,817.8,431.6,817.5,431.4z"/>
	<path class="st1" d="M-0.8,256.3c-0.3,9.2-0.2,18.4,0.2,27.6c0.2,6.3,1.7,12.5,1.8,18.9c0.1,1.1,0,2.4,0.1,3.6
		c0.2-0.1,0.4-0.1,0.6,0c0.6,0.2,0.9,0.7,0.9,1.3c0.1,0.6,0,1.3,0,2c0,0.8-0.1,1.5-0.1,2.3c0.3,0.5,0.8,0.8,1.4,0.4
		c1.1-0.7,2.5-1.9,1.6-3.8c-0.4-0.8-0.8-1.6-1.1-2.5c-0.3-1.5,0.1-2.8,1.7-3c1.6-0.2,2.1,1,2,2.3c-0.3,2.8,1.5,3.9,3.5,5.8
		c-0.8-3.5,1.9-4.4,3.1-6.3c0.4-0.7,2.6-1.7,3.8-0.5c1.3,1.3-0.1,2.3-0.8,3.4c-0.5,0.8-1.1,1.8-1.2,2.8c-0.2,1.6,0.8,2.5,2,2.6
		c1.3,0.1,0.5-1.2,0.6-1.9c0.5-1.7,0-4.8,3.3-3.2c0.2,0.2,0.8-0.2,1-0.4c1.5-1.4,2.8-1,4.1,0.4c1.7,1.7,2.8,1.4,3.7-0.9
		c1.2-2.7,3-4.9,5.6-5.3c5.7-1,11.3-2.8,17.2-1.8c5.4,0.9,10.6-0.8,15.9-1.5c5.7-0.7,11.2,1.4,17,1.1c1.9-0.1,3.9,1.1,4.9,3.2
		c2.5,5.3,6.4,9.8,8.2,15.6c0.5,1.7,1.1,2.6,2.4,0.5c0.5-0.8,1.5-1.7,2.5-0.8c1.1,1-0.1,1.9-0.5,2.7c-0.3,0.6-1.4,1.3-0.4,2
		c0.7,0.6,1.4,1.5,2.5,0.7c3.5-2.4,6.4-5.5,9.1-9.1c-2-0.8-2.8,0.8-3.8,1.4c-1,0.7-1.8,1.7-3.1,1.4c-0.5-0.1-1-0.2-1.1-0.8
		c0-0.2,0.2-0.7,0.3-0.8c3.4-1,4.1-5,6.5-7.1c2.7-2.3,5-5.1,6.7-8.5c-2,1.4-3.8,3.1-6.4,3.3c-1.1,0.1-2.3-0.1-2.7-1.3
		c-0.4-1,0.6-1.7,1.3-2.1c1-0.7,2-1.1,2.8-2.1c4.5-5.2,6.8-11.4,8.7-18.1c0.8-2.8,1-5.6,2.5-8.3c0.8,3.2,2.4,5.9,3.6,8.7
		c2.2,5.2,3.5,8,10.1,6c1.2-0.4,2.6-0.8,3.7-0.5c2.3,0.8,3.3-0.7,4-2.4c0.8-1.7,1.6-2.7,3.5-3.2c2.4-0.6,2.6-2.2,0.7-3.6
		c-1.5-1.1-1.2-2,0.1-2.9c1.9-1.3,3.5-2.9,5.1-4.6c1.1-1.2,1.2-2.2-0.5-2.7c-1.6-0.5-1.4-1.4-0.5-2.4c1.5-1.7,2.2-3.3-0.9-4.4
		c3.9-2.4,4.4-6.8,6.5-10.1c0.4-0.6,0.5-1.5,1.3-1.5c0.9,0.1,0.5,1.1,0.8,1.7c1.2,3.7,3.4,6.7,5.8,9.5c0.7,0.8,1.4,0.7,2.1,0.3
		c0.7-0.4,1.3-0.8,1.2-1.9c-0.4-2.9,1.6-4,3.4-5.1c0.8-0.5,1.9-0.7,2.1-1.5c0.7-3.4,2.8-6.1,3.2-9.6c0.5-3.4,0.8-6.9,2.5-10
		c2.8,1.7,1,5.2,2.5,7.5c0.3-2-0.2-3.7,0.8-6.2c0.8,3.9,1.5,7.1,2,10.3c0.9,5.9,2.1,11.7,6.2,16.1c1.1,1.1,1.7,2.7,2.5,4.1
		c-0.2,0.3-0.4,0.5-0.6,0.8c-3.2-1-4.8-4.1-7.1-6.4c1.8,4.3,2.8,8.8,5.2,12.7c0.6,1,1.1,2.2,1.5,3.3c0.3,0.8,0.6,1.7-0.2,2.3
		c-0.7,0.5-1.2-0.3-1.7-0.8c-1-1-1.9-2-3.4-3.5c2.3,5.2,4.5,9.5,7.7,13.2c1.6,1.7,2.8,3.9,4.1,5.9c0.5,0.8,0.8,1.7,0.1,2.6
		c-0.7,0.8-1.5,0.4-2.1,0.2c-0.9-0.2-1.8-0.8-2.5-1.5c-1.2-1.2-2.1-2.7-4.1-3.8c1.5,2.4,1.8,4.7,2.6,6.8c1.1,3.3,2.1,6.7,3.6,9.8
		c2,4.1,3.7,8.4,6.4,12.2c0.5,0.7,0.8,1.4,0,2.2c-0.7,0.6-1.3,0.3-2-0.3c-1.1-0.9-2.1-1.8-3.2-2.7c2.5,4.7,4.7,9.6,7.8,13.7
		c1.4,1.7,2.8,2.1,4.5,1.4c2.1-0.9,4.1-0.9,5.8,0.9c0.4,0.5,1.3,0.9,1.8,0.8c2.8-0.8,3.8,1.1,4.6,3.3c0.6,1.7,1.6,1.6,2.6,0.5
		c0.5-0.6,0.8-1.5,1.2-2.1c1.1-1.3,2.2-3.2,3.7-0.3c0.2,0.5,0.8,0.9,1.2,0.8c3.2-0.5,3.5,2,3.8,5c0.5-1.7,1-2.6,0.8-3.7
		c-0.4-2.2,0.9-2.9,2.5-2.9c1.5,0.1,1.4,1.6,1.2,2.9c-0.5,2-0.2,3.9,0.3,5.9c0.1,0.5,0.2,1.1,0.8,1.2c0.5,0.2,0.9-0.3,1-0.8
		c0.5-1.9,1.6-1.7,2.9-1.2c1.5,0.5,2.5,1.2,2,3.1c-0.3,1.1,0.1,1.6,0.8,2c1.5,0.8,1.5,2.3,1.6,3.8c0.1,1.3-0.3,2.7,0.8,3.8
		c1.4-0.5,0.8-2.9,2.5-3.1l0.1,0.1c0.4,0.8-0.2,2.4,1,2.6c1,0.1,0.9-1.4,1.3-2.1c0.7-1.3,1.5-2.4,2.2-3.6c0.4-0.6,1.1-1.2,0.7-1.9
		c-1.2-2,0.2-2.9,1.2-3.9c1.1-1.4,2.2-2.6,2.8-4.3c-2.6-0.1-1.5-1.4-0.6-2.4c2.5-2.8,4.1-6,5.6-9.4c0.5-0.9,0.5-2.5,1.7-2.1
		c1,0.2,0.9,1.7,0.9,2.7c0.1,3.8-0.2,7.6,1.8,10.9c0.5,0.8,0.3,1.6-0.7,1.5c-3.2-0.2-1.1,1.7-0.8,2.7c0.3,1.2,2.1,2.6,1,3.5
		c-1.4,1.3-1.5-1.7-2.7-1.8c-0.1,0.2-0.3,0.5-0.2,0.6c0.5,1.7,1,3.4,1.5,5c0.2,0.8,0.5,1.3,0.2,2.3c-1.3,3-0.9,4.1,1.8,6.2
		c0.8-0.9,0.5-2.3,1.5-3.2c1.3-1.2,1.6-2.6-0.5-3.3c-0.7-0.2-1.4-0.8-1.2-1.9c0.2-0.8,0.8-1.1,1.5-1.2c1.6-0.5,3.1-0.8,4.8-0.8
		c2,0.1,4.8-0.5,5.4-2c0.9-2.6,2.8-3.2,4.5-4.2c3.3-2,6.4-4.4,8.8-7.4c0-0.6,0-1.2,0-1.8c0-0.7-0.2-1.4,0.8-1.4c0.5-0.1,1,0,1.4,0.2
		c0.5-0.8,0.8-1.5,0-2.3c-1.7-1.7-1.3-2.9-0.6-4.9c0.5-1.7,1.7-4.7-0.1-5.6c-1.5-0.8-2.6,2-3.8,3.3c-2.9,3.2-5.2,7-9.2,8.8
		c-1.2,0.5-2.5,1.6-3.4,0.2c-0.7-1.1,0.4-2.3,1.2-3.2c1.3-1.7,2.7-3.2,3.8-5c1-1.7,2.4-3.2,3.6-4.8c-5.5,4.6-11.8,6.8-18.3,8.7
		c4-6.8,11.4-9,16.3-14.9c-1.8,0.3-3.1,0.6-4.6,0.7c-0.7,0-1.7,0.2-2.1-0.7c-0.5-1.2,0.7-1.5,1.3-2.1c2.1-2.1,5-2.2,7.3-3.6
		c6.8-4.1,8.7-6.1,7.1-13.6c-0.5-2.6-1.5-1.9-2.7-0.8c-1.4,1.3-2.7,2.7-4.1,3.8c-0.9,0.8-2.1,0.5-2.8-0.5c-0.8-1.1,0.4-1.5,0.9-2.2
		c1.3-1.7,2.5-3.5,4.2-6c-2.1,0.8-2.8,2.1-3.7,2.9c-2.6,2.3-5.2,4.6-8.8,4.7c-0.7,0.1-1.5,0.4-1.8-0.4c-0.4-0.8-0.2-1.7,0.3-2.3
		c0.5-0.7,1-1.4,1.7-1.7c5.8-3.2,9.1-9,12.9-14.3c1.3-1.8,3.5-3.5,3.1-6.5c-0.9,0.6-2,0.9-2.3,1.6c-0.8,2.1-3,2.4-4.2,4
		c-0.7,0.9-2.2,1.7-3.3,0.5c-0.9-1.1,0-2.4,0.7-3.4c0.8-1.2,1.8-2.4,2.8-3.5c2.9-3.1,5.1-6.2,5.6-11.1c0.5-4.4,0-8.7,0.1-13.1
		c0-0.8-0.2-1.5,0.8-1.6c0.8-0.1,1.5,0.1,1.8,1.1c0.2,0.8,0.2,1.4,0.3,2.2c0.7,7.3,4,13.4,8.1,19.1c0.6,0.9,2.1,1.8,1.6,2.9
		c-0.5,1.1-2.2,0.6-3.5,0.8c-0.8,0.1-1.2-0.5-1.7-1c-1.4-1.4-1.8-0.6-1.8,1c-0.2,3.1,5.1,9.9,8.4,10.7c3,0.7,6,1.2,9,1.9
		c1,0.2,2.2,0.4,1.8,2.1c-0.8,2.8-0.4,5.4,0.5,8.1c0.5,1.5,1.8,3,0.9,5c-0.9,1.9,0.2,4.8,2.1,4.8c4.1-0.1,7.4,2.7,11.4,2.9
		c2.8,0.2,5.8,1.3,8.5,0.8c5.1-0.8,9.1,4.8,14.4,2.5c0.3-0.2,1,0.5,1.5,0.8c2.5,2.3,5.5,3.8,8.5,5.1c2.1,1,3.9,2.3,3.8,5.3
		c0,1.4,1,2.2,2,2.9c3.8,2.6,7.6,5.3,11.4,7.8c0.9,0.6,2,1.2,2.8,0.1c3.3-4.3,7.7-7.7,8.7-13.7c0.2-0.9,0.6-1.7,1.4-2.3
		c0.6-0.4,1-1.5,1.9-0.9c0.8,0.6,0.5,1.4,0.2,2.3c-0.8,2.9-1.1,5.9-0.5,9c0.5,2.7,1.7,5,3.3,7.1c0.7,1,2.3,2.5,0.8,3.7
		c-1.2,1-2-1-2.8-1.9c-0.6-0.6-0.8-1.7-1.9-2c1.3,4,3.3,7.4,5.8,10.4c0.6,0.7,1.2,1.5,0.4,2.4c-0.8,0.8-1.6,0.5-2.3-0.2
		c-1.3-1.2-2.5-2.4-4.1-3.9c1.2,3.9,3.5,6,6.1,7.8c0.7,0.5,1.5,1.2,1,2.3c-0.5,1.1-1.5,1-2.3,0.8c-0.8-0.3-1.8-0.8-2.5-1.4
		c-1.8-1.2-2.9-3.2-4.5-5.1c-0.1,2.3,0.4,3.8,1.4,5.1c1.8,2.5,3.8,4.9,5.7,7.4c0.8,1,2.1,2.3,0.8,3.5c-1.2,1.1-2.3-0.4-3.2-1.2
		c-1.5-1.4-2.8-2.9-4.1-4.3c-0.3,0.4-0.5,0.7-0.8,1c1.7,1.5,3.4,3.1,5,4.7c0.6,0.7,1.9,1.3,1.1,2.5c-0.6,0.9-1.8,0.5-2.7,0.3
		c-1.8-0.5-2.8-2.3-4.8-3.6c1.7,3.8,3.7,6.2,6,8.5c1.3,1.2,2.8,2.6,1.6,4.7c-1.2,1.9-2.8,0.5-4.1,0c-0.2-0.1-0.5-0.2-0.8-0.2
		c0.8,5.1,5.2,6.2,8.4,8.4c0.7,0.5,1.8,0.6,1.6,1.8c-0.2,1.1-1.3,1-2.1,1.1c-1.8,0.3-3.3-1.1-5.5-1.7c1.8,2.6,3.5,4.4,5.4,5.9
		c0.7,0.5,1.6,1.1,1.2,2.3c-0.5,1.1-1.3,1-2.2,0.5c-0.4-0.2-1.2-0.6-1.1,0.2c0.5,3.3-1.8,1.3-3.1,1.7c1.5,3.2,2.6,6.5,5.1,8.9
		c0.5-1.4,0.3-2.8,1.5-4.1c0.3,3.5-0.1,6.5-0.8,9.3c-0.9,3.9,2.6,5.7,2.9,8.9c0,0.2,0.5,0.5,0.7,0.5c1.1,0.2,3.7-3.5,3.3-4.7
		c-1.1-3.6-0.5-4.7,2.8-6c0.5-0.2,1.2-0.2,1.3-1.1c-0.8,0.1-1.7,0.2-2.5,0.2c-1.4-0.1-2.1-1.3-2.4-2.4c-0.4-1.4,1.1-1.1,1.7-1.7
		c2.3-2,4.8-3.8,7.1-5.7c0.6-0.5,1.3-1.1,0.9-2.1c-0.5-1.1-1.4-0.9-2.2-0.8c-1.5,0.2-3.3,0.6-3.8-1.1c-0.5-1.8,1.6-1.9,2.6-2.6
		c1.5-1.2,3.9-1.9,4.1-4.1c0.2-2.3,1.3-3.6,2.4-5.1c1.7-2.3,3.7-4.3,4.6-7.1c0.2-0.7,0.6-1.5,1.5-1.1c0.8,0.3,0.7,1.1,0.6,1.9
		c-0.4,3,0.7,5.5,2.2,7.8c0.5,0.8,1.8,1.6,1,2.6c-0.8,1.1-1.7-0.5-2.5-0.6c-0.2,0-0.5,0.1-1,0.1c0.6,2.8,1,5.5,3.5,7
		c0.8,0.6,1.9,1.4,1.4,2.7c-0.5,1.5-1.7,1-2.7,0.5c-1.7-0.8-1.8,0.2-1.5,1.6c0.4,2,1.5,3.3,2.9,4.5c0.7,0.6,1.1,1.5,0.8,2.5
		c-0.3,1.4-1.3,1.2-2.3,1.1c0.4,1.4,1.4,2.3,2.3,3.1c1.2,1.1,2.4,3.4,1.9,4.1c-1.5,2.3,0.1,3.5,1,4.9c0.5,0.8,0.8,1.6,0.3,2.3
		c-0.6,1-1.5,0.5-2.3,0.2c-0.7-0.2-1.4-0.9-2.1-0.5c-0.4,1.5,3,3,0,4.4c1.2,1.9,2.1,3.9,3.5,5.6c0.7,0.8,2,4,3.1,0
		c0.1-0.3,0.6-0.6,0.9-0.5c2.2,0.4,2.8-1.1,2.8-2.9c0-1.4,0.8-2.3,1.7-3.2c0.8-0.9,1.8-1.5,2.1-3.2c-2.8,1.5-3.1-2-5.4-2.3
		c1.2-0.9,2.2-1.3,2.7-2.1c0.8-1.2,2.7-2,1.8-4.1c-0.9-2.1-0.2-3.6,1-5.3c1.7-2.5,4.1-4.6,5.3-8.3c-1.2,1-1.8,1.4-2.3,2
		c-1.2,1.1-2.4,2.6-3.9,0.9c-1.8-1.9,0.6-2.6,1.1-3.8c0.5-1.4,2.5-2,1.7-3.9c-0.5-1.3-0.2-2.2,0.2-3.2c2.6-6.8,6.7-13.2,6.9-21
		c0-0.8,0.4-1.5,1.2-1.5c0.7,0,1.3,0.5,1.3,1.1c-0.1,3.2,2,5.7,2.3,8.8c0.5,5,2.8,9,6.9,11.7c0.5,0.4,1.3,0.5,1.2,1.4
		c-0.2,1-0.9,1.4-1.7,1.4c-1.9,0-1.8,0.9-0.9,2.3c0.6,1,1.3,2,2.1,2.9c1.5,1.7,2.7,3.3,1.7,5.8c-0.3,0.8,0.2,1,0.7,1.4
		c1,0.7,2.7,1.2,2.1,2.9c-0.6,1.6-2.1,0.9-3.4,0.7c-0.4-0.1-0.8-0.2-1.2-0.2c-0.5,0-1.1,0.1-1.3,0.4c-0.5,0.6,0.2,1.2,0.5,1.6
		c1.1,1.1,2.8,1.7,2.8,3.4c0.2,5.6,0.1,11.3,0.1,16.9c1.6,0.2,1.8-0.9,2.2-2.1c1.2-4.1,1.7-8.1,1.5-12.3c-0.1-2.5,0.2-4.7,3.5-4
		c0.7,0.2,1.1-0.4,1.3-1c0.1,0,0.1,0,0.1,0c-1.1-0.2-2.5-0.2-2.8-1.6c-0.4-1.5,0.5-2.5,1.5-3.5c1.5-1.6,3.1-3.2,4.5-4.8
		c0.7-0.8,2.1-1.7-0.1-2.7c-1.5-0.7-1.5-2.2-0.2-3.5c2.2-2.5,4.4-5,6.1-8.3c-1.5,0.4-2.6,2.5-3.8,0.8c-1.2-1.6,0.5-2.7,1.2-3.7
		c3.6-4.4,4-10.2,6.3-15.1c-2.8,1.5-4.2,5.1-7.9,5.9c0.2-0.8,0.2-1.2,0.5-1.4c3.7-4.2,6.2-9.4,9.3-14.2c1.2-2,2.2-4.3,2.6-6.8
		c0.1-1-0.2-2.5,1.1-2.5c1.2,0,1.1,1.6,1.2,2.5c0.7,5.3,1.6,10.5,5.8,14.1c0.4,0.3,0.7,0.8,0.4,1.4c-0.3,0.5-0.8,0.6-1.3,0.5
		c-0.6-0.2-1.2-0.5-2.1-0.8c0.6,2.3,2.2,3.5,3,5.2c0.4,0.9,1.2,2,0.2,2.9c-0.8,0.8-1.5,0.2-2.3-0.4c-0.5-0.5-1.2-1.3-1.8-0.8
		c-0.8,0.7-0.1,1.6,0.3,2.2c1.7,2.9,3.5,5.8,5.1,8.7c0.6,1,1.1,2.1,0,3.1c-1.2,1.1-2.1,0.3-3-0.6c-1.1-1.2-2-2.5-3-3.8
		c0.8,3.5,2.2,6.5,4.2,9.2c0.8,1,2.3,2.2,1.5,3.4c-0.8,1.2-1.8-1-3.4-0.7c1.2,3.2,2.5,6.1,4.8,8.3c1.2,1.1,1.9,2.1,0.2,3.5
		c-1.2,0.9-0.4,2.1,0.2,3c0.4,0.6,1.1,0.9,1.5,1.4c0.6,0.7,1.8,1.5,1.1,2.6c-0.8,1.2-1.8,0.3-2.8-0.1c-0.8-0.3-1.2-1.5-2.5-1.1
		c0.8,2,2.6,1.8,3.9,2.5c0.6,0.3,2,0.5,1.2,1.5s-0.9,1.7,0.3,2c1.6,0.4,0.9-1.1,1.1-1.9c0.4-1.9-0.6-4.7,2.8-4.4
		c0.2,0,0.6-0.8,0.7-1.3c0.7-3.5,2.2-6.6,3.2-10c0.2-0.7,0.2-1.9,1.2-1.8c0.7,0,0.8,1,1.1,1.7c0.2,0.5,0.3,1.1,0.5,1.5
		c0.8,2,1.1,4.4,2.4,5.6c1.2,1.1,3.1-0.9,4.8-1.1c0.2,0,0.4,0,0.5-0.1c5.2-1.4,10.4-3.2,14.6-6.9c1.4-1.2,3.2-2.3,3.4-4.4
		c0.5-5.6,0.6-11.1,0.1-17.5c-4.9,7.4-10.8,12.3-18.1,15.3c1.2-2.1,2.7-4,4.1-5.9c0.2-0.2,1.4-0.8,0.2-1.1c-1.2-0.4-0.9-0.8-0.2-1.3
		c2.8-2.2,5.5-4.4,8.5-6.8c-0.8-0.3-2.5,1-1.7-0.9c2.1-4.5,3.4-9.6,6.3-13.6c1.5-2,1.3-4.1,0.9-6.5c-2,1.4-3.7,2.8-5.4,4
		c-0.6,0.5-1.3,1.2-2.1,0.7c-1.2-0.8,0.7-1.5-0.1-2.6c-0.9,0.7-1.8,1.3-2.8,1.9c-1.2,0.7-2.5,1.1-3.8,0.8c-0.6-0.1-1.1-0.5-1.2-1.2
		c-0.2-0.8,0.2-1.3,0.8-1.4c3.5-0.3,5.8-2.9,8-5.2c3.8-4.1,6.4-9.1,8.2-14.7c-2.1,2.1-4.6,3-6.9,4.5c-0.9,0.5-1.9,0.5-2.5-0.6
		c-0.7-1.1,0.3-1.6,0.9-2.2c1.6-1.6,3.1-3.2,5.1-4.4c-1.7,0.5-3.1,1.5-4.6,1.9c-1.2,0.2-3.1,1.4-3.6-0.2c-0.5-1.6,1.6-1.9,2.8-2.5
		c5.4-2.8,11.1-5.1,11.2-13.3c0-2.6,2.6-1.6,4.1-1.8c1.2-0.2,0.6,1.3,0.6,2c0.1,1.2,0.2,2.5,1.4,2.8c2,0.5,3.6,2,5.8,2.3
		c3.3,0.5,3,4.1,3.9,6.6c0.8,1.9-1.4,1.3-1.7,2c-1.2,2.6-3.3,1.4-5,1.7c-0.8,0.2-2.3-0.1-1.2,1.7c1.5,2.6-0.2,2.6-1.7,2.4
		c-1.8-0.3-2.1,2-3.6,2c0,1.5,1.2,2.2,2,2.9c0.8,0.8,1.9,1.4,2.9,2c3.6,2.3,7.1,4.8,11,6.5c-3.7,1.4-7.1,1.1-10.5-1.3
		c0.6,3.1,3.4,3.2,4.5,5.3c-4.6,1.4-6.7-3.4-10.7-5.1c1.9,7.1,0.2,13.6,0.8,20.2c0.5,6.3,3.1,10.8,7.2,14.8c1.5,1.4,2.6,1.2,3.7-0.8
		c1.8-3.3,2.7-6.9,4-10.4c-0.6,0.4-1.1,0.9-1.6,1.4c-0.7,0.7-1.5,1.4-2.3,0.6c-0.8-0.9,0.4-1.4,0.8-2c2.5-3.6,4.9-7.1,7.3-10.8
		c0.7-1.1,0.8-2.9,2.5-2.6c1.5,0.4,1.5,2,1.7,3.3c0.5,5,1.5,9.8,4.2,14.1c1.2,1.7,0.4,4.9-0.5,5.4c-2.7,1.5-1,2.9-0.3,4.1
		c0.8,1.3,1.9,2.3,3,3.3c1.2,1.1,1.8,1.9,0.4,3.5c-1.2,1.4-2.1,3.4,0.2,4.7c3.2,1.9,4.1,6.3,7.6,7.8c0.5,0.2,0.8,0.7,0.5,1.3
		c-0.2,0.5-0.8,0.6-1.2,0.5c-0.8-0.2-1.8-0.5-2.7-0.8c0.7,1.1,1.5,1.6,2.3,2.1c0.5,0.4,0.8,0.8,0.4,1.5c-0.4,0.5-1.8,0.6-0.8,1.8
		c0.8,1,1.7,1.7,3,1.1c0.7-0.3,1.5-0.8,2,0.2s-0.2,1.7-0.8,2.5c-0.5,0.7-1.5,0.6-1.8,1.7c1.5,0.6,2.1,1.9,1.9,3.6
		c-0.2,1.9-0.8,4.3,1.2,4.9c1.8,0.6,2.6,1.9,3.7,3.2c0.2,0.2,0.6,0.1,0.8,0c3.5-1.4,7.5-1.4,9.9-5.5c1-1.7,2.3-3.5,4.6-3.8
		c1-0.2,1.6-1.9,1.4-2.1c-2.1-2,0.5-3.4,0.6-5.2c-1.4,0.1-2.4,0.7-3.1,1.7c-0.3,0.4-0.6,0.9-1.2,0.4c-0.5-0.5-0.3-1,0-1.4
		c0.8-1.3,1.5-2.6,2.7-3.6c2.8-2.3,4-5.7,4.8-9.3c-1.2,1.6-2.1,3.2-3.6,4.4c-0.7,0.6-1.5,2-2.4,1.1c-1-0.9-0.2-2.1,0.4-3.1
		c1.3-2,2.6-3.9,3.7-7c-1.2,1.1-1.8,1.7-2.5,2.3c-0.6,0.5-1.3,1.4-2,0.5c-0.8-0.9,0.2-1.5,0.7-2c2.8-2.2,3.9-5.5,5-8.9
		c1.6-5.2,3.2-10.4,4.8-15.6c0.3-0.8,0.5-1.7,1.5-1.7c1.1,0.1,1,1.1,1.1,1.9c0.1,0.9,0.1,1.9,0,2.8c-0.4,4.8,0.5,9.3,2.7,13.5
		c1,1.9,2.4,3.2,3.8,4.6c0.4,0.4,0.9,0.8,0.6,1.6c-0.3,0.8-1,0.5-1.5,0.4c-0.5-0.2-1.1-0.3-1.6-0.5c0,0,0,0,0,0
		c0.4,0.6,0.9,1.2,1.3,1.8c1.5,1.8,1.5,3.2-1.1,4c1.4,1.4,2.6,2.9,4.5,3.2c0.5,0.2,1.2,0.4,1.2,1.1c-0.1,0.8-0.8,0.9-1.3,1.1
		c-1.7,0.5-3.2-0.3-5-0.8c0.7,2.6,2.4,3.3,4.1,3.8c1,0.3,1.8,0.9,2.1,2c0.3,0.8-0.3,1.1-0.8,1.4c-1.2,0.6-2.3,1.6-1.5,3.1
		c0.6,1.4,1.8,2.3,3.5,2c3.2-0.6,6.4-0.9,9.6-1.9c12.5-3.8,25.3-3.8,38.1-2.9c2.3,0.2,9.1,10.2,8.2,12.6c-2.7,7.7-2.6,16.2-5.9,23.7
		c-0.7,1.7-0.2,2.7,1.1,4c2.4,2.3,5.6,3.8,6.7,7.1c1.2,3.5,3.3,4.3,6.3,4.7c2.6,0.4,5.7-0.3,7.7,2c2.2,2.5,4.9,4,7.6,5.6
		c2.5,1.5,5,3.2,6.8,5.6c1.3,1.7,1.3-1,4.6,2c3.3,3,0,12.8,0,12.8c5.4,0.2,10.7-0.8,15.7-3.2c4.6-2.3,7.1-6.2,6.2-11.1
		c-0.2-1.3,0.1-2.6,0-3.9c-0.2-2.2,0.9-4.5-0.2-6.9c-3.3,3.2-6.1,6.4-10.5,7.5c-1,0.2-2.4,0.9-3-0.1c-0.8-1.2,1.2-1.3,1.5-2.2
		c-2.2,0.2-4.5,0.5-6.8,0.8c-1.3,0.2-3.5,1.3-3.8-0.5c-0.3-1.7,2.1-1.7,3.5-2.1c5.1-1.5,10.1-3.1,14.2-6.5c1.8-1.5,4.3-2.8,4.2-5.6
		c-0.1-4-0.3-8-0.5-12c0-0.5,0.4-1.2-0.4-1.4c-0.7-0.2-1.2,0.3-1.4,0.8c-1.3,2.6-3.6,4.4-5.8,6.2c-3.2,2.9-7,5.2-11.1,6.7
		c-0.8,0.2-1.8,0.7-2.3-0.4c-0.4-0.8,0.5-1.4,1.1-1.8c1.8-1.4,3.6-2.8,5.6-4.3c-1.4-0.1-2.5,1-3.7,0c0.8-1.4,2.5-1.7,3.6-2.6
		c2-1.6,5-2,6.4-4.4c-2.8,1.6-5.7,2.5-8.9,2.6c-0.2-0.2-0.2-0.3-0.4-0.5c9.2-4.4,18-16.6,16.1-22.6c-1.6,1.2-3.1,2.5-4.8,3.6
		c-0.8,0.5-1.6,1.8-2.7,1c-1.1-0.8,1.1-1.4,0.5-2.4c-0.8-0.2-1.2,0.5-1.7,0.8c-1.5,0.9-2.8,2-4.7,2c-0.9,0-1.8,0-2-1.1
		c-0.2-1.1,0.6-1.5,1.6-1.4c0.9,0.1,1.5-0.5,2.1-0.8c6.8-4.3,10.4-10.8,12.9-17.9c-2.1,1.5-4.3,2.9-6.4,4.4c-1,0.6-2.2,1-3.1-0.2
		c-0.8-1.1,0.5-1.5,1.1-2.2c2.1-2.4,5.1-3.9,7.1-6.4c1.5-1.7,1.5-4,3-5.6c0.5-0.6,0.8-1.4,1.8-1.3c0.9,0.2,1.2,1.1,1.2,1.7
		c0.2,4.1,2.6,7,5.3,9.7c0.5,0.4,1.3,0.7,0.7,1.5c-0.4,0.5-1.1,0.8-1.8,0.7c-1.5-0.2-2.8-1.1-4-1.9c-0.8,4,1,6.1,4.4,7.6
		c4,1.8,7.6,4.3,12.6,5.8c-4.4,1.2-7.7,1.7-11.2-0.7c0.8,2.9,3.6,2.9,5,4.7c-2.9,0.8-4.9-0.4-6.9-1.7c-0.8-0.6-1.7-1.2-2.6-1.7
		c-0.6-0.5-1.3-0.2-1.2,0.5c0.8,3.5-0.2,7.3,3.2,10.1c3.3,2.6,7,3.6,11,4.1c2,0.2,4.1-0.3,6.1,0.8c-2.9,2.6-6.4,2.3-9.6,2.8
		c1.7,1.9,4.1,1.1,6.1,1.1c4.4,0.2,8.3,1.8,12.4,3c-9.6,1.8-19,2.6-27.6-3.1c-0.5,7.4,2.8,12.6,8.4,16.9c5.8,4.4,12.5,3.9,19.2,3.9
		c-7.3,3.3-14.6,2.2-22.2-0.2c4.9,4.7,11.1,5,16.9,6.2c-4.9,2.3-10.2,2.3-15.8,0.2c-0.8-0.3-1.8-1.1-2.6-0.1c-0.6,0.8-1,1.9-0.5,2.9
		c0.2,0.6,0.5,1.4,1,1.7c1.9,1.7,3.1,4.1,5.3,5.5c1.8,1.2,1.2,2-0.5,2.7c-1,0.4-2.2,0.4-2.8,1.7c8.8,3.7,34.2-3.4,35.5-9.9
		c-1.5,0.5-3,0.8-4.5,1.2c-0.5,0.2-1.2,0.4-1.6-0.2c-0.5-0.7,0.1-1.4,0.5-1.7c0.9-0.8,2-1.4,3-2c-0.5-1.1-2.4-0.9-1.9-2.3
		c0.4-1.3,1.8-1.1,2.9-1.4c1.6-0.3,3.2-0.5,4.8-0.8c1.1-0.3,2.5-0.8,1.9-2.3c-0.5-1.4-1.6-0.2-2.5-0.2c-0.5,0-1.1,0.2-1.6,0.5
		c-0.8,0.3-1.8,0.8-2.2-0.4c-0.5-1-1.6-2.2,0.2-3c0,0,0,0,0,0c-0.1-0.1-0.1-0.1-0.2-0.2c0.1,0,0.2,0,0.3,0c0.2-1.9,1.2-2.9,3-3.9
		c2.4-1.4,4.3-3.6,6.8-5c-2.5,0.5-4.8,1.1-7.1,2c-0.8,0.3-1.6,0.5-2-0.5c-0.5-1.1,0.4-1.2,1.1-1.6c1-0.5,2.3-0.8,3.1-1.8
		c-1.2-0.7-2.7,0.3-3.8-1.3c4.1-0.5,7.4-2,9.9-5c-2.8,0.8-3.5-4.4-7-1.9c3-3,5.9-5.5,8.9-7.9c1-0.8,1.5-1.7,1.3-2.9
		c-2.4,1.2-4.5,3.2-7.4,2.9l-0.1-0.1c0.6-1.7,2.8-2.3,3.6-4.1c-1.4-0.5-2.6,0.8-3.9-0.5c1.1-0.6,2.5-0.8,2.7-2.3
		c0.2-2-2.4-0.2-2.5-1.8c1.1-1.7,3.4-1.9,4.7-3.4c-0.9-0.9-2.2,0-3.1-1.1c1.6-2,4.4-2.3,6-4.1c0.5-1.3-1.1-0.5-1.2-1.2
		c0-0.3-0.1-0.5-0.1-0.8c0.8-0.9,1.7-1.7,2.5-2.6c0.5-0.3,1.5-0.5,0.8-1.3c-0.4-0.4-0.9,0.4-1.2,0.8c-0.8,0.3-1.6,0.5-2.4,0.8
		c-0.6-0.5-0.5-1-0.2-1.5c2.3-1.1,3.8-2.8,3.2-5.5c-1.5,0.6-2.9,1.1-4.4,1.7c-0.1-0.2-0.2-0.2-0.4-0.1c1.2-2.1,2.8-3.7,4.9-4.9
		c3-1.7,4.3-4.4,5.1-7.6c-1.5-0.2-2.8,1.7-4.1,0c0.5-0.3,1.1-0.5,1.3-1c1.8-3.5,5-6.2,5.9-10.2c0.3-1.3,1.2-1.7,2.3-1.7
		c1.2-0.1,1,1.1,1.2,1.9c0.5,1.9,0.7,3.9,1.5,5.6c1.5,3,2.7,6.5,6.8,7c0.2,1.7-0.8,1.2-1.8,1.1c-1.7-0.2-2.4-2.2-4.1-2.3
		c-0.2,0-0.5,0-0.7,0c0.1,0.2,0.2,0.5,0.3,0.7c0.7,2.3,2.7,3.6,3.9,5.5c1.5,2.3,1.8,5.2,4.2,6.8c-0.5,0.1-1.2,0.1-1.8,0.2
		c-2.1,1.2-4.1,2.3-2.1,5.1c0.2,0.3,0.3,0.7,0.5,1c0.1,0.7,0.1,1.4,0.8,1.7c2.5,1.1,3.7,3.5,5.5,5.4c-1.8,0.9-3.5-0.8-5.4-0.1
		c0.7,0.6,1.3,1,1.7,1.5c0.9,1.4,0,5.3-1.2,5.1c-1.2-0.2-2.3-0.4-2.6,0.9c-0.3,1.1,1,1.7,1.8,2.3c2.4,1.8,5,3.2,8.4,4.4
		c-2.9,1.2-5.2,0.8-7.4,0c-0.6-0.3-1.3-0.5-1.8,0.2c-0.4,0.8,0.2,1.3,0.7,1.7c1.5,1.4,3.2,2.6,4.8,3.9c0.4,0.4,1.5,0.5,1,1.4
		c-0.4,0.8-1.2,0.9-2,0.7c-1.5-0.4-2.9-0.9-4.4-1.4c-0.8-0.3-1.7-1.1-2.6-0.2c-0.9,1,0,1.8,0.5,2.6c1.2,2,2.7,3.8,4.6,5.3
		c1.5,1.1,3,2.3,4.5,3.5c0.7,0.6,0.8,1.2-0.3,1.6c-0.7,0.2-1.4,0.4-2,0.6c0.1,1.2,2.1,1.2,1.5,2.3c-0.8,1.3-2.4,0.3-4.2,0.5
		c1.9,0.9,3.3,1.7,4.8,2.3c1.4,0.6,1.6,1.5,1.2,2.9c-1.2,3.6,0.2,6,4.1,7.1c1.9,0.5,4.1,0.9,2.1,3.9c2.7-1.6,5.1-3.4,5.8-6
		c0.9-4,4.3-6.5,5.2-10.4c0.3-1.4,1.5-1.5,2.5-1.2c1.2,0.3,0.5,1.3,0.3,1.9c-1,3.5-1.2,7.1-0.6,10.6c0.3,2,0.4,4.7,2.1,5.7
		c1.7,1.1,2.4,2.2,2.8,3.8c-0.2,0.2-0.2,0.2-0.4,0.4c-2.3,1.1-3.5-0.7-5.7-2.4c1.7,3.3,3.1,5.7,5.4,7.7c0.8-1.5,1.2-2.9,2.5-3.8
		c0.5-0.3,0.5-0.7,0.2-1.2c-1-2.4,0.1-4.4,2.6-4.2c6,0.4,11-2.6,16.3-4.5c2.5-0.9,3.2-2.8,3.8-5.6c-1.8,1.2-2.9,2.2-4.2,2.9
		c-2.1,1.1-4.6,3.8-6.5,2.9c-3.3-1.5-6.3-0.5-9.4-0.5c-0.8,0-1.2,0-1.4-0.8c-0.4-2.1-1.8-3.4-3.5-4.8c2.7,1.2,5.3-1.1,7.4-0.4
		c5.2,1.8,9.1-0.2,13-2.9c0,0,0,0,0,0c0-0.1,0-0.1,0.1-0.2c-2.4-0.5-5,1.2-7.4,0.2c0.5-1.8,2.8-1.6,3.3-3.2
		c-1.6-0.3-2.8,0.8-4.2,0.8l0.1,0.1c-3.5,0.4-6.4-2.1-9.8-2.4c-0.8-0.1-0.8-0.6-0.6-1.2c0.6-2.8,1.5-3.5,3.8-1.7
		c2.2,1.7,4.1,1.1,6.1,0.8c0.5,0,0.9,0,1.4-0.2c1.8-0.5,3.7-1.1,5.1-3c-3.7,0.3-7,2.3-10.4-0.2c2.2-1,4.5-1.2,6.8-2.9
		c-3.3,0.1-5.8-0.2-7.8-2.4c4.3,1,8.2-0.2,11.8-2.1c3.8-2,5.4-2.4,7.4-8.7c-8.9,4-10.8,4.2-12.7,1.2c1.1-0.3,2.1-0.5,3.1-0.8
		c2.3-0.8,4.7-1.7,6.3-3.7c0.4-0.6,1.2-1.2,0.6-2c-0.5-0.6-1.3-0.2-1.8,0.1c-4,2.3-7.5-0.2-11.2-1c-0.8-0.2-1.6-0.8-1.3-1.9
		c0.3-0.9,1.3-0.9,2-0.7c1.5,0.5,2.9,0,5.1-0.4c-3.1-1.2-6.7-0.4-8-3.8c0.5-0.5,0.9-0.2,1.4,0c4.4,2.2,8.7,1.1,12.7-0.5
		c2.6-1.1,5.3-2.3,7.1-4.7c1-1.3,1.5-2.9,0.6-4.1c-1-1.4-2.2,0.1-3.3,0.5c-3.6,1.4-7.1,2.1-11.1,0.8c1.1-1.5,2.9-0.7,4.1-1.9
		c-0.7-0.2-1.2-0.4-1.7-0.5c-0.9-0.2-2.5-0.4-2.2-1.6c0.2-1.2,1.8-0.7,2.8-0.5c1.6,0.3,3,0.2,4.5-1c-1.6-1-3.6-0.6-4.7-2.1
		c-0.7-0.8-1-1.7-0.5-2.7c1.3,0,1.7,1.4,2.8,1.7c0.2,0.1,0.4,0.1,0.6,0.2c0.4,0,0.7-0.1,1.1-0.1c2.9,1.3,5.6,0.4,8.4-0.6
		c-1.2-1.6-2.6-1-3.7-1.5c-0.5-0.2-1.6-0.2-1.5-1.1c0.2-0.9,1-0.8,1.8-0.7c3.8,0.4,6-1.9,5.7-5.5c-0.1-0.5-0.2-0.9-0.8-0.8
		c-0.7,0.2-1.5,0.4-1.7-0.5c-0.3-0.9,0.8-1.1,1.3-1.6c0.5-0.3,0.8-0.8,1.2-1.2c0.5-0.8,1.7-1.6,1.2-2.4c-0.6-1.1-1.7-0.2-2.5,0
		c-0.8,0.1-1.5-0.4-2.1-1c3.2-1.7,6.3-3.4,7.8-7.3c-2.5,0.7-4.2,1.8-6.4,2c-0.7,0.1-1.6,0.7-1.8-0.5c-0.2-0.8,0.8-0.9,1.4-1.1
		c2.4-0.6,4.1-2.1,5.4-4c1.2-1.7,2.2-3.4,3.8-5c1.1,2,1.5,3.6,1,5.6c-0.5,2-0.9,4.1-0.2,6.1c1.4,3.8,2.6,7.7,5.4,10.9
		c0.5,0.5,0.8,1.1,1.1,1.7c0.5,0.8,0,1.2-0.8,1.2c-1.2,0.1-1.8-0.8-2.8-1.3c-1.2-0.7-1.5-2.5-3.4-2.4c0.3,3.1,0.8,5.7,3.9,7.3
		c2.7,1.4,5.8,1.3,9.3,2.4c-2.6,1.2-4.5,2-6.7,2c-0.5,0-1.6-0.2-1.3,0.9c0.6,2.6-1.1,2-2.4,1.5c-2-0.7-3.5-2.2-5-3.5
		c0.9,7.9,5.5,12,13.8,12c-1.7,2.6-4.7,1.5-6.8,2.9c0.9,1,1.8,1.7,3,1.9c1,0.2,1.8,0.7,1.6,1.7c-0.2,1.1-1.3,0.8-2.1,0.8
		c-0.5,0-1.2-0.2-1.7-0.2c-3.3-0.2-5.3-2.9-8.2-3.8c-0.8-0.3-1.4-0.7-2.1,0s-0.5,1.4,0,2c2.4,2.9,4.5,6.2,8.2,7.9
		c4,1.8,7.8,4.1,12.3,4.5c0.4,0.1,1,0.2,0.8,1.1c-2.1,0.9-4.4,0.8-6.7,0.7c-1,0-2.5-0.5-2.2,1.1c0.2,1.4-1.2,3.5,1.2,4.1
		c1.2,0.3,2.8,1.1,3.3-1.2c0.2-1,1.2-1.6,2.2-1.4c1.2,0.2,1.8,1.1,1.9,2.2c0.2,2.3-0.3,4.4-3,5.3c2.1,2,5,1.8,7.3,2.9
		c1.1,0.5,1.9-0.4,2.2-1.5c-2.5-0.7-2.3-2-0.7-3.5c4.4-4.3,7.5-9.4,9-15.4c0.3-1.3-0.1-3.6,2.1-3.4c1.8,0.2,1.2,2.6,1.8,3.8
		c0.2,0.4,0.1,0.9-0.1,1.4c-1.5,4.4,0.4,8.3,2.1,12.2c0.9,1.9,2.1,3.9,4.8,3.9c0.9,0,1.2,0.6,1,1.4c-0.2,0.8-0.8,0.8-1.4,0.7
		c-1.9-0.5-4.1-0.2-5.8-2c-0.2,2,0.4,3.5,0.5,5c0.3,3,2.3,3.7,4.6,3.2c4.9-1.1,8.1-4.8,12.3-7.7c-2.7-0.8-3.8,1.8-6.1,1.2
		c1.1-2.3,4.7-3.3,2.9-6.6c-0.5,0.2-1,0.4-1.5,0.5c-0.8,0.2-1.7,1.3-2.2,0.3c-0.6-1.1,0.8-1.4,1.5-2c0.2-0.2,0.5-0.2,0.8-0.4
		c5.4-3.8,9.8-8.2,11.8-14.6c-0.3,0.2-0.7,0.2-1,0.4c-0.7,0.4-1.2,1.7-2.1,0.8c-0.6-0.6,0.5-1.3,0.8-1.9c1.6-3.1,4.5-5.4,5.9-8.8
		c1-2.2,1.8-4.8,4.3-6.4c1,1.1,0.9,2.3,0.8,3.5c-0.5,4.8,1.2,9.2,2.5,13.7c0.4,1.3,2.9,2.9-0.6,3.7c-0.5,0.2,0,0.8,0.2,1.2
		c1,2.2,2,4.4,3.1,6.5c0.8,1.6,0.3,2-1.2,2.1c-0.2,1.3,1.9,1.3,1.6,2.6c-2.4,1-4.1-0.3-6.1-1.4c3.8,5.8,3.1,13.2,8.3,18.7
		c-2.9-0.1-4.1-2.2-6.1-2.4c1.1,3.2,4.6,3.6,6.8,5.5c0.6,0.5,0.8-0.2,1-0.8c1.1-4.1,2.2-8.2,6.9-9.9c0.5-0.2,1.1-0.8,1.4-1.4
		c0.9-1.7,2.4-2,4.1-1.9c2.4,0.2,4.6-0.3,6.8-1.5c3.9-2.1,8-4.7,12.9-2.7c0.2,0.1,0.6,0.1,0.8-0.1c2.6-1.1,4.8-0.3,6.9,1.3
		c2.1,1.5,4.1,1.2,5.7-1c2-2.8,4.8-5.3,4.7-9.1c0-1,0.9-1.4,1.6-1.9c3.2-2.6,7.1-3.6,10.8-5.2c3.5-1.6,7.7-2.1,10.6-4.8
		c2.8-2.6,5.8-5,9.1-6.8c1.9-1.1,2.4-2.2,1.1-4c-1.5-2-1.5-4.3-0.8-6.7c1.2-3.6,2.1-7.2,3.2-10.8c2-6.3,0.5-11.7-4.7-15.9
		c-4.1-3.5-6.8-8.2-10.7-12c-0.5-0.5-0.9-1.1-0.9-1.7c0-1.7-0.8-2.8-1.9-3.6c-3.2-2.3-2.8-5.2-2.1-8.4c1.2-5.6,3.3-10.9,4.5-16.5
		c1.2-5.1,3.4-6.4,7.4-6.4c4.8,0,9.7,0.2,14.5,0.5c9,0.6,18,0.6,27,0.5c3.7-0.1,7.4-0.7,11.1,0.5c1.2,0.4,2.2,1.4,3.7,1.4
		c3.5,0.1,7.1,0.4,10.6,0.6c4,0.2,3.8,0.2,4-3.8c0.1-2.9-0.6-5.9,0.8-8.9c0.2,3.2,0.5,6.4,0.7,9.6c0.7-1.9,0.3-3.8,0.5-5.6
		c0.6-5.9,1.2-11.8,1.2-17.8c-0.1-1.9,0-4.7,1.8-5.4c1.4-0.5,1.4-1.1,1.5-2c0.2-2.3,0.2-4.7,0.5-7c1.5-9.5,1.2-19.2,4.5-28.3
		c0.2-0.5,0.2-1,0.8-1.1c0.8-0.1,0.9,0.6,1,1.1c0.3,1.4,0.2,2.9,0.1,4.4c1.1-2.9,0.5-6.2,2.5-9c-0.2,13.4-2.3,26.6-3.5,39.9
		c1.8-3.2,1.3-7.1,3.9-9.9c-0.5,8.7-3.1,17-3.5,25.6c1.5,0.8,0.2,2.5,1.2,3.6c6.2-6,12.4-11.8,18.2-18.1c1-1.1,1.9-2,3.5-2.4
		c6-1.4,11.4-3.6,16.5-7.4c3.5-2.6,7.8-4.1,10.2-7.9c0.4-0.7,1.4-1.1,2.1-1.4c4.5-1.5,8.6-4,12.9-5.9c4.9-2.2,9.9-4.1,11.5-9.9
		c0.2-0.5,0.7-0.7,1.2-0.4c2.1,1.4,2.6-0.5,3-1.7c1.5-4.1,2.8-8.2,5.1-12c1.6-2.6,1.8-6,3.6-8.5c5.4-7.7,4.9-16,3.5-24.6
		c-0.2-2.5-0.4-5-0.5-7.5c-0.5-13.6-1.2-27.3-0.9-40.9c0.1-4.1-0.3-8.3-0.5-12.6c0-1,0.4-1.7,1.3-1.9c1.2-0.2,1.4,0.8,1.5,1.7
		c0.2,1.7,0.3,3.4,0.5,5c-0.2,0.5-0.2,1,0.1,1.4c0,1.1,0.1,2,0.1,3.1c-0.5,8.1,1.6,15.8,3.5,23.5c0.1,2,0.2,3.9,0.3,5.8
		c0.1,5,0.2,9.9,0.1,14.8c-0.1,2.1-0.2,3.8,2.6,3.8c0.1,0.8,0.2,1.4,0.3,2.2c1,1.3,1.9,2.6,2.9,3.8c0.2,0.2,0.4,0.5,0.6,0.7
		c2.4,0.4,3,2.6,4.5,3.8l0.2,0.2c0.4,0.3,0.7,0.7,1,1.1c0.2,0.2,0.3,0.3,0.5,0.5c0.3,0.4,0.6,0.8,0.8,1.2c0.4,2.3,2.4,3.3,3.9,4.6
		c1.2,1,1.6,3.4,3.1,3.2c1.5-0.2,2.9-1.7,4.3-2.6c0.3-0.2,0.5-0.5,0.8-0.8c0.2-0.3,0.5-0.6,0.2-1c-2.1-3.4,0.3-6.2,1.2-9.3
		c0.8-0.9,0.8-2,0.8-3.1c0.8-1,2-1.4,3.1-2c1.2-0.6,2.1-1.4,3-2.6c0,0.2,0.1,0.2,0.2,0.3c1,1.3,2.4,1.4,3.8,0.9
		c-0.2,0.2-0.2,0.6-0.5,0.7c-2.6,0.7-3.3,1.9-1.3,4c0.2,0.2,0.2,0.5,0.2,0.8c-0.1,4,3.2,5.6,5.8,7.6c1,0.7,1.5,0.2,2.1-0.6
		c1-1.2,2.7-2.4,3.8-2c2.2,0.8,3.1-0.7,4.5-1.5c2.3-1.4,4.1-3.7,7.6-2.9c1.8,0.5,3.5-1.3,4.6-2.9c0.6-0.8,0.8-2.3-0.6-2.9
		c-1.8-0.6-2.8-2.3-4.9-2.7c3.1-1.1,6.3-2,9.6-3.8c-2.1,0.1-3.9,0.5-4.8-1.4c2.3-0.9,2.3-3.6,4.4-5c-1.7,0.2-3-0.2-4.2-0.5
		c-0.5-0.2-1.2-0.2-1.2-1c-0.1-0.8,0.6-1.2,1.2-1.4c4.4-1.1,7.6-4,11.1-6.5c0.1-0.2,0.4-0.5,0.3-0.5c-0.3-0.4-0.6-0.2-0.8,0.1
		c-1.2,0.4-2.5,0.8-3.8,1.2c-0.8,0.3-1.5,0.4-1.9-0.5c-0.5-0.9,0-1.4,0.7-1.9c0.5-0.3,0.8-0.8,1.3-1.1c3.1-1.5,5.1-4,7.6-6.2
		c-2.4-0.7-2.7-1.4-0.8-3.4c4.9-5.2,7.1-11.8,10.1-18.1c1.1-2.3,1.6-5,4.2-6.7c0.2,1.6,0.7,2.9,0.6,4.1c-0.5,5.8,1.5,11,3.9,15.9
		c1.6,3.4,1.3,5.5-1.7,7.1c-0.7,0.4-1,1.1-0.8,2c0.4,0.9,0.7,1.9,1.5,2.6c1.3,1.3,2.9,2.4,3.8,4.1c0.8,1.5-0.5,3.8-2.8,3.8
		c3,0.7,4.8,2.3,7.1,3.3c0.9,0.4,1.5,0.5,2.5,0.1c1.3-0.6,0.2-1.2,0.1-1.8c-0.4-1.7,0.8-1.7,1.8-1.6c2.5,0.4,4.9,0.1,7.1-1.2
		c2.6-1.7,5.5-2.9,8.4-4.1c1.5-0.6,2.8-2.1,4.8-0.4c1.1,1,0.3-0.3,0.3-0.6c0.1-0.8,0.8-0.7,1-0.5c1.2,2.4,3.2-1.8,4.3,0.7
		c0.5-1.7,2.3-0.7,3.3-1.3c3.8,0.2,7.2,1.3,9.4,4.6c0.2,0.4,0.9,0.5,1.4,0.8c3.1,2.2,7.4,2.1,10.2,4.8c1.6,1.6,2.5,1.1,3.4-0.5
		c0.8-0.5,0.8-1.4,1-2.2c0.6-3.1,2.2-5.2,4.4-6.1v-16.9v-65.6l-16.9-15.9l-19.2-17.2v-9.4l-52.2-8.9c0,0-26.9-13.3-38.4-17.2
		c-11.5-3.9-23-13.3-35.3-23.8s-75.2-12.2-75.2-12.2l-9.2-3.9l-23.8,5l1.5,15l6.1,18.3l-5.4,28.3l-10,12.2l-6.9,15l2.3,22.7
		l14.6,25.5l-10,17.8c0,0-6.9,25.5-16.1,31.1c-9.2,5.6-13.8,7.2-13.8,7.2v16.1v7.7l-6.1,5.6l-14.6-5.6h-6.9l-43.7,40.5l-18.4-1.7
		l-23.8-7.2h-20.7c0,0-5.4-6.1-29.2-10.5c-23.8-4.4-30.7-7.2-30.7-7.2l-13,3.3l-10.7,4.4l-5.4,1.1l-16.1,10.5l-12.3-2.3l-8.4,2.3
		c0,0-6.9-0.5-13,3.9s-45.3,9.4-45.3,9.4l-2.3-0.5l-3.8-1.7l-2.3-2.8L776,267l-6.9-2.3h-8.4l-6.1-2.3l-4.6-1.7l-4.6-1.7l-5.4-1.1
		l-3.1-2.8l-2.3-1.1l-6.1-1.7l-6.1-3.3v1.7l-10.7-3.9v7.2l-6.1,5l-3.8-1.7l-3.1-0.5l-2.3-1.7l-3.1-1.1l-6.1-4.4l-1.5,3.9l-6.9-2.8
		c0,0-3.8-3.9-4.6-5c-0.8-1.1-13-2.8-13-2.8l-8.4,10.1l-4.6,2.8l-3.8-1.1l-3.1,3.9v4.4l-5.4,1.7l-10.7,8.9l-3.8-1.1l-22.3,2.2
		l-35.3-5.6l-7.7,6.7l-23.5-6.8l-34.8-39l-63.1-37.7l0.4,8.4l-53.3-37.6l-8.3,0.7l-52.1-27.3H301l-19-18.2l-14.2-24.7l-104.1,41
		l-9.4-5.2l-28.1,12.4l-58.4,26l-21.3,45.5L32.3,212L1.1,234C0.4,241.5-0.6,248.9-0.8,256.3z M1280.6,217.5
		c-0.3,0.6-0.7,1.2-1.1,1.7C1279.1,218.6,1279.4,218,1280.6,217.5z M952.5,343.7c0,0,26.9,1.1,38.4,1.1c1.5,3.9-8.4,2.3-8.4,2.3
		s-9.4,7.4-4.6,6.6c5.8-0.9,50.7,1.7,64.5,2.3c6.1,1.4,0,2,0,2l1.5,1.7c0,0-2.3,2.8-5.4,2.3c3.1,2.3-13.8,6.1-16.9,7.2
		c-3.8-1.7-3.1-5.6-3.1-5.6s-1.5,5-8.4,5.6c-6.9,0.6-16.1-0.5-16.1-0.5s-1.5-7.7-6.9-6.6c-5.4,1.1-21.5,2.8-21.5,2.8
		s-10.7-6.1-9.2-7.7c1.5-1.7-5.4-10-5.4-10L952.5,343.7z M873.5,318c-11.5-1.1-16.1-3.9-16.1-3.9c0-1.7,2.3-0.5,3.1-0.5
		s2.3-1.1,9.2,0.5c10,0.6,41.4,0.6,39.9,0.6s-12.3,5-12.3,5s-1.5,5-6.1,3.9c-4.6-1.1-25.3,5-26.1,6.6c-0.8,1.7,3.8,0.5,3.8,0.5
		s22.5-0.1,19.2,1.7c-2.9,1.5-11.5,4.2-12.3,3.9c0,0-0.8-2.2-10.7-1.1c-10,1.1-13.8-5-13.8-5s1.5,2.8-7.7,0.5c0-1.7-2.3-1.7-2.3-3.3
		C844.3,323.5,873.5,324.6,873.5,318z M802.9,309.2c2.5-0.6,9-0.4,16.1,0c2.2,0.1,2.3,0.8,0,2.2c-2.3,1.7-12.3,1.7-13.8,1.1
		C803.6,311.4,801.3,309.7,802.9,309.2z"/>
	<path class="st1" d="M635.2,395.3c-0.2-0.2-0.3-0.1-0.2,0.2c0.1,0.1,0.2,0.1,0.3,0.2C635.4,395.6,635.4,395.4,635.2,395.3z"/>
	<path class="st1" d="M888.8,463.3c1.1-0.5,2.2-1,2.9-2.2c-1.2,0.5-2.5,0.7-2.9,2.1c0.1,0,0.1,0,0.2,0
		C889,463.2,888.9,463.3,888.8,463.3z"/>
	<path class="st1" d="M804.7,462.4c-0.9,0.1-1.7,0.3-2.6,0.4c0,0.1,0,0.2,0,0.2C803.4,464.2,803.5,464.1,804.7,462.4z"/>
	<path class="st1" d="M325.3,294.8c-0.2-0.6-0.5-1.1-1.1-1.3c-0.5-0.1-0.8,0.2-0.7,0.7c0.1,0.6,0.3,1.2,1,1.3
		C325,295.6,325.3,295.4,325.3,294.8z"/>
	<path class="st1" d="M498.4,363.5C498.4,363.4,498.4,363.4,498.4,363.5c0-0.1,0-0.2,0-0.2C498.3,363.4,498.3,363.4,498.4,363.5
		c-0.1,0-0.2,0.1-0.2,0.2v0.1h0.1C498.4,363.7,498.4,363.6,498.4,363.5z"/>
	<path class="st1" d="M833.4,419.6c-0.2-0.2-0.2-0.4-0.4-0.5c-0.2,0.1-0.2,0.2-0.4,0.3c0.1,0.2,0.2,0.4,0.3,0.4
		C833.1,419.9,833.2,419.7,833.4,419.6z"/>
	<path class="st1" d="M583.3,382.3c0-0.7-0.2-1.1-0.6-1.4c-0.5-0.2-0.7,0.2-0.5,0.6c0.2,0.5,0.5,0.8,0.7,1.2
		C583,382.6,583.1,382.4,583.3,382.3z"/>
	<path class="st1" d="M584.7,379c0.1,0.2,0.1,0.2,0.2,0.4C584.8,379.2,584.8,379.1,584.7,379c-0.1-0.2-0.1-0.2-0.2-0.2
		c-0.2-0.3-0.4-0.6-0.5-0.8c-0.1,0.1-0.2,0.1-0.1,0.3c0.2,0.2,0.5,0.4,0.7,0.6C584.7,378.9,584.7,378.9,584.7,379z"/>
	<path class="st1" d="M495.4,378.9c-0.2,0.4-0.4,0.8-0.5,1.3C495.1,379.8,495.3,379.4,495.4,378.9z"/>
	<path class="st1" d="M574.3,373.4c-0.1,0.2-0.1,0.2-0.2,0.4C574.2,373.6,574.3,373.5,574.3,373.4z"/>
	<path class="st1" d="M530.5,415.6c-1.1-0.4-1.8-1.2-2.1-2.3c-0.5-1.5-0.8-3.1-1.3-5c-0.5,2-0.1,3.6,0.3,5.1
		c0.6,2.3,2.7,3.8,3.6,5.9c0.5,1.1,1.6,2.7,0.2,3.5c-1.1,0.6-1.5-1.2-2-2.1c-0.2-0.5-0.3-1.1-0.9-1.1c0.8,4.5,3.8,7.2,7.6,7.2
		c3.5,0.1,6.5-1.3,9.6-2.8c3.5-1.7,5.5-4.3,6.4-7.7c-1.4,0.7-2.7,1.3-4,2c-0.9,0.5-1.9,0.4-2.5-0.5c-0.7-1,0.3-1.4,0.9-2
		c1.6-1.4,3.1-2.9,5.1-3.9c-1.7,0.4-3.1,1.4-4.6,1.7c-1.2,0.3-3.1,1.3-3.6-0.2c-0.5-1.4,1.6-1.7,2.8-2.3c2.2-1.1,4.5-2,6.4-3.4
		c0.2-2.8,0.5-5.6,0.7-8.7c-3.8,3.4-6.8,7.1-11.5,8c-0.8,0.2-2.1,1-2.6-0.2c-0.5-1.2,1.2-1.4,1.7-2.1c0.2-0.2,0.2-0.4,0.3-0.8
		c-3.2,1.4-6.5,1-9.7,1.4c-1.6,0.2-1.8,1-1.5,2.2c0.6,2,0.8,4.3,2.1,6.1c0.3,0.5,0.5,0.9,0.2,1.4
		C531.5,415.9,530.9,415.7,530.5,415.6z"/>
	<path class="st1" d="M946.6,469.3c-0.8-1.1-1.8-2.2-2.8-3.4c-0.9,1.8-3,3.3-0.5,5.3c0.5-0.6,1.1-0.5,1.8-0.4
		c1.8,0.4,3.6,0.7,5.4,0.9c1.9,0.2,3.5-1.7,2.8-2.5c-1.5-2,0-2.6,1.4-3.7c-1.9-0.2-3.9-0.1-4.5-1.5c-0.5-1.4,1.7-0.2,2.3-1.6
		c-2.6,0.1-4.6-1.7-7.2-1.3c0.8,2.6,2.7,4.8,1.7,7.6C946.9,468.9,946.8,469.1,946.6,469.3z"/>
	<path class="st1" d="M979.8,442c0.1,0.6,0.5,1,1.1,1.1C980.7,442.4,980.4,442,979.8,442z"/>
	<path class="st1" d="M904.8,406.9c-0.1,0-0.2,0.2-0.2,0.2c0.1,0.5,0.4,0.5,0.8,0.5C905.4,407.2,905.4,406.8,904.8,406.9z"/>
	<path class="st1" d="M769.4,442.9c0,0-0.1,0-0.2,0C769.3,442.9,769.4,443,769.4,442.9C769.5,442.9,769.4,442.9,769.4,442.9z"/>
	<path class="st1" d="M978.7,440.3c0.3-0.4-0.1-1.1-0.7-1.2c-0.5,0.2-0.4,0.5-0.2,0.8C978,440.1,978.1,440.9,978.7,440.3z"/>
	<path class="st1" d="M1341.7,200c-0.2-0.1-0.3-0.2-0.5-0.2c-0.1,0-0.2,0.2-0.2,0.4c0.2,0.1,0.3,0.2,0.5,0.2
		C1341.5,200.4,1341.5,200.1,1341.7,200z"/>
	<path class="st1" d="M749.3,425.5c0.5-0.2,0.6-0.6,0.7-1.1c-0.5,0.1-0.8,0.4-0.9,0.9C749.1,425.4,749.2,425.5,749.3,425.5z"/>
	<path class="st1" d="M547.7,352.7c-0.4,0.4-0.8,0.7-1.7,1.4C547.3,353.7,547.5,353.1,547.7,352.7z"/>
	<path class="st1" d="M867.1,495.5c-1-1.1-1.3-2.6-3-2.2c-0.5,0.1-0.8,1.1-0.5,1.7C864.5,496.5,865.6,496.1,867.1,495.5z"/>
	<path class="st1" d="M747.6,427.4c0.1-0.1,0.2-0.2,0.2-0.4c-0.1,0-0.2-0.1-0.2-0.1c-0.1,0.1-0.2,0.2-0.2,0.4
		C747.4,427.3,747.5,427.4,747.6,427.4z"/>
	<path class="st1" d="M747.6,445.8c-0.2,0.2-0.2,0.4-0.4,0.6C747.4,446.3,747.9,446.3,747.6,445.8z"/>
	<path class="st1" d="M1261.3,241.3c0.6-0.2,1.5,0,1.7-0.8c0.2-0.8-0.6-1.4-1.2-1.7c-1.5-1.2-3.7-1.7-5.2-3.5c0,0.9-0.1,1.8,0,2.7
		C1256.9,242.6,1257,242.7,1261.3,241.3z"/>
	<path class="st1" d="M926.1,454.7c-0.5-0.5-1.6-1.2-2-0.5c-1.1,1.7-2.6,1-4.1,1.1c-3.5,0.2-4.1,0.8-3.1,4.1
		c0.4,1.3,0.6,2.6,0.8,3.8c0.3,1.7,1.2,2.6,3,1.7c3.8-1.8,7.2-4.2,10.1-7.3c0.3-0.3,0.9-0.8,0.1-1.5c-3.1,1.2-5.2,4.4-9.9,4.2
		c1.9-1.8,3.3-3,4.7-4.3C926,455.7,926.7,455.3,926.1,454.7z"/>
	<path class="st1" d="M948.2,474.2c-1.8-0.1-2.7-1.7-4.1-2.3C945.3,475.6,945.9,476,948.2,474.2z"/>
	<path class="st1" d="M1250.4,244.7c1.8-0.4,4.8-0.3,4.8-2.6c0-3-0.6-6.1-0.8-9.2c-0.1-0.6-0.4-1.1-0.9-1.4
		c-2.1-1.1-3.5-3.1-5.3-5.3c-0.2,5.8-0.4,11.1,1.1,16.2C1249.4,243.3,1248.9,245.1,1250.4,244.7z"/>
	<path class="st1" d="M878,491.1c-1.9,0.5-3.5,0.9-5-0.8c-0.6-0.7-2.8-0.6-3.3,0.9c-0.3,0.8-1.3,2.4,0.6,3
		C871.8,494.7,876.7,492.8,878,491.1z"/>
	<path class="st1" d="M953.7,476.3c-4.4,0.2-7.7,3.7-12.2,4C945.8,483.6,952,481.4,953.7,476.3z"/>
	<path class="st1" d="M888.3,486.1c1.9-0.7,3.7-1.5,3.2-4.1c-1.6,0.2-2.8,1.4-4.2,2c-0.6,0.3-1,1-0.5,1.7
		C887.1,486.2,887.7,486.3,888.3,486.1z"/>
	<path class="st1" d="M908.3,442.6c0.7-1-0.1-1.4-0.7-1.7c-2.1-1.5-4.4-2.9-6.3-4.8c1.2,2.6,3,4.8,5,6.9
		C906.9,443.6,907.8,443.3,908.3,442.6z"/>
	<path class="st1" d="M958.6,460.4c0.5,0.6,1.5,0.7,2.3,0c1.2-1,1.7-2.3,2-3.7c-1.2,0.7-2.4,1.4-3.5,2.2
		C959,459.2,957.8,459.5,958.6,460.4z"/>
	<path class="st1" d="M977.6,459.3c-0.1,0-0.4,0.2-0.4,0.2c0.1,0.8,0.6,1.1,1.3,1C978.4,460,978.1,459.5,977.6,459.3z"/>
	<path class="st1" d="M980.1,471.8c0.5,0,1.1-1,0.9-1.6c-0.4-1.7-2.1-1-3.4-1.4C978.4,470,978.4,471.8,980.1,471.8z"/>
	<path class="st1" d="M1241.5,246.2c-0.5,2.9-2.5,4.7-2.3,7.2C1242.5,252.1,1243.1,249.9,1241.5,246.2z"/>
	<path class="st1" d="M962,448.8c0-0.1,0-0.2,0-0.2c-0.2,0-0.2,0.1-0.4,0.2c0.1,0.1,0.1,0.2,0.2,0.2
		C961.9,448.9,961.9,448.8,962,448.8z"/>
</g>
</svg>
