<?xml version="1.0" encoding="utf-8"?>
<!-- Generator: Adobe Illustrator 23.0.2, SVG Export Plug-In . SVG Version: 6.00 Build 0)  -->
<svg version="1.1" id="Calque_1" xmlns="http://www.w3.org/2000/svg" xmlns:xlink="http://www.w3.org/1999/xlink" x="0px" y="0px"
	 viewBox="0 0 454 335" style="enable-background:new 0 0 454 335;" xml:space="preserve">
<style type="text/css">
	.st0{fill:#736B56;}
	.st1{fill:#4D4739;}
	.st2{fill:#9A8E72;}
	.st3{fill:#B6AF8D;}
	.st4{fill:#5C533F;}
	.st5{fill:#7A6F54;}
	.st6{fill:#534A33;}
</style>
<g>
	<path class="st0" d="M36,252c0-1-2-2-1-4c-2,1-2-2-4-1c0-1.38-0.22-2.76-0.64-4.14c-1.08,4.19-1.41,8.33-0.54,12.38
		c3.68,17.15,38.89,25.15,63.49,27.9C79.36,274.63,63.11,270.31,48,262C44,260,41,255,36,252z"/>
	<path class="st1" d="M134,222.09c-10.8-9.1-79.2-34.25-81.9-24.15c-3.68,13.78-17.79,29.64-21.74,44.92
		c0.42,1.38,0.64,2.76,0.64,4.14c2-1,2,2,4,1c-1,2,1,3,1,4c5,3,8,8,12,10c15.11,8.31,31.36,12.63,45.3,21.14
		c10.49,1.18,19.06,1.4,22.41,0.97C126.92,282.69,144.8,231.19,134,222.09z"/>
	<path class="st2" d="M185,12c4-2,9,2,12,4c11,3,22,1,33,2c0.71,0,2.92-0.01,4.51-1.07c-17.87-9.19-37.46-15.39-43.13-16.1
		c-3.53-0.44-8.94,3.76-14.43,10.08C179.4,12.35,182.2,13.4,185,12z"/>
	<path class="st0" d="M234.51,16.93c-1.59,1.07-3.8,1.07-4.51,1.07c-11-1-22,1-33-2c-3-2-8-6-12-4c-2.8,1.4-5.6,0.35-8.05-1.09
		c-11.96,13.76-24.33,37.56-18.71,45.44c8.2,11.5,68.19,52.88,73.32,43.76c8.91-15.84,35.07-30.75,35.84-49.95
		C267.89,37.79,252.02,25.93,234.51,16.93z"/>
	<path class="st3" d="M444.7,189.44c3.22-18.72,5.14-37.02,8.78-62.08c2.96-20.34-55.32-42.97-98.65-63.54
		c-23.39-11.11-58.15-33.69-85.61-41.27c-7.04-1.94-14.25-2.84-21.48-3.2c-26.06-1.3-52.48,4.33-73.03-7.04
		c-18.07-10-30.52-21.25-73.43,16.61c-32.87,29.01-70.13,46.2-80.63,84.26c-3.91,14.17-15.27,12.42-13.63,26.84
		c1.4,12.29-10.16,29.15-5.13,41.12c7.87,18.74,23.2,53.31,38.82,69.85c17.46,18.5,61.31,30.2,86.57,43.62
		c18.41,9.79,38.63,17.9,60.27,23.88c30.34,8.38,61.5,2.81,88.73,10.54c38.86,11.03,54.63,3.38,62.87-10.85
		c11.81-20.4,33.99-26.94,50.02-40.52c18.72-15.85,40.55-26.63,46.94-49.8C440.04,213.63,442.64,201.45,444.7,189.44z"/>
	<path class="st2" d="M450.79,117.87c-10.47,13.19-13.8,31.65-18.66,49.25c-1.86,6.75-0.67,17.45-7.35,22.87
		c-15.29,10.3-28.49,24.29-46.47,25.56c-22.11,1.16-42.88-2.5-64.65,4.98c-23.97,7.91-40.96,28.12-67.35,26.02
		c-34.64-2.3-64.99-1.34-98.33,2.94c-21.67,3.35-38.72-13.8-59.77-16.5c-16.92-2.6-34.21-0.1-50.33-5.59
		c-6.6-2.14-12.77-5.19-18.63-8.86c6.56,12.47,13.97,24.54,21.45,32.46c17.46,18.5,61.31,30.2,86.57,43.62
		c18.41,9.79,38.63,17.9,60.27,23.88c30.34,8.38,61.5,2.81,88.73,10.54c38.86,11.03,54.63,3.38,62.87-10.85
		c11.81-20.4,33.99-26.94,50.02-40.52c18.72-15.85,40.55-26.63,46.94-49.8c10.06-36.44,11.39-59.37,17.37-100.5
		C453.93,124.25,452.94,121.08,450.79,117.87z"/>
	<path class="st0" d="M117.08,138.77c5.36-19.43-6.42-39.64-26.32-45.13c-1.85-0.51-3.7-0.87-5.54-1.1
		c-18.03-2.23-35.34,8.71-40.2,26.34s4.38,35.89,21,43.23c1.7,0.75,3.47,1.39,5.32,1.9C91.23,169.5,111.71,158.2,117.08,138.77z"/>
	<path class="st4" d="M55.87,121.87c4.87-17.63,22.18-28.56,40.2-26.34c-1.7-0.75-3.47-1.39-5.32-1.9
		c-19.9-5.49-40.38,5.81-45.74,25.24s6.42,39.64,26.32,45.13c1.85,0.51,3.7,0.87,5.54,1.1C60.25,157.77,51.01,139.5,55.87,121.87z"
		/>
	<path class="st2" d="M121.12,139.88c-5.4,19.56-24.61,31.69-44.61,29.23c1.88,0.83,3.85,1.54,5.9,2.1
		c12.04,3.32,38.72-8.64,44.67-30.2c5.95-21.56-10.09-44.28-23.12-47.88c-2.05-0.57-4.1-0.97-6.15-1.22
		C116.26,100.05,126.52,120.32,121.12,139.88z"/>
	<path class="st3" d="M199.74,254.83c5.05-18.31-9.76-38.37-33.1-44.81c-2.16-0.6-4.32-1.06-6.47-1.38
		c-20.98-3.2-40.34,6.26-44.92,22.87c-4.58,16.61,7.19,34.66,26.83,42.67c2.01,0.82,4.1,1.53,6.26,2.13
		C171.67,282.76,194.68,273.14,199.74,254.83z"/>
	<path class="st0" d="M195.56,253.68c-6.93-19.95-8.8-34.58-29.83-40.38c-1.95-0.54-3.9-0.95-5.83-1.25
		c-18.9-2.88-29.21,9.83-40.49,20.61c-4.13,14.97,6.48,31.24,24.18,38.46c1.81,0.74,3.69,1.38,5.64,1.92
		C170.27,278.85,191.01,270.18,195.56,253.68z"/>
	<path class="st4" d="M130.89,235.83c4.13-14.97,21.58-23.49,40.49-20.61c-1.81-0.74-3.69-1.38-5.64-1.92
		c-24.21-8.13-37.84,3.67-46.32,19.36c-4.55,16.5,8.8,34.58,29.83,40.38c1.95,0.54,3.9,0.95,5.83,1.25
		C137.37,267.06,126.76,250.8,130.89,235.83z"/>
	<path class="st2" d="M199.84,254.86c-4.58,16.61-23.95,26.06-44.92,22.87c2.01,0.82,4.1,1.53,6.26,2.13
		c12.72,3.51,39.88-5.4,44.93-23.71c5.05-18.31-12.87-38.78-26.64-42.58c-2.16-0.6-4.32-1.06-6.47-1.38
		C192.65,220.2,204.42,238.25,199.84,254.86z"/>
	<g>
		<path class="st2" d="M20.6,172.38c-1.02-0.96-0.85-3.11-2.25-3.87c-0.92-0.5-1.8-2.56-4.74-3.63c-0.62-0.23-2.04,0.78-4.15,0.76
			c-4.19,5.01-1.5,10.18,3.22,14.89c2.25,0.64,1.57-0.65,3.09,0.48c1.13,0.85,2.46-0.68,3.72-1.05
			C23.36,178.84,24.47,176.05,20.6,172.38z"/>
		<path class="st0" d="M9.45,165.63c-0.65-0.01-1.36-0.11-2.14-0.37c-1.92-0.66-2.07,3.52-1.59,5.95c0.36,1.82,4.09,8.29,6.21,9.07
			c0.28,0.1,0.52,0.18,0.74,0.24c-2.7-3.55-6.37-8.86-4.16-11.26C8.61,168.05,8.91,166.84,9.45,165.63z"/>
		<path class="st0" d="M14.9,167.54c3.14,3.04,5.35,6.84,7.5,10.69c1.12-1.43,0.73-3.45-1.8-5.85c-1.02-0.96-0.85-3.11-2.25-3.87
			c-0.92-0.5-1.8-2.56-4.74-3.63c-0.81-0.3-2.98,1.52-6.3,0.38c-1.92-0.66-2.07,3.52-1.59,5.95c0.04,0.19,0.12,0.45,0.23,0.73
			C8.79,169.43,10.88,165.03,14.9,167.54z"/>
	</g>
	<g>
		<path class="st2" d="M379.34,234.49c2.13-2.43,5.4-5.08,6.93-7.9c8.86-16.3-0.67-20.88-13.8-27.64c-0.55-0.28-1.08-0.57-1.61-0.85
			c-11.31,1.07-21.13,10.07-26.83,20.71c1.35,2.33,3.13,4.54,5.34,6.47c6.32,5.55,13.92,15.9,20.35,13.98
			C372.42,238.45,377.46,236.63,379.34,234.49z"/>
		<path class="st3" d="M377.63,232.12c-1.67,1.9-6.13,3.51-8.52,4.22c-5.7,1.7-12.43-7.47-18.03-12.38
			c-5.94-5.21-8.47-12.6-7.01-18.69c0.49-2.05,1.44-3.96,2.87-5.59c2.58-2.94,6.28-4.45,10.3-4.56c4.78-0.13,9.21,2.89,14.32,5.51
			c11.63,5.98,20.07,10.05,12.22,24.48C382.41,227.62,379.52,229.97,377.63,232.12z"/>
		<path class="st0" d="M376.54,230.63c-1.53,1.74-5.63,3.22-7.82,3.88c-5.23,1.56-11.41-6.86-16.56-11.37
			c-5.45-4.79-7.78-11.57-6.44-17.17c0.45-1.89,1.32-3.64,2.63-5.13c2.37-2.7,5.77-4.09,9.45-4.18c4.39-0.12,8.46,2.65,13.15,5.06
			c10.68,5.5,18.44,9.23,11.23,22.48C380.93,226.49,378.28,228.65,376.54,230.63z"/>
		<path class="st4" d="M356,199.87c9.58-1.83,18.57,9.22,28.9,16.86c0.96-7.51-5.6-10.73-13.94-15.02
			c-4.69-2.41-8.76-5.18-13.15-5.06c-3.69,0.1-7.09,1.48-9.46,4.18c-1.31,1.49-2.18,3.24-2.63,5.13
			c-1.17,4.87,0.45,10.64,4.48,15.21C347.46,211.34,346.29,202.49,356,199.87z"/>
	</g>
	<g>
		<path class="st2" d="M364.77,83.64c0.41,3.2,1.4,11.94,3.31,14.52c9.59,12.96,14.09,9.25,27.85,3.9c0.57-0.22,6.62-1.38,7.19-1.59
			c6.7-9.18-10.51-13.33-14.7-24.65c-2.64-0.53-6.44-0.51-9.36-0.14c-8.34,1.06-7.83-4.22-10.65,1.87
			C367.23,80.09,364.41,80.81,364.77,83.64z"/>
		<path class="st3" d="M367.68,83.92c-0.32-2.51,1.44-6.92,2.49-9.17c2.5-5.4,13.83-4.36,21.22-5.29
			c7.84-0.99,15.05,2.01,18.64,7.14c1.21,1.73,2.01,3.7,2.28,5.85c0.49,3.88-0.83,7.65-3.41,10.73c-3.07,3.66-8.27,4.98-13.62,7.06
			c-12.19,4.74-20.83,8.37-26.43-7.08C367.88,90.49,368.04,86.76,367.68,83.92z"/>
		<path class="st0" d="M369.52,84.1c-0.29-2.3,1.32-6.35,2.28-8.43c2.3-4.96,12.7-4,19.49-4.86c7.2-0.91,13.82,1.84,17.12,6.55
			c1.11,1.59,1.85,3.4,2.1,5.37c0.45,3.56-0.76,7.03-3.13,9.85c-2.82,3.36-7.59,4.58-12.51,6.49c-11.19,4.35-19.13,7.69-24.28-6.5
			C369.7,90.13,369.85,86.71,369.52,84.1z"/>
		<path class="st4" d="M406.16,89.1c-4.98,8.39-19.21,7.79-31.78,10.46c4.99,5.7,11.75,2.92,20.48-0.48
			c4.91-1.91,9.69-3.12,12.51-6.49c2.37-2.83,3.59-6.29,3.13-9.85c-0.25-1.97-0.98-3.78-2.1-5.37c-2.87-4.1-8.27-6.72-14.36-6.73
			C403.23,75.11,410.63,80.1,406.16,89.1z"/>
	</g>
	<path class="st0" d="M230.97,310.78c-1.53,1.74-5.63,3.22-7.82,3.88c-5.23,1.56-11.41-6.86-16.56-11.37
		c-5.45-4.79-10.17-10.61-8.83-16.2c0.45-1.89,3.71-4.6,5.02-6.09c2.37-2.7,5.77-4.09,9.45-4.18c4.39-0.12,11.04,0.23,13.15,5.06
		c4.29,9.87,9.91,8.31,9.71,16.55C235.03,301.03,232.7,308.81,230.97,310.78z"/>
	<path class="st5" d="M427.79,234.73c-0.71,0.81-2.6,1.49-3.61,1.79c-2.42,0.72-6.8-1.5-9.18-3.58c-2.52-2.21-3.17-6.57-2.55-9.15
		c0.21-0.87,1.71-2.12,2.32-2.81c1.09-1.25,2.66-1.89,4.37-1.93c2.03-0.05,5.1,0.11,6.07,2.34c1.98,4.56,4.58,3.84,4.48,7.64
		C429.67,230.22,428.59,233.81,427.79,234.73z"/>
	<path class="st2" d="M284.52,50.98c-0.71,0.81-2.6,1.49-3.61,1.79c-2.42,0.72-6.8-1.5-9.18-3.58c-2.52-2.21-3.17-6.57-2.55-9.15
		c0.21-0.87,1.71-2.12,2.32-2.81c1.09-1.25,2.66-1.89,4.37-1.93c2.03-0.05,5.1,0.11,6.07,2.34c1.98,4.56,4.58,3.84,4.48,7.64
		C286.39,46.48,285.32,50.07,284.52,50.98z"/>
	<g>
		<path class="st2" d="M109.45,28.25c1.39,3.33,1.2,6.14-1.65,10.18c-4.3,4.33-9.69,2.62-15.4,2.75c1.4,0.91,2.8,2.15,5.28,2.7
			c3.34,0.74,9.38,3.06,12.26,0.12c0.92-0.94,6.75-4.44,7.22-5.69c0.53-1.42,2.89-2.64,3.37-4.07
			C122.24,29.07,111.91,26.86,109.45,28.25z"/>
		<path class="st3" d="M115.16,37.81c-0.43,1.14-5.77,4.35-6.61,5.21c-2.63,2.7-8.17,0.57-11.22-0.11c-5.63-1.25-8.88-2.5-6.41-8.72
			c0.38-0.95,0.96-2.95,1.33-3.93c0.66-1.77,2.88-2.16,3.87-3.82c0.73-1.23,0.62-1.82,7.41,0.04c12.02,3.29,16.57,2.04,14.72,7.61
			C117.81,35.39,115.64,36.52,115.16,37.81z"/>
		<path class="st2" d="M113.8,37.51c-0.37,1-5.06,3.82-5.8,4.58c-2.31,2.37-7.17,0.5-9.85-0.09c-4.94-1.09-7.79-2.19-5.63-7.65
			c0.33-0.83,0.85-2.59,1.17-3.45c0.58-1.55,2.53-1.89,3.4-3.36c0.64-1.08,0.55-1.6,6.51,0.03c10.55,2.88,14.55,1.79,12.92,6.68
			C116.13,35.39,114.23,36.38,113.8,37.51z"/>
		<path class="st0" d="M97.51,30.15c4.92-2.79,13.22,0.82,19.04,3.93c1.47-4.67-2.55-3.66-12.97-6.5c-5.96-1.63-5.87-1.11-6.51-0.03
			c-0.87,1.46-2.82,1.8-3.4,3.36c-0.32,0.86-0.84,2.62-1.17,3.45c-1.17,2.97-0.86,4.64,0.46,5.73
			C92.33,33.9,95.79,31.22,97.51,30.15z"/>
	</g>
	<path class="st2" d="M318.8,131.45c-0.32,0.87-0.15,4.08-0.82,4.72c-2.09,2.02-11.08-0.59-13.58-1.16c-4.6-1.07-7.28-0.29-5.4-5.01
		c0.29-0.72,0.74-4.05,1.01-4.79c0.5-1.34,3.21-2.95,3.99-4.21c0.57-0.93,7.17,8.48,9,3c3-9,10.4-3.23,9,1
		C321.67,125.99,319.17,130.47,318.8,131.45z"/>
	<path class="st3" d="M317.16,126.81c-0.43,1.14-0.32,5.33-1.16,6.19c-2.63,2.7-13.62-0.41-16.67-1.08
		c-5.63-1.25-8.88-2.5-6.41-8.72c0.38-0.95,0.96-2.95,1.33-3.93c0.66-1.77,2.88-2.16,3.87-3.82c0.73-1.23,0.62-1.82,7.41,0.04
		c12.02,3.29,16.57,2.04,14.72,7.61C319.81,124.39,317.64,125.52,317.16,126.81z"/>
	<path class="st0" d="M315.8,126.51c-0.37,1-0.06,3.73-0.8,4.49c-2.31,2.37-12.17,0.59-14.85,0c-4.94-1.09-7.79-2.19-5.63-7.65
		c0.33-0.83,0.85-2.59,1.17-3.45c0.58-1.55,2.44-0.43,3.31-1.89c0.64-1.08,0.63-3.06,6.59-1.43c10.55,2.88,14.55,1.79,12.92,6.68
		C318.13,124.39,316.23,125.38,315.8,126.51z"/>
	<path class="st4" d="M303,120.98c7,0,9.73-1.03,15.56,2.06c1.47-4.66,0.86-3.21-9.56-6.05c-5.96-1.62-9.27-1.54-9.91-0.46
		c-0.87,1.46-3.51,1.9-4.09,3.45c-0.32,0.86-1.67,3.16-2,3.99c-1.17,2.96,0.66,3.97,1.98,5.06
		C294.33,122.88,301.27,122.06,303,120.98z"/>
	<path class="st6" d="M357.81,257.1c-2.84-1.23-5.48-2.11-7.97-2.71c-23.11,2.75-26.24,6.39-29.89,13.36
		c-3.84,7.33-3.65,19.96,9.98,27.89c4.09,2.38,9.21,4.51,15.51,6.27c15.79,4.43,31.39-2.13,34.81-14.5
		C383.67,275.03,372,263.25,357.81,257.1z"/>
	<path class="st2" d="M361.17,256.64c-2.72-1.2-5.27-2.06-7.66-2.63c-14.56-3.47-23.26,4.07-29.06,13.9
		c-5.57,9.44-3.79,20.23,9.27,28.06c3.92,2.35,8.84,4.44,14.9,6.14c15.2,4.27,30.37-2.57,33.83-15.13
		C385.91,274.42,374.8,262.67,361.17,256.64z"/>
	<path class="st0" d="M373.42,287.27c3.99-9.06-6.91-18.17-15.91-28.79c-0.87-1.13-1.44-2.18-1.72-3.16
		c-13.55-3.21-21.71,4.07-27.19,13.52c-5.26,9.08-3.68,19.38,8.44,26.78C353.26,295.63,368.67,294.62,373.42,287.27z"/>
	<path class="st4" d="M362.92,257.78c-2.53-1.13-4.9-1.93-7.13-2.46c0.29,0.97,0.86,2.02,1.72,3.16c9,10.62,15.22,20.47,4.82,25.73
		c-4.75,7.35-9.08,11.42-25.3,11.41c3.64,2.22,8.21,4.18,13.85,5.76c14.14,3.97,24.26-4.14,30.33-15.35
		C387.29,274.83,375.58,263.45,362.92,257.78z"/>
	<g>
		<g>
			<path class="st2" d="M224.34,83.68L221.59,82c-0.61,0-1.15,0.41-1.31,0.99l-5.03,17.74c-0.37,1.31-2.83,1.79-3.22,0.48
				c0-3.54-3.71-18.55-6.05-19.18l-6.54,0.01c-0.75,0-1.37,0.61-1.36,1.37l0.01,3.06c0,0.14,0.02,0.28,0.07,0.42L208.9,120
				c0.18,0.56,0.71,0.95,1.3,0.94c1.96,0.55,4.13-0.62,7.56-0.84c6.34-4.42,6.16-16.75,11.97-34.06
				C229.56,80.14,225.21,82.96,224.34,83.68z"/>
			<path class="st3" d="M227.84,81.99L221.15,82c-0.61,0-1.14,0.4-1.3,0.99l-4.99,17.59c-0.37,1.3-2.21,1.32-2.6,0.02L206.96,83
				c-0.17-0.57-0.7-0.97-1.3-0.96l-6.49,0.01c-0.75,0-1.35,0.61-1.35,1.36l0.01,3.04c0,0.14,0.02,0.28,0.07,0.42l10.67,32.84
				c0.18,0.56,0.7,0.94,1.29,0.94l7.24-0.01c0.58,0,1.1-0.38,1.29-0.93L229.1,87c0.04-0.13,0.07-0.27,0.07-0.41l0.03-3.23
				C229.2,82.6,228.59,81.99,227.84,81.99z"/>
			<path class="st4" d="M226.53,90.59c-3.88,5.73-5.23,11.97-6.41,18.89c-0.47,3.78-3.29,6.97-4.22,10.8l0.8,0
				c0.58,0,1.09-0.37,1.27-0.92l9.69-29.56C227.19,90.01,226.76,90.24,226.53,90.59z"/>
			<path class="st4" d="M200.39,84.35c0.67,0.34,1.85,0,2.02,0.34c0.76,1.51,1.65,2.74,2.86,3.66c-0.37-2.14-0.57-4.28-1.42-6.2
				l-4.86,0.01c-0.55,0-1.01,0.33-1.22,0.8c0.61,0.01,1.22,0.2,1.78,0.39C199.88,83.51,200.05,84.02,200.39,84.35z"/>
			<path class="st0" d="M226.36,85.7c-0.51-1.27-1.4-2.35-2.02-3.59l-3.63,0.01c-0.6,0-1.12,0.4-1.29,0.97l-4.93,17.39
				c-0.37,1.29-2.19,1.3-2.57,0.02l-0.25-0.84c-1.14-0.62-1.98-1.77-2.51-2.82c-0.34-0.51-0.17-1.52-0.51-1.69
				c-1.69-1.52-1.18-3.54-2.19-5.4c-0.34-0.51-1.18-0.84-1.18-1.35c0-0.02-0.01-0.04-0.01-0.05c-1.21-0.91-2.1-2.15-2.86-3.66
				c-0.17-0.34-1.35,0-2.02-0.34c-0.34-0.34-0.51-0.84-0.84-1.01c-0.56-0.19-1.17-0.37-1.78-0.39c-0.07,0.17-0.12,0.35-0.12,0.54
				l0.01,3c0,0.14,0.02,0.28,0.07,0.41l10.54,32.46c0.18,0.55,0.7,0.93,1.28,0.93l6.36-0.01c0.92-3.84,3.74-7.03,4.22-10.8
				c1.18-6.91,2.53-13.15,6.41-18.89c0.24-0.35,0.66-0.58,1.14-0.79l0.9-2.75c0.01-0.02,0.01-0.04,0.01-0.05
				C227.65,86.61,226.65,86.37,226.36,85.7z"/>
			<path class="st4" d="M228.66,83.45c0.01-0.75-0.6-1.35-1.34-1.35l-2.98,0.01c0.62,1.25,1.51,2.32,2.02,3.59
				c0.29,0.67,1.29,0.91,2.22,1.3c0.03-0.11,0.05-0.23,0.05-0.35L228.66,83.45z"/>
			<path class="st4" d="M206.46,89.75c1.01,1.85,0.51,3.88,2.19,5.4c0.34,0.17,0.17,1.18,0.51,1.69c0.53,1.05,1.36,2.21,2.51,2.82
				l-4.98-16.56c-0.17-0.57-0.69-0.95-1.28-0.95l-1.55,0c0.86,1.94,1.05,4.1,1.43,6.25C205.28,88.91,206.12,89.24,206.46,89.75z"/>
		</g>
		<g>
			<path class="st2" d="M260.64,83.91l0,1.98c0,0.36,0.14,0.7,0.39,0.96l10.71,10.81c0.85,0.86,2.23,0.02,2.22-1.2
				c0.67-5.05-0.31-8.1,0.06-12.57c0-0.75,0.95-2.74,3.31-0.55l4.37,0.67c0.75,0,1.14-0.89,1.15-0.14l0.07,35.93
				c0,0.75-0.6,1.36-1.35,1.36c0.39,0.5-6.57,0.56-7.48-1.34c0,0,0.77-3.3-2.05-6.12c-2.98-2.58-2.78-2.87-9.06-11.16
				c-0.85-0.86-2.31-0.25-2.31,0.96l0.03,16.35c0,0.75-0.6,1.36-1.35,1.36l-6.12,0.01c-0.75,0-1.35-0.61-1.35-1.36
				c0.56-13.98-2.64-34.67-0.28-36.85C256.31,79.13,260.64,83.16,260.64,83.91z"/>
			<path class="st3" d="M253.58,82.77l6.11-0.01c0.74,0,1.35,0.6,1.35,1.35l0,1.97c0,0.36,0.14,0.7,0.39,0.95l10.69,10.76
				c0.85,0.86,2.31,0.25,2.3-0.96c0.2-4.86,0.29-9.39-0.02-12.75c0-0.75,1.15-1.44,2.56-1.44l4.89,0.08c0.74,0,1.35,0.6,1.35,1.35
				l0.07,35.77c0,0.75-0.6,1.35-1.35,1.35l-6.11,0.01c-0.74,0-1.35-0.6-1.35-1.35l-0.01-5.49c0-1.08-8.98-9.2-11.44-12.35
				c-0.85-0.86-1.95,0.39-1.95,1.59l0.03,16.27c0,0.75-0.6,1.35-1.35,1.35l-6.11,0.01c-0.74,0-1.35-0.6-1.35-1.35l-0.07-35.77
				C252.24,83.38,252.84,82.77,253.58,82.77z"/>
			<path class="st4" d="M273.46,111.76c0.67-2.52-1.68-2.52-2.69-4.04c-0.67-1.18-1.85-1.85-3.03-2.35
				c-0.5-0.34-0.84-0.84-1.18-1.01c-0.45-0.26-0.95-0.39-1.48-0.43l9.09,9.13c0.07-0.32,0.12-0.64,0.12-0.96
				C273.97,112.27,273.8,111.59,273.46,111.76z"/>
			<path class="st4" d="M256.81,84.85c0.34,0.34,0.17,1.51,0.84,2.02c0.67,0.34,1.68,0.17,2.02,0.67c1.35,2.02,2.52,3.36,4.71,4.04
				c1.35,0.5,1.51,3.03,3.53,3.87c0.79,0.35,1.53,0.29,2.25,0.08l-8.22-8.25c-0.25-0.25-0.39-0.59-0.39-0.94l0-1.95
				c0-0.74-0.6-1.33-1.34-1.33l-6.06,0.01c-0.74,0-1.33,0.6-1.33,1.34l0,0.56C254.25,84.51,255.67,83.96,256.81,84.85z"/>
			<path class="st4" d="M274.85,118.12l0,1.59c0,0.74,0.6,1.33,1.34,1.33l6.06-0.01c0.29,0,0.56-0.09,0.78-0.25
				c-0.02-0.14-0.04-0.29-0.06-0.43C280.07,121.19,277.23,119.95,274.85,118.12z"/>
			<path class="st0" d="M283.57,112.97l-0.02-11.03c-3.41-4.04-2.68-8.88-2.52-13.73c0-1.18-0.84-2.69-1.51-3.2
				c-1.29-0.81-2.74-1.23-4.01-1.84c-0.43,0.22-0.72,0.67-0.72,1.19l0.02,12.6c0,1.19-1.44,1.79-2.28,0.95l-2.37-2.38
				c-0.72,0.21-1.46,0.27-2.25-0.08c-2.02-0.84-2.19-3.36-3.53-3.87c-2.19-0.67-3.36-2.02-4.71-4.04c-0.34-0.5-1.35-0.34-2.02-0.67
				c-0.67-0.5-0.5-1.68-0.84-2.02c-1.14-0.89-2.56-0.34-3.99,0.12l0.06,34.77c0,0.74,0.6,1.33,1.34,1.33l6.06-0.01
				c0.74,0,1.33-0.6,1.33-1.34l-0.03-16.08c0-1.19,1.44-1.79,2.28-0.95l1.22,1.23c0.52,0.04,1.03,0.17,1.48,0.43
				c0.34,0.17,0.67,0.67,1.18,1.01c1.18,0.5,2.35,1.18,3.03,2.35c1.01,1.51,3.36,1.51,2.69,4.04c0.34-0.17,0.5,0.5,0.84,0.34
				c0,0.32-0.05,0.64-0.12,0.96l0.28,0.28c0.25,0.25,0.39,0.59,0.39,0.94l0.01,3.84c2.37,1.83,5.22,3.07,8.11,2.23
				c-0.15-1.17-0.24-2.33-0.42-3.54C282.42,115.44,283.13,114.25,283.57,112.97z"/>
			<path class="st4" d="M283.03,120.78c0.21-0.15,0.38-0.36,0.47-0.61c-0.18,0.07-0.35,0.13-0.53,0.18
				C282.99,120.49,283,120.63,283.03,120.78z"/>
			<path class="st4" d="M283.57,112.97c-0.44,1.28-1.15,2.46-1.03,3.84c0.19,1.21,0.27,2.37,0.42,3.54
				c0.18-0.05,0.35-0.11,0.53-0.18c0.06-0.15,0.09-0.31,0.09-0.48L283.57,112.97z"/>
			<path class="st4" d="M282.18,83.02l-6.06,0.01c-0.22,0-0.43,0.06-0.61,0.15c1.27,0.61,2.71,1.03,4.01,1.84
				c0.67,0.5,1.51,2.02,1.51,3.2c-0.16,4.85-0.89,9.69,2.52,13.73l-0.03-17.59C283.52,83.61,282.92,83.02,282.18,83.02z"/>
		</g>
		<g>
			<path class="st2" d="M364.78,142.84l0,1.8c0,0.33,0.13,0.64,0.36,0.87l9.72,9.82c0.77,0.78,2.02,0.01,2.02-1.09
				c0.61-4.58-0.28-7.36,0.05-11.42c0-0.68,0.86-2.48,3-0.5l3.97,0.61c0.68,0,1.04-0.81,1.04-0.13l0.06,32.63
				c0,0.68-0.55,1.23-1.22,1.24c0.36,0.45-5.96,0.51-6.79-1.22c0,0,0.7-3-1.87-5.56c-2.7-2.34-2.52-2.61-8.23-10.14
				c-0.77-0.78-2.1-0.23-2.1,0.87l0.03,14.85c0,0.68-0.55,1.23-1.22,1.24l-5.56,0.01c-0.68,0-1.23-0.55-1.23-1.23
				c0.51-12.69-2.4-31.48-0.26-33.47C360.84,138.5,364.78,142.16,364.78,142.84z"/>
			<path class="st3" d="M358.37,141.8l5.55-0.01c0.68,0,1.23,0.55,1.23,1.23l0,1.79c0,0.32,0.13,0.63,0.36,0.86l9.71,9.77
				c0.77,0.78,2.09,0.23,2.09-0.87c0.19-4.42,0.26-8.53-0.02-11.58c0-0.68,1.05-1.31,2.33-1.31l4.45,0.07
				c0.68,0,1.23,0.55,1.23,1.23l0.06,32.48c0,0.68-0.55,1.23-1.22,1.23l-5.55,0.01c-0.68,0-1.23-0.55-1.23-1.23l-0.01-4.99
				c0-0.98-8.15-8.35-10.39-11.22c-0.77-0.78-1.77,0.35-1.77,1.45l0.03,14.78c0,0.68-0.55,1.23-1.22,1.23l-5.55,0.01
				c-0.68,0-1.23-0.55-1.23-1.23l-0.06-32.48C357.15,142.35,357.7,141.8,358.37,141.8z"/>
			<path class="st4" d="M376.43,168.13c0.61-2.29-1.53-2.29-2.44-3.67c-0.61-1.07-1.68-1.68-2.75-2.14
				c-0.46-0.31-0.76-0.76-1.07-0.92c-0.41-0.23-0.87-0.36-1.34-0.39l8.26,8.29c0.07-0.29,0.11-0.58,0.11-0.87
				C376.88,168.59,376.73,167.98,376.43,168.13z"/>
			<path class="st4" d="M361.3,143.69c0.31,0.31,0.15,1.37,0.76,1.83c0.61,0.31,1.53,0.15,1.83,0.61c1.22,1.83,2.29,3.06,4.28,3.67
				c1.22,0.46,1.37,2.75,3.21,3.51c0.71,0.32,1.39,0.26,2.04,0.07l-7.46-7.49c-0.23-0.23-0.35-0.53-0.35-0.85l0-1.77
				c0-0.67-0.55-1.21-1.22-1.21l-5.5,0.01c-0.67,0-1.21,0.55-1.21,1.22l0,0.51C358.97,143.38,360.27,142.89,361.3,143.69z"/>
			<path class="st4" d="M377.69,173.91l0,1.44c0,0.67,0.55,1.21,1.22,1.21l5.5-0.01c0.26,0,0.51-0.09,0.7-0.23
				c-0.02-0.13-0.04-0.26-0.05-0.39C382.43,176.69,379.84,175.56,377.69,173.91z"/>
			<path class="st0" d="M385.61,169.23l-0.02-10.01c-3.1-3.67-2.43-8.07-2.29-12.47c0-1.07-0.76-2.44-1.37-2.9
				c-1.17-0.73-2.49-1.12-3.64-1.67c-0.39,0.2-0.65,0.61-0.65,1.08l0.02,11.44c0,1.08-1.31,1.63-2.07,0.86l-2.16-2.16
				c-0.65,0.19-1.33,0.24-2.04-0.07c-1.83-0.76-1.99-3.06-3.21-3.51c-1.99-0.61-3.06-1.83-4.28-3.67c-0.31-0.46-1.22-0.31-1.83-0.61
				c-0.61-0.46-0.46-1.53-0.76-1.83c-1.03-0.8-2.33-0.31-3.62,0.11l0.06,31.58c0,0.67,0.55,1.21,1.22,1.21l5.5-0.01
				c0.67,0,1.21-0.55,1.21-1.22l-0.03-14.6c0-1.08,1.31-1.63,2.07-0.86l1.11,1.11c0.48,0.04,0.93,0.16,1.34,0.39
				c0.31,0.15,0.61,0.61,1.07,0.92c1.07,0.46,2.14,1.07,2.75,2.14c0.92,1.37,3.06,1.37,2.44,3.67c0.31-0.15,0.46,0.46,0.76,0.31
				c0,0.29-0.04,0.58-0.11,0.87l0.25,0.25c0.23,0.23,0.35,0.53,0.35,0.85l0.01,3.49c2.15,1.66,4.74,2.79,7.37,2.02
				c-0.14-1.06-0.21-2.11-0.38-3.21C384.56,171.47,385.2,170.39,385.61,169.23z"/>
			<path class="st4" d="M385.11,176.32c0.19-0.14,0.34-0.33,0.43-0.55c-0.16,0.06-0.32,0.12-0.48,0.16
				C385.07,176.06,385.09,176.19,385.11,176.32z"/>
			<path class="st4" d="M385.61,169.23c-0.4,1.16-1.04,2.24-0.93,3.48c0.17,1.1,0.25,2.15,0.38,3.21c0.16-0.05,0.32-0.1,0.48-0.16
				c0.05-0.13,0.08-0.28,0.08-0.43L385.61,169.23z"/>
			<path class="st4" d="M384.34,142.03l-5.5,0.01c-0.2,0-0.39,0.05-0.56,0.14c1.15,0.55,2.47,0.94,3.64,1.67
				c0.61,0.46,1.37,1.83,1.37,2.9c-0.14,4.4-0.81,8.8,2.29,12.47l-0.03-15.98C385.56,142.57,385.01,142.03,384.34,142.03z"/>
		</g>
		<g>
			<path class="st2" d="M144.71,140.08c5.35-1.82,11.61-1.62,19.76,2.79c0.68,0,1.21,0.2,1.69,0.67l4.14,2.32
				c0.48,0.48,0.75,1.12,0.75,1.8l0.04,20.5c0,0.68-0.27,1.32-0.74,1.8l-5.07,5.09c-0.48,0.48-1.12,0.75-1.8,0.75l-18.7,0.03
				c-1.41,0,1.32-3.23,1.32-4.64c-2.48-4.35-4.72-7.76-3.93-28.57C142.16,141.23,143.3,140.09,144.71,140.08z M150.39,150.83
				l0.03,14.24c0,1.41,1.14,2.54,1.88,1.57c2.39-0.49,4.95-0.38,7.79,0.67c2.08,0.97,6.07,2.08,6.07,0.67v-16.36
				c0-1.41-4.46-3.38-5.86-3.37l-7.36,0.01C151.52,148.28,150.39,149.42,150.39,150.83z"/>
			<path class="st3" d="M164.59,140.72c0.68,0,1.32,0.27,1.8,0.74l5.09,5.07c0.48,0.48,0.75,1.12,0.75,1.8l0.04,20.5
				c0,0.68-0.27,1.32-0.74,1.8l-5.07,5.09c-0.48,0.48-1.12,0.75-1.8,0.75l-17.39-0.05c-1.41,0-2.36,0.06-2.36-1.35
				c0,0-2.19-26.98-1.01-31.7C145.08,138.65,158.11,140.65,164.59,140.72z M151.57,151.5l0.03,14.24c0,1.41,1.14,2.54,2.55,2.54
				l8.3-0.12c1.41,0,4.22-0.95,4.22-2.36l-0.51-14.17c0-1.41-3.28-2.7-4.68-2.7l-7.36,0.01C152.7,148.95,151.57,150.1,151.57,151.5z
				"/>
			<path class="st4" d="M155.29,149.79l7.36-0.01c0.66,0,1.26,0.25,1.71,0.66c-0.09-0.48-0.3-0.94-0.74-1.33
				c-0.34-0.34-1.35,0.17-2.02,0c-2.19-1.01-4.55-2.53-7.08-0.84c-0.51,0.34-1.35-0.34-1.85-0.67c-0.84-0.51-2.02-0.51-2.36,0.51
				c-0.17,1.18,1.18,2.02,1.35,3.2c0.17,2.53-0.84,4.89-0.34,7.42c0.37,1.11,0.74,2.14,1.45,3l-0.02-9.38
				C152.75,150.94,153.88,149.8,155.29,149.79z"/>
			<path class="st4" d="M172.66,147.38l-1.47-1.46c0.02,0.11,0.03,0.21,0.03,0.33c0.17,0.84,0.67,1.52,1.18,2.36
				c0.51,1.01-0.51,2.19-0.17,3.2c0.32,0.97,0.8,1.86,1.19,2.77l-0.01-5.4C173.41,148.5,173.14,147.86,172.66,147.38z"/>
			<path class="st0" d="M172.4,148.6c-0.51-0.84-1.01-1.52-1.18-2.36c0-0.11-0.01-0.22-0.03-0.33l-1.73-1.73
				c-2.49,0.01-5.1-0.7-7.35-1.49c-0.84-0.34-1.85,0.51-2.87,0c-0.74-0.37-1.5-0.7-2.2-1.12l-9.97,0.02c-1.41,0-2.54,1.14-2.54,2.55
				l0.06,30.66c0,1.41,1.14,2.54,2.55,2.54l15.45-0.03c1.39-2.97,3.28-5.56,6.78-6.63c0.34,0,0.84-0.67,0.84-1.18
				c-0.16-3.3,1.12-5.63,3.23-8.09l-0.01-6.84c-0.39-0.91-0.87-1.8-1.19-2.77C171.89,150.79,172.9,149.61,172.4,148.6z
				 M162.69,169.12l-7.36,0.01c-1.41,0-2.55-1.14-2.55-2.54l-0.01-4.87c-0.71-0.87-1.08-1.89-1.45-3c-0.51-2.53,0.51-4.89,0.34-7.42
				c-0.17-1.18-1.52-2.02-1.35-3.2c0.34-1.01,1.52-1.01,2.36-0.51c0.51,0.34,1.35,1.01,1.85,0.67c2.53-1.69,4.89-0.17,7.08,0.84
				c0.67,0.17,1.69-0.34,2.02,0c0.44,0.39,0.65,0.85,0.74,1.33c0.52,0.46,0.84,1.14,0.84,1.88l0.03,14.24
				C165.24,167.97,164.1,169.12,162.69,169.12z"/>
			<path class="st4" d="M162.11,142.7c2.24,0.78,4.86,1.49,7.35,1.49l-1.88-1.88c-0.48-0.48-1.13-0.74-1.8-0.74l-8.73,0.02
				c0.7,0.42,1.47,0.75,2.2,1.12C160.25,143.21,161.27,142.36,162.11,142.7z"/>
			<path class="st4" d="M170.2,169.51c0,0.51-0.51,1.18-0.84,1.18c-3.5,1.08-5.39,3.66-6.78,6.63l3.26-0.01
				c0.68,0,1.32-0.27,1.8-0.75l5.07-5.09c0.48-0.48,0.74-1.13,0.74-1.8l-0.02-8.26C171.33,163.89,170.04,166.22,170.2,169.51z"/>
		</g>
		<g>
			<path class="st2" d="M224.64,140.45c1.04-0.95,14.13-1.58,23.79-0.04c1.4,0,2.54,1.13,2.55,2.53c-0.01,6.18,0.7,8.16,0.08,11.42
				c0,0.68-0.26,1.33-0.74,1.81l-0.18,0.18c-0.98,0.99-0.99,2.58-0.02,3.58l0.16,0.16c0.46,0.47,0.72,1.11,0.73,1.78
				c0.74,3.2,0.83,7.05,0.02,11.75c0,1.41-1.14,2.55-2.54,2.55l-23.78,0.04c-1.41,0-2.55-1.14-2.55-2.54L222.1,143
				C222.1,141.59,223.24,140.45,224.64,140.45z M230.33,151.19l0,0.48c0,1.41,1.14,2.54,2.55,2.54l7.36-0.01
				c1.41,0,2.54-1.14,2.54-2.55l0-0.48c0-1.41-1.14-2.54-2.55-2.54l-7.36,0.01C231.46,148.64,230.32,149.79,230.33,151.19z
				 M230.35,164.95l-0.28,1.02c0,1.41,1.8,2.19,3.2,2.19c2.48-0.38,4.89-0.63,6.99-0.2c1.41,0,2.54-1.14,2.54-2.55l0-0.48
				c0-1.41-1.14-2.54-2.55-2.54l-7.36,0.01C231.49,162.4,230.35,163.55,230.35,164.95z"/>
			<path class="st3" d="M222.99,140.85c5.77-0.98,17.24-0.69,24.95,0.06c1.77-0.27,3.13,2.22,2.88,3.82
				c-0.46,2.07-0.34,6.15-0.25,10.14c0,0.68-0.26,1.33-0.74,1.81l-0.18,0.18c-0.82,0.76-0.51,1.91-0.02,3.58l0.16,0.16
				c0.29,0.24,0.26,0.48,0.73,1.78c0.23,2.68,0.17,6.97,0.02,11.75c0,1.41-1.14,2.55-2.54,2.55l-23.78,0.04
				c-1.41,0-2.55-1.14-2.55-2.54l-0.06-30.66C221.59,142.1,221.58,140.85,222.99,140.85z M229.82,151.7l0,0.48
				c0,1.41,1.14,2.54,2.55,2.54l7.36-0.01c1.41,0,2.54-1.14,2.54-2.55l0-0.48c0-1.41-1.14-2.54-2.55-2.54l-7.36,0.01
				C230.96,149.15,229.82,150.29,229.82,151.7z M228.89,165.13l1.01,1.52c0,1.41,1.12,2.03,2.53,2.02h7.59
				c1.41,0,2.29-1.34,2.28-2.75l0-0.48c0-1.41-1.14-2.54-2.55-2.54l-7.36,0.01C230.98,162.91,228.89,163.72,228.89,165.13z"/>
			<path class="st4" d="M228.89,143.71c2.7,1.35,5.73-0.67,7.93,0.67c1.69,1.01,3.37,0.67,4.72,0.51c3.05-0.42,5.07-1.97,7.57-2.98
				c-0.42-0.31-0.95-0.5-1.51-0.5l-23.79,0.04c-1.36,0-2.47,1.08-2.54,2.42C223.87,143.74,226.64,142.66,228.89,143.71z"/>
			<path class="st0" d="M248.11,172.72c0-1.69,0.84-3.2,0.34-4.89c0-0.34-0.51-0.67-0.67-1.01c0-1.01,0.67-1.85,0.51-2.53
				c-0.51-2.7-2.36-5.73,0-8.26c0.51-0.34-0.34-1.18,0.17-1.85c0.65-0.76,1.24-1.52,1.75-2.33l-0.05-7.89
				c-0.01-0.83-0.41-1.57-1.04-2.03c-2.5,1.01-4.52,2.56-7.57,2.98c-1.35,0.17-3.04,0.51-4.72-0.51c-2.19-1.35-5.23,0.67-7.93-0.67
				c-2.25-1.05-5.02,0.03-7.62,0.17c0,0.04-0.01,0.09-0.01,0.13l0.06,30.66c0,1.41,1.14,2.54,2.55,2.54l23.78-0.04
				c0.65,0,1.23-0.24,1.68-0.64C248.9,175.24,248,174.1,248.11,172.72z M241.48,167.92c-0.78,2-3.58,3.02-5.68,2.77
				c-1.35-0.34-3.04-0.51-4.55-0.84c-0.84-0.14-1.32-0.97-1.18-1.82c-0.35-0.43-0.55-0.98-0.56-1.58l0-0.48
				c0-1.41,1.14-2.55,2.54-2.55l7.36-0.01c1.41,0,2.55,1.14,2.55,2.54l0,0.48C241.97,166.99,241.78,167.5,241.48,167.92z
				 M241.39,154.24c-0.47,0.59-1.18,0.97-1.99,0.97l-7.36,0.01c-1.41,0-2.55-1.14-2.55-2.54l0-0.48c0-1.41,1.14-2.55,2.54-2.55
				l7.13-0.01c1.01-0.65,2.42-0.24,3.06,0.65C243.26,151.79,243.11,153.43,241.39,154.24z"/>
			<path class="st4" d="M239.15,149.64l0.23,0c1.41,0,2.55,1.14,2.55,2.54l0,0.48c0,0.6-0.2,1.15-0.55,1.58
				c1.72-0.82,1.87-2.45,0.82-3.95C241.57,149.4,240.17,148.99,239.15,149.64z"/>
			<path class="st4" d="M239.42,168.98l-7.36,0.01c-0.81,0-1.53-0.38-2-0.96c-0.14,0.85,0.35,1.68,1.18,1.82
				c1.52,0.34,3.2,0.51,4.55,0.84c2.09,0.25,4.9-0.77,5.68-2.77C241.02,168.56,240.27,168.97,239.42,168.98z"/>
			<path class="st4" d="M249.48,157.18c0.48-0.48,0.75-1.13,0.74-1.81l-0.02-3.53c-0.51,0.81-1.09,1.57-1.75,2.33
				c-0.51,0.67,0.34,1.52-0.17,1.85c-2.36,2.53-0.51,5.56,0,8.26c0.17,0.67-0.51,1.52-0.51,2.53c0.17,0.34,0.67,0.67,0.67,1.01
				c0.51,1.69-0.34,3.2-0.34,4.89c-0.12,1.38,0.79,2.53,1.22,3.81c0.53-0.47,0.86-1.15,0.86-1.91l-0.02-11.75
				c0-0.66-0.26-1.3-0.73-1.78l-0.16-0.16c-0.97-1-0.97-2.59,0.02-3.58L249.48,157.18z"/>
		</g>
		<g>
			<path class="st2" d="M290.1,142.03l2.7-0.17c1.41,0,2.77,0.27,2.78,1.67l0.06,22.51c0,1.41,1.15,2.54,2.55,2.54
				c2.84-0.5,5.6-1.68,7.59-1.09c1.41,0,1.86-0.95,1.86-2.36c-0.26-5-0.09-12.42,0.42-21.62c0-1.41,1.14-2.55,2.54-2.55l3.12-0.01
				c1.41,0,2.55,1.14,2.55,2.54l0.06,30.71c0,1.41-1.14,2.55-2.54,2.55l-23.81,0.04c-1.41,0-3.58-3.18-3.58-4.59
				c-0.28-10.38,0.5-17.59,1.18-25.13C287.57,145.68,288.7,142.03,290.1,142.03z"/>
			<path class="st3" d="M290.58,141.16l3.12-0.01c1.41,0,2.55,1.13,2.55,2.54l0.06,22.51c0,1.41,1.15,2.54,2.55,2.54l7.37-0.01
				c1.41,0,2.54-1.14,2.54-2.55c-0.41-7.12-0.3-12.43,0.05-20.27c-0.84-2.53,0.84-4.79,2.45-4.78l3.12-0.01
				c1.41,0,2.55,1.14,2.55,2.54l0.06,30.71c0,1.41-1.14,2.55-2.54,2.55l-23.81,0.04c-1.41,0-2.55-1.14-2.55-2.54
				c-0.97-4.37-0.5-17.62-0.06-30.71C288.04,142.31,289.18,141.17,290.58,141.16z"/>
			<path class="st0" d="M299.04,175.58c1.01-0.34,1.69-2.7,3.54-2.19c3.2,0.84,6.24,1.69,9.44,0.84c1.52-0.51,1.35-2.19,2.02-3.2
				c0.34-0.51,0.84-1.18,1.69-1.35c-0.17-2.02-0.51-4.22,0.84-6.07c0.67-1.35-0.67-2.36-0.67-3.54c0.34-3.2,0-5.56-1.85-8.09
				c2.36-2.7,0.17-5.23-0.84-7.93c-0.43-0.97-0.17-1.88,0.3-2.76l-1.72,0c-1.41,0-2.54,1.14-2.54,2.55l0.04,22.5
				c0,1.41-1.14,2.55-2.54,2.55l-7.37,0.01c-1.41,0-2.55-1.13-2.55-2.54l-0.06-22.51c0-1.41-1.15-2.54-2.55-2.54l-3.12,0.01
				c-1.41,0-2.54,1.14-2.54,2.55l0.06,30.71c0,0.07,0.01,0.13,0.01,0.2C291.83,173.41,295.87,176.59,299.04,175.58z"/>
			<path class="st4" d="M317.45,143.83c0-1.41-1.14-2.54-2.55-2.54l-1.39,0c-0.47,0.88-0.73,1.78-0.3,2.76
				c1.01,2.7,3.2,5.23,0.84,7.93c1.85,2.53,2.19,4.89,1.85,8.09c0,1.18,1.35,2.19,0.67,3.54c-1.35,1.85-1.01,4.05-0.84,6.07
				c-0.84,0.17-1.35,0.84-1.69,1.35c-0.67,1.01-0.51,2.7-2.02,3.2c-3.2,0.84-6.24,0-9.44-0.84c-1.85-0.51-2.53,1.85-3.54,2.19
				c-3.17,1.01-7.21-2.18-10.43-0.79c0.1,1.31,1.2,2.35,2.54,2.35l23.81-0.04c1.41,0,2.54-1.14,2.54-2.55L317.45,143.83z"/>
		</g>
		<g>
			<path class="st2" d="M326.19,142.7l2.36-0.34c1.41,0,0.67,1.63,0.67,3.04c0.95,1.58,2.82,0.15,3.04,4.72
				c0,1.41,0.45,2.53,1.85,2.53c3.48-0.64,5.35,1.5,7.47,1.7c1.41,0,2.54-1.14,2.54-2.55l-0.02-8.69c0-1.41,1.14-2.55,2.54-2.55
				c3.13,0.09,3.59-0.07,4.16-0.22c1.41,0,2.53,0.95,2.53,2.36c-0.43,24.36-1.49,25.23-2.53,26.81c0,1.41-6.01,8.43-7.42,8.43
				c-3.64,1-10.71,1.11-19.22,0.84c-1.41,0-2.86-2.13-2.87-3.54l2.19-4.55c0-1.41,1.12-1.01,2.53-1.01l16.36-0.84
				c1.4,0,1.75-1.86,1.76-3.27l0-0.48c0.1-5.02-2.88-0.81-4.29-0.8l-6.24,0.51c-7.42-4.05-10.13-3.36-10.14-4.77l-0.03-16.88
				C323.44,141.74,324.78,142.7,326.19,142.7z"/>
			<path class="st3" d="M325.48,140.93l3.12-0.01c1.41,0,2.55,1.14,2.55,2.54l0.02,8.69c0,1.41,1.14,2.54,2.55,2.54l7.36-0.01
				c1.41,0,2.54-1.14,2.54-2.55l-0.02-8.69c0-1.41,1.14-2.55,2.54-2.55l3.12-0.01c1.55,0.01,3.74-0.04,3.24,4.17l-0.63,29.03
				c0,1.41-5.05,3.34-6.45,3.35l-20.57,0.34c-1.41,0-2.7-0.95-2.7-2.36l-0.17-3.54c0-1.41,1.8-2.19,3.2-2.19l16.36-0.34
				c1.4,0,2.09-2.03,2.09-3.43l0-0.48c0-1.41-1.87-1.48-3.28-1.48h-7.93c-1.41,0-9.46-2.18-9.46-3.59l-0.03-16.88
				C322.93,142.08,324.07,140.94,325.48,140.93z"/>
			<path class="st4" d="M344.24,154.34c0.67-3.04,0.51-5.9-0.17-8.94c2.27-0.25,2.28-2.3,2.35-4.17l-0.78,0
				c-1.41,0-2.54,1.14-2.54,2.55l0.02,8.69c0,1.41-1.14,2.55-2.54,2.55l-2.71,0.01C340.48,156.21,343.49,157.18,344.24,154.34z"/>
			<path class="st4" d="M326.87,159.56c-0.95-1.42-2.79-1.21-4.41-1.32l0,2.46c0,1.41,1.14,2.54,2.55,2.54l5.64-0.01
				c-0.9-0.44-1.88-0.82-2.78-1.31C327.03,161.42,327.37,160.24,326.87,159.56z"/>
			<path class="st0" d="M351.31,143.77c0-1.41-1.14-2.54-2.55-2.54l-2.34,0c-0.07,1.86-0.07,3.92-2.35,4.17
				c0.67,3.04,0.84,5.9,0.17,8.94c-0.74,2.85-3.76,1.88-6.37,0.7l-4.66,0.01c-0.06,0-0.12,0-0.19-0.01
				c-0.97,0.99-1.94,1.41-2.95-0.19c-1.01-1.85-1.52-3.37-1.85-5.06c-0.75-2.56-0.97-5.52-0.64-8.52l-2.6,0
				c-1.41,0-2.54,1.14-2.54,2.55l0.03,14.42c1.62,0.11,3.46-0.1,4.41,1.32c0.51,0.67,0.17,1.85,1.01,2.36
				c0.9,0.49,1.87,0.86,2.78,1.31l9.92-0.02c0.1,0,0.19,0.01,0.29,0.02c-0.06-0.04-0.11-0.08-0.17-0.12
				c0.06,0.04,0.11,0.08,0.17,0.12c0.98,0.11,1.79,0.77,2.11,1.67c1.23,1.12,2.11,2.38,1.26,3.44c-1.35,2.02-4.22,2.36-6.58,3.71
				c-0.34,0.17-1.01,0.17-1.35,0c-2.19-1.01-4.38-2.36-6.91-0.51c-1.78,1.29-4.17-1.44-6.75-1.08c-0.11,0.28-0.17,0.59-0.17,0.91
				l0.01,3.12c0,1.41,1.14,2.54,2.55,2.54l23.78-0.04c1.41,0,2.54-1.14,2.54-2.55L351.31,143.77z"/>
			<path class="st4" d="M328.22,149.78c0.34,1.69,0.84,3.2,1.85,5.06c1.01,1.6,1.98,1.18,2.95,0.19c-1.32-0.09-2.36-1.19-2.37-2.53
				l-0.02-8.69c0-1.41-1.14-2.54-2.55-2.54l-0.52,0C327.25,144.27,327.46,147.23,328.22,149.78z"/>
			<path class="st4" d="M342.97,164.9c0.1,0.27,0.15,0.56,0.15,0.87l0,0.48c0,1.4-1.14,2.54-2.54,2.54l-15.56,0.03
				c-1.09,0-2.01,0.69-2.37,1.64c2.57-0.36,4.97,2.37,6.75,1.08c2.53-1.85,4.72-0.51,6.91,0.51c0.34,0.17,1.01,0.17,1.35,0
				c2.36-1.35,5.23-1.69,6.58-3.71C345.08,167.28,344.2,166.02,342.97,164.9z"/>
		</g>
		<g>
			<path class="st2" d="M396.33,142.45l23.89-0.04c1.41,0,3.77,1.56,3.78,2.99c-1.15,4.22-0.87,3.4-3.76,5.33
				c-10.89,0.57-16.32,0.23-18.2,2.62l0,0.49c0,1.43,1.15,2.58,2.56,2.58l8.73-0.02c1.41,0,2.93,1.99,2.57,5.71
				c0,1.43-0.14,1.16-2.11,2.85c-0.26,1.28-3.96,1.65-9.05,0.51c-1.4,0-2.35,0.39-2.36,1.81l0,0.49c-0.01,1.43,1.14,2.6,2.56,2.6
				l15.34-0.03c1.41,0,3.46,8.1,1.26,8.28c-9.38,1.52-19.91,0.77-21.4,0.17c-4.45-3.71-9.05-0.34-11.52-7.76
				c2.3-3.15,3.83-13.63,5.17-25.99C393.78,143.62,394.92,142.46,396.33,142.45z"/>
			<path class="st3" d="M395.97,141.91l23.6-0.04c1.4,0,2.53,1.14,2.53,2.56l0.01,3.14c0,1.42-1.13,2.56-2.52,2.57l-15.45,0.03
				c-1.4,0-2.52,1.15-2.52,2.57l0,0.49c0,1.42,1.14,2.56,2.53,2.56l8.62-0.02c1.4,0,2.53,1.14,2.53,2.56l0.01,3.11
				c0.03,2.19-1.13,2.56-2.52,2.57c-2.36,0.29-4.72,0.58-8.32,0.02c-1.39,0-2.51,1.14-2.52,2.55l0,0.49
				c-0.01,1.42,1.13,2.58,2.53,2.58l15.15-0.03c1.4,0,2.53,1.14,2.53,2.56l0.01,3.14c0,1.42-1.13,2.56-2.52,2.57l-25.59-0.4
				c-1.4,0-2.33-2.63-2.33-4.05c-0.5-10.29,1.83-8.43,1.73-28.91C393.44,143.06,394.57,141.91,395.97,141.91z"/>
			<path class="st4" d="M412.03,148.43c-0.67-0.17-1.35-0.67-1.86-0.51c-2.09,0.49-4.99,0.36-6.73,1.62c0.06,0,0.13-0.01,0.19-0.01
				l15.31-0.03c0.7,0,1.33-0.29,1.79-0.76c-0.88-0.13-1.76-0.35-2.63-0.83C416.07,146.92,414.22,148.94,412.03,148.43z"/>
			<path class="st4" d="M410.17,156.7c0.17,0,0.51,0.51,0.84,0.84c0.67,0.84,2.53-0.67,2.87,0.51c0.16,0.84,0.44,1.52,0.82,2.08
				l0-2.62c0-1.38-1.13-2.5-2.51-2.5l-8.55,0.02c-0.41,0-0.8-0.1-1.15-0.28C403.58,157.38,407.75,156.09,410.17,156.7z"/>
			<path class="st4" d="M420.95,175.65c0.34-0.43,0.55-0.97,0.55-1.56l-0.01-3.06c0-1.38-1.13-2.5-2.51-2.5l-14.3,0.03
				c1.4,0.6,2.94,0.79,4.64,1.13c0.17,0.17,0.67,1.01,1.18,1.18c2.02,0.84,4.55-0.67,6.24,1.52c0.67,1.01,2.02-0.34,3.04-0.34
				c-0.16,1.43,0.17,2.79,0.88,3.91C420.77,175.86,420.86,175.76,420.95,175.65z"/>
			<path class="st4" d="M396.18,174.74c0.34-0.67-0.67-1.52-0.84-2.36c-0.34-1.35,1.69-2.19,1.69-3.2
				c-0.34-3.71-3.04-7.25-1.85-11.47c0.67-2.36-0.34-5.23-0.67-8.09c0-0.96-0.68-1.92-1.44-2.82l0.04,23.32l0.01,4.03
				c0,0.99,0.58,1.85,1.42,2.25C395.18,175.92,395.77,175.41,396.18,174.74z"/>
			<path class="st0" d="M403.44,149.55c1.74-1.26,4.64-1.13,6.73-1.62c0.51-0.17,1.18,0.34,1.86,0.51c2.19,0.51,4.05-1.52,6.07-0.51
				c0.88,0.47,1.76,0.7,2.63,0.83c0.44-0.45,0.71-1.07,0.71-1.75l-0.01-3.06c0-1.38-1.13-2.5-2.51-2.5l-23.39,0.04
				c-1.38,0-2.5,1.13-2.5,2.51l0.01,2.81c0.76,0.9,1.44,1.86,1.44,2.82c0.34,2.87,1.35,5.73,0.67,8.09
				c-1.18,4.22,1.52,7.76,1.85,11.47c0,1.01-2.02,1.85-1.69,3.2c0.17,0.84,1.18,1.69,0.84,2.36c-0.4,0.67-1,1.18-1.66,1.65
				c0.33,0.16,0.7,0.25,1.09,0.25l23.39-0.04c0.64,0,1.23-0.25,1.67-0.65c-0.71-1.12-1.04-2.48-0.88-3.91
				c-1.01,0-2.36,1.35-3.04,0.34c-1.69-2.19-4.22-0.67-6.24-1.52c-0.51-0.17-1.01-1.01-1.18-1.18c-1.7-0.34-3.25-0.53-4.64-1.13
				l-0.72,0c-1.39,0-2.52-1.13-2.51-2.52l0-0.47c0.01-1.37,1.12-2.49,2.5-2.49l8.24-0.02c1.38,0,2.5-1.13,2.5-2.51l0-0.42
				c-0.38-0.55-0.66-1.23-0.82-2.08c-0.34-1.18-2.19,0.34-2.87-0.51c-0.34-0.34-0.67-0.84-0.84-0.84c-2.42-0.6-6.59,0.68-7.68-1.95
				c-0.81-0.41-1.36-1.25-1.36-2.22l0-0.47C401.13,150.73,402.15,149.65,403.44,149.55z"/>
		</g>
		<g>
			<path class="st2" d="M180.48,143.12l23.89-0.04c1.41,0,3.77,1.53,3.78,2.93c-1.15,4.13-0.87,3.33-3.76,5.23
				c-10.89,0.56-16.32,0.23-18.2,2.56l0,0.48c0,1.4,1.15,2.53,2.56,2.53l8.73-0.02c1.41,0,2.93,1.95,2.57,5.6
				c0,1.4-0.14,1.14-2.11,2.79c-0.26,1.25-3.96,1.62-9.05,0.5c-1.4,0-2.35,0.39-2.36,1.78l0,0.48c-0.01,1.41,1.14,2.55,2.56,2.55
				l15.34-0.03c1.41,0,3.46,7.94,1.26,8.12c-9.38,1.49-19.91,0.76-21.4,0.17c-4.45-3.64-6.71,1.32-9.18-5.95
				c0-30.58,1.69-20.33,2.83-27.13C177.92,144.26,179.07,143.12,180.48,143.12z"/>
			<path class="st3" d="M180.11,142.57l23.6-0.04c1.4,0,2.53,1.14,2.53,2.56l0.01,3.14c0,1.42-1.13,2.56-2.52,2.57l-15.45,0.03
				c-1.4,0-2.52,1.15-2.52,2.57l0,0.49c0,1.42,1.14,2.56,2.53,2.56l8.62-0.02c1.4,0,2.53,1.14,2.53,2.56l0.01,3.11
				c0.03,2.19-1.13,2.56-2.52,2.57c-2.36,0.29-4.72,0.58-8.32,0.02c-1.39,0-2.51,1.14-2.52,2.55l0,0.49
				c-0.01,1.42,1.13,2.58,2.53,2.58l15.15-0.03c1.4,0,2.53,1.14,2.53,2.56l0.01,3.14c0,1.42-1.13,2.56-2.52,2.57l-25.59-0.4
				c-1.4,0-2.33-2.63-2.33-4.05c0.08-32.55,2.61-34.06,1.73-28.91C177.59,143.73,178.72,142.58,180.11,142.57z"/>
			<path class="st4" d="M196.17,149.1c-0.67-0.17-1.35-0.67-1.85-0.51c-2.09,0.49-4.99,0.36-6.73,1.62c0.06,0,0.13-0.01,0.19-0.01
				l15.31-0.03c0.7,0,1.33-0.29,1.79-0.76c-0.88-0.13-1.76-0.35-2.63-0.83C200.22,147.58,198.37,149.6,196.17,149.1z"/>
			<path class="st4" d="M194.32,157.36c0.17,0,0.51,0.51,0.84,0.84c0.67,0.84,2.53-0.67,2.87,0.51c0.16,0.84,0.44,1.52,0.82,2.08
				l0-2.62c0-1.38-1.13-2.5-2.51-2.5l-8.55,0.02c-0.41,0-0.8-0.1-1.15-0.28C187.73,158.04,191.9,156.76,194.32,157.36z"/>
			<path class="st4" d="M205.1,176.32c0.34-0.43,0.55-0.97,0.55-1.56l-0.01-3.06c0-1.38-1.13-2.5-2.51-2.5l-14.3,0.03
				c1.4,0.6,2.94,0.79,4.64,1.13c0.17,0.17,0.67,1.01,1.18,1.18c2.02,0.84,4.55-0.67,6.24,1.52c0.67,1.01,2.02-0.34,3.04-0.34
				c-0.16,1.43,0.17,2.79,0.88,3.91C204.91,176.52,205.01,176.42,205.1,176.32z"/>
			<path class="st4" d="M180.32,175.4c0.34-0.67-0.67-1.52-0.84-2.36c-0.34-1.35,1.69-2.19,1.69-3.2
				c-0.34-3.71-3.04-7.25-1.85-11.47c0.67-2.36-0.34-5.23-0.67-8.09c0-0.96-0.68-1.92-1.44-2.82l0.04,23.32l0.01,4.03
				c0,0.99,0.58,1.85,1.42,2.25C179.33,176.59,179.92,176.08,180.32,175.4z"/>
			<path class="st0" d="M187.59,150.21c1.74-1.26,4.64-1.13,6.73-1.62c0.51-0.17,1.18,0.34,1.85,0.51c2.19,0.51,4.05-1.52,6.07-0.51
				c0.88,0.47,1.76,0.7,2.63,0.83c0.44-0.45,0.71-1.07,0.71-1.75l-0.01-3.06c0-1.38-1.13-2.5-2.51-2.5l-23.39,0.04
				c-1.38,0-2.5,1.13-2.5,2.51l0.01,2.81c0.76,0.9,1.44,1.86,1.44,2.82c0.34,2.87,1.35,5.73,0.67,8.09
				c-1.18,4.22,1.52,7.76,1.85,11.47c0,1.01-2.02,1.85-1.69,3.2c0.17,0.84,1.18,1.69,0.84,2.36c-0.4,0.67-1,1.18-1.66,1.65
				c0.33,0.16,0.7,0.25,1.09,0.25l23.39-0.04c0.64,0,1.23-0.25,1.67-0.65c-0.71-1.12-1.04-2.48-0.88-3.91
				c-1.01,0-2.36,1.35-3.04,0.34c-1.69-2.19-4.22-0.67-6.24-1.52c-0.51-0.17-1.01-1.01-1.18-1.18c-1.7-0.34-3.25-0.53-4.64-1.13
				l-0.72,0c-1.39,0-2.52-1.13-2.51-2.52l0-0.47c0.01-1.37,1.12-2.49,2.5-2.49l8.24-0.02c1.38,0,2.5-1.13,2.5-2.51l0-0.42
				c-0.38-0.55-0.66-1.23-0.82-2.08c-0.34-1.18-2.19,0.34-2.87-0.51c-0.34-0.34-0.67-0.84-0.84-0.84c-2.42-0.6-6.59,0.68-7.68-1.95
				c-0.81-0.41-1.36-1.25-1.36-2.22l0-0.47C185.28,151.39,186.29,150.31,187.59,150.21z"/>
		</g>
		<g>
			<path class="st2" d="M145.89,86.45l8.42-3.67c0.63-0.27,1.27,0.4,1.36,1.43c1.08,12.2,1.37,24.39,0.88,36.58
				c-0.04,0.91-0.51,1.62-1.08,1.62l-11,0.02c-0.57,0-1.05-0.72-1.08-1.63c-0.49-12.65,0.12-23.65,1.74-33.13
				C145.23,87.07,145.52,86.61,145.89,86.45z"/>
			<path class="st3" d="M145.21,80.67l12.58-0.02l0.07,39.32c0,0.76-0.61,1.37-1.37,1.37l-9.83,0.02c-0.76,0-1.37-0.61-1.37-1.37
				L145.21,80.67z"/>
			<path class="st0" d="M147.01,84.92l0.06,33.98c0,0.78,0.64,1.42,1.42,1.42l7.94-0.01c0.14,0,0.27-0.03,0.4-0.06
				c-0.06-9.33,2.03-29.17-1.1-36.48C154.46,81.88,148.43,82.73,147.01,84.92z"/>
			<path class="st4" d="M157.85,118.89l-0.07-35.75c0-0.79-0.64-1.42-1.42-1.42l-7.94,0.01c-0.79,0-1.42,0.64-1.42,1.42l0,1.77
				c0.38-0.11,7.26-2.28,8.73-0.11c1.85,2.72,0.96,10.81,1.03,14.91c0.12,6.82-1.11,14.66,0.07,20.53
				C157.42,120.07,157.86,119.53,157.85,118.89z"/>
		</g>
		<g>
			<path class="st2" d="M243.89,116.85l-8.42,3.61c-0.63,0.27-1.27-0.39-1.36-1.41c-1.08-12-1.37-23.99-0.88-35.97
				c0.04-0.89,0.51-1.59,1.08-1.59c0,0,9.41-0.52,10.93-1.19c1.52-0.67,1.11,1.88,1.15,2.78c0.49,12.44-0.12,23.25-1.74,32.58
				C244.55,116.24,244.26,116.69,243.89,116.85z"/>
			<path class="st3" d="M244.57,121.44L232,121.46l-0.07-38.23c0-0.74,0.61-1.33,1.37-1.34l9.83-0.02c0.76,0,1.37,0.59,1.37,1.33
				L244.57,121.44z"/>
			<path class="st0" d="M242.78,118.31l-0.06-33.98c0-0.78-0.64-1.42-1.42-1.42l-7.94,0.01c-0.14,0-0.27,0.03-0.4,0.06
				c0.06,9.33-2.03,29.17,1.1,36.48C235.33,121.35,241.36,120.51,242.78,118.31z"/>
			<path class="st4" d="M231.93,84.35L232,120.1c0,0.79,0.64,1.42,1.42,1.42l7.94-0.01c0.79,0,1.42-0.64,1.42-1.42l0-1.77
				c-0.38,0.11-7.26,2.28-8.73,0.11c-1.85-2.72-0.96-10.81-1.03-14.91c-0.12-6.82,1.11-14.66-0.07-20.53
				C232.36,83.16,231.93,83.7,231.93,84.35z"/>
		</g>
		<g>
			<path class="st2" d="M171.52,80.79c5.67-0.59,10.65-1.5,20.86,0c1.6-0.82,2.93,4.16,2.61,5.23c0.74,7.46-1.04,12.52-2.8,17.6
				c0,0.76-0.3,2.09-1.04,2.09c0,1.05-4.63,0.86-5.81,1.53c-1.19,0-1.78,1.49-0.94,2.36l6.77,6.99c0.25,0.26,0.39,0.61,0.39,0.98
				l0.43,2.57c0,0.76-4.79,1.89-7.91,0.84c-5.16-2.57-11.48-13.29-12.72-10.05c-0.84-0.88-1.8-0.19-1.79,1.05l1.97,4.11
				c0,0.76-1.87,6.54-2.61,6.54c-1.75-0.24-0.84-0.92-3.91,0c-0.74,0-3.91-0.54-3.91-1.31c-0.79-0.95-0.54-25,5.22-35.31
				C166.31,85.25,170.78,80.79,171.52,80.79z M169.51,93.49l0.01,3.37c0,0.76,0.6,1.38,1.34,1.38l10.58-0.02
				c0.74,0,1.34-0.62,1.33-1.39c0.64-1.47,0.95-3.89,0.28-4.9c0-0.76-10.61-0.51-12.21,0.17C170.11,92.11,169.51,92.73,169.51,93.49
				z"/>
			<path class="st3" d="M163.08,81.56l29.3-0.05c0.77,0,1.4,0.62,1.4,1.4l0.04,21.68c0,0.77-0.62,1.4-1.39,1.4l-5.07,0.01
				c-1.24,0-1.86,1.51-0.98,2.39l7.07,7.08c0.26,0.26,0.41,0.62,0.41,0.99c0,0,0.31,4.17-0.46,4.17l-7.74,0
				c-0.37,0-9.64-8.77-12.91-11.94c-0.88-0.89-1.88,0.87-1.87,2.12l0.02,9.19c0,0.77-0.62,1.4-1.39,1.4l-6.33,0.01
				c-0.77,0-1.4-0.62-1.4-1.4l-0.07-37.05C161.69,82.19,162.31,81.56,163.08,81.56z M170.83,92.1l0.01,3.41c0,0.77,0.63,1.4,1.4,1.4
				l11.05-0.02c0.77,0,1.83-0.43,1.83-1.21c0.79-1-0.27-3.44,0-3.93c0.27-0.49-1.07-1.08-1.84-1.08l-11.05,0.02
				C171.46,90.7,170.83,91.32,170.83,92.1z"/>
			<path class="st0" d="M187.4,105.44l4.87-0.01c0.3,0,0.56-0.12,0.78-0.28c-0.61-7.28,1.9-19.38-2.96-20.35
				c-8.1-3.04-18.22-1.04-27.34-0.09l0.06,34.15c0,0.74,0.6,1.34,1.34,1.34l6.08-0.01c0.74,0,1.34-0.6,1.34-1.34l-0.02-8.8
				c0-1.2,1.45-1.8,2.29-0.95l10.63,10.67c0.25,0.25,0.6,0.4,0.95,0.39l6.86-0.01c0.74,0,1.34-0.6,1.34-1.34l-0.01-3.35
				c0-0.36-0.14-0.7-0.39-0.95l-6.78-6.78C185.61,106.89,186.2,105.44,187.4,105.44z M183.49,96.71l-10.61,0.02
				c-0.74,0-1.34-0.6-1.34-1.34l-0.01-3.27c0-0.74,0.6-1.34,1.34-1.34l10.61-0.02c0.74,0,1.34,0.6,1.34,1.34l0.01,3.27
				C184.83,96.11,184.23,96.71,183.49,96.71z"/>
			<path class="st4" d="M190.09,84.8c2.12,2.12,1.96,4.91,2.09,8.36c0.06,1.56,0.76,4.5,0.74,6.17c-0.02,1.93-0.03,3.89,0.13,5.82
				c0.33-0.24,0.56-0.62,0.56-1.06l-0.04-20.77c0-0.74-0.6-1.34-1.34-1.34l-28.14,0.05c-0.74,0-1.34,0.6-1.34,1.34l0,1.33
				c3.33-0.35,6.33-0.8,10.64-0.71c3.05,0.06,7.47,0.58,9.99,0.78C187.04,85.06,189.7,84.41,190.09,84.8z"/>
		</g>
		<g>
			<path class="st2" d="M262.54,140.43c5.29-0.55,9.93-1.4,19.46,0c1.5-0.77,2.74,3.88,2.43,4.88c0.69,6.96-0.97,11.68-2.61,16.42
				c0,0.71-0.28,1.95-0.97,1.95c0,0.98-4.31,0.8-5.42,1.42c-1.11,0-1.67,1.39-0.88,2.2l6.31,6.52c0.23,0.24,0.37,0.57,0.37,0.91
				l0.4,2.4c0,0.71-4.47,1.76-7.38,0.79c-4.81-2.4-10.71-12.39-11.87-9.37c-0.79-0.82-1.68-0.18-1.67,0.98l1.84,3.84
				c0,0.71-1.74,6.1-2.43,6.1c-1.63-0.22-0.79-0.86-3.65,0c-0.69,0-3.65-0.51-3.65-1.22c-0.74-0.88-0.5-23.32,4.87-32.94
				C257.67,144.59,261.85,140.43,262.54,140.43z M260.66,152.28l0.01,3.15c0,0.71,0.56,1.29,1.25,1.29l9.87-0.02
				c0.69,0,1.25-0.58,1.25-1.29c0.6-1.37,0.89-3.63,0.26-4.57c0-0.71-9.9-0.47-11.39,0.16
				C261.22,150.99,260.66,151.57,260.66,152.28z"/>
			<path class="st3" d="M254.67,141.15L282,141.1c0.72,0,1.3,0.58,1.31,1.3l0.04,20.23c0,0.72-0.58,1.31-1.3,1.31l-4.73,0.01
				c-1.16,0-1.74,1.41-0.92,2.23l6.59,6.6c0.24,0.24,0.38,0.58,0.38,0.92c0,0,0.29,3.89-0.43,3.89l-7.22,0
				c-0.35,0-8.99-8.18-12.04-11.14c-0.82-0.83-1.75,0.81-1.75,1.97l0.02,8.57c0,0.72-0.58,1.31-1.3,1.31l-5.91,0.01
				c-0.72,0-1.3-0.58-1.31-1.3l-0.06-34.56C253.36,141.74,253.95,141.15,254.67,141.15z M261.89,150.98l0.01,3.18
				c0,0.72,0.59,1.31,1.31,1.3l8.85-0.46c0.72,0,1.86,0.38,1.85-0.34c0.73-0.93,0.34-2.02,0.51-3.54c0.1-0.9-0.84-0.67-0.84-1.01
				h-10.62C262.23,150.12,261.89,150.26,261.89,150.98z"/>
			<path class="st0" d="M277.35,163.43l4.54-0.01c0.28,0,0.52-0.11,0.73-0.26c-0.57-6.79,1.77-18.08-2.76-18.98
				c-7.56-2.83-17-0.97-25.5-0.09l0.06,31.86c0,0.69,0.56,1.25,1.25,1.25l5.67-0.01c0.69,0,1.25-0.56,1.25-1.25l-0.02-8.21
				c0-1.12,1.35-1.68,2.14-0.89l9.91,9.95c0.24,0.24,0.56,0.37,0.89,0.37l6.4-0.01c0.69,0,1.25-0.56,1.25-1.25l-0.01-3.12
				c0-0.33-0.13-0.65-0.37-0.88l-6.33-6.32C275.68,164.78,276.23,163.43,277.35,163.43z M273.7,155.28l-9.9,0.02
				c-0.69,0-1.25-0.56-1.25-1.25l-0.01-3.05c0-0.69,0.56-1.25,1.25-1.25l9.9-0.02c0.69,0,1.25,0.56,1.25,1.25l0.01,3.05
				C274.95,154.72,274.39,155.28,273.7,155.28z"/>
			<path class="st4" d="M279.86,144.17c1.98,1.98,1.83,4.58,1.95,7.8c0.06,1.45,0.71,4.2,0.69,5.75c-0.02,1.8-0.03,3.63,0.12,5.43
				c0.31-0.23,0.52-0.58,0.52-0.99l-0.04-19.37c0-0.69-0.56-1.25-1.25-1.25l-26.24,0.05c-0.69,0-1.25,0.56-1.25,1.25l0,1.24
				c3.11-0.32,5.91-0.74,9.93-0.66c2.85,0.06,6.97,0.54,9.32,0.72C277.01,144.42,279.49,143.81,279.86,144.17z"/>
		</g>
	</g>
	<path class="st5" d="M67.02,244.41c4.96-3.2,8.91-3.38,12.7-0.79c4.39,3.01,7,11.32,5.56,16.65c-0.73,2.71-0.83,2.77-6.63,3.24
		c2.43-1.68,4.75-2.69,3.56-5.85C79.62,250.77,74.16,245.4,67.02,244.41z"/>
	<path class="st2" d="M158.21,8.55c2.31,1.18,6.76,1.14,4,5.53c-1.16,1.85-4.08,3.05-6.1,1.77c-2.93-1.86,0.08-3.39,1.05-4.98
		c0.42-0.69,0.7-1.48,1.03-2.23C158.19,8.63,158.21,8.55,158.21,8.55z"/>
	<path class="st0" d="M298.95,284.85c-1.79,1.88-3.01,6.16-6.44,2.27c-1.44-1.63-1.77-4.78,0.04-6.35c2.62-2.28,3.23,1.04,4.48,2.42
		c0.54,0.6,1.22,1.09,1.85,1.63C298.87,284.81,298.95,284.85,298.95,284.85z"/>
	<path class="st2" d="M236.18,70.53c-3.07,0.15-5.82-0.63-5.41-4.27c0.33-2.99,2.1-5.72,5.59-5.77c3.98-0.06,5.4,2.99,5.59,6.28
		C242.19,70.85,238.84,70.38,236.18,70.53z"/>
	<path class="st2" d="M223.38,220.53c-1.91,0.11-3.61-0.47-3.36-3.2c0.21-2.24,1.3-4.29,3.47-4.33c2.47-0.05,3.35,2.25,3.47,4.71
		C227.1,220.78,225.03,220.42,223.38,220.53z"/>
	<path class="st2" d="M151.29,72.99c-1.44,0.09-2.73-0.37-2.54-2.53c0.16-1.77,0.99-3.39,2.62-3.42c1.87-0.04,2.53,1.78,2.62,3.73
		C154.1,73.19,152.53,72.9,151.29,72.99z"/>
	<path class="st2" d="M405.88,121.3c-0.48,2.37-1.41,4.44-4.44,4.19c-3.69-0.31-6.93-2.02-7.32-5.79c-0.4-3.84,3.27-2.91,5.58-3.14
		C403.13,116.21,405.49,117.42,405.88,121.3z"/>
	<path class="st5" d="M399.38,249.61c2.8,0.64,4.35,2.49,5.03,5.19c-0.76,3.14-2.33,5.26-6.08,4.83c0.05-2.16,3.94-1.9,2.73-4.75
		c-1.23-2.9-4.22-1.55-6.25-2.44C395.49,249.64,397.67,250.05,399.38,249.61z"/>
</g>
</svg>
