<?xml version="1.0" encoding="utf-8"?>
<!-- Generator: Adobe Illustrator 23.0.2, SVG Export Plug-In . SVG Version: 6.00 Build 0)  -->
<svg version="1.1" id="Calque_1" xmlns="http://www.w3.org/2000/svg" xmlns:xlink="http://www.w3.org/1999/xlink" x="0px" y="0px"
	 viewBox="0 0 891 830" style="enable-background:new 0 0 891 830;" xml:space="preserve">
<style type="text/css">
	.st0{opacity:0.99;fill:#B3B3B3;enable-background:new    ;}
	.st1{fill:#509269;}
	.st2{fill:#6CA782;}
	.st3{fill:#B3B3B3;}
	.st4{fill:#F2F2F2;}
	.st5{fill:#754C24;}
	.st6{fill:#4D4D4D;}
	.st7{fill:none;stroke:#B3B3B3;stroke-width:0.25;stroke-miterlimit:10;}
	.st8{fill:#E6E6E6;}
	.st9{fill:none;stroke:#B3B3B3;stroke-width:3;stroke-linecap:round;stroke-miterlimit:10;}
	.st10{opacity:0.99;fill:#CCCCCC;enable-background:new    ;}
	.st11{fill:none;stroke:#000000;stroke-width:0.25;stroke-miterlimit:10;}
	.st12{fill:#603813;}
	.st13{fill:#1A1A1A;}
	.st14{fill:#B8B8B8;}
	.st15{fill:#333333;stroke:#000000;stroke-width:2;stroke-miterlimit:10;}
	.st16{fill:#4D4D4D;stroke:#000000;stroke-width:2;stroke-miterlimit:10;}
	.st17{fill:#1A1A1A;stroke:#000000;stroke-width:2;stroke-miterlimit:10;}
</style>
<g id="building">
	<path class="st0" d="M22,694.7v130.7h23.5V696.2C37.7,695.8,29.8,695.3,22,694.7z"/>
	<path class="st0" d="M226.3,694.7c-7.9,0.6-15.7,1.1-23.6,1.5v129.3h23.6V694.7z"/>
	<rect x="382.4" y="402.9" class="st1" width="435" height="299"/>
	<path class="st1" d="M360.6,512c160,3.1,319.5,3.1,478.5,0V402.9H360.6V512z"/>
	<rect x="343.5" y="52.6" class="st1" width="514" height="320.8"/>
	<polygon class="st2" points="652.5,354.6 574.5,353.7 736.1,49.3 814.1,50.2 	"/>
	<polygon class="st2" points="687,357.3 664.3,357.3 825.9,53 848.5,53 	"/>
	<path class="st3" d="M338.9,824c172.5,5.8,346.5,5.8,522,0V699.6h-522L338.9,824L338.9,824z"/>
	<path class="st3" d="M345.5,404.2c170,2.4,340,2.4,510,0c3.6,0,6.6-3.3,6.6-7.4v-13.5c0-4.1-2.9-7.4-6.6-7.4h-510
		c-3.6,0-6.6,3.3-6.6,7.4v13.5C338.9,400.9,341.8,404.2,345.5,404.2z"/>
	<path class="st4" d="M327.4,383.7h547.2v-22c0-9.8-7.1-17.8-15.9-17.8c-171.8,4.1-343.6,4.1-515.4,0c-8.8,0-15.9,8-15.9,17.8
		L327.4,383.7L327.4,383.7z"/>
	<path class="st5" d="M324,383.7c184.7,3.4,369.4,3.4,554.1,0v-10.3c-184.7,3.4-369.4,3.4-554.1,0V383.7z"/>
	<path class="st1" d="M338.9,701.6c174.8,5.2,348.8,5.2,522,0v-128h-522L338.9,701.6L338.9,701.6z"/>
	<path class="st3" d="M368,522.3c153.5,3.6,308.1,3.6,463.9,0c4.1,0,7.3-3.7,7.3-8.2v-2c-159.5,3.1-319,3.1-478.5,0v2
		C360.6,518.6,363.9,522.3,368,522.3z"/>
	<path class="st3" d="M338.9,579.1c173.1,2.2,347.1,2.2,522,0v-2.6c0-4.7-3.1-8.5-7-8.5c-169.3,2.8-338.7,2.8-508,0
		c-3.9,0-7,3.8-7,8.5L338.9,579.1L338.9,579.1z"/>
	<ellipse class="st6" cx="600.5" cy="54.5" rx="257" ry="3.2"/>
	<ellipse class="st3" cx="600.5" cy="44.2" rx="257" ry="3.2"/>
	<rect x="343.5" y="44.9" class="st6" width="514" height="10.3"/>
	<path class="st7" d="M857.5,85.9c-171.3,5.1-342.7,5.1-514,0"/>
	<path class="st7" d="M857.5,153.9c-171.3,5.1-342.7,5.1-514,0"/>
	<path class="st7" d="M857.5,222c-171.3,5.1-342.7,5.1-514,0"/>
	<path class="st7" d="M861.5,616.6c-171.3,5.6-342.7,5.6-514,0"/>
	<path class="st7" d="M861.5,662.9c-171.3,5.6-342.7,5.6-514,0"/>
	<path class="st7" d="M857.5,290c-171.3,5.1-342.7,5.1-514,0"/>
	<line class="st7" x1="775.1" y1="57.7" x2="775.1" y2="345.2"/>
	<line class="st7" x1="686.9" y1="57.7" x2="686.9" y2="345.2"/>
	<line class="st7" x1="598.8" y1="57.7" x2="598.8" y2="345.2"/>
	<line class="st7" x1="510.6" y1="57.7" x2="510.6" y2="345.2"/>
	<line class="st7" x1="422.5" y1="57.7" x2="422.5" y2="345.2"/>
	<line class="st7" x1="775.1" y1="400.9" x2="775.1" y2="705.9"/>
	<line class="st7" x1="686.9" y1="400.9" x2="686.9" y2="705.9"/>
	<line class="st7" x1="598.8" y1="400.9" x2="598.8" y2="705.9"/>
	<line class="st7" x1="510.6" y1="400.9" x2="510.6" y2="705.9"/>
	<line class="st7" x1="422.5" y1="400.9" x2="422.5" y2="705.9"/>
	<path class="st8" d="M594,42.2l0.2-20.2c0-1.5,2-2.7,4.5-2.7s4.5,1.3,4.4,2.8l-0.2,20.2c-1.4,0-2.7,0-4.1-0.1
		C597.3,42.3,595.6,42.2,594,42.2z"/>
	<path class="st1" d="M22,573.6v118.9v2.3c68.4,4.9,136.5,4.9,204.3,0l0,0V573.6H22z"/>
	<path class="st3" d="M22,579.1c67.7,2.2,135.8,2.2,204.3,0v-2.6c0-4.7-1.2-8.5-2.7-8.5c-66.3,2.8-132.6,2.8-198.8,0
		c-1.5,0-2.7,3.8-2.7,8.5v2.6H22z"/>
	<rect x="223" y="592.9" class="st1" width="122.4" height="94.7"/>
	<line class="st7" x1="218.2" y1="612.7" x2="346.5" y2="612.7"/>
	<line class="st7" x1="217.3" y1="646.2" x2="345.6" y2="646.2"/>
	<path class="st9" d="M317.4,634.8"/>
	<rect x="223" y="684.9" class="st3" width="118.9" height="2.7"/>
	<path class="st9" d="M338.9,593c4.7,0,8.5,21.4,8.5,47.8s-3.8,47.8-8.5,47.8"/>
	<path class="st9" d="M225.8,593c-4.7,0-8.5,21.4-8.5,47.8s3.8,47.8,8.5,47.8"/>
	<path class="st7" d="M360.8,441.8c159.4,4.4,318.8,4.4,478.2,0"/>
	<path class="st7" d="M361.6,480c159.6,4.2,319,4.2,478.2,0"/>
	<path class="st3" d="M339.2,689.5H225.6c-1.1,0-2.2-0.8-2.5-1.9l-4.2-19.1h126.4l-3.6,18.8C341.5,688.6,340.5,689.5,339.2,689.5z"
		/>
	<path class="st7" d="M22,605.8c67.2,2.4,133,2.5,197,0"/>
	<path class="st7" d="M22,633.3c65.5,3.5,130.6,3.5,195.3,0"/>
	<path class="st7" d="M22,669.8c65.5,3.5,130.6,3.5,195.3,0"/>
	<line class="st7" x1="52.8" y1="580.1" x2="52.8" y2="681.6"/>
	<line class="st7" x1="90.1" y1="579.2" x2="90.1" y2="683.6"/>
	<line class="st7" x1="124.9" y1="580.1" x2="124.9" y2="683.6"/>
	<line class="st7" x1="159.8" y1="580.1" x2="159.8" y2="683.6"/>
	<line class="st7" x1="194.6" y1="580.1" x2="194.6" y2="681.6"/>
	<path class="st10" d="M202.7,685.9c0-2.4-1.9-4.3-4.2-4.3c-49.6,3-99.2,3-148.8,0c-2.3,0-4.2,1.9-4.2,4.3v29.8h-0.1v109.7h4.3l0,0
		h148.8l0,0h4.2V715.7V685.9z"/>
	<line class="st11" x1="124.1" y1="698.4" x2="124.1" y2="814.6"/>
	<line class="st11" x1="202.7" y1="696.4" x2="202.7" y2="825.5"/>
	<line class="st11" x1="45.5" y1="696.4" x2="45.5" y2="825.5"/>
	<path class="st12" d="M225.3,827.4H20c-1.3,0-2.3-1-2.3-2.3v-0.3c0-1.3,1-2.3,2.3-2.3h205.3c1.3,0,2.3,1,2.3,2.3v0.3
		C227.7,826.4,226.6,827.4,225.3,827.4z"/>
	<path class="st12" d="M859.9,828.4H338.2c-1.3,0-2.3-1-2.3-2.3v-0.3c0-1.3,1-2.3,2.3-2.3h521.7c1.3,0,2.3,1,2.3,2.3v0.3
		C862.3,827.4,861.2,828.4,859.9,828.4z"/>
</g>
<g>
	<path class="st3" d="M37.4,573.8L37.4,573.8c-0.5,0-1-0.4-1-1v-27.4c0-0.5,0.4-1,1-1h0c0.5,0,1,0.4,1,1v27.4
		C38.4,573.4,37.9,573.8,37.4,573.8z"/>
	<path class="st3" d="M210.9,573.8L210.9,573.8c-0.5,0-1-0.4-1-1v-27.4c0-0.5,0.4-1,1-1l0,0c0.5,0,1,0.4,1,1v27.4
		C211.8,573.4,211.4,573.8,210.9,573.8z"/>
	<path class="st3" d="M207.2,573.8L207.2,573.8c-0.5,0-1-0.4-1-1v-27.4c0-0.5,0.4-1,1-1h0c0.5,0,1,0.4,1,1v27.4
		C208.1,573.4,207.7,573.8,207.2,573.8z"/>
	<path class="st3" d="M41.2,572.5L41.2,572.5c-0.5,0-1-0.4-1-1v-27.4c0-0.5,0.4-1,1-1h0c0.5,0,1,0.4,1,1v27.4
		C42.1,572.1,41.7,572.5,41.2,572.5z"/>
	<g>
		<rect x="24.1" y="497.6" class="st13" width="198.9" height="50.9"/>
		<rect x="26.1" y="499.6" class="st14" width="194.4" height="47.1"/>
		<ellipse cx="29.2" cy="502" rx="1.3" ry="1.1"/>
		<ellipse cx="29.2" cy="544.3" rx="1.3" ry="1.1"/>
		<g>
			<ellipse cx="216.8" cy="502" rx="1.3" ry="1.1"/>
			<ellipse cx="216.8" cy="544.3" rx="1.3" ry="1.1"/>
		</g>
	</g>
	<g>
		<polygon class="st15" points="91.1,515.6 96.5,515.6 96.5,508.9 84.5,508.9 84.5,516.9 91.1,520.5 		"/>
		<polygon class="st16" points="107.9,508.9 96.5,508.9 96.5,515.6 101.3,515.6 101.3,527.1 107.9,527.1 		"/>
		<polygon class="st17" points="91.2,531.3 91.1,520.5 84.5,516.9 84.5,538 99.4,538 98.4,531.3 		"/>
		<polygon class="st15" points="107.9,527.1 101.3,527.1 101.3,531.3 98.4,531.3 99.4,538 107.9,538 		"/>
		<circle cx="94.8" cy="510.6" r="0.4"/>
		<circle cx="90.5" cy="510.5" r="0.4"/>
		<circle cx="94.7" cy="513.9" r="0.4"/>
		<circle cx="89.4" cy="517.7" r="0.4"/>
		<circle cx="86.2" cy="515.8" r="0.4"/>
		<circle cx="86.1" cy="519.7" r="0.4"/>
		<circle cx="86.2" cy="528.4" r="0.4"/>
		<circle cx="89.5" cy="521.5" r="0.4"/>
		<circle cx="86.2" cy="536.4" r="0.4"/>
		<circle cx="97.4" cy="536.3" r="0.4"/>
		<circle cx="92.1" cy="536.3" r="0.4"/>
		<circle cx="97" cy="532.9" r="0.4"/>
		<circle cx="100.4" cy="532.9" r="0.4"/>
		<circle cx="101" cy="536.2" r="0.4"/>
		<circle cx="106.3" cy="536.3" r="0.4"/>
		<circle cx="106.2" cy="528.8" r="0.4"/>
		<circle cx="102.8" cy="525.5" r="0.4"/>
		<circle cx="106.3" cy="525.5" r="0.4"/>
		<circle cx="106.2" cy="518.2" r="0.4"/>
		<circle cx="106.3" cy="510.6" r="0.4"/>
		<circle cx="98" cy="510.6" r="0.4"/>
		<circle cx="98.1" cy="513.9" r="0.4"/>
		<circle cx="101.8" cy="514" r="0.4"/>
		<circle cx="102.8" cy="528.7" r="0.4"/>
		<circle cx="86.1" cy="510.5" r="0.4"/>
		<polygon class="st17" points="63.7,515.6 73.9,515.6 73.9,508.9 57.1,508.9 57.1,508.9 63.7,515.6 		"/>
		<polygon class="st16" points="73.9,538 80.5,538 80.5,534 75.7,529.1 65.1,529.1 		"/>
		<polygon class="st15" points="73.9,508.9 73.9,519.2 73.9,520.1 63.7,520.1 63.7,527.8 65.1,529.1 75.7,529.1 73.3,526.8 
			80.5,526.8 80.5,519.2 80.5,508.9 		"/>
		<polygon class="st16" points="63.7,529.3 63.7,527.8 63.7,520.1 63.7,520.1 63.7,515.6 57.1,508.9 57.1,520.1 57.1,520.1 
			57.1,529.3 57.1,533.5 63.7,533.5 		"/>
		<rect x="57.1" y="533.5" class="st15" width="6.7" height="4.5"/>
		<circle cx="58.7" cy="512.9" r="0.4"/>
		<circle cx="61" cy="510.5" r="0.4"/>
		<circle cx="64.5" cy="513.9" r="0.4"/>
		<circle cx="72.2" cy="510.5" r="0.4"/>
		<circle cx="75.5" cy="510.5" r="0.4"/>
		<circle cx="65.4" cy="521.8" r="0.4"/>
		<circle cx="79" cy="510.5" r="0.4"/>
		<circle cx="78.7" cy="525" r="0.4"/>
		<circle cx="65.7" cy="527.3" r="0.4"/>
		<circle cx="69" cy="530.7" r="0.4"/>
		<circle cx="71.5" cy="527.4" r="0.4"/>
		<circle cx="74.6" cy="536.1" r="0.4"/>
		<circle cx="78.6" cy="536.3" r="0.4"/>
		<circle cx="78.7" cy="534.7" r="0.4"/>
		<circle cx="74.9" cy="530.8" r="0.4"/>
		<circle cx="72.2" cy="513.9" r="0.4"/>
		<circle cx="62.2" cy="516.4" r="0.4"/>
		<circle cx="62.1" cy="531.8" r="0.4"/>
		<circle cx="58.7" cy="531.8" r="0.4"/>
		<circle cx="62.3" cy="536.5" r="0.3"/>
		<circle cx="58.5" cy="536.5" r="0.3"/>
		<circle cx="62.3" cy="534.9" r="0.3"/>
		<circle cx="58.5" cy="534.9" r="0.3"/>
		<polygon class="st15" points="29.7,538 36.4,538 36.4,528.5 29.7,530.8 		"/>
		<polygon class="st17" points="29.7,508.9 29.7,517.5 36.4,517.5 36.4,515.6 46.2,515.6 53,508.9 		"/>
		<polygon class="st15" points="46.2,515.6 46.5,515.6 46.5,520.1 41.2,520.1 41.2,526.8 53.1,526.8 53.1,508.9 53,508.9 		"/>
		<polygon class="st16" points="36.4,520.1 36.4,517.5 29.7,517.5 29.7,530.8 36.4,528.5 36.4,526.8 41.2,526.8 41.2,520.1 		"/>
		<circle cx="31.4" cy="510.7" r="0.4"/>
		<circle cx="48.2" cy="516" r="0.4"/>
		<circle cx="42.8" cy="521.8" r="0.4"/>
		<circle cx="39.5" cy="521.8" r="0.4"/>
		<circle cx="34.8" cy="519" r="0.4"/>
		<circle cx="31.3" cy="519" r="0.4"/>
		<circle cx="43" cy="525.1" r="0.4"/>
		<circle cx="39.5" cy="524.9" r="0.4"/>
		<circle cx="34.8" cy="527.1" r="0.4"/>
		<circle cx="34.7" cy="531" r="0.4"/>
		<circle cx="31.5" cy="532" r="0.4"/>
		<circle cx="31.4" cy="536" r="0.4"/>
		<circle cx="34.7" cy="536" r="0.4"/>
		<circle cx="31.5" cy="528.5" r="0.4"/>
		<circle cx="51.5" cy="525.1" r="0.4"/>
		<circle cx="51.5" cy="512.7" r="0.4"/>
		<circle cx="45.6" cy="513.9" r="0.4"/>
		<circle cx="48.9" cy="510.5" r="0.4"/>
		<circle cx="31.4" cy="513.3" r="0.4"/>
		<circle cx="31.6" cy="515.9" r="0.4"/>
		<polygon class="st16" points="139.2,508.9 139.2,514.7 149.3,508.9 		"/>
		<polygon class="st16" points="139.2,538 150.1,538 150.1,531.3 146.1,531.3 146.1,527.1 139.2,527.1 		"/>
		<polygon class="st15" points="145.8,515.6 156.6,515.6 156.6,508.9 149.3,508.9 139.2,514.7 139.2,520.1 145.8,520.1 		"/>
		<polygon class="st17" points="145.8,520.1 139.2,520.1 139.2,527.1 146.1,527.1 146.1,526.8 157,526.8 157,520.1 		"/>
		<rect x="150.1" y="531.3" class="st15" width="12.5" height="6.7"/>
		<rect x="156.6" y="508.9" class="st16" width="6" height="6.7"/>
		<circle cx="141" cy="536.2" r="0.4"/>
		<circle cx="140.8" cy="528.9" r="0.4"/>
		<circle cx="140.9" cy="521.7" r="0.4"/>
		<circle cx="140.7" cy="518.6" r="0.4"/>
		<circle cx="141.2" cy="515.8" r="0.4"/>
		<circle cx="144.1" cy="518.5" r="0.4"/>
		<circle cx="154.9" cy="514" r="0.4"/>
		<circle cx="155" cy="510.5" r="0.4"/>
		<circle cx="149.7" cy="510.5" r="0.4"/>
		<circle cx="144.9" cy="513.2" r="0.4"/>
		<circle cx="155.3" cy="521.8" r="0.4"/>
		<circle cx="155.3" cy="525.1" r="0.4"/>
		<circle cx="140.9" cy="525.5" r="0.4"/>
		<circle cx="144.3" cy="528.9" r="0.4"/>
		<circle cx="148.5" cy="532.9" r="0.4"/>
		<circle cx="148.4" cy="536.4" r="0.3"/>
		<circle cx="151.6" cy="536.4" r="0.3"/>
		<circle cx="151.5" cy="532.7" r="0.3"/>
		<circle cx="161.2" cy="532.8" r="0.3"/>
		<circle cx="161.2" cy="536.5" r="0.3"/>
		<circle cx="156.3" cy="532.8" r="0.3"/>
		<circle cx="140.5" cy="512.3" r="0.3"/>
		<circle cx="142.4" cy="511.3" r="0.3"/>
		<circle cx="140.6" cy="510.3" r="0.3"/>
		<circle cx="144.2" cy="510.2" r="0.3"/>
		<circle cx="158.1" cy="510.3" r="0.3"/>
		<circle cx="161.2" cy="514.1" r="0.3"/>
		<circle cx="158.1" cy="514.1" r="0.3"/>
		<circle cx="161.2" cy="510.4" r="0.3"/>
		<polygon class="st16" points="193.9,531.3 193.9,538 210.9,538 205.2,531.3 		"/>
		<polygon class="st17" points="217.4,520.1 200.6,520.1 200.6,517.1 193.9,517.1 193.9,526.8 210.7,526.8 210.7,528.2 217.4,528.2 
					"/>
		<polygon class="st15" points="210.7,528.2 210.7,531.3 205.2,531.3 210.9,538 217.4,538 217.4,528.2 		"/>
		<polygon class="st17" points="217.4,508.9 207.1,508.9 207.1,515.6 217.4,515.6 		"/>
		<polygon class="st16" points="193.9,508.9 193.9,517.1 200.6,517.1 200.6,515.6 207.1,515.6 207.1,508.9 		"/>
		<circle cx="195.8" cy="510.7" r="0.4"/>
		<circle cx="198.9" cy="515.5" r="0.4"/>
		<circle cx="195.6" cy="515.4" r="0.4"/>
		<circle cx="195.6" cy="518.8" r="0.4"/>
		<circle cx="195.6" cy="525.1" r="0.4"/>
		<circle cx="199" cy="518.8" r="0.4"/>
		<circle cx="212.4" cy="526.5" r="0.4"/>
		<circle cx="212.3" cy="529.8" r="0.4"/>
		<circle cx="215.8" cy="526.5" r="0.4"/>
		<circle cx="211.6" cy="536.3" r="0.4"/>
		<circle cx="195.6" cy="536.4" r="0.4"/>
		<circle cx="195.6" cy="532.9" r="0.4"/>
		<circle cx="204.3" cy="532.9" r="0.4"/>
		<circle cx="215.8" cy="536.3" r="0.4"/>
		<circle cx="215.8" cy="529.9" r="0.4"/>
		<circle cx="215.8" cy="521.7" r="0.4"/>
		<circle cx="208.2" cy="521.7" r="0.4"/>
		<circle cx="200.1" cy="521.7" r="0.4"/>
		<circle cx="205.5" cy="513.9" r="0.4"/>
		<circle cx="205.5" cy="510.5" r="0.4"/>
		<circle cx="208.4" cy="510.2" r="0.4"/>
		<circle cx="216.1" cy="510.2" r="0.4"/>
		<circle cx="216.1" cy="514.3" r="0.4"/>
		<circle cx="208.4" cy="514.3" r="0.4"/>
		<circle cx="208.3" cy="532.7" r="0.3"/>
		<circle cx="207.4" cy="536.4" r="0.3"/>
		<polygon class="st17" points="166.5,508.9 166.5,515.6 175.1,515.6 182,508.9 		"/>
		<polygon class="st15" points="181.7,515.6 184.6,515.6 184.6,508.9 182,508.9 175.1,515.6 175.1,524.2 181.7,524.2 		"/>
		<polygon class="st16" points="181.7,524.2 175.1,524.2 175.1,531.2 181.7,537 		"/>
		<polygon class="st17" points="175.1,531.2 175.1,538 181.7,538 181.7,537 		"/>
		<rect x="184.6" y="508.9" class="st16" width="5.4" height="6.7"/>
		<circle cx="168.2" cy="510.6" r="0.4"/>
		<circle cx="177.9" cy="510.5" r="0.4"/>
		<circle cx="182.9" cy="513.9" r="0.4"/>
		<circle cx="186.2" cy="514" r="0.4"/>
		<circle cx="176.7" cy="522.5" r="0.4"/>
		<circle cx="180.1" cy="522.5" r="0.4"/>
		<circle cx="176.6" cy="525.8" r="0.4"/>
		<circle cx="180.1" cy="525.9" r="0.4"/>
		<circle cx="176.7" cy="530.6" r="0.4"/>
		<circle cx="180.1" cy="533.5" r="0.4"/>
		<circle cx="168.2" cy="513.9" r="0.4"/>
		<circle cx="176.4" cy="534.2" r="0.2"/>
		<circle cx="179" cy="536.6" r="0.2"/>
		<circle cx="176.5" cy="536.5" r="0.3"/>
		<circle cx="188.4" cy="514.1" r="0.3"/>
		<circle cx="188.5" cy="510.3" r="0.3"/>
		<circle cx="186" cy="510.3" r="0.3"/>
		<circle cx="174.4" cy="514.1" r="0.3"/>
		<circle cx="183.1" cy="510.4" r="0.3"/>
		<circle cx="180" cy="513" r="0.3"/>
		<circle cx="176.7" cy="516.1" r="0.3"/>
		<polygon class="st17" points="118.5,531.3 118.5,525.7 111.8,525.7 111.8,538 120.7,538 120.7,531.3 		"/>
		<polygon class="st15" points="128.6,513.8 128.6,527.1 135.3,520.3 135.3,513.8 		"/>
		<rect x="128.6" y="508.9" class="st16" width="6.7" height="4.9"/>
		<polygon class="st16" points="128.6,527.1 128.6,531.3 120.7,531.3 120.7,538 135.3,538 135.3,520.3 		"/>
		<circle cx="130.3" cy="515.4" r="0.4"/>
		<circle cx="133.6" cy="536.4" r="0.4"/>
		<circle cx="113.5" cy="527.4" r="0.4"/>
		<circle cx="116.8" cy="527.5" r="0.4"/>
		<circle cx="119.1" cy="536.4" r="0.4"/>
		<circle cx="130" cy="510.3" r="0.3"/>
		<circle cx="130.1" cy="512.3" r="0.3"/>
		<circle cx="133.9" cy="512.4" r="0.3"/>
		<circle cx="119.2" cy="532.8" r="0.3"/>
		<circle cx="113.3" cy="536.5" r="0.3"/>
		<circle cx="133.9" cy="519.6" r="0.3"/>
		<circle cx="133.9" cy="523.9" r="0.3"/>
		<circle cx="130.2" cy="527.9" r="0.3"/>
		<circle cx="122.2" cy="536.5" r="0.3"/>
		<circle cx="122.3" cy="532.8" r="0.3"/>
		<circle cx="130" cy="523.6" r="0.3"/>
		<circle cx="133.9" cy="515.2" r="0.3"/>
		<circle cx="133.8" cy="510.4" r="0.3"/>
	</g>
</g>
</svg>
