<?xml version="1.0" encoding="utf-8"?>
<!-- Generator: Adobe Illustrator 23.0.2, SVG Export Plug-In . SVG Version: 6.00 Build 0)  -->
<svg version="1.1" id="Calque_1" xmlns="http://www.w3.org/2000/svg" xmlns:xlink="http://www.w3.org/1999/xlink" x="0px" y="0px"
	 viewBox="0 0 746 768" style="enable-background:new 0 0 746 768;" xml:space="preserve">
<style type="text/css">
	.st0{fill:#666666;}
	.st1{fill:#1A1A1A;}
	.st2{fill:#B8B8B8;}
	.st3{fill:#333333;stroke:#000000;stroke-width:2;stroke-miterlimit:10;}
	.st4{fill:#4D4D4D;stroke:#000000;stroke-width:2;stroke-miterlimit:10;}
	.st5{fill:#1A1A1A;stroke:#000000;stroke-width:2;stroke-miterlimit:10;}
	.st6{fill:#FFFFFF;}
	.st7{fill:#F8D0D3;}
	.st8{fill:#4D4D4D;}
	.st9{fill:#F9D9DC;}
	.st10{fill:#333333;}
	.st11{fill:none;stroke:#333333;stroke-miterlimit:10;}
	.st12{fill:none;stroke:#333333;stroke-width:10;stroke-miterlimit:10;}
	.st13{fill:none;stroke:#333333;stroke-width:0.5;stroke-miterlimit:10;}
	.st14{fill:#F2F2F2;stroke:#666666;stroke-miterlimit:10;}
	.st15{fill:none;stroke:#666666;stroke-linecap:round;stroke-miterlimit:10;}
	.st16{fill:none;stroke:#666666;stroke-width:3;stroke-linecap:round;stroke-miterlimit:10;}
	.st17{fill:none;stroke:#FDF14D;stroke-width:3;stroke-linecap:round;stroke-miterlimit:10;}
</style>
<rect x="442" y="239.2" class="st0" width="46.3" height="3"/>
<rect x="442" y="245.4" class="st0" width="46.3" height="3"/>
<g>
	<rect x="402.5" y="160.3" class="st0" width="146.2" height="3"/>
	<rect x="547.5" y="160.3" class="st0" width="2.9" height="40"/>
	<rect x="553.9" y="154.1" class="st0" width="2.9" height="44.3"/>
	<rect x="402.5" y="154.1" class="st0" width="154.3" height="3"/>
</g>
<g>
	<rect x="479.2" y="184.4" class="st1" width="254.1" height="74.7"/>
	<rect x="481.7" y="187.4" class="st2" width="248.4" height="69.1"/>
	<circle cx="485.6" cy="190.9" r="1.6"/>
	<circle cx="485.6" cy="253" r="1.6"/>
	<g>
		<circle cx="725.3" cy="190.9" r="1.6"/>
		<circle cx="725.3" cy="253" r="1.6"/>
	</g>
</g>
<g>
	<polygon class="st3" points="564.8,211.8 571.4,211.8 571.4,203.6 556.5,203.6 556.5,213.5 564.8,218 	"/>
	<polygon class="st4" points="585.6,203.6 571.4,203.6 571.4,211.8 577.3,211.8 577.3,226.1 585.6,226.1 	"/>
	<polygon class="st5" points="564.8,231.3 564.8,218 556.5,213.5 556.5,239.5 575,239.5 573.8,231.3 	"/>
	<polygon class="st3" points="585.6,226.1 577.3,226.1 577.3,231.3 573.8,231.3 575,239.5 585.6,239.5 	"/>
	<circle cx="569.3" cy="205.7" r="0.5"/>
	<circle cx="563.9" cy="205.6" r="0.5"/>
	<circle cx="569.2" cy="209.7" r="0.5"/>
	<circle cx="562.7" cy="214.5" r="0.5"/>
	<circle cx="558.7" cy="212.2" r="0.5"/>
	<circle cx="558.5" cy="217" r="0.5"/>
	<circle cx="558.7" cy="227.7" r="0.5"/>
	<circle cx="562.8" cy="219.2" r="0.5"/>
	<circle cx="558.7" cy="237.6" r="0.5"/>
	<circle cx="572.6" cy="237.5" r="0.5"/>
	<circle cx="566" cy="237.5" r="0.5"/>
	<circle cx="572" cy="233.3" r="0.5"/>
	<circle cx="576.3" cy="233.3" r="0.5"/>
	<circle cx="577" cy="237.3" r="0.5"/>
	<circle cx="583.6" cy="237.5" r="0.5"/>
	<circle cx="583.5" cy="228.2" r="0.5"/>
	<circle cx="579.3" cy="224.1" r="0.5"/>
	<circle cx="583.6" cy="224.1" r="0.5"/>
	<circle cx="583.5" cy="215.1" r="0.5"/>
	<circle cx="583.5" cy="205.7" r="0.5"/>
	<circle cx="573.3" cy="205.7" r="0.5"/>
	<circle cx="573.5" cy="209.8" r="0.5"/>
	<circle cx="578" cy="209.9" r="0.5"/>
	<circle cx="579.3" cy="228.1" r="0.5"/>
	<circle cx="558.6" cy="205.6" r="0.5"/>
	<polygon class="st5" points="530.9,211.8 543.4,211.8 543.4,203.6 522.6,203.6 522.6,203.6 530.9,211.9 	"/>
	<polygon class="st4" points="543.4,239.5 551.7,239.5 551.7,234.6 545.6,228.6 532.5,228.6 	"/>
	<polygon class="st3" points="543.4,203.6 543.4,216.3 543.4,217.5 530.9,217.5 530.9,226.9 532.5,228.6 545.6,228.6 542.8,225.7 
		551.7,225.7 551.7,216.3 551.7,203.6 	"/>
	<polygon class="st4" points="530.9,228.8 530.9,226.9 530.9,217.5 530.9,217.5 530.9,211.9 522.6,203.6 522.6,217.5 522.6,217.5 
		522.6,228.8 522.6,234 530.9,234 	"/>
	<rect x="522.6" y="234" class="st3" width="8.3" height="5.5"/>
	<circle cx="524.7" cy="208.5" r="0.5"/>
	<circle cx="527.5" cy="205.6" r="0.5"/>
	<circle cx="531.8" cy="209.8" r="0.5"/>
	<circle cx="541.4" cy="205.6" r="0.5"/>
	<circle cx="545.4" cy="205.6" r="0.5"/>
	<circle cx="532.9" cy="219.5" r="0.5"/>
	<circle cx="549.8" cy="205.6" r="0.5"/>
	<circle cx="549.4" cy="223.5" r="0.5"/>
	<circle cx="533.3" cy="226.3" r="0.5"/>
	<circle cx="537.4" cy="230.5" r="0.5"/>
	<circle cx="540.4" cy="226.5" r="0.5"/>
	<circle cx="544.3" cy="237.2" r="0.5"/>
	<circle cx="549.3" cy="237.5" r="0.5"/>
	<circle cx="549.4" cy="235.5" r="0.5"/>
	<circle cx="544.7" cy="230.7" r="0.5"/>
	<circle cx="541.4" cy="209.8" r="0.5"/>
	<circle cx="528.9" cy="212.8" r="0.5"/>
	<circle cx="528.8" cy="231.9" r="0.5"/>
	<circle cx="524.7" cy="231.9" r="0.5"/>
	<circle cx="529.1" cy="237.8" r="0.3"/>
	<circle cx="524.4" cy="237.7" r="0.3"/>
	<circle cx="529.1" cy="235.8" r="0.3"/>
	<circle cx="524.4" cy="235.8" r="0.3"/>
	<polygon class="st3" points="488.7,239.5 497,239.5 497,227.8 488.7,230.7 	"/>
	<polygon class="st5" points="488.7,203.6 488.7,214.2 497,214.2 497,211.8 509.2,211.8 517.6,203.6 	"/>
	<polygon class="st3" points="509.2,211.8 509.5,211.8 509.5,217.5 502.9,217.5 502.9,225.7 517.8,225.7 517.8,203.6 517.6,203.6 	
		"/>
	<polygon class="st4" points="497,217.5 497,214.2 488.7,214.2 488.7,230.7 497,227.8 497,225.7 502.9,225.7 502.9,217.5 	"/>
	<circle cx="490.9" cy="205.8" r="0.5"/>
	<circle cx="511.6" cy="212.4" r="0.5"/>
	<circle cx="505" cy="219.5" r="0.5"/>
	<circle cx="500.8" cy="219.5" r="0.5"/>
	<circle cx="495.1" cy="216.1" r="0.5"/>
	<circle cx="490.7" cy="216.1" r="0.5"/>
	<circle cx="505.1" cy="223.6" r="0.5"/>
	<circle cx="500.8" cy="223.4" r="0.5"/>
	<circle cx="495.1" cy="226.2" r="0.5"/>
	<circle cx="495" cy="231" r="0.5"/>
	<circle cx="491" cy="232.2" r="0.5"/>
	<circle cx="490.9" cy="237.1" r="0.5"/>
	<circle cx="495" cy="237.1" r="0.5"/>
	<circle cx="491" cy="227.8" r="0.5"/>
	<circle cx="515.7" cy="223.6" r="0.5"/>
	<circle cx="515.7" cy="208.3" r="0.5"/>
	<circle cx="508.4" cy="209.8" r="0.5"/>
	<circle cx="512.5" cy="205.5" r="0.5"/>
	<circle cx="490.9" cy="209.1" r="0.5"/>
	<circle cx="491.1" cy="212.2" r="0.5"/>
	<polygon class="st4" points="624.2,203.6 624.2,210.8 636.7,203.6 	"/>
	<polygon class="st4" points="624.2,239.5 637.8,239.5 637.8,231.3 632.8,231.3 632.8,226.1 624.2,226.1 	"/>
	<polygon class="st3" points="632.5,211.8 645.8,211.8 645.8,203.6 636.7,203.6 624.2,210.8 624.2,217.5 632.5,217.5 	"/>
	<polygon class="st5" points="632.5,217.5 624.2,217.5 624.2,226.1 632.8,226.1 632.8,225.7 646.3,225.7 646.3,217.5 	"/>
	<rect x="637.8" y="231.3" class="st3" width="15.5" height="8.3"/>
	<rect x="645.8" y="203.6" class="st4" width="7.4" height="8.3"/>
	<circle cx="626.6" cy="237.3" r="0.5"/>
	<circle cx="626.3" cy="228.3" r="0.5"/>
	<circle cx="626.3" cy="219.4" r="0.5"/>
	<circle cx="626.1" cy="215.5" r="0.5"/>
	<circle cx="626.7" cy="212.1" r="0.5"/>
	<circle cx="630.3" cy="215.4" r="0.5"/>
	<circle cx="643.7" cy="209.8" r="0.5"/>
	<circle cx="643.8" cy="205.6" r="0.5"/>
	<circle cx="637.2" cy="205.6" r="0.5"/>
	<circle cx="631.4" cy="208.9" r="0.5"/>
	<circle cx="644.2" cy="219.6" r="0.5"/>
	<circle cx="644.2" cy="223.6" r="0.5"/>
	<circle cx="626.4" cy="224.2" r="0.5"/>
	<circle cx="630.6" cy="228.3" r="0.5"/>
	<circle cx="635.8" cy="233.3" r="0.5"/>
	<circle cx="635.6" cy="237.7" r="0.3"/>
	<circle cx="639.7" cy="237.7" r="0.3"/>
	<circle cx="639.5" cy="233.1" r="0.3"/>
	<circle cx="651.5" cy="233.2" r="0.3"/>
	<circle cx="651.5" cy="237.8" r="0.3"/>
	<circle cx="645.4" cy="233.2" r="0.3"/>
	<circle cx="625.9" cy="207.8" r="0.3"/>
	<circle cx="628.2" cy="206.5" r="0.3"/>
	<circle cx="626.1" cy="205.3" r="0.3"/>
	<circle cx="630.4" cy="205.2" r="0.3"/>
	<circle cx="647.6" cy="205.3" r="0.3"/>
	<circle cx="651.5" cy="210" r="0.3"/>
	<circle cx="647.6" cy="210" r="0.3"/>
	<circle cx="651.5" cy="205.4" r="0.3"/>
	<polygon class="st4" points="692,231.3 692,239.5 713,239.5 705.9,231.3 	"/>
	<polygon class="st5" points="721.1,217.5 700.3,217.5 700.3,213.8 692,213.8 692,225.7 712.8,225.7 712.8,227.5 721.1,227.5 	"/>
	<polygon class="st3" points="712.8,227.5 712.8,231.3 705.9,231.3 713,239.5 721.1,239.5 721.1,227.5 	"/>
	<polygon class="st5" points="721,203.6 708.4,203.6 708.4,211.8 721.1,211.8 	"/>
	<polygon class="st4" points="692,203.6 692,213.8 700.3,213.8 700.3,211.8 708.4,211.8 708.4,203.6 	"/>
	<circle cx="694.3" cy="205.8" r="0.5"/>
	<circle cx="698.1" cy="211.7" r="0.5"/>
	<circle cx="694.1" cy="211.6" r="0.5"/>
	<circle cx="694.1" cy="215.8" r="0.5"/>
	<circle cx="694.1" cy="223.6" r="0.5"/>
	<circle cx="698.3" cy="215.8" r="0.5"/>
	<circle cx="714.8" cy="225.3" r="0.5"/>
	<circle cx="714.7" cy="229.5" r="0.5"/>
	<circle cx="719.1" cy="225.3" r="0.5"/>
	<circle cx="713.9" cy="237.6" r="0.5"/>
	<circle cx="694.1" cy="237.6" r="0.5"/>
	<circle cx="694.1" cy="233.3" r="0.5"/>
	<circle cx="704.9" cy="233.3" r="0.5"/>
	<circle cx="719.1" cy="237.4" r="0.5"/>
	<circle cx="719.1" cy="229.5" r="0.5"/>
	<circle cx="719.1" cy="219.5" r="0.5"/>
	<circle cx="709.6" cy="219.5" r="0.5"/>
	<circle cx="699.7" cy="219.5" r="0.5"/>
	<circle cx="706.3" cy="209.8" r="0.5"/>
	<circle cx="706.3" cy="205.6" r="0.5"/>
	<circle cx="709.9" cy="205.1" r="0.5"/>
	<circle cx="719.4" cy="205.1" r="0.5"/>
	<circle cx="719.4" cy="210.3" r="0.5"/>
	<circle cx="710" cy="210.3" r="0.5"/>
	<circle cx="709.8" cy="233.1" r="0.3"/>
	<circle cx="708.7" cy="237.6" r="0.3"/>
	<polygon class="st5" points="658.1,203.6 658.1,211.8 668.6,211.8 677.2,203.6 	"/>
	<polygon class="st3" points="676.9,211.8 680.4,211.8 680.4,203.6 677.2,203.6 668.6,211.8 668.6,222.5 676.9,222.5 	"/>
	<polygon class="st4" points="676.9,222.5 668.6,222.5 668.6,231.2 676.9,238.4 	"/>
	<polygon class="st5" points="668.6,231.2 668.6,239.5 676.9,239.5 676.9,238.4 	"/>
	<rect x="680.4" y="203.6" class="st4" width="6.7" height="8.3"/>
	<circle cx="660.2" cy="205.7" r="0.5"/>
	<circle cx="672.1" cy="205.5" r="0.5"/>
	<circle cx="678.3" cy="209.8" r="0.5"/>
	<circle cx="682.4" cy="209.9" r="0.5"/>
	<circle cx="670.7" cy="220.4" r="0.5"/>
	<circle cx="674.9" cy="220.4" r="0.5"/>
	<circle cx="670.6" cy="224.5" r="0.5"/>
	<circle cx="674.9" cy="224.6" r="0.5"/>
	<circle cx="670.7" cy="230.4" r="0.5"/>
	<circle cx="674.9" cy="234" r="0.5"/>
	<circle cx="660.2" cy="209.7" r="0.5"/>
	<circle cx="670.3" cy="234.9" r="0.2"/>
	<circle cx="673.6" cy="237.8" r="0.2"/>
	<circle cx="670.5" cy="237.7" r="0.3"/>
	<circle cx="685.2" cy="210" r="0.3"/>
	<circle cx="685.3" cy="205.3" r="0.3"/>
	<circle cx="682.2" cy="205.3" r="0.3"/>
	<circle cx="667.9" cy="210.1" r="0.3"/>
	<circle cx="678.5" cy="205.4" r="0.3"/>
	<circle cx="674.8" cy="208.7" r="0.3"/>
	<circle cx="670.7" cy="212.5" r="0.3"/>
	<polygon class="st5" points="598.6,231.3 598.6,224.4 590.4,224.4 590.4,239.6 601.4,239.6 601.4,231.3 	"/>
	<polygon class="st3" points="611.2,209.6 611.2,226.1 619.4,217.7 619.4,209.6 	"/>
	<polygon class="st4" points="619.4,203.6 611.2,203.6 611.2,209.6 619.4,209.6 	"/>
	<polygon class="st4" points="611.2,226.1 611.2,231.3 601.4,231.3 601.4,239.6 619.5,239.6 619.4,217.7 	"/>
	<circle cx="613.2" cy="211.6" r="0.5"/>
	<circle cx="617.3" cy="237.6" r="0.5"/>
	<circle cx="592.5" cy="226.5" r="0.5"/>
	<circle cx="596.6" cy="226.6" r="0.5"/>
	<circle cx="599.3" cy="237.6" r="0.5"/>
	<circle cx="612.9" cy="205.3" r="0.3"/>
	<circle cx="613" cy="207.7" r="0.3"/>
	<circle cx="617.7" cy="207.9" r="0.3"/>
	<circle cx="599.6" cy="233.2" r="0.3"/>
	<circle cx="592.2" cy="237.8" r="0.3"/>
	<circle cx="617.7" cy="216.9" r="0.3"/>
	<circle cx="617.7" cy="222.1" r="0.3"/>
	<circle cx="613.1" cy="227" r="0.3"/>
	<circle cx="603.2" cy="237.8" r="0.3"/>
	<circle cx="603.4" cy="233.2" r="0.3"/>
	<circle cx="612.9" cy="221.8" r="0.3"/>
	<circle cx="617.7" cy="211.4" r="0.3"/>
	<circle cx="617.6" cy="205.4" r="0.3"/>
</g>
<g id="building">
	<g>
		<rect x="36.5" y="321" class="st6" width="415.2" height="437.6"/>
	</g>
	<g>
		<rect x="24.8" y="168.3" class="st7" width="438.6" height="257.5"/>
	</g>
	<g>
		<path class="st8" d="M447.4,489.2H40.8c-21.9,0-18.7-18.2-18.7-40.6l0,0c0-22.4,17.8-40.6,39.7-40.6h364.8
			c21.9,0,39.7,18.2,39.7,40.6l0,0C466.1,471.1,469.3,489.2,447.4,489.2z"/>
	</g>
	<g>
		<polygon class="st9" points="97.7,422.2 33.6,422.2 179.4,148.9 243.6,148.9 		"/>
	</g>
	<g>
		<polygon class="st9" points="136.6,422.2 116.2,422.2 262.1,148.9 282.5,148.9 		"/>
	</g>
	<g>
		<path class="st10" d="M466.4,448.7H21.8c-2.7,0-4.8-2.1-4.8-4.8V413c0-2.7,2.1-4.8,4.8-4.8h444.5c2.7,0,4.8,2.1,4.8,4.8v30.9
			C471.2,446.5,469,448.7,466.4,448.7z"/>
	</g>
	<g>
		<path class="st10" d="M463.6,170.2h-439c-4.2,0-7.6-3.4-7.6-7.6v-7.2c0-4.2,3.4-7.6,7.6-7.6h439c4.2,0,7.6,3.4,7.6,7.6v7.2
			C471.2,166.8,467.8,170.2,463.6,170.2z"/>
	</g>
	<g>
		<path class="st10" d="M397.6,154.7h-307c-4.1,0-7.4-3.3-7.4-7.4l0,0c0-8.2,6.7-14.9,14.9-14.9h292c8.2,0,14.9,6.7,14.9,14.9l0,0
			C405,151.4,401.7,154.7,397.6,154.7z"/>
	</g>
	<g>
		<path class="st10" d="M342.3,143H145.9c-6.2,0-11.2-5-11.2-11.2l0,0c0-6.2,5-11.2,11.2-11.2h196.4c6.2,0,11.2,5,11.2,11.2l0,0
			C353.5,138,348.5,143,342.3,143z"/>
	</g>
	<g>
		<rect x="181.9" y="16.6" class="st10" width="29.5" height="116.9"/>
	</g>
	<g>
		<polygon class="st10" points="219.9,64.1 173.3,64.1 161.9,16.6 231.3,16.6 		"/>
	</g>
	<g>
		<rect x="244.4" y="70.3" class="st10" width="22.4" height="62.1"/>
	</g>
	<g>
		<rect x="252.4" y="70.3" class="st10" width="25.3" height="15.2"/>
	</g>
	<line class="st11" x1="36.5" y1="542.7" x2="451.7" y2="542.7"/>
	<line class="st12" x1="23.8" y1="297.2" x2="463.9" y2="297.2"/>
	<line class="st12" x1="360.3" y1="166.4" x2="360.3" y2="428"/>
	<line class="st12" x1="126.9" y1="166.4" x2="126.9" y2="428"/>
	<line class="st13" x1="36.5" y1="583.1" x2="451.7" y2="583.1"/>
	<line class="st13" x1="36.5" y1="623.4" x2="451.7" y2="623.4"/>
	<line class="st13" x1="36.5" y1="663.8" x2="451.7" y2="663.8"/>
	<line class="st13" x1="36.5" y1="704.1" x2="451.7" y2="704.1"/>
	<path class="st14" d="M321.7,765.9H164.6c-7.9,0-14.3-6.4-14.3-14.3V614.4c0-7.9,6.4-14.3,14.3-14.3h157.1
		c7.9,0,14.3,6.4,14.3,14.3v137.1C336,759.5,329.6,765.9,321.7,765.9z"/>
	<g>
		<rect x="17" y="751.8" class="st10" width="454.1" height="15.6"/>
	</g>
	<line class="st15" x1="243.1" y1="623.9" x2="243.1" y2="740.6"/>
	<line class="st16" x1="286.9" y1="667.7" x2="286.9" y2="702.7"/>
	<line class="st16" x1="195.5" y1="667.7" x2="195.5" y2="702.7"/>
	<line class="st17" x1="81.7" y1="428.4" x2="404.6" y2="428.4"/>
</g>
</svg>
