<?xml version="1.0" encoding="utf-8"?>
<!-- Generator: Adobe Illustrator 23.0.2, SVG Export Plug-In . SVG Version: 6.00 Build 0)  -->
<svg version="1.1" id="Calque_1" xmlns="http://www.w3.org/2000/svg" xmlns:xlink="http://www.w3.org/1999/xlink" x="0px" y="0px"
	 viewBox="0 0 1920 1080" style="enable-background:new 0 0 1920 1080;" xml:space="preserve">
<style type="text/css">
	.st0{fill:#333333;}
	.st1{fill:none;stroke:#000000;stroke-width:0.5;stroke-miterlimit:10;}
	.st2{fill:none;stroke:#000000;stroke-width:0.5;stroke-miterlimit:10;stroke-dasharray:12.2363,12.2363;}
	.st3{fill:none;stroke:#000000;stroke-width:0.5;stroke-miterlimit:10;stroke-dasharray:11.9713,11.9713;}
	.st4{fill:none;stroke:#333333;stroke-width:10;stroke-miterlimit:10;}
	.st5{fill:#1A1A1A;}
	.st6{fill:#FDF14D;}
	.st7{fill:#B3B3B3;stroke:#000000;stroke-width:0.5;stroke-miterlimit:10;}
	.st8{fill:#4D4D4D;}
	.st9{fill:#FCECED;}
	.st10{fill:none;stroke:#FFCADE;stroke-miterlimit:10;}
	.st11{fill:#FFCADE;}
</style>
<rect x="-77.3" y="1031.2" class="st0" width="2099" height="48.8"/>
<g>
	<g>
		<path class="st1" d="M692.7,697.7c2,0.4,3.9,0.8,5.9,1.2"/>
		<path class="st2" d="M710.6,701.2c175.5,32.9,351.9,32.2,529.2-1.2"/>
		<path class="st1" d="M1245.8,698.9c2-0.4,3.9-0.8,5.9-1.1"/>
	</g>
</g>
<g>
	<g>
		<path class="st1" d="M1251.7,700.7c2,0.4,3.9,0.8,5.9,1.2"/>
		<path class="st3" d="M1269.3,704.2c171.7,32.9,344.2,32.1,517.6-1.2"/>
		<path class="st1" d="M1792.8,701.9c2-0.4,3.9-0.8,5.9-1.2"/>
	</g>
</g>
<line class="st4" x1="1795.7" y1="1022.7" x2="1795.7" y2="642.7"/>
<path class="st4" d="M1758.7,645.7c-3-64,37-67,37.4-2.1"/>
<path class="st5" d="M1758.7,705.7L1758.7,705.7c-17.5,0-31.7-14.2-31.7-31.7v-23.3c0-4.4,3.6-8,8-8h47.3c4.4,0,8,3.6,8,8V674
	C1790.4,691.6,1776.2,705.7,1758.7,705.7z"/>
<path class="st5" d="M1758.7,714.7L1758.7,714.7c-22,0-39.8-17.8-39.8-39.8v-11.7c0-7.6,6.1-13.7,13.7-13.7h52.3
	c7.6,0,13.7,6.1,13.7,13.7v11.7C1798.5,696.9,1780.7,714.7,1758.7,714.7z"/>
<path class="st6" d="M1758.7,709.6L1758.7,709.6c-19.3,0-35-15.7-35-35v-11c0-4.9,4-8.9,8.9-8.9h52.3c4.9,0,8.9,4,8.9,8.9v11
	C1793.7,693.9,1778,709.6,1758.7,709.6z"/>
<path class="st0" d="M1812.7,1022.7h-34l3-220.8c9.2-2.9,18.2-3,27,0L1812.7,1022.7z"/>
<line class="st4" x1="692.7" y1="1023.7" x2="692.7" y2="643.7"/>
<path class="st4" d="M655.7,646.7c-3-64,37-67,37.4-2.1"/>
<path class="st5" d="M655.7,706.7L655.7,706.7c-17.5,0-31.7-14.2-31.7-31.7v-23.3c0-4.4,3.6-8,8-8h47.3c4.4,0,8,3.6,8,8V675
	C687.4,692.6,673.2,706.7,655.7,706.7z"/>
<path class="st5" d="M655.7,715.7L655.7,715.7c-22,0-39.8-17.8-39.8-39.8v-11.7c0-7.6,6.1-13.7,13.7-13.7h52.3
	c7.6,0,13.7,6.1,13.7,13.7v11.7C695.5,697.9,677.7,715.7,655.7,715.7z"/>
<path class="st6" d="M655.7,710.6L655.7,710.6c-19.3,0-35-15.7-35-35v-11c0-4.9,4-8.9,8.9-8.9h52.3c4.9,0,8.9,4,8.9,8.9v11
	C690.7,694.9,675,710.6,655.7,710.6z"/>
<path class="st0" d="M709.7,1023.7h-34l3-220.8c9.2-2.9,18.2-3,27,0L709.7,1023.7z"/>
<line class="st4" x1="1251.7" y1="1021.7" x2="1251.7" y2="641.7"/>
<path class="st4" d="M1214.7,644.7c-3-64,37-67,37.4-2.1"/>
<path class="st5" d="M1214.7,704.7L1214.7,704.7c-17.5,0-31.7-14.2-31.7-31.7v-23.3c0-4.4,3.6-8,8-8h47.3c4.4,0,8,3.6,8,8V673
	C1246.4,690.6,1232.2,704.7,1214.7,704.7z"/>
<path class="st5" d="M1214.7,713.7L1214.7,713.7c-22,0-39.8-17.8-39.8-39.8v-11.7c0-7.6,6.1-13.7,13.7-13.7h52.3
	c7.6,0,13.7,6.1,13.7,13.7v11.7C1254.5,695.9,1236.7,713.7,1214.7,713.7z"/>
<path class="st6" d="M1214.7,708.6L1214.7,708.6c-19.3,0-35-15.7-35-35v-11c0-4.9,4-8.9,8.9-8.9h52.3c4.9,0,8.9,4,8.9,8.9v11
	C1249.7,692.9,1234,708.6,1214.7,708.6z"/>
<path class="st0" d="M1268.7,1021.7h-34l3-220.8c9.2-2.9,18.2-3,27,0L1268.7,1021.7z"/>
<g>
	<ellipse class="st7" cx="972.1" cy="991.7" rx="23.1" ry="6.3"/>
	<ellipse class="st7" cx="1137.1" cy="991.7" rx="23.1" ry="6.3"/>
	<polygon class="st7" points="1185.2,981.2 924.2,981.2 959.2,964.2 1150.2,964.2 	"/>
	<rect x="923.2" y="981.6" class="st7" width="262" height="10.2"/>
	<rect x="957.3" y="942.4" class="st7" width="194.8" height="25.4"/>
	<rect x="957.3" y="919.7" class="st7" width="194.8" height="18.1"/>
</g>
<g>
	<path class="st5" d="M852.4,1024.7H740c-2.9,0-5.3-2.4-5.3-5.3V855c0-2.9,2.4-5.3,5.3-5.3h112.4c2.9,0,5.3,2.4,5.3,5.3v164.5
		C857.7,1022.4,855.3,1024.7,852.4,1024.7z"/>
	<path class="st0" d="M848.4,1024.7H740c-2.9,0-5.3-2.4-5.3-5.3V858.3c0-2.9,2.4-5.3,5.3-5.3h108.4c2.9,0,5.3,2.4,5.3,5.3v161.1
		C853.7,1022.4,851.3,1024.7,848.4,1024.7z"/>
	<path class="st8" d="M782.3,999.2h-40.1c-0.8,0-1.5-0.8-1.5-1.8v-11c0-1,0.7-1.8,1.5-1.8h24.9c0.3,0,0.7,0.1,0.9,0.4
		c4.3,4.1,9.3,7.7,14.8,10.8C784.4,996.7,783.9,999.2,782.3,999.2z"/>
	<g>
		<path class="st9" d="M845.8,999.1h-26.7c-41.1,0-74.4-33.3-74.4-74.4v-17.4c0-26.6,21.6-48.2,48.1-48.2h4.8
			c26.6,0,48.1,21.6,48.1,48.2L845.8,999.1L845.8,999.1z"/>
	</g>
	<line class="st10" x1="814.7" y1="887.7" x2="814.7" y2="988.7"/>
	<path class="st11" d="M833.2,896.7h-11c-1.9,0-3.5-1.6-3.5-3.5l0,0c0-1.9,1.6-3.5,3.5-3.5h11c1.9,0,3.5,1.6,3.5,3.5l0,0
		C836.7,895.2,835.1,896.7,833.2,896.7z"/>
	<path class="st11" d="M833.2,907.7h-11c-1.9,0-3.5-1.6-3.5-3.5l0,0c0-1.9,1.6-3.5,3.5-3.5h11c1.9,0,3.5,1.6,3.5,3.5l0,0
		C836.7,906.2,835.1,907.7,833.2,907.7z"/>
	<path class="st11" d="M833.2,918.7h-11c-1.9,0-3.5-1.6-3.5-3.5l0,0c0-1.9,1.6-3.5,3.5-3.5h11c1.9,0,3.5,1.6,3.5,3.5l0,0
		C836.7,917.2,835.1,918.7,833.2,918.7z"/>
	<path class="st11" d="M833.2,929.7h-11c-1.9,0-3.5-1.6-3.5-3.5l0,0c0-1.9,1.6-3.5,3.5-3.5h11c1.9,0,3.5,1.6,3.5,3.5l0,0
		C836.7,928.2,835.1,929.7,833.2,929.7z"/>
	<path class="st11" d="M833.2,940.7h-11c-1.9,0-3.5-1.6-3.5-3.5l0,0c0-1.9,1.6-3.5,3.5-3.5h11c1.9,0,3.5,1.6,3.5,3.5l0,0
		C836.7,939.2,835.1,940.7,833.2,940.7z"/>
	<path class="st11" d="M833.2,951.7h-11c-1.9,0-3.5-1.6-3.5-3.5l0,0c0-1.9,1.6-3.5,3.5-3.5h11c1.9,0,3.5,1.6,3.5,3.5l0,0
		C836.7,950.2,835.1,951.7,833.2,951.7z"/>
	<path class="st11" d="M833.2,962.7h-11c-1.9,0-3.5-1.6-3.5-3.5l0,0c0-1.9,1.6-3.5,3.5-3.5h11c1.9,0,3.5,1.6,3.5,3.5l0,0
		C836.7,961.2,835.1,962.7,833.2,962.7z"/>
	<path class="st11" d="M833.2,973.7h-11c-1.9,0-3.5-1.6-3.5-3.5l0,0c0-1.9,1.6-3.5,3.5-3.5h11c1.9,0,3.5,1.6,3.5,3.5l0,0
		C836.7,972.2,835.1,973.7,833.2,973.7z"/>
	<path class="st11" d="M833.2,984.7h-11c-1.9,0-3.5-1.6-3.5-3.5l0,0c0-1.9,1.6-3.5,3.5-3.5h11c1.9,0,3.5,1.6,3.5,3.5l0,0
		C836.7,983.2,835.1,984.7,833.2,984.7z"/>
</g>
<rect x="-78.3" y="1020.4" class="st5" width="2099" height="17.4"/>
</svg>
