<?xml version="1.0" encoding="utf-8"?>
<!-- Generator: Adobe Illustrator 23.0.2, SVG Export Plug-In . SVG Version: 6.00 Build 0)  -->
<svg version="1.1" id="Calque_1" xmlns="http://www.w3.org/2000/svg" xmlns:xlink="http://www.w3.org/1999/xlink" x="0px" y="0px"
	 viewBox="0 0 1920 1080" style="enable-background:new 0 0 1920 1080;" xml:space="preserve">
<style type="text/css">
	.st0{fill:url(#SVGID_1_);}
	.st1{fill:#333333;}
	.st2{fill:#BEB53A;}
	.st3{fill:none;stroke:#000000;stroke-width:0.25;stroke-miterlimit:10;}
	.st4{fill:#666666;}
	.st5{fill:#C2C2C2;}
	.st6{fill:#8F882C;}
	.st7{fill:#717171;}
	.st8{fill:#5F5B1D;}
	.st9{opacity:0.37;fill:url(#SVGID_2_);enable-background:new    ;}
	.st10{fill:none;stroke:#000000;stroke-width:0.5;stroke-miterlimit:10;}
	.st11{fill:none;stroke:#000000;stroke-width:0.5;stroke-miterlimit:10;stroke-dasharray:12.2363,12.2363;}
	.st12{fill:none;stroke:#000000;stroke-width:0.5;stroke-miterlimit:10;stroke-dasharray:11.9713,11.9713;}
	.st13{fill:none;stroke:#333333;stroke-width:10;stroke-miterlimit:10;}
	.st14{fill:#1A1A1A;}
	.st15{fill:#FDF14D;}
	.st16{fill:#FFFFFF;}
	.st17{fill:#F8D0D3;}
	.st18{fill:#4D4D4D;}
	.st19{fill:#F9D9DC;}
	.st20{fill:none;stroke:#333333;stroke-miterlimit:10;}
	.st21{fill:none;stroke:#333333;stroke-width:0.5;stroke-miterlimit:10;}
	.st22{fill:#F2F2F2;stroke:#666666;stroke-miterlimit:10;}
	.st23{fill:none;stroke:#666666;stroke-linecap:round;stroke-miterlimit:10;}
	.st24{fill:none;stroke:#666666;stroke-width:3;stroke-linecap:round;stroke-miterlimit:10;}
	.st25{fill:none;stroke:#FDF14D;stroke-width:3;stroke-linecap:round;stroke-miterlimit:10;}
	.st26{fill:#B3B3B3;stroke:#000000;stroke-width:0.5;stroke-miterlimit:10;}
	.st27{fill:#FCECED;}
	.st28{fill:none;stroke:#FFCADE;stroke-miterlimit:10;}
	.st29{fill:#FFCADE;}
	.st30{fill:url(#SVGID_3_);}
	.st31{fill:#F3FBFC;}
	.st32{fill:#F9FDFD;}
	.st33{fill:#538970;}
	.st34{fill:#6EB795;}
	.st35{fill:#082223;}
	.st36{opacity:0.43;}
	.st37{fill:url(#SVGID_4_);}
	.st38{fill:#42210B;}
	.st39{fill:#809B28;}
	.st40{fill:#8BC74B;}
	.st41{fill:#0E874E;}
	.st42{opacity:0.99;fill:#B3B3B3;}
	.st43{fill:#509269;}
	.st44{fill:#6CA782;}
	.st45{fill:#B3B3B3;}
	.st46{fill:#F2F2F2;}
	.st47{fill:#754C24;}
	.st48{fill:none;stroke:#B3B3B3;stroke-width:0.25;stroke-miterlimit:10;}
	.st49{fill:#E6E6E6;}
	.st50{fill:none;stroke:#B3B3B3;stroke-width:3;stroke-linecap:round;stroke-miterlimit:10;}
	.st51{opacity:0.99;fill:#CCCCCC;}
	.st52{fill:#603813;}
	.st53{fill:#806042;}
	.st54{fill:#534741;}
	.st55{fill:#999999;}
	.st56{fill:none;stroke:#754C24;stroke-width:0.75;stroke-miterlimit:10;}
</style>
<radialGradient id="SVGID_1_" cx="-1493.2966" cy="4185.9023" r="2068.0371" gradientTransform="matrix(1 0 0 -1 0 1080)" gradientUnits="userSpaceOnUse">
	<stop  offset="0" style="stop-color:#E2AF9D"/>
	<stop  offset="0.1488" style="stop-color:#DCA89F"/>
	<stop  offset="0.3679" style="stop-color:#CD94A6"/>
	<stop  offset="0.6306" style="stop-color:#B374B1"/>
	<stop  offset="0.9246" style="stop-color:#8F47C0"/>
	<stop  offset="1" style="stop-color:#853AC4"/>
</radialGradient>
<rect x="-3282.7" y="-3649.3" class="st0" width="3578.7" height="1086.9"/>
<g>
	<g>
		<g>
			<polygon class="st1" points="626.6,432.3 586.4,432.3 586.4,194.5 626.6,205 			"/>
			<polygon class="st1" points="586.4,432.3 513,432.3 513,198.1 586.4,194.5 			"/>
			<polygon class="st1" points="199.9,432.3 228.5,432.3 228.5,241.9 199.9,241.7 			"/>
			<polygon class="st1" points="228.5,432.3 268.3,432.3 268.3,244.5 228.5,241.9 			"/>
			<polygon class="st1" points="387.8,432.3 309,432.3 309,242.7 386.9,243.6 			"/>
			<polygon class="st1" points="408.1,432.3 386.9,432.3 386.9,243.6 408.1,245.3 			"/>
			<polygon class="st1" points="51.1,432.3 -27.7,432.3 -27.7,181.6 50.2,163.9 			"/>
			<polygon class="st1" points="140.6,432.3 50.2,432.3 50.2,163.9 140.6,176.3 			"/>
			<polygon class="st1" points="58.9,432.3 130.7,432.3 130.7,212.7 58.9,217 			"/>
			<polygon class="st1" points="130.7,432.3 202.4,432.3 202.4,219.1 130.7,212.7 			"/>
			<polygon class="st1" points="263,432.3 184.2,432.3 184.2,298.1 262.1,296.8 			"/>
			<polygon class="st1" points="184.2,432.3 142.7,432.3 142.7,292.7 183.7,298.7 			"/>
			<polygon class="st1" points="262.1,296.8 182.9,298.6 142.7,292.7 217.8,291.7 			"/>
			<polygon class="st1" points="374.5,432.3 297.8,432.3 297.8,274.3 374.5,275.3 			"/>
			<polygon class="st1" points="297.8,432.3 247.6,432.3 247.6,273.2 297.8,274.3 			"/>
			<polygon class="st1" points="517.6,432.3 487.7,432.3 487.7,214.7 517.6,219.6 			"/>
			<polygon class="st1" points="487.7,432.3 403.9,432.3 403.9,217.3 487.7,214.7 			"/>
			<polygon class="st1" points="555.3,432.3 525.4,432.3 525.4,278.4 555.3,280.2 			"/>
			<polygon class="st1" points="525.4,432.3 441.7,432.3 439.6,277.6 525.4,278.4 			"/>
			<polygon class="st1" points="106.2,432.3 12.5,432.3 12.5,261.2 106.2,263.5 			"/>
			<polygon class="st1" points="12.5,432.3 -65.5,432.3 -65.5,259.4 12.5,261.2 			"/>
		</g>
		<g>
			<polygon class="st1" points="1262.8,487.3 1222.5,487.3 1222.5,249.4 1262.8,259.9 			"/>
			<polygon class="st1" points="1222.5,487.3 1149.1,487.3 1149.1,253 1222.5,249.4 			"/>
			<polygon class="st1" points="836,487.3 864.7,487.3 864.7,296.9 836,296.6 			"/>
			<polygon class="st1" points="864.7,487.3 904.5,487.3 904.5,299.5 864.7,296.9 			"/>
			<polygon class="st1" points="1023.9,487.3 945.1,487.3 945.1,297.7 1023.1,298.5 			"/>
			<polygon class="st1" points="1044.2,487.3 1023.1,487.3 1023.1,298.5 1044.2,300.3 			"/>
			<polygon class="st1" points="687.2,487.3 608.4,487.3 608.4,236.6 686.3,218.9 			"/>
			<polygon class="st1" points="776.7,487.3 686.3,487.3 686.3,218.9 776.7,231.2 			"/>
			<polygon class="st1" points="695,487.3 766.8,487.3 766.8,267.7 695,272 			"/>
			<polygon class="st1" points="766.8,487.3 838.5,487.3 838.5,274.1 766.8,267.7 			"/>
			<polygon class="st1" points="899.1,487.3 820.3,487.3 820.3,353.1 898.2,351.8 			"/>
			<polygon class="st1" points="820.3,487.3 778.8,487.3 778.8,347.7 819.8,353.7 			"/>
			<polygon class="st1" points="898.2,351.8 819,353.6 778.8,347.7 853.9,346.7 			"/>
			<polygon class="st1" points="1010.6,487.3 933.9,487.3 933.9,329.2 1010.6,330.3 			"/>
			<polygon class="st1" points="933.9,487.3 883.7,487.3 883.7,328.2 933.9,329.2 			"/>
			<polygon class="st1" points="1153.7,487.3 1123.8,487.3 1123.8,269.7 1153.7,274.6 			"/>
			<polygon class="st1" points="1123.8,487.3 1040.1,487.3 1040.1,272.3 1123.8,269.7 			"/>
			<polygon class="st1" points="1191.4,487.3 1161.6,487.3 1161.6,333.3 1191.4,335.2 			"/>
			<polygon class="st1" points="1161.6,487.3 1077.8,487.3 1075.7,332.6 1161.6,333.3 			"/>
			<polygon class="st1" points="742.3,487.3 648.6,487.3 648.6,316.1 742.3,318.5 			"/>
			<polygon class="st1" points="648.6,487.3 570.6,487.3 570.6,314.3 648.6,316.1 			"/>
		</g>
		<g>
			<polygon class="st1" points="1934.5,450.4 1894.3,450.4 1894.3,212.6 1934.5,223.1 			"/>
			<polygon class="st1" points="1894.3,450.4 1820.9,450.4 1820.9,216.2 1894.3,212.6 			"/>
			<polygon class="st1" points="1507.8,450.4 1536.4,450.4 1536.4,260.1 1507.8,259.8 			"/>
			<polygon class="st1" points="1536.4,450.4 1576.2,450.4 1576.2,262.6 1536.4,260.1 			"/>
			<polygon class="st1" points="1695.6,450.4 1616.9,450.4 1616.9,260.8 1694.8,261.7 			"/>
			<polygon class="st1" points="1716,450.4 1694.8,450.4 1694.8,261.7 1716,263.5 			"/>
			<polygon class="st1" points="1358.9,450.4 1280.1,450.4 1280.1,199.8 1358.1,182 			"/>
			<polygon class="st1" points="1448.5,450.4 1358.1,450.4 1358.1,182 1448.5,194.4 			"/>
			<polygon class="st1" points="1366.8,450.4 1438.5,450.4 1438.5,230.8 1366.8,235.2 			"/>
			<polygon class="st1" points="1438.5,450.4 1510.3,450.4 1510.3,237.2 1438.5,230.8 			"/>
			<polygon class="st1" points="1570.8,450.4 1492,450.4 1492,316.2 1570,315 			"/>
			<polygon class="st1" points="1492,450.4 1450.6,450.4 1450.6,310.9 1491.6,316.9 			"/>
			<polygon class="st1" points="1570,315 1490.8,316.8 1450.6,310.9 1525.6,309.8 			"/>
			<polygon class="st1" points="1682.4,450.4 1605.7,450.4 1605.7,292.4 1682.4,293.4 			"/>
			<polygon class="st1" points="1605.7,450.4 1555.5,450.4 1555.5,291.4 1605.7,292.4 			"/>
			<polygon class="st1" points="1825.4,450.4 1795.6,450.4 1795.6,232.9 1825.4,237.7 			"/>
			<polygon class="st1" points="1795.6,450.4 1711.8,450.4 1711.8,235.4 1795.6,232.9 			"/>
			<polygon class="st1" points="1863.2,450.4 1833.3,450.4 1833.3,296.5 1863.2,298.4 			"/>
			<polygon class="st1" points="1833.3,450.4 1749.6,450.4 1747.5,295.7 1833.3,296.5 			"/>
			<polygon class="st1" points="1414.1,450.4 1320.4,450.4 1320.4,279.3 1414.1,281.6 			"/>
			<polygon class="st1" points="1320.4,450.4 1242.4,450.4 1242.4,277.5 1320.4,279.3 			"/>
		</g>
		<polygon class="st1" points="1894.3,212.6 1820.9,216.2 1820.9,237 1795.6,232.9 1711.8,235.4 1711.8,263.1 1694.8,261.7 
			1616.9,260.8 1616.9,292.5 1605.7,292.4 1576.2,291.8 1576.2,262.6 1536.4,260.1 1510.3,259.8 1510.3,237.2 1448.5,231.7 
			1448.5,194.4 1358.1,182 1280.1,199.8 1280.1,278.4 1262.8,278 1262.8,259.9 1222.5,249.4 1149.1,253 1149.1,273.8 1123.8,269.7 
			1040.1,272.3 1040.1,300 1023.1,298.5 945.1,297.7 945.1,329.4 933.9,329.2 904.5,328.6 904.5,299.5 864.7,296.9 838.5,296.7 
			838.5,274.1 776.7,268.5 776.7,231.2 686.3,218.9 626.6,232.5 626.6,205 586.4,194.5 513,198.1 513,218.9 487.7,214.7 
			403.9,217.3 403.9,245 386.9,243.6 309,242.7 309,274.4 297.8,274.3 268.3,273.7 268.3,244.5 228.5,241.9 202.4,241.7 
			202.4,219.1 140.6,213.6 140.6,176.3 50.2,163.9 -27.7,181.6 -27.7,260.2 -65.5,259.4 -65.5,432.3 -27.7,432.3 12.5,432.3 
			50.2,432.3 51.1,432.3 58.9,432.3 106.2,432.3 130.7,432.3 140.6,432.3 142.7,432.3 184.2,432.3 199.9,432.3 202.4,432.3 
			228.5,432.3 247.6,432.3 263,432.3 268.3,432.3 297.8,432.3 309,432.3 374.5,432.3 386.9,432.3 387.8,432.3 403.9,432.3 
			408.1,432.3 441.7,432.3 487.7,432.3 513,432.3 517.6,432.3 525.4,432.3 555.3,432.3 570.6,432.3 570.6,487.3 608.4,487.3 
			648.6,487.3 686.3,487.3 687.2,487.3 695,487.3 742.3,487.3 766.8,487.3 776.7,487.3 778.8,487.3 820.3,487.3 836,487.3 
			838.5,487.3 864.7,487.3 883.7,487.3 899.1,487.3 904.5,487.3 933.9,487.3 945.1,487.3 1010.6,487.3 1023.1,487.3 1023.9,487.3 
			1040.1,487.3 1044.2,487.3 1077.8,487.3 1123.8,487.3 1149.1,487.3 1153.7,487.3 1161.6,487.3 1191.4,487.3 1222.5,487.3 
			1262.8,487.3 1262.8,450.4 1280.1,450.4 1320.4,450.4 1358.1,450.4 1358.9,450.4 1366.8,450.4 1414.1,450.4 1438.5,450.4 
			1448.5,450.4 1450.6,450.4 1492,450.4 1507.8,450.4 1510.3,450.4 1536.4,450.4 1555.5,450.4 1570.8,450.4 1576.2,450.4 
			1605.7,450.4 1616.9,450.4 1682.4,450.4 1694.8,450.4 1695.6,450.4 1711.8,450.4 1716,450.4 1749.6,450.4 1795.6,450.4 
			1820.9,450.4 1825.4,450.4 1833.3,450.4 1863.2,450.4 1894.3,450.4 1934.5,450.4 1934.5,223.1 		"/>
		<rect x="-65.5" y="362.8" class="st1" width="2000" height="834.3"/>
	</g>
	<g>
		<path class="st2" d="M1350.9,1081.5"/>
		<path class="st3" d="M1825.8,968.7"/>
		<path class="st3" d="M1825.8,968.7"/>
		<path class="st2" d="M1350.9,1081.5"/>
		<path class="st3" d="M1825.8,968.7"/>
		<rect x="1419" y="253.1" class="st4" width="383.4" height="913.5"/>
		<polygon class="st5" points="1885.8,284.7 1802.5,253.1 1802.5,1166.6 1885.8,1166.6 		"/>
		<path class="st2" d="M1760.2,330.4h-298.9c-4.8,0-8.7-3.5-8.7-7.9v-29.2c0-4.3,3.9-7.9,8.7-7.9h298.9c4.8,0,8.7,3.5,8.7,7.9v29.2
			C1768.9,326.9,1765,330.4,1760.2,330.4z"/>
		<path class="st1" d="M1760.2,405.6h-298.9c-4.8,0-8.7-3.5-8.7-7.9v-29.2c0-4.3,3.9-7.9,8.7-7.9h298.9c4.8,0,8.7,3.5,8.7,7.9v29.2
			C1768.9,402.1,1765,405.6,1760.2,405.6z"/>
		<path class="st2" d="M1760.2,480.8h-298.9c-4.8,0-8.7-3.5-8.7-7.9v-29.2c0-4.3,3.9-7.9,8.7-7.9h298.9c4.8,0,8.7,3.5,8.7,7.9v29.2
			C1768.9,477.3,1765,480.8,1760.2,480.8z"/>
		<path class="st2" d="M1760.2,556h-298.9c-4.8,0-8.7-3.5-8.7-7.9v-29.2c0-4.3,3.9-7.9,8.7-7.9h298.9c4.8,0,8.7,3.5,8.7,7.9v29.2
			C1768.9,552.5,1765,556,1760.2,556z"/>
		<rect x="151.8" y="24" class="st4" width="347.5" height="1142.6"/>
		<polygon class="st5" points="574,95.2 499.3,24 499.3,1166.6 574.9,1166.6 		"/>
		<polygon class="st5" points="979.7,382.2 934.3,354.3 934.3,1166.6 980.6,1166.6 		"/>
		<rect x="721.3" y="354.3" class="st4" width="213" height="812.3"/>
		<rect x="734.6" y="369.8" class="st6" width="50.9" height="45.9"/>
		<rect x="802.7" y="369.8" class="st6" width="50.9" height="45.9"/>
		<rect x="869.8" y="369.8" class="st1" width="50.9" height="45.9"/>
		<rect x="734.6" y="427.6" class="st1" width="50.9" height="45.9"/>
		<rect x="802.7" y="427.6" class="st6" width="50.9" height="45.9"/>
		<rect x="869.8" y="427.6" class="st6" width="50.9" height="45.9"/>
		<rect x="170.9" y="39.8" class="st6" width="40.2" height="36.3"/>
		<rect x="224.7" y="39.8" class="st6" width="40.2" height="36.3"/>
		<rect x="277.8" y="39.8" class="st1" width="40.2" height="36.3"/>
		<rect x="170.9" y="85.5" class="st1" width="40.2" height="36.3"/>
		<rect x="224.7" y="85.5" class="st6" width="40.2" height="36.3"/>
		<rect x="277.8" y="85.5" class="st6" width="40.2" height="36.3"/>
		<rect x="332.5" y="39.8" class="st1" width="40.2" height="36.3"/>
		<rect x="386.4" y="39.8" class="st6" width="40.2" height="36.3"/>
		<rect x="439.4" y="39.8" class="st1" width="40.2" height="36.3"/>
		<rect x="332.5" y="85.5" class="st1" width="40.2" height="36.3"/>
		<rect x="386.4" y="85.5" class="st1" width="40.2" height="36.3"/>
		<rect x="439.4" y="85.5" class="st6" width="40.2" height="36.3"/>
		<rect x="332.9" y="131.7" class="st6" width="40.2" height="36.3"/>
		<rect x="386.8" y="131.7" class="st6" width="40.2" height="36.3"/>
		<rect x="439.8" y="131.7" class="st1" width="40.2" height="36.3"/>
		<rect x="332.9" y="177.4" class="st1" width="40.2" height="36.3"/>
		<rect x="386.8" y="177.4" class="st1" width="40.2" height="36.3"/>
		<rect x="439.8" y="177.4" class="st6" width="40.2" height="36.3"/>
		<rect x="333.3" y="221.6" class="st6" width="40.2" height="36.3"/>
		<rect x="387.2" y="221.6" class="st1" width="40.2" height="36.3"/>
		<rect x="440.2" y="221.6" class="st1" width="40.2" height="36.3"/>
		<rect x="333.3" y="267.2" class="st1" width="40.2" height="36.3"/>
		<rect x="387.2" y="267.2" class="st6" width="40.2" height="36.3"/>
		<rect x="440.2" y="267.2" class="st1" width="40.2" height="36.3"/>
		<rect x="170.3" y="132.3" class="st6" width="40.2" height="36.3"/>
		<rect x="224.1" y="132.3" class="st1" width="40.2" height="36.3"/>
		<rect x="277.2" y="132.3" class="st1" width="40.2" height="36.3"/>
		<rect x="170.3" y="178" class="st1" width="40.2" height="36.3"/>
		<rect x="224.1" y="178" class="st6" width="40.2" height="36.3"/>
		<rect x="277.2" y="178" class="st6" width="40.2" height="36.3"/>
		<rect x="170.7" y="221.1" class="st6" width="40.2" height="36.3"/>
		<rect x="224.5" y="221.1" class="st6" width="40.2" height="36.3"/>
		<rect x="277.6" y="221.1" class="st1" width="40.2" height="36.3"/>
		<rect x="170.7" y="266.8" class="st1" width="40.2" height="36.3"/>
		<rect x="224.5" y="266.8" class="st1" width="40.2" height="36.3"/>
		<rect x="277.6" y="266.8" class="st6" width="40.2" height="36.3"/>
		<rect x="170.3" y="315.2" class="st6" width="40.2" height="36.3"/>
		<rect x="224.1" y="315.2" class="st6" width="40.2" height="36.3"/>
		<rect x="277.2" y="315.2" class="st1" width="40.2" height="36.3"/>
		<rect x="170.3" y="360.9" class="st1" width="40.2" height="36.3"/>
		<rect x="224.1" y="360.9" class="st6" width="40.2" height="36.3"/>
		<rect x="277.2" y="360.9" class="st1" width="40.2" height="36.3"/>
		<rect x="170.3" y="409.4" class="st1" width="40.2" height="36.3"/>
		<rect x="224.1" y="409.4" class="st6" width="40.2" height="36.3"/>
		<rect x="277.2" y="409.4" class="st1" width="40.2" height="36.3"/>
		<rect x="169.7" y="455" class="st1" width="40.2" height="36.3"/>
		<rect x="223.5" y="455" class="st6" width="40.2" height="36.3"/>
		<rect x="276.6" y="455" class="st6" width="40.2" height="36.3"/>
		<rect x="734.6" y="543.2" class="st1" width="50.9" height="45.9"/>
		<rect x="802.7" y="543.2" class="st6" width="50.9" height="45.9"/>
		<rect x="869.8" y="543.2" class="st6" width="50.9" height="45.9"/>
		<rect x="734.6" y="600.9" class="st6" width="50.9" height="45.9"/>
		<rect x="802.7" y="600.9" class="st1" width="50.9" height="45.9"/>
		<rect x="869.8" y="600.9" class="st6" width="50.9" height="45.9"/>
		<rect x="734.6" y="658.7" class="st1" width="50.9" height="45.9"/>
		<rect x="802.7" y="658.7" class="st1" width="50.9" height="45.9"/>
		<rect x="869.8" y="658.7" class="st6" width="50.9" height="45.9"/>
		<rect x="734.6" y="774.3" class="st1" width="50.9" height="45.9"/>
		<rect x="802.7" y="774.3" class="st1" width="50.9" height="45.9"/>
		<rect x="869.8" y="774.3" class="st6" width="50.9" height="45.9"/>
		<rect x="734.6" y="832.1" class="st1" width="50.9" height="45.9"/>
		<rect x="802.7" y="832.1" class="st1" width="50.9" height="45.9"/>
		<rect x="869.8" y="832.1" class="st1" width="50.9" height="45.9"/>
		<rect x="734.6" y="889.8" class="st1" width="50.9" height="45.9"/>
		<rect x="802.7" y="889.8" class="st6" width="50.9" height="45.9"/>
		<rect x="869.8" y="889.8" class="st1" width="50.9" height="45.9"/>
		<rect x="898.3" y="503.7" class="st7" width="201.3" height="662.9"/>
		<polygon class="st5" points="1142.9,545.7 1099.6,503.7 1099.6,1166.6 1143.4,1166.6 		"/>
		<rect x="959.3" y="528.5" class="st2" width="70.2" height="23.8"/>
		<rect x="959.3" y="572.5" class="st1" width="70.2" height="23.8"/>
		<rect x="959.3" y="616.5" class="st2" width="70.2" height="23.8"/>
		<rect x="959.3" y="660.6" class="st2" width="70.2" height="23.8"/>
		<rect x="959.3" y="704.6" class="st2" width="70.2" height="23.8"/>
		<rect x="959.3" y="748.6" class="st2" width="70.2" height="23.8"/>
		<rect x="959.3" y="792.6" class="st1" width="70.2" height="23.8"/>
		<rect x="959.3" y="836.7" class="st2" width="70.2" height="23.8"/>
		<rect x="959.3" y="880.7" class="st1" width="70.2" height="23.8"/>
		<rect x="960.3" y="953.1" class="st1" width="70.2" height="75.2"/>
		<rect x="1215.6" y="337.9" class="st4" width="247.3" height="828.7"/>
		<polygon class="st5" points="1515.6,348 1462.9,337.9 1462.9,1166.6 1516.6,1166.6 		"/>
		<rect x="1244.1" y="358.8" class="st2" width="81.4" height="16.5"/>
		<rect x="1357" y="358.8" class="st2" width="81.4" height="16.5"/>
		<rect x="1244.1" y="419.3" class="st1" width="81.4" height="16.5"/>
		<rect x="1357" y="419.3" class="st1" width="81.4" height="16.5"/>
		<rect x="1244.1" y="479.9" class="st2" width="81.4" height="16.5"/>
		<rect x="1357" y="479.9" class="st2" width="81.4" height="16.5"/>
		<rect x="1244.1" y="540.4" class="st1" width="81.4" height="16.5"/>
		<rect x="1357" y="540.4" class="st2" width="81.4" height="16.5"/>
		<rect x="1244.1" y="600.9" class="st1" width="81.4" height="16.5"/>
		<rect x="1357" y="600.9" class="st1" width="81.4" height="16.5"/>
		<rect x="1244.1" y="661.5" class="st1" width="81.4" height="16.5"/>
		<rect x="1357" y="661.5" class="st1" width="81.4" height="16.5"/>
		<rect x="1244.1" y="722" class="st1" width="81.4" height="16.5"/>
		<rect x="1357" y="722" class="st2" width="81.4" height="16.5"/>
		<rect x="1244.1" y="782.5" class="st1" width="81.4" height="16.5"/>
		<rect x="1357" y="782.5" class="st2" width="81.4" height="16.5"/>
		<rect x="1244.1" y="843.1" class="st2" width="81.4" height="16.5"/>
		<rect x="1357" y="843.1" class="st1" width="81.4" height="16.5"/>
		<rect x="1244.1" y="903.6" class="st2" width="81.4" height="16.5"/>
		<rect x="1357" y="903.6" class="st2" width="81.4" height="16.5"/>
		<rect x="1244.1" y="964.1" class="st1" width="81.4" height="16.5"/>
		<rect x="1357" y="964.1" class="st2" width="81.4" height="16.5"/>
		<rect x="1500.4" y="431.9" class="st7" width="213" height="734.8"/>
		<polygon class="st5" points="1758.7,437.4 1713.4,431.9 1713.4,1166.6 1759.7,1166.6 		"/>
		<rect x="1517.7" y="456.9" class="st2" width="26.3" height="71.5"/>
		<rect x="1590" y="456.9" class="st2" width="26.3" height="71.5"/>
		<rect x="1662.3" y="456.9" class="st1" width="26.3" height="71.5"/>
		<rect x="1517.7" y="553.2" class="st2" width="26.3" height="71.5"/>
		<rect x="1590" y="553.2" class="st1" width="26.3" height="71.5"/>
		<rect x="1662.3" y="553.2" class="st1" width="26.3" height="71.5"/>
		<rect x="1517.7" y="649.5" class="st1" width="26.3" height="71.5"/>
		<rect x="1590" y="649.5" class="st2" width="26.3" height="71.5"/>
		<rect x="1662.3" y="649.5" class="st1" width="26.3" height="71.5"/>
		<rect x="1517.7" y="745.8" class="st1" width="26.3" height="71.5"/>
		<rect x="1590" y="745.8" class="st1" width="26.3" height="71.5"/>
		<rect x="1662.3" y="745.8" class="st2" width="26.3" height="71.5"/>
		<rect x="1517.7" y="842.2" class="st1" width="26.3" height="71.5"/>
		<rect x="1590" y="842.2" class="st1" width="26.3" height="71.5"/>
		<rect x="1662.3" y="842.2" class="st2" width="26.3" height="71.5"/>
		<rect x="1517.7" y="938.5" class="st2" width="26.3" height="71.5"/>
		<rect x="1590" y="938.5" class="st2" width="26.3" height="71.5"/>
		<rect x="1662.3" y="938.5" class="st2" width="26.3" height="71.5"/>
		<g>
			<rect x="305.4" y="296.5" class="st7" width="383.4" height="870.2"/>
			<polygon class="st5" points="771.2,351.1 688.8,296.5 688.8,1166.6 772.2,1166.6 			"/>
			<rect x="323.7" y="311.1" class="st2" width="350.9" height="17.4"/>
			<rect x="323.7" y="346" class="st1" width="350.9" height="17.4"/>
			<rect x="323.7" y="380.8" class="st2" width="350.9" height="17.4"/>
			<rect x="323.7" y="415.7" class="st1" width="350.9" height="17.4"/>
			<rect x="323.7" y="450.5" class="st1" width="350.9" height="17.4"/>
			<rect x="323.7" y="485.4" class="st2" width="350.9" height="17.4"/>
			<rect x="323.7" y="520.2" class="st2" width="350.9" height="17.4"/>
			<rect x="323.7" y="555.1" class="st2" width="350.9" height="17.4"/>
			<rect x="323.7" y="589.9" class="st2" width="350.9" height="17.4"/>
			<rect x="323.7" y="624.8" class="st2" width="350.9" height="17.4"/>
			<rect x="323.7" y="659.6" class="st1" width="350.9" height="17.4"/>
			<rect x="323.7" y="694.5" class="st1" width="350.9" height="17.4"/>
			<rect x="323.7" y="729.3" class="st2" width="350.9" height="17.4"/>
			<rect x="323.7" y="764.2" class="st1" width="350.9" height="17.4"/>
			<rect x="323.7" y="799" class="st1" width="350.9" height="17.4"/>
			<rect x="323.7" y="833.9" class="st1" width="350.9" height="17.4"/>
			<rect x="323.7" y="868.8" class="st2" width="350.9" height="17.4"/>
			<rect x="323.7" y="903.6" class="st1" width="350.9" height="17.4"/>
			<rect x="323.7" y="938.5" class="st2" width="350.9" height="17.4"/>
			<rect x="323.7" y="973.3" class="st2" width="350.9" height="17.4"/>
			<rect x="323.7" y="1008.2" class="st2" width="350.9" height="17.4"/>
		</g>
		<g>
			<rect x="22.6" y="431.8" class="st4" width="383.4" height="734.9"/>
			<polygon class="st5" points="488.4,478.2 406.1,431.8 406.1,1166.6 489.4,1166.6 			"/>
			<rect x="37.9" y="447.8" class="st8" width="350.9" height="17.4"/>
			<rect x="37.9" y="480.8" class="st8" width="350.9" height="17.4"/>
			<rect x="37.9" y="513.8" class="st1" width="350.9" height="17.4"/>
			<rect x="37.9" y="546.8" class="st8" width="350.9" height="17.4"/>
			<rect x="37.9" y="579.8" class="st1" width="350.9" height="17.4"/>
			<rect x="37.9" y="612.9" class="st8" width="350.9" height="17.4"/>
			<rect x="37.9" y="645.9" class="st1" width="350.9" height="17.4"/>
			<rect x="37.9" y="678.9" class="st8" width="350.9" height="17.4"/>
			<rect x="37.9" y="711.9" class="st8" width="350.9" height="17.4"/>
			<rect x="37.9" y="744.9" class="st8" width="350.9" height="17.4"/>
			<rect x="37.9" y="778" class="st8" width="350.9" height="17.4"/>
			<rect x="37.9" y="811" class="st1" width="350.9" height="17.4"/>
			<rect x="37.9" y="844" class="st8" width="350.9" height="17.4"/>
			<rect x="37.9" y="877" class="st8" width="350.9" height="17.4"/>
			<rect x="37.9" y="910" class="st8" width="350.9" height="17.4"/>
			<rect x="37.9" y="943" class="st1" width="350.9" height="17.4"/>
			<rect x="37.9" y="976.1" class="st1" width="350.9" height="17.4"/>
			<rect x="74.5" y="439.5" class="st4" width="18.3" height="671.4"/>
			<rect x="130.4" y="433" class="st4" width="18.3" height="669.7"/>
			<rect x="324.7" y="437.2" class="st4" width="18.3" height="665.4"/>
			<rect x="258.6" y="433.8" class="st4" width="18.3" height="668.8"/>
			<rect x="194.5" y="442.3" class="st4" width="18.3" height="671.4"/>
		</g>
	</g>
	
		<linearGradient id="SVGID_2_" gradientUnits="userSpaceOnUse" x1="480.5717" y1="-293.0172" x2="1441.9951" y2="1372.2167" gradientTransform="matrix(1 0 0 -1 0 1080)">
		<stop  offset="5.780000e-02" style="stop-color:#E2AF9D"/>
		<stop  offset="0.2543" style="stop-color:#DFAC9E"/>
		<stop  offset="0.4255" style="stop-color:#D7A1A2"/>
		<stop  offset="0.5871" style="stop-color:#C98FA8"/>
		<stop  offset="0.743" style="stop-color:#B576B0"/>
		<stop  offset="0.8934" style="stop-color:#9B56BB"/>
		<stop  offset="1" style="stop-color:#853AC4"/>
	</linearGradient>
	<rect x="-3.6" y="-12.7" class="st9" width="1929.8" height="1106.1"/>
</g>
<g>
	<rect x="4026.3" y="-3531.9" class="st1" width="2099" height="48.8"/>
	<g>
		
			<image style="overflow:visible;enable-background:new    ;" width="2171" height="97" xlink:href="AADC4605.png"  transform="matrix(1 0 0 0.4693 3990.2522 -3554.0063)">
		</image>
	</g>
	<g>
		<g>
			<path class="st10" d="M4796.3-3865.4c2,0.4,3.9,0.8,5.9,1.2"/>
			<path class="st11" d="M4814.2-3861.9c175.5,32.9,351.9,32.2,529.2-1.2"/>
			<path class="st10" d="M5349.4-3864.3c2-0.4,3.9-0.8,5.9-1.1"/>
		</g>
	</g>
	<g>
		<g>
			<path class="st10" d="M5355.3-3862.4c2,0.4,3.9,0.8,5.9,1.2"/>
			<path class="st12" d="M5372.9-3858.9c171.6,32.9,344.2,32.1,517.6-1.2"/>
			<path class="st10" d="M5896.4-3861.2c2-0.4,3.9-0.8,5.9-1.2"/>
		</g>
	</g>
	<line class="st13" x1="5899.3" y1="-3540.4" x2="5899.3" y2="-3920.4"/>
	<path class="st13" d="M5862.3-3917.4c-3-64,37-67,37.4-2.1"/>
	<path class="st14" d="M5862.3-3857.4L5862.3-3857.4c-17.5,0-31.7-14.2-31.7-31.7v-23.3c0-4.4,3.6-8,8-8h47.3c4.4,0,8,3.6,8,8v23.3
		C5893.9-3871.6,5879.7-3857.4,5862.3-3857.4z"/>
	<path class="st14" d="M5862.3-3848.4L5862.3-3848.4c-22,0-39.8-17.8-39.8-39.8v-11.6c0-7.6,6.1-13.7,13.7-13.7h52.3
		c7.6,0,13.7,6.1,13.7,13.7v11.6C5902.1-3866.2,5884.2-3848.4,5862.3-3848.4z"/>
	<path class="st15" d="M5862.3-3853.5L5862.3-3853.5c-19.3,0-35-15.7-35-35v-11c0-4.9,4-8.9,8.9-8.9h52.3c4.9,0,8.9,4,8.9,8.9v11
		C5897.3-3869.2,5881.6-3853.5,5862.3-3853.5z"/>
	<path class="st1" d="M5916.3-3540.4h-34l3-220.8c9.2-2.9,18.2-3,27,0L5916.3-3540.4z"/>
	<g>
		<rect x="4198.1" y="-3983.8" class="st16" width="415.2" height="437.6"/>
	</g>
	<g>
		<rect x="4186.5" y="-4136.5" class="st17" width="438.6" height="257.5"/>
	</g>
	<g>
		<path class="st18" d="M4609.1-3815.5h-406.6c-21.9,0-18.7-18.2-18.7-40.6l0,0c0-22.4,17.8-40.6,39.7-40.6h364.8
			c21.9,0,39.7,18.2,39.7,40.6l0,0C4627.8-3833.7,4631-3815.5,4609.1-3815.5z"/>
	</g>
	<g>
		<polygon class="st19" points="4259.4,-3882.5 4195.2,-3882.5 4341.1,-4155.9 4405.3,-4155.9 		"/>
	</g>
	<g>
		<polygon class="st19" points="4298.3,-3882.5 4277.9,-3882.5 4423.7,-4155.9 4444.2,-4155.9 		"/>
	</g>
	<g>
		<path class="st1" d="M4628-3856.1h-444.5c-2.7,0-4.8-2.1-4.8-4.8v-30.9c0-2.7,2.1-4.8,4.8-4.8H4628c2.7,0,4.8,2.1,4.8,4.8v30.9
			C4632.8-3858.2,4630.7-3856.1,4628-3856.1z"/>
	</g>
	<g>
		<path class="st1" d="M4625.2-4134.5h-439c-4.2,0-7.6-3.4-7.6-7.6v-7.2c0-4.2,3.4-7.6,7.6-7.6h439c4.2,0,7.6,3.4,7.6,7.6v7.2
			C4632.8-4137.9,4629.4-4134.5,4625.2-4134.5z"/>
	</g>
	<g>
		<path class="st1" d="M4559.3-4150.1h-307c-4.1,0-7.4-3.3-7.4-7.4l0,0c0-8.2,6.7-14.9,14.9-14.9h292c8.2,0,14.9,6.7,14.9,14.9l0,0
			C4566.7-4153.4,4563.4-4150.1,4559.3-4150.1z"/>
	</g>
	<g>
		<path class="st1" d="M4504-4161.7h-196.4c-6.2,0-11.2-5-11.2-11.2l0,0c0-6.2,5-11.2,11.2-11.2H4504c6.2,0,11.2,5,11.2,11.2l0,0
			C4515.2-4166.7,4510.1-4161.7,4504-4161.7z"/>
	</g>
	<g>
		<rect x="4343.5" y="-4288.1" class="st1" width="29.5" height="116.9"/>
	</g>
	<g>
		<polygon class="st1" points="4381.6,-4240.6 4335,-4240.6 4323.6,-4288.1 4393,-4288.1 		"/>
	</g>
	<g>
		<rect x="4406.1" y="-4234.4" class="st1" width="22.4" height="62.1"/>
	</g>
	<g>
		<rect x="4414" y="-4234.4" class="st1" width="25.3" height="15.2"/>
	</g>
	<line class="st20" x1="4198.1" y1="-3762" x2="4613.4" y2="-3762"/>
	<line class="st13" x1="4185.5" y1="-4007.6" x2="4625.5" y2="-4007.6"/>
	<line class="st13" x1="4522" y1="-4138.4" x2="4522" y2="-3876.8"/>
	<line class="st13" x1="4288.6" y1="-4138.4" x2="4288.6" y2="-3876.8"/>
	<line class="st21" x1="4198.1" y1="-3721.7" x2="4613.4" y2="-3721.7"/>
	<line class="st21" x1="4198.1" y1="-3681.3" x2="4613.4" y2="-3681.3"/>
	<line class="st21" x1="4198.1" y1="-3641" x2="4613.4" y2="-3641"/>
	<line class="st21" x1="4198.1" y1="-3600.6" x2="4613.4" y2="-3600.6"/>
	<path class="st22" d="M4483.3-3538.9h-157.1c-7.9,0-14.3-6.4-14.3-14.3v-137.1c0-7.9,6.4-14.3,14.3-14.3h157.1
		c7.9,0,14.3,6.4,14.3,14.3v137.1C4497.6-3545.3,4491.2-3538.9,4483.3-3538.9z"/>
	<g>
		<rect x="4178.7" y="-3553" class="st1" width="454.1" height="15.6"/>
	</g>
	<line class="st23" x1="4404.8" y1="-3680.8" x2="4404.8" y2="-3564.1"/>
	<line class="st24" x1="4448.5" y1="-3637.1" x2="4448.5" y2="-3602.1"/>
	<line class="st24" x1="4357.1" y1="-3637.1" x2="4357.1" y2="-3602.1"/>
	<line class="st13" x1="4796.3" y1="-3539.4" x2="4796.3" y2="-3919.4"/>
	<path class="st13" d="M4759.3-3916.4c-3-64,37-67,37.4-2.1"/>
	<path class="st14" d="M4759.3-3856.4L4759.3-3856.4c-17.5,0-31.7-14.2-31.7-31.7v-23.3c0-4.4,3.6-8,8-8h47.3c4.4,0,8,3.6,8,8v23.3
		C4790.9-3870.6,4776.7-3856.4,4759.3-3856.4z"/>
	<path class="st14" d="M4759.3-3847.4L4759.3-3847.4c-22,0-39.8-17.8-39.8-39.8v-11.6c0-7.6,6.1-13.7,13.7-13.7h52.3
		c7.6,0,13.7,6.1,13.7,13.7v11.6C4799.1-3865.2,4781.2-3847.4,4759.3-3847.4z"/>
	<path class="st15" d="M4759.3-3852.5L4759.3-3852.5c-19.3,0-35-15.7-35-35v-11c0-4.9,4-8.9,8.9-8.9h52.3c4.9,0,8.9,4,8.9,8.9v11
		C4794.3-3868.2,4778.6-3852.5,4759.3-3852.5z"/>
	<path class="st1" d="M4813.3-3539.4h-34l3-220.8c9.2-2.9,18.2-3,27,0L4813.3-3539.4z"/>
	<line class="st13" x1="5355.3" y1="-3541.4" x2="5355.3" y2="-3921.4"/>
	<path class="st13" d="M5318.3-3918.4c-3-64,37-67,37.4-2.1"/>
	<path class="st14" d="M5318.3-3858.4L5318.3-3858.4c-17.5,0-31.7-14.2-31.7-31.7v-23.3c0-4.4,3.6-8,8-8h47.3c4.4,0,8,3.6,8,8v23.3
		C5349.9-3872.6,5335.7-3858.4,5318.3-3858.4z"/>
	<path class="st14" d="M5318.3-3849.4L5318.3-3849.4c-22,0-39.8-17.8-39.8-39.8v-11.6c0-7.6,6.1-13.7,13.7-13.7h52.3
		c7.6,0,13.7,6.1,13.7,13.7v11.6C5358.1-3867.2,5340.2-3849.4,5318.3-3849.4z"/>
	<path class="st15" d="M5318.3-3854.5L5318.3-3854.5c-19.3,0-35-15.7-35-35v-11c0-4.9,4-8.9,8.9-8.9h52.3c4.9,0,8.9,4,8.9,8.9v11
		C5353.3-3870.2,5337.6-3854.5,5318.3-3854.5z"/>
	<path class="st1" d="M5372.3-3541.4h-34l3-220.8c9.2-2.9,18.2-3,27,0L5372.3-3541.4z"/>
	<line class="st25" x1="4243.4" y1="-3876.3" x2="4566.2" y2="-3876.3"/>
	<g>
		<ellipse class="st26" cx="5075.7" cy="-3571.4" rx="23.1" ry="6.3"/>
		<ellipse class="st26" cx="5240.7" cy="-3571.4" rx="23.1" ry="6.3"/>
		<polygon class="st26" points="5288.8,-3581.9 5027.8,-3581.9 5062.8,-3598.9 5253.8,-3598.9 		"/>
		<rect x="5026.8" y="-3581.6" class="st26" width="262" height="10.2"/>
		<rect x="5060.9" y="-3620.8" class="st26" width="194.8" height="25.4"/>
		<rect x="5060.9" y="-3643.4" class="st26" width="194.8" height="18.1"/>
	</g>
	<g>
		<path class="st14" d="M4956-3538.4h-112.4c-2.9,0-5.3-2.4-5.3-5.3v-164.4c0-2.9,2.4-5.3,5.3-5.3H4956c2.9,0,5.3,2.4,5.3,5.3v164.4
			C4961.3-3540.8,4958.9-3538.4,4956-3538.4z"/>
		<path class="st1" d="M4952-3538.4h-108.4c-2.9,0-5.3-2.4-5.3-5.3v-161.1c0-2.9,2.4-5.3,5.3-5.3H4952c2.9,0,5.3,2.4,5.3,5.3v161.1
			C4957.3-3540.8,4954.9-3538.4,4952-3538.4z"/>
		<path class="st18" d="M4885.8-3563.9h-40.1c-0.8,0-1.5-0.8-1.5-1.8v-11c0-1,0.7-1.8,1.5-1.8h24.9c0.3,0,0.7,0.1,0.9,0.4
			c4.3,4.1,9.3,7.7,14.8,10.8C4888-3566.4,4887.5-3563.9,4885.8-3563.9z"/>
		<g>
			<path class="st27" d="M4949.4-3564h-26.7c-41.1,0-74.4-33.3-74.4-74.4v-17.4c0-26.6,21.6-48.2,48.1-48.2h4.8
				c26.6,0,48.1,21.6,48.1,48.2L4949.4-3564L4949.4-3564z"/>
		</g>
		<line class="st28" x1="4918.3" y1="-3675.4" x2="4918.3" y2="-3574.4"/>
		<path class="st29" d="M4936.8-3666.4h-11c-1.9,0-3.5-1.6-3.5-3.5l0,0c0-1.9,1.6-3.5,3.5-3.5h11c1.9,0,3.5,1.6,3.5,3.5l0,0
			C4940.3-3668,4938.7-3666.4,4936.8-3666.4z"/>
		<path class="st29" d="M4936.8-3655.4h-11c-1.9,0-3.5-1.6-3.5-3.5l0,0c0-1.9,1.6-3.5,3.5-3.5h11c1.9,0,3.5,1.6,3.5,3.5l0,0
			C4940.3-3657,4938.7-3655.4,4936.8-3655.4z"/>
		<path class="st29" d="M4936.8-3644.4h-11c-1.9,0-3.5-1.6-3.5-3.5l0,0c0-1.9,1.6-3.5,3.5-3.5h11c1.9,0,3.5,1.6,3.5,3.5l0,0
			C4940.3-3646,4938.7-3644.4,4936.8-3644.4z"/>
		<path class="st29" d="M4936.8-3633.4h-11c-1.9,0-3.5-1.6-3.5-3.5l0,0c0-1.9,1.6-3.5,3.5-3.5h11c1.9,0,3.5,1.6,3.5,3.5l0,0
			C4940.3-3635,4938.7-3633.4,4936.8-3633.4z"/>
		<path class="st29" d="M4936.8-3622.4h-11c-1.9,0-3.5-1.6-3.5-3.5l0,0c0-1.9,1.6-3.5,3.5-3.5h11c1.9,0,3.5,1.6,3.5,3.5l0,0
			C4940.3-3624,4938.7-3622.4,4936.8-3622.4z"/>
		<path class="st29" d="M4936.8-3611.4h-11c-1.9,0-3.5-1.6-3.5-3.5l0,0c0-1.9,1.6-3.5,3.5-3.5h11c1.9,0,3.5,1.6,3.5,3.5l0,0
			C4940.3-3613,4938.7-3611.4,4936.8-3611.4z"/>
		<path class="st29" d="M4936.8-3600.4h-11c-1.9,0-3.5-1.6-3.5-3.5l0,0c0-1.9,1.6-3.5,3.5-3.5h11c1.9,0,3.5,1.6,3.5,3.5l0,0
			C4940.3-3602,4938.7-3600.4,4936.8-3600.4z"/>
		<path class="st29" d="M4936.8-3589.4h-11c-1.9,0-3.5-1.6-3.5-3.5l0,0c0-1.9,1.6-3.5,3.5-3.5h11c1.9,0,3.5,1.6,3.5,3.5l0,0
			C4940.3-3591,4938.7-3589.4,4936.8-3589.4z"/>
		<path class="st29" d="M4936.8-3578.4h-11c-1.9,0-3.5-1.6-3.5-3.5l0,0c0-1.9,1.6-3.5,3.5-3.5h11c1.9,0,3.5,1.6,3.5,3.5l0,0
			C4940.3-3580,4938.7-3578.4,4936.8-3578.4z"/>
	</g>
	<rect x="4025.3" y="-3542.7" class="st14" width="2099" height="17.4"/>
</g>
<g>
	
		<radialGradient id="SVGID_3_" cx="-1915.3467" cy="-726.9203" r="1579.6589" gradientTransform="matrix(1 0 0 1.0016 6.309352e-03 -1.7358)" gradientUnits="userSpaceOnUse">
		<stop  offset="0" style="stop-color:#A9DDF3"/>
		<stop  offset="0.1249" style="stop-color:#A3D9F1"/>
		<stop  offset="0.2841" style="stop-color:#94CFEC"/>
		<stop  offset="0.4621" style="stop-color:#79BFE4"/>
		<stop  offset="0.6535" style="stop-color:#55A7D8"/>
		<stop  offset="0.8536" style="stop-color:#278AC9"/>
		<stop  offset="1" style="stop-color:#0071BC"/>
	</radialGradient>
	<rect x="-3717.3" y="-1266.5" class="st30" width="3581.9" height="1081.7"/>
</g>
<path class="st31" d="M-784.4-1061.9c-55.2,0-110.5,0.1-165.7-0.1c-6.8,0-16,2.8-18.8-6c-2.3-7.1,2.3-14.8,8.2-18.8
	c14.4-9.8,21.6-24.2,30.5-38.4c13.6-21.7,34.9-33.3,61.5-27.5c13,2.8,20.3-1.5,28.8-10.7c39.4-43,101.9-40,137.6,6.5
	c8.7,11.3,16.6,20,32.2,21.1c8.1,0.6,17.7,5.4,23.2,11.5c13.7,15,24.4,32.5,44.8,40.3c5.7,2.2,9.7,9.8,7.6,16.3
	c-2.6,7.6-10.7,5.6-16.8,5.6c-57.6,0.1-115.3,0.1-172.9,0.1C-784.4-1062.1-784.4-1062-784.4-1061.9z"/>
<path class="st31" d="M-2812.7-917.9c-55.2,0-110.5,0.1-165.7-0.1c-6.8,0-16,2.8-18.8-6c-2.3-7.1,2.3-14.8,8.2-18.8
	c14.4-9.8,21.6-24.2,30.5-38.4c13.6-21.7,34.9-33.3,61.5-27.5c13,2.8,20.3-1.5,28.8-10.7c39.4-43,101.9-40,137.6,6.5
	c8.7,11.3,16.6,20,32.2,21.1c8.1,0.6,17.7,5.4,23.2,11.5c13.7,15,24.4,32.5,44.8,40.3c5.7,2.2,9.7,9.8,7.6,16.3
	c-2.6,7.6-10.7,5.6-16.8,5.6c-57.6,0.2-115.3,0.1-172.9,0.1C-2812.7-918-2812.7-918-2812.7-917.9z"/>
<path class="st31" d="M-896.9-887.8c10,0,20,0,30.1,0c2.4,0,4.8,0.1,4.9,3.3c0.1,3.2-2.1,3.9-4.8,3.9c-11.8,0-23.6,0-35.4,0.1
	c-1.6,0-3.4-0.1-4.3,1.6c-1.4,2.5,0.1,5,3.4,5.1c5.8,0.3,11.7,0.1,17.5,0.2c1.4,0,2.8,0,4.2,0c2.4,0,4.4,0.8,4.3,3.6
	c-0.1,2.8-2.1,3.5-4.5,3.5c-4.8,0-9.6,0-14.4,0c-2.2,0-3.8,0.9-3.8,3.3c-0.1,2.6,1.7,3.5,4,3.5c1.8,0,3.6,0,5.3,0.1
	c2.4,0.1,4.4,0.8,4.3,3.7c-0.1,2.9-2.1,3.5-4.4,3.5c-12.1,0-24.1,0-36.2,0c-2.4,0-4.8,0-7.2,0c-2.3,0-3.6-1.1-3.7-3.4
	c-0.1-2.3,1.3-3.5,3.5-3.7c2.5-0.1,5.1-0.1,7.6-0.1c2.3,0,4.6-0.3,4.7-3.2c0.1-3.2-2.4-3.5-4.8-3.5c-9.5,0-19,0-28.5,0
	c-4.4,0-8.9,0-13.3,0c-2.7,0-4.7-1-4.6-3.9c0.1-2.6,2.2-3.3,4.6-3.3c14.8,0,29.7,0,44.5,0c1.3,0,2.6,0,3.8-0.2
	c1.8-0.3,3.1-1.2,3.1-3.2c0-2.1-1.1-3.4-3.2-3.5c-2.7-0.2-5.3-0.1-8-0.1c-2.3-0.1-4-0.9-4-3.5c0-2.8,1.6-3.7,4.2-3.7
	C-917.7-887.8-907.3-887.8-896.9-887.8z"/>
<path class="st31" d="M-3518.8-820.7c16.5,0,33,0,49.6,0c4,0,8,0.1,8.1,4.8c0.1,4.7-3.5,5.6-8,5.6c-19.5,0-38.9,0.1-58.4,0.1
	c-2.7,0-5.5-0.2-7.2,2.4c-2.3,3.5,0.2,7.2,5.6,7.4c9.6,0.4,19.2,0.2,28.9,0.3c2.3,0,4.6,0,6.9,0c4,0,7.2,1.1,7.1,5.2
	c-0.1,4-3.5,5.1-7.4,5.1c-7.9,0.1-15.9,0-23.8,0c-3.7,0-6.2,1.3-6.3,4.7c-0.1,3.8,2.7,5,6.6,5c2.9,0,5.9,0,8.8,0.1
	c3.9,0.1,7.2,1.2,7.1,5.3c-0.1,4.1-3.4,5.1-7.3,5.1c-19.9,0-39.7,0-59.6,0c-4,0-7.9,0-11.9,0c-3.7,0-6-1.6-6.1-5
	c-0.1-3.3,2.1-5.1,5.8-5.3c4.2-0.2,8.4-0.1,12.5-0.1c3.8,0,7.6-0.4,7.7-4.6c0.1-4.6-4-5-7.9-5c-15.7-0.1-31.4,0-47.1,0
	c-7.3,0-14.6-0.1-22-0.1c-4.4,0-7.8-1.5-7.6-5.5c0.1-3.8,3.5-4.8,7.6-4.8c24.5,0.1,48.9,0,73.4,0c2.1,0,4.2,0,6.3-0.2
	c3-0.4,5.1-1.7,5.1-4.6c0-3-1.9-4.9-5.3-5.1c-4.4-0.2-8.8-0.1-13.2-0.2c-3.8-0.1-6.6-1.3-6.6-5.1c0-4,2.7-5.3,6.9-5.3
	C-3553.1-820.7-3536-820.7-3518.8-820.7z"/>
<path class="st32" d="M-390.9-1137.2c2.8-4.1,0.1-5.6,10.2-8.5c10.8-2.1,5.5-3.3,13.5-9c13.9-11.1,22.3-26.7,33-40.4
	c26.1-33.1,78.2-27.1,97.8,10.3c4.2,8.1,10.6,10.3,17.8,14.4c18.9,10.9,39.3,20.8,52.2,39.9c3.6,7-2.7,9.5-2.7,9.5
	c-19,0.2-37.9,0.7-56.9,0.7c-59.7-0.1-119.5-0.3-179.2-0.5C-406.9-1128.8-392.5-1136.6-390.9-1137.2z"/>
<path class="st32" d="M-3268.3-1115c2.8-4.1,0.1-5.6,10.2-8.5c10.8-2.1,5.5-3.3,13.5-9c13.9-11.1,22.3-26.7,33-40.4
	c26.1-33.1,78.2-27.1,97.8,10.3c4.2,8.1,10.6,10.3,17.8,14.5c18.9,10.8,39.3,20.8,52.2,39.9c3.6,7-2.7,9.5-2.7,9.5
	c-19,0.2-37.9,0.7-56.9,0.7c-59.7-0.1-119.5-0.3-179.2-0.5C-3284.2-1106.6-3269.9-1114.4-3268.3-1115z"/>
<path class="st31" d="M-1280.4-823.7c-12.8,0-25.7,0-38.5,0c-3.2,0-7.7,0.7-7.6-4c0.1-4.6,4.6-3.7,7.8-3.8c3.9-0.1,7.9,0,11.8-0.1
	c2.3-0.1,4.9-0.4,4.8-3.6c-0.2-3.1-2.7-3.2-5.1-3.2c-2.3,0-4.6,0-6.8-0.1c-2.3-0.1-4.1-1-4.1-3.6c-0.1-2.7,1.6-3.7,4-3.7
	c18.6,0,37.3,0.1,55.9,0.1c2.2,0,4.3,0.6,4.3,3.4c0,3-2.2,3.7-4.7,3.8c-4.8,0.1-9.5,0-14.3,0.1c-2.5,0-5.6,0-5.5,3.4
	c0.1,3.4,3.2,3.3,5.6,3.4c9.3,0.1,18.6,0,28,0.1c1.7,0,3.3,0,5,0c2.7,0,5.3,0.8,5.2,4c0,3.2-2.7,3.8-5.3,3.8
	C-1253.4-823.7-1266.9-823.7-1280.4-823.7C-1280.4-823.7-1280.4-823.7-1280.4-823.7z"/>
<path class="st31" d="M-3047.9-809.7c-12.8,0-25.7,0-38.5,0c-3.2,0-7.7,0.7-7.6-4c0.1-4.6,4.6-3.7,7.8-3.8c3.9-0.1,7.9,0,11.8-0.1
	c2.3-0.1,4.9-0.4,4.8-3.6c-0.2-3.1-2.7-3.2-5.1-3.2c-2.3,0-4.6,0-6.8-0.1c-2.3-0.1-4.1-1-4.1-3.6c-0.1-2.7,1.6-3.7,4-3.7
	c18.6,0,37.3,0.1,55.9,0.1c2.2,0,4.3,0.6,4.3,3.4c0,3-2.2,3.7-4.7,3.8c-4.8,0.1-9.5,0-14.3,0.1c-2.5,0-5.6,0-5.5,3.4
	c0.1,3.4,3.1,3.3,5.6,3.4c9.3,0.1,18.6,0,28,0.1c1.7,0,3.3,0,5,0c2.7,0,5.3,0.8,5.2,4c0,3.2-2.7,3.8-5.3,3.8
	C-3020.9-809.8-3034.4-809.8-3047.9-809.7C-3047.9-809.8-3047.9-809.7-3047.9-809.7z"/>
<path class="st31" d="M-2121.7-856.7c29.5,0,59,0,88.5,0c7.4,0,17.7-0.7,17.4,4c-0.3,4.6-10.7,3.7-18,3.8c-9,0.1-18.1,0-27.1,0.1
	c-5.3,0.1-11.3,0.4-10.9,3.6c0.4,3.1,6.3,3.2,11.7,3.2c5.2,0,10.5,0,15.7,0.1c5.3,0.1,9.4,1,9.5,3.6c0.1,2.7-3.7,3.7-9.2,3.7
	c-42.8,0-85.6-0.1-128.4-0.1c-5.1,0-9.9-0.6-9.8-3.4c0.1-3,5.1-3.7,10.8-3.8c10.9-0.1,21.9,0,32.8-0.1c5.8,0,12.8,0,12.6-3.4
	c-0.2-3.4-7.2-3.3-12.9-3.4c-21.4-0.1-42.8,0-64.2-0.1c-3.8,0-7.6,0-11.4,0c-6.2,0-12.1-0.8-12-4c0.1-3.2,6.1-3.8,12.3-3.8
	C-2183.6-856.7-2152.7-856.7-2121.7-856.7C-2121.7-856.7-2121.7-856.7-2121.7-856.7z"/>
<path class="st32" d="M-2023.2-1105.3c3-7.4,9.8-6.8,13.8-10.3c-23.2-17.9-29.7-34.3-20.4-52.2c6.7-13,17-22.9,30.4-28.5
	c24.7-10.4,48.1-6.2,69.4,9.3c12.3,9,19.2,21.6,18.5,37.4c-0.3,6.8,2,8.2,7.5,4.1c5.9-4.4,12.6-7,19.9-8.2
	c15.7-2.7,26.6,2.9,31.6,17.9c2.2,6.7,5.2,8.4,11.9,7.4c22.7-3.3,40,7.5,58.3,23.2C-1864-1105.3-1943-1105.3-2023.2-1105.3z"/>
<path class="st32" d="M-3589.3-957c3-7.4,9.8-6.8,13.9-10.3c-23.2-17.9-29.7-34.3-20.4-52.2c6.7-13,17-22.9,30.4-28.5
	c24.7-10.4,48.1-6.2,69.4,9.3c12.3,9,19.2,21.6,18.5,37.4c-0.3,6.8,2,8.2,7.5,4.1c5.9-4.4,12.6-7,19.9-8.2
	c15.7-2.7,26.6,2.9,31.6,17.9c2.2,6.7,5.2,8.4,11.9,7.4c22.7-3.3,40.1,7.5,58.3,23.2C-3430.2-957-3509.2-957-3589.3-957z"/>
<path class="st32" d="M-1214.4-1012.8c-152.5,0-305.1,0-459.6,0c8.5-12.2,20.4-14.3,31.7-16c13.6-2,27.5-3.1,41.3-2.8
	c11.5,0.3,18-3.7,23.2-14.1c11.5-23.3,29.9-38,56.8-40c10.7-0.8,21.4-0.1,30,6.8c8.3,6.7,10.3,2.8,13.3-5
	c12.3-32.2,35.5-44.7,69.4-38.2c20.6,4,33.6,19.6,34.7,44.5c0.5,13.2,2.4,16.6,15.9,9.9c29.1-14.3,54-6.3,70.7,21.9
	c4.7,8,10.4,11.3,18.7,10.2C-1246.5-1038.3-1230.3-1026.9-1214.4-1012.8z"/>
<path class="st32" d="M-2073.8-1042.7c-152.5,0-305.1,0-459.6,0c8.5-12.2,20.4-14.3,31.7-16c13.6-2,27.5-3.1,41.3-2.8
	c11.5,0.3,18-3.7,23.2-14.1c11.5-23.3,29.9-38,56.8-40c10.7-0.8,21.4-0.2,30,6.8c8.3,6.7,10.3,2.9,13.3-5
	c12.3-32.2,35.5-44.7,69.5-38.2c20.6,3.9,33.6,19.6,34.6,44.4c0.5,13.2,2.4,16.6,15.9,9.9c29.1-14.3,54-6.3,70.7,21.9
	c4.7,8,10.4,11.3,18.7,10.2C-2105.9-1068.2-2089.7-1056.8-2073.8-1042.7z"/>
<path class="st33" d="M5004.6-629.1l-25.6-23.4v-12.8l-69.6-12.1c0,0-35.8-18.1-51.2-23.4c-15.3-5.3-30.7-18.1-47.1-32.4
	S4711-749.7,4711-749.7l-12.3-5.3l-31.7,6.8l2,20.4l8.2,24.9l-7.2,38.5l-13.3,16.6l-9.2,20.4l3.1,30.9l19.4,34.7l-13.3,24.1
	c0,0-9.2,34.7-21.5,42.2c-12.3,7.5-18.4,9.8-18.4,9.8v21.9v10.6l-8.2,7.5l-19.4-7.5h-9.2l-58.3,55.1l-24.6-2.3l-31.7-9.8h-27.6
	c0,0-7.2-8.3-38.9-14.3s-40.9-9.8-40.9-9.8l-17.4,4.5l-14.3,6l-7.2,1.5l-21.5,14.3l-16.4-3l-11.3,3c0,0-9.2-0.8-17.4,5.3
	s-60.4,12.8-60.4,12.8l-3.1-0.8l-5.1-2.3l-3.1-3.8l-3.1-0.8l-9.2-3h-11.3l-8.2-3l-6.1-2.3l-6.1-2.3l-7.2-1.5l-4.1-3.8l-3.1-1.5
	l-8.2-2.3l-8.2-4.5v2.3l-14.3-5.3v9.8l-8.2,6.8l-5.1-2.3l-4.1-0.8l-3.1-2.3l-4.1-1.5l-8.2-6l-2,5.3l-9.2-3.8c0,0-5.1-5.3-6.1-6.8
	c-1-1.5-17.4-3.8-17.4-3.8l-11.3,13.6l-6.1,3.8l-5.1-1.5l-4.1,5.3v6l-7.2,2.3l-14.3,12.1l-5.1-1.5l-29.7,3l-47.1-7.5l-10.2,9.1
	l-31.3-9.2l-46.3-53.1l-84.1-51.2l0.5,11.5l-71-51.3l-11,0.9l-69.4-37.1h-26.8l-25.2-24.8l-18.9-33.6l-138.9,55.7l-12.6-7.1
	l-37.4,16.9l-77.8,35.2l-28.4,61.9l-18.9-1.8l-55.2,39.8l-72.6,64.5h4.1v539.9h1964.2v-454v-86v-150.1v-89.2L5004.6-629.1z
	 M4235.3-337.2c-3.1,2.3-16.4,2.3-18.4,1.5c-2-1.5-5.1-3.8-3.1-4.5c3.3-0.8,11.9-0.5,21.5,0C4238.3-340.1,4238.4-339.1,4235.3-337.2
	z M4356-332.7c-2,0-16.4,6.8-16.4,6.8s-2,6.8-8.2,5.3c-6.1-1.5-33.8,6.8-34.8,9.1s5.1,0.8,5.1,0.8s30-0.1,25.6,2.3
	c-3.9,2.1-15.4,5.7-16.4,5.3c0,0-1-3-14.3-1.5c-13.3,1.5-18.4-6.8-18.4-6.8s2,3.8-10.2,0.8c0-2.3-3.1-2.3-3.1-4.5
	c4.1-5.3,43-3.8,43-12.8c-15.3-1.5-21.5-5.3-21.5-5.3c0-2.3,3.1-0.8,4.1-0.8c1,0,3.1-1.5,12.3,0.8
	C4316.1-332.7,4358.1-332.7,4356-332.7z M4533-273.8l2,2.3c0,0-3.1,3.8-7.2,3c4.1,3-18.4,8.3-22.5,9.8c-5.1-2.3-4.1-7.5-4.1-7.5
	s-2,6.8-11.3,7.5c-9.2,0.7-21.5-0.8-21.5-0.8s-2-10.6-9.2-9.1c-7.2,1.5-28.6,3.8-28.6,3.8s-14.3-8.3-12.3-10.6
	c2-2.3-7.2-13.6-7.2-13.6l2-4.5c0,0,35.8,1.5,51.2,1.5c2,5.3-11.3,3-11.3,3s-12.5,10.1-6.1,9.1c7.7-1.2,67.5,2.3,85.9,3
	C4541.2-274.6,4533-273.8,4533-273.8z"/>
<path class="st34" d="M4998.5-627l-25.6-23.4v-12.8l-69.6-12.1c0,0-35.8-18.1-51.2-23.4c-15.3-5.3-30.7-18.1-47.1-32.4
	s-100.3-16.6-100.3-16.6l-12.3-5.3l-31.7,6.8l2,20.4l8.2,24.9l-7.2,38.5l-13.3,16.6l-9.2,20.4l3.1,30.9l19.4,34.7l-13.3,24.1
	c0,0-9.2,34.7-21.5,42.2c-12.3,7.5-18.4,9.8-18.4,9.8v21.9v10.6l-8.2,7.5l-19.4-7.5h-9.2l-58.3,55.1l-24.6-2.3l-31.7-9.8h-27.6
	c0,0-7.2-8.3-38.9-14.3c-31.7-6-40.9-9.8-40.9-9.8l-17.4,4.5l-14.3,6l-7.2,1.5l-21.5,14.3l-16.4-3l-11.3,3c0,0-9.2-0.8-17.4,5.3
	s-60.4,12.8-60.4,12.8l-3.1-0.8l-5.1-2.3l-3.1-3.8l-3.1-0.8l-9.2-3h-11.3l-8.2-3l-6.1-2.3l-6.1-2.3l-7.2-1.5l-4.1-3.8l-3.1-1.5
	l-8.2-2.3l-8.2-4.5v2.3l-14.3-5.3v9.8l-8.2,6.8l-5.1-2.3l-4.1-0.8l-3.1-2.3l-4.1-1.5l-8.2-6l-2,5.3l-9.2-3.8c0,0-5.1-5.3-6.1-6.8
	c-1-1.5-17.4-3.8-17.4-3.8l-11.3,13.6l-6.1,3.8l-5.1-1.5l-4.1,5.3v6l-7.2,2.3l-14.3,12.1l-5.1-1.5l-29.7,3l-47.1-7.5l-10.2,9.1
	l-31.3-9.2l-46.3-53.1l-84.1-51.2l0.5,11.5l-71-51.3l-11,0.9l-69.4-37.1h-26.8l-25.2-24.8l-18.9-33.6l-138.9,55.7l-12.6-7.1
	l-37.4,16.9l-77.8,35.2l-28.4,61.9l-18.9-1.8l-55.2,39.8l-68.5,60.2v4.3v539.9H5021v-454v-86v-150.1v-89.2L4998.5-627z
	 M4229.2-335.1c-3.1,2.3-16.4,2.3-18.4,1.5c-2-1.5-5.1-3.8-3.1-4.5c3.3-0.8,11.9-0.5,21.5,0C4232.1-338,4232.2-337.1,4229.2-335.1z
	 M4349.9-330.6c-2,0-16.4,6.8-16.4,6.8s-2,6.8-8.2,5.3c-6.1-1.5-33.8,6.8-34.8,9.1c-1,2.3,5.1,0.8,5.1,0.8s30-0.1,25.6,2.3
	c-3.9,2.1-15.4,5.7-16.4,5.3c0,0-1-3-14.3-1.5c-13.3,1.5-18.4-6.8-18.4-6.8s2,3.8-10.2,0.8c0-2.3-3.1-2.3-3.1-4.5
	c4.1-5.3,43-3.8,43-12.8c-15.3-1.5-21.5-5.3-21.5-5.3c0-2.3,3.1-0.8,4.1-0.8s3.1-1.5,12.3,0.8C4310-330.6,4351.9-330.6,4349.9-330.6
	z M4526.9-271.8l2,2.3c0,0-3.1,3.8-7.2,3c4.1,3-18.4,8.3-22.5,9.8c-5.1-2.3-4.1-7.5-4.1-7.5s-2,6.8-11.3,7.5
	c-9.2,0.7-21.5-0.8-21.5-0.8s-2-10.6-9.2-9.1c-7.2,1.5-28.6,3.8-28.6,3.8s-14.3-8.3-12.3-10.6c2-2.3-7.2-13.6-7.2-13.6l2-4.5
	c0,0,35.8,1.5,51.2,1.5c2,5.3-11.3,3-11.3,3s-12.5,10.1-6.1,9.1c7.7-1.2,67.5,2.3,85.9,3C4535.1-272.5,4526.9-271.8,4526.9-271.8z"
	/>
<g>
	<path class="st35" d="M4325.5-243.2c0,0,0.1,0,0.1,0c0,0,0,0,0,0L4325.5-243.2z"/>
	<path class="st35" d="M5027.1-528.7c-3.8,0.5-6.6,3.6-7.6,8.7c-0.2,1.1-0.2,2.3-1.3,2.9c-1.2,2.1-2.4,2.8-4.5,0.7
		c-3.7-3.7-9.4-3.5-13.5-6.5c-0.6-0.4-1.5-0.6-1.9-1.1c-3-4.5-7.4-5.9-12.5-6.2c-1.4,0.8-3.7-0.6-4.4,1.8c-1.4-3.3-4.2,2.3-5.7-0.9
		c-0.2-0.3-1.2-0.4-1.3,0.6c0,0.4,1,2.1-0.4,0.8c-2.6-2.4-4.5-0.3-6.5,0.5c-3.8,1.6-7.6,3.2-11.1,5.4c-2.8,1.8-6,2.1-9.3,1.6
		c-1.4-0.2-3-0.2-2.4,2.1c0.2,0.8,1.7,1.6-0.1,2.4c-1.2,0.5-2.1,0.4-3.2-0.1c-2.9-1.4-5.4-3.5-9.4-4.4c3,0,4.7-3,3.7-5.1
		c-1.2-2.3-3.2-3.9-5-5.6c-1-1-1.5-2.3-2-3.6c-0.2-1.1,0.2-2.1,1.1-2.6c4-2.2,4.4-5.1,2.2-9.6c-3.2-6.8-5.9-13.8-5.2-21.5
		c0.1-1.6-0.5-3.4-0.8-5.5c-3.4,2.4-4.1,6-5.6,9.1c-3.9,8.4-6.8,17.4-13.3,24.4c-2.4,2.6-2,3.7,1.1,4.6c-3.2,3.1-6.1,6.4-10,8.5
		c-0.7,0.3-1.2,1-1.8,1.4c-0.9,0.7-1.5,1.3-0.9,2.5c0.7,1.1,1.5,1.1,2.6,0.7c1.6-0.6,3.3-1.1,5-1.7c0.3-0.3,0.7-0.6,1.1-0.1
		c0.1,0.1-0.3,0.5-0.5,0.8c-4.7,3.4-9,7.3-14.8,8.8c-0.8,0.2-1.7,0.8-1.6,1.8c0.1,1,1,1.1,1.7,1.3c1.6,0.5,3.3,1.1,5.6,0.8
		c-2.8,2-2.8,5.6-5.8,6.9c1.2,2.5,3.5,2,6.4,1.9c-4.4,2.5-8.5,3.7-12.8,5.2c2.7,0.5,4.2,2.9,6.5,3.7c1.9,0.7,1.6,2.7,0.8,3.9
		c-1.4,2.1-3.6,4.5-6.1,3.9c-4.6-1.1-7,2-10.1,3.9c-1.8,1.1-3,3.1-6,2.1c-1.5-0.5-3.8,1.1-5.1,2.8c-0.8,1-1.5,1.8-2.8,0.8
		c-3.5-2.7-7.8-4.9-7.7-10.3c0-0.4-0.1-0.8-0.3-1.1c-2.6-2.8-1.7-4.5,1.7-5.4c0.3-0.1,0.4-0.6,0.6-0.9c-2,0.6-3.8,0.6-5.1-1.3
		c-0.1-0.1-0.2-0.2-0.2-0.4c-1.1,1.5-2.4,2.7-3.9,3.5c-1.5,0.8-3.1,1.4-4.2,2.8c-0.1,1.5-0.1,2.9-1.1,4.1c-1.2,4.1-4.3,7.9-1.6,12.5
		c0.3,0.5,0,1-0.4,1.3c-0.4,0.3-0.7,0.7-1.1,1c-1.9,1.2-3.7,3.3-5.7,3.5c-2,0.2-2.5-3-4.1-4.4c-2.1-1.8-4.7-3.1-5.2-6.2
		c-0.4-0.6-0.7-1.1-1.1-1.7c-0.2-0.2-0.4-0.4-0.6-0.7c-0.4-0.5-0.9-1-1.3-1.5l-0.2-0.2c-2.1-1.7-2.9-4.7-6-5.2
		c-0.3-0.3-0.6-0.6-0.8-0.9c-1.3-1.7-2.6-3.4-3.9-5c-0.1-1-0.3-2-0.4-3c-3.7-0.1-3.6-2.4-3.5-5.2c0.2-6.7,0-13.4-0.1-20.1
		c-0.1-2.6-0.3-5.2-0.4-7.8c-2.4-10.5-5.2-20.9-4.6-31.8c0-1.4-0.1-2.7-0.1-4.1c-0.4-0.6-0.4-1.3-0.1-2c-0.2-2.3-0.4-4.5-0.6-6.8
		c-0.1-1.2-0.4-2.5-1.9-2.3c-1.2,0.2-1.8,1.2-1.7,2.6c0.3,5.7,0.9,11.4,0.7,17c-0.4,18.5,0.5,36.9,1.3,55.4
		c0.1,3.4,0.4,6.8,0.6,10.2c1.8,11.6,2.4,22.9-4.7,33.3c-2.3,3.4-2.7,8-4.8,11.5c-3.1,5.2-4.9,10.8-6.9,16.3c-0.5,1.5-1.1,4.2-4,2.2
		c-0.6-0.4-1.3-0.2-1.5,0.5c-2.2,7.8-8.7,10.5-15.3,13.4c-5.7,2.6-11.1,6-17.1,8c-1,0.4-2.3,0.9-2.8,1.8c-3.3,5.2-8.9,7.2-13.5,10.7
		c-6.7,5.1-13.9,8.1-21.9,9.9c-2,0.5-3.2,1.8-4.5,3.2c-7.6,8.5-15.9,16.3-24.1,24.4c-1.4-1.5,0.3-3.8-1.6-4.8
		c0.5-11.6,3.9-22.9,4.5-34.6c-3.5,3.8-2.9,9.1-5.2,13.4c1.5-18.1,4.3-36,4.6-54.1c-2.7,3.7-1.9,8.1-3.2,12.1c0.2-2,0.3-4-0.1-5.9
		c-0.1-0.7-0.2-1.6-1.3-1.5c-0.7,0.1-0.8,0.8-1,1.4c-4.4,12.4-4.1,25.5-6,38.2c-0.5,3.1-0.5,6.3-0.7,9.5c-0.1,1.3-0.1,2-1.9,2.8
		c-2.5,1.1-2.5,4.8-2.5,7.4c0.1,8.1-0.7,16-1.5,24c-0.2,2.4,0.3,5-0.6,7.5c-0.3-4.3-0.6-8.7-1-13c-2,3.9-1,8.1-1.1,12.1
		c-0.2,5.4,0,5.4-5.3,5.1c-4.7-0.3-9.4-0.7-14.1-0.8c-2,0-3.2-1.3-4.9-1.8c-4.9-1.5-9.8-0.7-14.7-0.6c-12,0.1-23.9,0.1-35.8-0.7
		c-6.4-0.4-12.8-0.6-19.2-0.6c-5.3,0-8.3,1.7-9.8,8.6c-1.6,7.6-4.5,14.7-6,22.3c-0.9,4.3-1.4,8.4,2.8,11.4c1.6,1.1,2.6,2.7,2.6,4.8
		c0,0.8,0.6,1.7,1.2,2.3c5.2,5,8.8,11.5,14.3,16.2c6.8,5.8,8.8,13,6.2,21.6c-1.5,4.9-2.7,9.8-4.2,14.6c-1,3.3-1,6.3,1,9.1
		c1.7,2.5,1.1,3.9-1.5,5.4c-4.4,2.6-8.3,5.8-12.1,9.3c-3.9,3.6-9.4,4.4-14.1,6.5c-4.9,2.2-10.1,3.5-14.3,7c-0.9,0.7-2.1,1.3-2.1,2.6
		c0.1,5.2-3.6,8.5-6.2,12.3c-2.1,3-4.8,3.3-7.6,1.3c-2.9-2.1-5.7-3.3-9.2-1.7c-0.3,0.2-0.8,0.2-1.1,0.1c-6.5-2.6-11.9,0.8-17.2,3.7
		c-2.9,1.6-5.9,2.3-9.1,2.1c-2.3-0.2-4.2,0.3-5.5,2.6c-0.4,0.7-1.1,1.6-1.9,1.9c-6.2,2.4-7.7,7.9-9.2,13.5c-0.2,0.8-0.5,1.8-1.3,1.1
		c-3-2.5-7.7-3-9.1-7.4c2.6,0.3,4.2,3.1,8,3.3c-6.9-7.5-6-17.5-11-25.4c2.7,1.5,5,3.3,8.1,2c0.4-1.8-2.3-1.8-2.1-3.5
		c2-0.1,2.7-0.7,1.6-2.8c-1.5-2.9-2.8-5.9-4.2-8.9c-0.3-0.5-1-1.4-0.3-1.6c4.7-1,1.3-3.3,0.8-4.9c-1.7-6.1-4.1-12-3.3-18.5
		c0.2-1.6,0.4-3.3-1-4.7c-3.2,2.1-4.4,5.7-5.7,8.7c-2,4.6-5.7,7.7-7.8,11.9c-0.4,0.8-1.8,1.7-1,2.6c1.2,1.2,1.9-0.5,2.7-1
		c0.4-0.2,0.9-0.4,1.3-0.5c-2.6,8.6-8.5,14.7-15.6,19.7c-0.3,0.2-0.7,0.3-1,0.5c-1,0.7-2.8,1.2-2,2.7c0.7,1.3,2-0.2,3-0.4
		c0.7-0.2,1.4-0.5,2-0.8c2.4,4.5-2.4,5.9-3.9,9c3,0.8,4.6-2.6,8.1-1.6c-5.6,4-9.8,9-16.3,10.4c-3,0.6-5.7-0.4-6.1-4.4
		c-0.2-2.1-1-4.2-0.7-6.8c2.3,2.3,5.2,1.9,7.7,2.7c0.8,0.2,1.6,0.1,1.8-0.9c0.2-1-0.1-1.8-1.3-1.8c-3.6,0-5.2-2.7-6.4-5.3
		c-2.3-5.2-4.7-10.5-2.8-16.5c0.2-0.6,0.3-1.4,0.1-1.9c-0.8-1.8,0-4.9-2.4-5.2c-2.8-0.3-2.4,2.8-2.8,4.6c-1.9,8.2-6.1,15-11.9,20.9
		c-2.1,2.1-2.4,3.8,0.9,4.8c-0.4,1.6-1.5,2.8-3,2c-3.1-1.5-6.8-1.3-9.7-4c3.6-1.2,4.2-4.1,4-7.2c-0.1-1.5-0.9-2.7-2.5-2.9
		c-1.4-0.2-2.7,0.6-2.9,1.9c-0.6,3.2-2.8,2-4.4,1.6c-3.2-0.8-1.3-3.6-1.6-5.5c-0.4-2.2,1.6-1.6,3-1.5c3,0.2,6,0.3,8.8-0.9
		c0.2-1.1-0.6-1.4-1.1-1.4c-6-0.5-11-3.6-16.3-6.1c-4.9-2.3-7.7-6.7-10.9-10.7c-0.6-0.8-1-1.9,0-2.8c0.9-0.9,1.7-0.4,2.7-0.1
		c3.9,1.2,6.5,5,10.9,5.2c0.8,0,1.5,0.4,2.3,0.3c1.1,0,2.6,0.4,2.9-1.1c0.2-1.3-0.8-2-2.1-2.2c-1.5-0.3-2.8-1.2-4-2.6
		c2.7-1.9,6.7-0.3,9-3.8c-11,0-17.1-5.5-18.4-16.2c2,1.9,3.9,3.9,6.6,4.7c1.7,0.6,4,1.5,3.1-2.1c-0.4-1.5,1-1.2,1.7-1.2
		c2.9,0,5.4-1.1,8.8-2.7c-4.6-1.6-8.7-1.4-12.3-3.3c-4.2-2.2-4.8-5.7-5.2-9.8c2.5-0.1,3,2.3,4.5,3.3c1.2,0.7,2.1,1.8,3.7,1.8
		c1.1,0,1.8-0.5,1.2-1.7c-0.4-0.8-0.9-1.6-1.4-2.2c-3.7-4.3-5.4-9.6-7.2-14.8c-1-2.8-0.4-5.6,0.3-8.3c0.7-2.7,0.1-4.9-1.3-7.5
		c-2.2,2.1-3.6,4.4-5.1,6.7c-1.6,2.5-4,4.6-7.1,5.4c-0.9,0.2-2.1,0.3-1.9,1.4c0.3,1.6,1.5,0.7,2.5,0.6c2.8-0.3,5.2-1.9,8.5-2.7
		c-1.9,5.3-6,7.6-10.2,9.8c1,0.9,1.9,1.4,2.9,1.3c1.2-0.2,2.6-1.5,3.3,0c0.6,1.2-0.9,2.2-1.6,3.2c-0.4,0.6-1,1.2-1.5,1.7
		c-0.8,0.6-2.1,0.9-1.8,2.1c0.3,1.1,1.4,0.8,2.2,0.6c0.8-0.1,1,0.4,1.1,1.1c0.4,4.9-2.6,8-7.6,7.5c-1.1-0.1-2.2-0.3-2.5,0.9
		c-0.2,1.2,1.2,1.1,1.9,1.5c1.4,0.7,3.4-0.1,4.9,2c-3.8,1.3-7.3,2.6-11.2,0.8c-0.5,0-1,0.1-1.4,0.1c-0.3-0.1-0.5-0.1-0.8-0.2
		c-1.5-0.4-2.1-2.3-3.8-2.3c-0.6,1.4-0.2,2.6,0.7,3.7c1.4,2,4.1,1.5,6.2,2.8c-1.9,1.6-3.8,1.8-5.9,1.3c-1.2-0.2-3.3-0.9-3.7,0.7
		c-0.4,1.6,1.7,1.8,3,2.1c0.7,0.2,1.4,0.5,2.2,0.8c-1.6,1.7-4,0.6-5.4,2.6c5.2,1.9,10,0.8,14.8-1c1.4-0.5,3.1-2.4,4.4-0.7
		c1.2,1.7,0.5,3.8-0.8,5.6c-2.3,3.3-5.9,4.8-9.3,6.3c-5.4,2.2-11.1,3.7-16.9,0.7c-0.6-0.3-1.1-0.6-1.8,0c1.7,4.5,6.4,3.5,10.6,5.1
		c-2.8,0.5-4.7,1.1-6.7,0.5c-1-0.3-2.2-0.3-2.6,0.9c-0.5,1.4,0.7,2.3,1.8,2.5c4.9,1,9.6,4.3,14.8,1.3c0.7-0.4,1.8-0.9,2.5-0.1
		c0.9,1-0.3,1.8-0.8,2.6c-2.1,2.8-5.3,3.8-8.3,5c-1.3,0.5-2.7,0.8-4,1.1c2.5,4,5,3.8,16.8-1.6c-2.5,8.4-4.7,8.9-9.8,11.7
		c-4.7,2.6-9.9,4.1-15.6,2.9c2.6,2.9,6,3.3,10.4,3.2c-3,2.4-6,2.6-8.9,4c4.5,3.4,8.9,0.7,13.7,0.3c-2,2.6-4.4,3.3-6.8,4.1
		c-0.6,0.2-1.3,0.2-1.9,0.2c-2.8,0.4-5.2,1.4-8.1-1c-3-2.5-4.2-1.5-5,2.3c-0.2,0.9-0.3,1.5,0.8,1.7c4.5,0.4,8.3,3.7,13,3.2l-0.1-0.1
		c1.8-0.1,3.4-1.5,5.6-1.1c-0.7,2.3-3.6,2-4.3,4.4c3.4,1.4,6.8-1,10.1-0.2c-5.3,3.8-10.5,6.6-17.5,4.1c-2.8-1-6.3,2.1-9.9,0.5
		c2.2,2,4.1,3.7,4.7,6.5c0.2,1,0.7,1,1.8,1c4.1,0,8.1-1.3,12.5,0.7c2.6,1.2,5.8-2.4,8.6-3.9c1.8-0.9,3.3-2.3,5.6-3.9
		c-0.8,3.9-1.9,6.4-5.1,7.6c-7.1,2.6-13.7,6.6-21.7,6.1c-3.3-0.2-4.7,2.5-3.4,5.7c0.3,0.7,0.3,1.2-0.3,1.6c-1.8,1.1-2.2,3-3.3,5
		c-3.1-2.6-5-5.9-7.2-10.4c2.8,2.3,4.5,4.8,7.6,3.2c0.2-0.2,0.3-0.3,0.5-0.5c-0.6-2.2-1.5-3.8-3.8-5.2c-2.3-1.4-2.5-5-2.9-7.8
		c-0.7-4.8-0.5-9.6,0.8-14.4c0.2-0.9,1.1-2.2-0.4-2.6c-1.4-0.4-2.9-0.2-3.3,1.6c-1.2,5.2-5.7,8.7-6.9,14.1c-0.8,3.5-4.1,6-7.6,8.1
		c2.7-4.1-0.2-4.6-2.7-5.3c-5-1.4-6.9-4.7-5.4-9.6c0.6-1.9,0.3-3.1-1.6-4c-1.9-0.8-3.7-1.8-6.3-3.1c2.4-0.4,4.6,1,5.6-0.7
		c0.9-1.4-1.8-1.4-1.9-3c0.9-0.3,1.8-0.6,2.7-0.9c1.6-0.5,1.4-1.4,0.4-2.2c-1.9-1.6-3.9-3.2-5.9-4.7c-2.5-1.9-4.5-4.4-6.1-7.1
		c-0.6-1-1.8-2.1-0.6-3.4c1.2-1.3,2.3-0.2,3.5,0.2c1.9,0.6,3.8,1.3,5.8,1.8c1,0.3,2.1,0.1,2.7-1c0.6-1.2-0.8-1.4-1.3-1.9
		c-2.1-1.8-4.3-3.5-6.5-5.3c-0.7-0.6-1.5-1.2-0.9-2.2c0.6-1,1.5-0.7,2.3-0.3c3,1.1,6,1.7,9.9,0c-4.5-1.6-7.9-3.5-11.1-5.9
		c-1.1-0.8-2.8-1.5-2.5-3c0.4-1.7,2-1.4,3.5-1.2c1.6,0.2,2.9-5.1,1.6-7c-0.5-0.7-1.3-1.2-2.2-2c2.7-0.9,4.8,1.3,7.3,0.1
		c-2.4-2.6-3.9-5.9-7.3-7.4c-1-0.4-1-1.3-1.1-2.2c-0.2-0.4-0.3-0.9-0.6-1.3c-2.6-3.7,0-5.3,2.8-6.9c0.8-0.1,1.6-0.1,2.4-0.2
		c-3.3-2.2-3.6-6.2-5.6-9.3c-1.7-2.5-4.3-4.4-5.2-7.4c-0.1-0.3-0.3-0.6-0.4-0.9c0.3,0,0.6,0,0.9-0.1c2.3,0.1,3.2,2.8,5.5,3
		c1.3,0.1,2.6,0.7,2.4-1.5c-5.5-0.7-7.1-5.4-9-9.5c-1.1-2.4-1.3-5.1-2-7.7c-0.3-1-0.1-2.6-1.7-2.6c-1.4,0-2.7,0.7-3.1,2.3
		c-1.2,5.4-5.3,9.1-7.8,13.7c-0.3,0.6-1.1,0.9-1.7,1.4c1.7,2.3,3.4-0.2,5.4,0c-1.1,4.3-2.8,8-6.8,10.2c-2.8,1.6-5,3.7-6.5,6.6
		c0.2-0.1,0.4-0.1,0.5,0.1c1.9-0.8,3.8-1.5,5.8-2.3c0.7,3.7-1.2,5.9-4.2,7.4c-0.5,0.7-0.6,1.4,0.2,2.1c1.1-0.3,2.1-0.6,3.2-1
		c0.4-0.6,1.1-1.5,1.6-1c0.9,1-0.3,1.3-1,1.7c-1.1,1.2-2.2,2.4-3.3,3.6c0,0.4,0.1,0.7,0.1,1.1c0.1,1,2.3-0.1,1.5,1.6
		c-2.1,2.5-5.8,3-7.9,5.6c1.1,1.4,2.9,0.2,4,1.5c-1.7,2-4.8,2.3-6.2,4.5c0.2,2.2,3.6-0.3,3.4,2.4c-0.2,1.9-2.2,2.2-3.6,3.1
		c1.7,1.7,3.4,0,5.2,0.6c-1,2.4-4,3.1-4.8,5.5l0.1,0.1c3.9,0.4,6.7-2.2,9.8-3.8c0.3,1.6-0.4,2.8-1.7,3.8c-4,3.3-7.9,6.7-11.8,10.7
		c4.6-3.4,5.5,3.6,9.3,2.6c-3.3,4.1-7.7,6.1-13.2,6.8c1.6,2.1,3.5,0.8,5.1,1.7c-1,1.4-2.7,1.7-4.1,2.4c-0.9,0.5-2.1,0.7-1.5,2.1
		c0.5,1.2,1.5,1,2.6,0.6c3-1.1,6.1-2.1,9.4-2.7c-3.3,2-5.9,5-9.1,6.8c-2.5,1.4-4,2.8-4.1,5.6c-2.5,1.1-0.9,2.7-0.3,4.1
		c0.6,1.5,1.8,1,2.9,0.6c0.7-0.3,1.5-0.7,2.2-0.7c1.1,0,2.6-1.6,3.2,0.3c0.7,2-1.1,2.7-2.6,3c-2.1,0.5-4.3,0.7-6.4,1.1
		c-1.4,0.3-3.3,0.1-3.9,1.9c-0.6,1.9,2,1.6,2.6,3.1c-1.3,0.9-2.7,1.7-4,2.8c-0.6,0.5-1.3,1.4-0.7,2.3c0.5,0.7,1.4,0.4,2.1,0.2
		c1.9-0.5,3.9-1.1,5.9-1.6c-1.7,8.8-35.5,18.4-47.1,13.5c0.7-1.7,2.4-1.7,3.6-2.3c2.2-1,3-2,0.6-3.6c-2.9-2-4.5-5.1-7.1-7.5
		c-0.6-0.6-1-1.5-1.3-2.3c-0.6-1.4-0.1-2.9,0.7-4c1-1.3,2.3-0.3,3.4,0.1c7.5,3,14.4,2.9,20.9-0.2c-7.7-1.6-15.8-2.1-22.4-8.3
		c10.1,3.2,19.8,4.8,29.5,0.3c-8.9,0-17.8,0.7-25.4-5.3c-7.4-5.8-11.9-12.9-11.2-22.9c11.5,7.8,24,6.6,36.6,4.2
		c-5.4-1.6-10.6-3.8-16.4-4c-2.7-0.1-5.9,1-8.2-1.5c4.3-0.7,8.9-0.3,12.7-3.8c-2.7-1.4-5.5-0.7-8.1-1.1c-5.3-0.7-10.2-2-14.6-5.6
		c-4.6-3.8-3.3-9-4.3-13.6c-0.2-0.9,0.7-1.3,1.5-0.7c1.2,0.7,2.3,1.6,3.4,2.4c2.6,1.8,5.3,3.5,9.1,2.4c-1.9-2.5-5.6-2.5-6.6-6.3
		c4.6,3.2,9.1,2.5,14.8,1c-6.6-2.1-11.4-5.4-16.7-7.8c-4.5-2.1-7-4.9-5.8-10.3c1.6,1,3.2,2.3,5.3,2.5c1,0.1,1.8-0.2,2.4-0.9
		c0.8-1.1-0.3-1.5-0.9-2.1c-3.6-3.7-6.7-7.7-7-13.1c-0.1-1-0.4-2.1-1.6-2.3c-1.2-0.2-1.7,0.9-2.3,1.7c-1.9,2.2-2.1,5.3-4,7.7
		c-2.8,3.4-6.7,5.4-9.5,8.7c-0.8,0.9-2.6,1.4-1.4,3c1.1,1.5,2.7,1.1,4.1,0.2c2.9-1.9,5.7-3.9,8.6-5.9c-3.3,9.7-8.1,18.4-17.1,24.2
		c-0.9,0.6-1.5,1.3-2.7,1.1c-1.3-0.2-2.4,0.3-2.1,1.8c0.3,1.5,1.4,1.4,2.7,1.4c2.5-0.1,4.2-1.6,6.2-2.7c0.7-0.4,1.2-1.3,2.2-1
		c0.7,1.4-2.1,2.1-0.8,3.2c1.4,1.1,2.5-0.6,3.6-1.3c2.1-1.5,4.2-3.2,6.3-4.9c2.4,8.2-9.2,24.6-21.4,30.6c0.2,0.2,0.4,0.4,0.5,0.6
		c4.2-0.1,8.1-1.3,11.8-3.4c-1.9,3.3-5.8,3.8-8.4,5.9c-1.5,1.2-3.6,1.7-4.8,3.5c1.7,1.3,3.1-0.1,4.9,0c-2.6,2-5.1,3.8-7.4,5.8
		c-0.7,0.6-1.9,1.3-1.4,2.4c0.6,1.4,2.1,0.8,3,0.5c5.5-2,10.5-5.2,14.8-9.1c2.8-2.5,5.9-4.9,7.7-8.4c0.3-0.7,0.9-1.4,1.8-1.1
		c1,0.3,0.5,1.3,0.5,2c0.2,5.4,0.5,10.8,0.6,16.2c0.1,3.9-3.1,5.6-5.6,7.6c-5.5,4.6-12.1,6.7-18.8,8.8c-1.8,0.5-5,0.6-4.6,2.9
		c0.4,2.4,3.2,0.8,5,0.6c3-0.3,6-0.7,9-1c-0.5,1.2-3.1,1.3-2,2.9c0.8,1.3,2.6,0.4,3.9,0.1c5.8-1.6,9.6-6,14-10.1
		c1.4,3.3,0,6.4,0.2,9.4c0.1,1.7-0.3,3.5,0,5.3c1.1,6.6-2.1,12-8.3,15.1c-6.7,3.3-13.6,4.5-20.9,4.2c0,0,4.4-13.3,0-17.3
		c-4.4-4-4.3-0.4-6.1-2.8c-2.5-3.3-5.7-5.6-9.1-7.6c-3.6-2.1-7.1-4.1-10-7.5c-2.7-3.1-6.7-2.2-10.1-2.8c-3.9-0.6-6.8-1.6-8.3-6.4
		c-1.4-4.6-5.7-6.6-8.9-9.6c-1.8-1.7-2.4-3.2-1.4-5.4c4.4-10.1,4.3-21.6,7.8-32c1.1-3.3-7.8-16.9-10.9-17.1c-17-1.2-34-1.3-50.6,3.8
		c-4.2,1.3-8.5,1.7-12.7,2.5c-2.4,0.5-3.8-0.8-4.7-2.6c-1-2.1,0.5-3.3,2.1-4.2c0.7-0.4,1.5-0.8,1.1-1.8c-0.5-1.4-1.5-2.2-2.8-2.6
		c-2.4-0.7-4.6-1.6-5.5-5.2c2.3,0.6,4.4,1.7,6.6,1c0.7-0.2,1.6-0.4,1.7-1.4c0.1-1.1-0.8-1.3-1.5-1.5c-2.5-0.5-4.1-2.5-6-4.4
		c3.3-1.1,3.4-3,1.4-5.4c-0.6-0.8-1.2-1.7-1.8-2.5c0,0-0.1,0-0.1,0c0,0,0-0.1,0-0.1c-0.2-0.1-0.4-0.2-0.5-0.3
		c-0.2-0.3-0.1-0.5,0.2-0.2c0.2,0.1,0.2,0.4,0.3,0.6c0,0,0.1,0,0.1,0c0,0,0,0.1,0.1,0.1c0.7,0.2,1.4,0.4,2.1,0.6
		c0.8,0.2,1.6,0.5,2-0.5c0.4-0.9-0.3-1.6-0.8-2.1c-1.9-1.8-3.7-3.7-5-6.2c-2.9-5.7-4-11.8-3.5-18.3c0.1-1.3,0.1-2.5,0-3.8
		c-0.1-1.1,0-2.5-1.4-2.6c-1.2-0.1-1.6,1.1-1.9,2.2c-2.1,7.1-4.2,14.2-6.3,21.2c-1.4,4.5-2.9,9-6.6,12c-0.8,0.6-2,1.4-0.9,2.6
		c0.9,1.1,1.9,0,2.6-0.7c0.9-0.8,1.7-1.6,3.4-3.2c-1.4,4.2-3.1,6.8-4.9,9.4c-0.9,1.3-1.8,2.9-0.5,4.2c1.3,1.2,2.2-0.6,3.1-1.4
		c1.9-1.6,3.2-3.9,4.8-6c-1.1,4.9-2.8,9.4-6.4,12.7c-1.5,1.4-2.5,3.2-3.6,4.9c-0.4,0.6-0.6,1.4,0,1.9c0.7,0.7,1.2,0,1.5-0.5
		c1-1.4,2.3-2.1,4.2-2.2c-0.1,2.4-3.7,4.3-0.8,7.1c0.3,0.3-0.5,2.6-1.8,2.8c-3,0.4-4.8,2.8-6.1,5.2c-3.1,5.5-8.5,5.6-13.2,7.4
		c-0.3,0.1-0.9,0.2-1.1,0.1c-1.4-1.8-2.5-3.5-4.9-4.2c-2.7-0.8-1.9-4.1-1.7-6.6c0.3-2.4-0.6-4-2.5-4.8c0.5-1.5,1.8-1.4,2.5-2.3
		c0.8-1,1.6-2,1-3.4c-0.6-1.4-1.7-0.8-2.7-0.3c-1.7,0.8-2.9-0.2-4-1.5c-1.3-1.7,0.6-1.7,1.1-2.4c0.6-1,0.2-1.5-0.5-2
		c-1.1-0.7-2.1-1.4-3-2.9c1.2,0.4,2.4,0.7,3.6,1.1c0.6,0.2,1.3,0.1,1.6-0.6c0.4-0.8-0.1-1.5-0.7-1.7c-4.7-2-5.8-8.1-10.1-10.6
		c-3-1.8-1.8-4.5-0.2-6.3c1.9-2.2,1.1-3.2-0.5-4.7c-1.5-1.3-3-2.8-4-4.5c-1-1.7-3.2-3.6,0.4-5.6c1.2-0.7,2.2-5,0.7-7.3
		c-3.7-5.8-4.8-12.3-5.6-19c-0.2-1.7-0.3-4-2.3-4.4c-2.2-0.5-2.3,2-3.2,3.4c-3.1,4.9-6.4,9.8-9.6,14.7c-0.5,0.8-2.1,1.4-1,2.7
		c1,1.1,2.1,0.1,3-0.8c0.7-0.7,1.5-1.4,2.2-2.1c0,0,0-0.1,0.1-0.1c0.1-0.2,0.1-0.3,0.2-0.5c-0.1,0.2-0.1,0.4-0.2,0.5
		c0,0-0.1,0.1-0.1,0.1c-1.8,4.8-3,9.8-5.4,14.3c-1.5,2.7-2.9,3-4.8,1.1c-5.4-5.4-8.9-11.5-9.6-20c-0.7-8.9,1.5-17.6-1-27.3
		c5.4,2.3,8.1,8.8,14.3,7c-1.4-2.9-5.1-3-5.9-7.2c4.6,3.3,9.1,3.6,13.9,1.7c-5.2-2.3-9.7-5.8-14.5-8.9c-1.3-0.8-2.7-1.6-3.9-2.6
		c-1.2-1-2.6-1.9-2.6-3.9c2,0,2.4-3.2,4.8-2.8c2,0.3,4.3,0.3,2.2-3.3c-1.4-2.4,0.5-2,1.7-2.2c2.3-0.4,5,1.3,6.6-2.3
		c0.4-0.9,3.2-0.1,2.3-2.6c-1.2-3.3-0.8-8.3-5.2-8.9c-3-0.4-5-2.5-7.8-3.2c-1.7-0.4-1.7-2.1-1.8-3.8c0-0.9,0.8-2.9-0.8-2.6
		c-1.9,0.3-5.3-1-5.4,2.4c-0.2,11.1-7.7,14.3-14.9,18c-1.5,0.8-4.3,1.2-3.7,3.4c0.6,2.2,3.2,0.6,4.7,0.3c2-0.5,3.9-1.9,6.1-2.5
		c-2.5,1.6-4.6,3.8-6.7,5.9c-0.9,0.8-2.2,1.4-1.3,3c0.8,1.4,2.2,1.6,3.4,0.8c3-2,6.5-3.3,9.2-6.1c-2.4,7.5-5.8,14.3-10.9,19.8
		c-3,3.2-6,6.6-10.5,7c-0.9,0.1-1.3,0.8-1.2,1.8c0.1,0.9,0.7,1.5,1.5,1.7c1.8,0.4,3.5-0.2,5.1-1.2c1.3-0.8,2.6-1.7,3.8-2.5
		c1,1.4-1.4,2.5,0.1,3.5c1,0.7,1.9-0.3,2.8-0.9c2.3-1.7,4.6-3.4,7.2-5.4c0.5,3.4,0.8,6.1-1.2,8.9c-3.8,5.5-5.5,12.3-8.4,18.4
		c-1.2,2.5,1.2,0.8,2.2,1.2c-4,3.2-7.6,6.2-11.3,9.2c-0.9,0.7-1.4,1.2,0.3,1.7c1.5,0.5-0.1,1.2-0.3,1.5c-1.8,2.6-3.8,5.1-5.4,7.9
		c9.7-4,17.5-10.6,24-20.7c0.7,8.7,0.5,16.2-0.1,23.7c-0.2,2.9-2.7,4.4-4.5,6c-5.6,5.1-12.4,7.4-19.4,9.3c-0.2,0.1-0.5,0.1-0.8,0.1
		c-2.2,0.3-4.8,3-6.4,1.5c-1.7-1.6-2.1-4.9-3.1-7.5c-0.2-0.7-0.4-1.3-0.7-2c-0.3-0.9-0.5-2.2-1.5-2.3c-1.4-0.1-1.4,1.5-1.6,2.4
		c-1.3,4.6-3.4,8.8-4.2,13.5c-0.1,0.6-0.6,1.7-0.9,1.7c-4.4-0.3-3.1,3.5-3.7,6c-0.2,1,0.7,3-1.4,2.5c-1.6-0.4-1.4-1.2-0.4-2.6
		c1-1.5-0.8-1.7-1.6-2.1c-1.8-0.9-4.1-0.6-5.2-3.3c1.7-0.5,2.3,1.2,3.4,1.6c1.3,0.5,2.8,1.8,3.8,0.1c0.9-1.5-0.6-2.5-1.5-3.5
		c-0.6-0.7-1.5-1.1-2-1.9c-0.7-1.2-1.8-2.9-0.2-4.1c2.3-1.8,1.3-3.1-0.2-4.7c-3-3.1-4.8-7-6.3-11.3c2-0.4,3.4,2.6,4.5,0.9
		c1.1-1.7-0.9-3.2-1.9-4.5c-2.6-3.7-4.5-7.7-5.6-12.4c1.3,1.7,2.6,3.5,3.9,5.1c1.1,1.3,2.4,2.3,4,0.8c1.4-1.4,0.8-2.8,0-4.2
		c-2.3-3.9-4.6-7.7-6.9-11.7c-0.5-0.9-1.5-2.1-0.4-3c0.8-0.7,1.6,0.4,2.3,1c1,0.8,2.1,1.5,3.1,0.5c1.2-1.2,0.2-2.6-0.3-3.8
		c-1-2.4-3.2-3.9-4-7c1.2,0.4,2,0.8,2.8,1c0.6,0.2,1.3,0.1,1.7-0.6c0.4-0.7,0-1.4-0.5-1.9c-5.5-4.9-6.7-11.9-7.6-19
		c-0.2-1.2,0-3.4-1.6-3.4c-1.7,0-1.3,2.1-1.5,3.4c-0.5,3.4-1.8,6.5-3.5,9.2c-4,6.5-7.4,13.5-12.3,19.3c-0.3,0.3-0.3,1-0.6,1.9
		c4.9-1,6.8-5.9,10.5-7.9c0,0,0-0.1,0-0.1c0-0.1,0.1-0.2,0.1-0.2c0-0.1,0.1-0.2,0.1-0.3c0,0.1,0,0.2,0,0.2c0,0,0,0,0,0.1
		c0,0.1-0.1,0.2-0.1,0.3c0,0-0.1,0-0.1,0.1c-3,6.7-3.6,14.6-8.4,20.4c-1,1.3-3.2,2.9-1.7,5c1.6,2.2,3-0.6,5-1.1
		c-2.3,4.5-5.2,7.9-8.1,11.3c-1.7,1.9-1.7,3.8,0.3,4.8c2.8,1.4,1,2.6,0.1,3.6c-1.9,2.3-4,4.3-6,6.5c-1.2,1.3-2.5,2.7-1.9,4.7
		c0.6,1.9,2.3,1.8,3.8,2.1c0,0,0,0,0,0c0,0,0,0,0,0c0,0,0,0-0.1,0c-0.4,0.8-0.9,1.6-1.7,1.4c-4.3-1-4.7,2-4.6,5.4
		c0.2,5.7-0.4,11.2-2,16.7c-0.5,1.6-0.8,3-2.9,2.8c0-7.6,0.1-15.3-0.1-22.9c-0.1-2.2-2.4-3.2-3.7-4.6c-0.5-0.6-1.3-1.3-0.7-2.1
		c0.3-0.4,1.1-0.5,1.7-0.5c0.5-0.1,1,0.1,1.5,0.2c1.6,0.3,3.7,1.2,4.4-0.9c0.8-2.2-1.4-2.9-2.8-3.9c-0.7-0.5-1.4-0.7-0.9-1.9
		c1.3-3.3-0.3-5.6-2.2-7.8c-1-1.2-1.9-2.6-2.8-4c-1.2-1.8-1.4-3,1.2-3c1,0,2.1-0.5,2.2-1.9c0.1-1.3-0.9-1.4-1.6-2
		c-5.4-3.7-8.4-9.2-9.1-15.9c-0.4-4.2-3.1-7.6-3.1-11.9c0-0.7-0.8-1.4-1.7-1.4c-1.1,0-1.6,1-1.6,2c-0.3,10.6-5.7,19.1-9.1,28.4
		c-0.5,1.4-1.1,2.7-0.3,4.4c1.1,2.5-1.6,3.5-2.2,5.3c-0.6,1.7-3.7,2.7-1.5,5.2c2.1,2.3,3.7,0.3,5.2-1.2c0.8-0.7,1.5-1.4,3-2.7
		c-1.6,5.1-4.8,7.9-7.1,11.3c-1.6,2.3-2.6,4.3-1.3,7.2c1.2,2.7-1.4,3.8-2.4,5.5c-0.6,1.1-2,1.6-3.6,2.9c3.1,0.3,3.5,5.1,7.1,3
		c-0.3,2.2-1.6,3.1-2.7,4.2c-1.1,1.2-2.2,2.3-2.2,4.2c-0.1,2.6-0.7,4.5-3.6,3.9c-0.4-0.1-1.2,0.3-1.2,0.7c-1.4,5.4-3.2,1.2-4.1-0.1
		c-1.8-2.3-3.1-5.1-4.5-7.7c0,0,0,0,0,0l0,0c0,0,0,0,0,0c4-2-0.5-4,0-6c1.1-0.6,1.9,0.3,2.8,0.6c1.1,0.4,2.2,1,3.1-0.3
		c0.6-1,0.2-2.2-0.4-3.1c-1.2-2-3.3-3.4-1.4-6.6c0.6-1-0.9-4.1-2.6-5.6c-1.2-1.2-2.5-2.3-3-4.2c0,0,0,0,0,0l0,0c0,0,0,0,0,0
		c1.3,0.1,2.6,0.3,3-1.6c0.3-1.4-0.2-2.5-1.1-3.4c-1.8-1.6-3.4-3.5-3.9-6.1c-0.3-1.8-0.2-3.3,2.1-2.1c1.3,0.6,2.8,1.3,3.6-0.7
		c0.7-1.9-0.7-2.9-1.9-3.6c-3.3-2.1-3.8-5.7-4.6-9.4c0.7-0.1,1-0.1,1.4-0.1c1.2,0.1,2.2,2.3,3.3,0.8c1-1.4-0.7-2.4-1.4-3.5
		c-2-3.2-3.5-6.5-2.9-10.6c0.1-1,0.3-2.1-0.8-2.5c-1.2-0.5-1.6,0.6-1.9,1.5c-1.2,3.8-3.9,6.6-6.1,9.6c-1.5,2.1-3,3.8-3.1,6.9
		c-0.2,3-3.3,3.9-5.4,5.5c-1.4,1-4.2,1.1-3.5,3.6c0.7,2.2,3.2,1.8,5.1,1.4c1.2-0.2,2.4-0.5,2.9,1c0.5,1.3-0.4,2.2-1.2,2.8
		c-3.1,2.6-6.4,5.1-9.5,7.7c-0.8,0.7-2.7,0.4-2.2,2.2c0.4,1.5,1.3,3.2,3.1,3.2c1.1,0,2.2-0.1,3.4-0.2c-0.2,1.2-1.1,1.2-1.7,1.5
		c-4.5,1.8-5.2,3.2-3.8,8.2c0.5,1.7-2.9,6.6-4.4,6.4c-0.3-0.1-0.9-0.4-0.9-0.7c-0.4-4.3-5.1-6.7-3.8-12c0.9-3.8,1.5-8,1-12.6
		c-1.5,1.7-1.4,3.6-2,5.5c-3.3-3.3-4.7-7.6-6.7-12c1.6-0.5,4.7,2.2,4.1-2.3c-0.1-1.1,0.9-0.4,1.4-0.2c1.2,0.6,2.3,0.8,2.9-0.7
		c0.6-1.5-0.6-2.3-1.5-3c-2.6-2-4.9-4.4-7.2-7.9c3,0.8,4.9,2.7,7.4,2.2c1.1-0.2,2.5,0,2.9-1.5c0.3-1.7-1.2-1.8-2.1-2.4
		c-4.3-3.1-10.1-4.5-11.2-11.4c0,0,0,0,0,0l0,0c0,0,0,0,0,0.1c0.4,0.1,0.7,0.2,1.1,0.3c1.9,0.6,3.9,2.6,5.5,0
		c1.7-2.8-0.4-4.8-2.1-6.4c-3.1-3-5.7-6.3-7.9-11.5c2.7,1.8,4,4.3,6.3,4.9c1.3,0.3,2.7,0.8,3.6-0.4c1.1-1.6-0.6-2.5-1.4-3.3
		c-2.1-2.2-4.4-4.2-6.6-6.3c0.4-0.4,0.7-0.9,1.1-1.3c1.8,1.9,3.6,3.9,5.5,5.8c1.2,1.2,2.8,3.1,4.3,1.7c1.7-1.6-0.1-3.4-1.1-4.7
		c-2.4-3.4-5.1-6.7-7.6-10c-1.3-1.8-2-3.9-1.8-6.9c2.1,2.7,3.6,5.3,5.9,7c1,0.8,2.2,1.4,3.4,1.8c1.1,0.3,2.4,0.5,3-1
		c0.6-1.5-0.4-2.4-1.3-3.1c-3.5-2.5-6.5-5.3-8-10.5c2.1,2.1,3.7,3.7,5.4,5.3c0.9,0.9,2.1,1.5,3.1,0.3c1.1-1.2,0.3-2.3-0.5-3.3
		c-3.3-4.1-6-8.6-7.7-14.1c1.5,0.4,1.8,1.8,2.5,2.7c1.1,1.2,2.2,3.9,3.8,2.5c2-1.6-0.2-3.7-1.2-5c-2.1-2.9-3.6-6-4.3-9.7
		c-0.8-4.1-0.5-8.1,0.6-12.1c0.3-1.1,0.8-2.2-0.3-3c-1.2-0.8-1.8,0.7-2.6,1.2c-1,0.7-1.6,1.9-1.8,3.1c-1.3,8.1-7.2,12.7-11.5,18.5
		c-1.2,1.6-2.5,0.7-3.8-0.1c-5.1-3.5-10.1-7-15.1-10.6c-1.3-0.9-2.7-2-2.6-3.9c0.2-4-2.2-5.8-5-7.1c-4-1.9-7.9-3.8-11.3-6.9
		c-0.6-0.5-1.5-1.3-2-1.2c-6.9,3.1-12.3-4.5-19-3.4c-3.7,0.6-7.5-0.8-11.3-1.1c-5.3-0.3-9.7-4.1-15.1-4c-2.5,0.1-3.9-4-2.8-6.6
		c1.2-2.7-0.5-4.7-1.2-6.8c-1.2-3.7-1.7-7.2-0.7-11c0.7-2.3-1-2.5-2.3-2.8c-3.9-0.9-7.9-1.6-11.9-2.6c-4.3-1-11.4-10.3-11.2-14.4
		c0.1-2.1,0.6-3.1,2.4-1.3c0.7,0.7,1.2,1.5,2.3,1.3c1.6-0.2,3.8,0.5,4.6-1c0.8-1.5-1.3-2.7-2.2-4c-5.4-7.7-9.7-15.9-10.7-25.9
		c-0.1-1-0.1-2-0.4-2.9c-0.4-1.3-1.4-1.5-2.5-1.4c-1.3,0.1-1,1.2-1,2.2c-0.2,5.9,0.5,11.7-0.1,17.7c-0.6,6.5-3.6,10.8-7.4,15
		c-1.4,1.5-2.7,3-3.8,4.7c-0.9,1.3-2.1,3.1-0.9,4.6c1.4,1.7,3.4,0.5,4.4-0.8c1.7-2.1,4.5-2.6,5.6-5.4c0.4-0.9,1.8-1.4,3.1-2.2
		c0.5,4.2-2.5,6.5-4.2,8.9c-5,7.1-9.3,15.1-17.1,19.3c-0.9,0.5-1.6,1.4-2.2,2.3c-0.7,0.9-1,2.1-0.4,3.1c0.5,1,1.5,0.6,2.4,0.5
		c4.8-0.2,8.2-3.3,11.7-6.4c1.3-1.1,2.1-2.8,4.9-4c-2.3,3.3-3.9,5.8-5.6,8.2c-0.7,0.9-2.2,1.4-1.2,3c1,1.4,2.5,1.7,3.8,0.7
		c1.9-1.6,3.7-3.5,5.5-5.2c1.6-1.5,2.8-2.6,3.5,1c2,10.2-0.5,12.8-9.4,18.4c-3.1,1.9-6.9,2.1-9.6,4.8c-0.8,0.8-2.3,1.2-1.7,2.8
		c0.5,1.2,1.8,0.9,2.7,0.9c1.9-0.2,3.8-0.5,6.1-0.9c-6.6,7.9-16.4,10.9-21.7,20.1c8.6-2.6,17-5.6,24.3-11.8
		c-1.6,2.2-3.4,4.2-4.8,6.5c-1.5,2.5-3.4,4.5-5.1,6.8c-1,1.3-2.4,2.9-1.5,4.4c1.2,1.9,3,0.5,4.5-0.2c5.3-2.4,8.4-7.7,12.2-11.9
		c1.6-1.8,3-5.6,5.1-4.5c2.3,1.3,0.8,5.3,0.1,7.5c-0.9,2.7-1.4,4.4,0.8,6.6c1,1,0.6,2-0.1,3c-0.5-0.3-1.2-0.4-1.8-0.3
		c-1.3,0.1-1,1-1,2c0,0.8,0,1.6,0,2.4c-3.3,4.1-7.3,7.3-11.7,10c-2.3,1.4-4.7,2.2-6,5.7c-0.7,2.1-4.4,2.8-7.2,2.7
		c-2.2-0.1-4.3,0.4-6.4,1c-0.9,0.2-1.8,0.5-2.1,1.6c-0.3,1.4,0.6,2.2,1.6,2.5c2.9,1,2.4,2.9,0.7,4.4c-1.3,1.3-0.8,3.2-1.9,4.4
		c-3.6-2.9-4.1-4.4-2.4-8.4c0.6-1.3,0.1-2.1-0.2-3.1c-0.7-2.2-1.4-4.5-2-6.8c-0.1-0.2,0.2-0.5,0.3-0.8c1.7,0.1,1.7,4.2,3.5,2.4
		c1.4-1.3-1-3.1-1.3-4.8c-0.3-1.3-3.2-3.9,1.1-3.6c1.3,0.1,1.5-1,0.9-2c-2.8-4.5-2.4-9.7-2.4-14.7c0-1.4,0.1-3.3-1.2-3.7
		c-1.7-0.5-1.7,1.6-2.2,2.8c-2,4.6-4.2,9-7.4,12.8c-1.2,1.4-2.6,3.2,0.8,3.2c0,0,0,0,0,0l0.1-0.3l-0.1,0.4c0,0,0,0-0.1,0
		c-0.7,2.3-2.2,4-3.6,5.8c-1.2,1.5-3.2,2.6-1.5,5.3c0.6,0.9-0.4,1.8-0.9,2.5c-1,1.6-2.1,3.2-3,4.8c-0.5,1-0.4,3-1.8,2.8
		c-1.7-0.2-0.8-2.4-1.3-3.5l-0.1-0.1c-2.3,0.2-1.5,3.4-3.3,4.2c-1.4-1.5-0.9-3.4-1-5.2c-0.1-2-0.2-4-2.1-5.1c-1-0.6-1.5-1.4-1.2-2.7
		c0.6-2.5-0.7-3.5-2.7-4.2c-1.8-0.6-3.2-0.9-3.8,1.7c-0.2,0.7-0.6,1.4-1.4,1.2c-0.7-0.2-0.9-0.9-1.1-1.6c-0.6-2.6-1-5.2-0.4-7.9
		c0.3-1.8,0.5-3.8-1.6-3.9c-2-0.1-3.8,0.9-3.2,3.9c0.3,1.5-0.3,2.7-1,5c-0.4-4.1-0.8-7.6-5.1-6.9c-0.4,0.1-1.2-0.6-1.5-1.1
		c-1.9-3.8-3.4-1.3-4.8,0.5c-0.7,0.8-0.9,2.1-1.6,2.8c-1.3,1.4-2.6,1.7-3.5-0.7c-1.1-2.9-2.4-5.6-6.1-4.5c-0.7,0.2-1.8-0.4-2.4-1.1
		c-2.4-2.4-4.9-2.5-7.7-1.2c-2.3,1-4.2,0.5-6-1.9c-4.2-5.6-7.2-12.1-10.4-18.6c1.4,1.2,2.9,2.4,4.3,3.7c0.9,0.8,1.7,1.3,2.7,0.4
		c1.1-1,0.6-2,0-2.9c-3.5-5-5.8-10.9-8.5-16.4c-2-4.2-3.3-8.8-4.8-13.2c-1-2.9-1.5-6-3.5-9.3c2.7,1.4,4,3.5,5.5,5.1c1,1,2,1.7,3.3,2
		c0.9,0.2,2,0.8,2.8-0.3c1-1.2,0.6-2.4-0.1-3.5c-1.8-2.7-3.4-5.7-5.5-8.1c-4.3-4.9-7.1-10.8-10.1-17.8c1.9,2.1,3.2,3.5,4.5,4.8
		c0.6,0.7,1.4,1.7,2.3,1c1-0.8,0.6-2,0.2-3c-0.7-1.5-1.2-3.1-2.1-4.5c-3.2-5.3-4.6-11.4-6.9-17.2c3,3.2,5.2,7.3,9.5,8.7
		c0.3-0.4,0.5-0.7,0.8-1.1c-1.1-1.9-1.9-4.1-3.3-5.6c-5.4-6-7.1-13.8-8.3-21.8c-0.7-4.3-1.6-8.6-2.6-13.9c-1.4,3.3-0.8,5.7-1.1,8.4
		c-2.1-3.2,0.4-7.8-3.3-10.2c-2.2,4.1-2.7,8.9-3.2,13.5c-0.6,4.8-3.3,8.5-4.3,13c-0.2,1.2-1.8,1.4-2.7,2.1c-2.4,1.5-4.9,3-4.4,6.9
		c0.2,1.4-0.6,2-1.6,2.5c-1,0.5-2,0.6-2.8-0.4c-3.3-3.8-6.2-7.8-7.8-12.9c-0.3-0.8,0.2-2.3-1.1-2.3c-1,0-1.2,1.3-1.7,2
		c-2.8,4.4-3.5,10.4-8.7,13.6c4.2,1.5,3.2,3.7,1.2,6c-1.2,1.4-1.5,2.6,0.6,3.3c2.2,0.7,2.1,2,0.6,3.6c-2.1,2.3-4.2,4.5-6.7,6.2
		c-1.6,1.1-2.1,2.3-0.1,3.8c2.5,2,2.2,4.1-0.9,4.9c-2.4,0.7-3.6,1.9-4.6,4.3c-1,2.3-2.2,4.2-5.3,3.2c-1.4-0.5-3.3,0.1-4.8,0.6
		c-8.6,2.8-10.4-1.2-13.4-8.1c-1.6-3.9-3.8-7.5-4.8-11.8c-2,3.6-2.3,7.5-3.3,11.1c-2.4,8.9-5.6,17.5-11.5,24.4
		c-1.1,1.3-2.5,1.9-3.8,2.8c-1,0.6-2.2,1.5-1.8,2.9c0.5,1.7,2.1,1.8,3.5,1.7c3.3-0.3,5.8-2.5,8.4-4.5c-2.2,4.5-5.3,8.4-8.9,11.5
		c-3.3,2.9-4.2,8.2-8.7,9.6c-0.2,0.1-0.4,0.7-0.4,1c0.1,0.8,0.8,1,1.4,1.1c1.7,0.3,2.8-1.1,4.1-1.9c1.4-0.9,2.5-3,5.1-1.9
		c-3.5,4.9-7.4,9-12,12.4c-1.5,1.1-2.5-0.2-3.4-0.9c-1.3-1.1,0.1-1.9,0.5-2.8c0.6-1.1,2.1-2.3,0.7-3.6c-1.3-1.2-2.6,0.1-3.2,1.1
		c-1.7,2.8-2.4,1.5-3.1-0.7c-2.4-7.8-7.7-13.8-10.9-21.1c-1.3-2.9-4-4.5-6.5-4.4c-7.6,0.5-15-2.4-22.5-1.4c-7,0.9-14,3.2-21.1,2
		c-7.8-1.3-15.3,1.1-22.8,2.4c-3.4,0.6-6,3.6-7.4,7.2c-1.2,3-2.7,3.6-4.8,1.2c-1.7-1.8-3.4-2.3-5.4-0.5c-0.3,0.3-1,0.7-1.4,0.5
		c-4.4-2.2-3.7,1.9-4.3,4.3c-0.2,0.9,0.9,2.7-0.8,2.5c-1.5-0.1-3-1.4-2.6-3.4c0.2-1.3,0.9-2.6,1.6-3.8c0.9-1.5,2.8-2.9,1-4.6
		c-1.7-1.6-4.5-0.2-5.1,0.7c-1.5,2.5-5.1,3.8-4,8.5c-2.7-2.5-5-4.1-4.5-7.9c0.2-1.9-0.5-3.5-2.6-3.1c-2.1,0.3-2.7,2-2.2,4.1
		c0.3,1.2,1,2.3,1.4,3.4c1.1,2.6-0.7,4.3-2.1,5.2c-0.9,0.5-1.4,0.2-1.9-0.5c0-1,0.1-2.1,0.1-3.1c0-0.9,0.1-1.8,0-2.7
		c0-0.8-0.4-1.5-1.2-1.8c-0.3-0.1-0.6-0.1-0.8,0c-0.1-1.7,0-3.3-0.1-4.9c-0.2-8.6-2.1-17-2.4-25.5c-0.5-12.5-0.7-24.9-0.3-37.4
		c0.6-16.8,3.7-33.4,3.7-50.3c0-1,0.1-2,0-3c0-0.9-0.4-1.7-1.2-2c-0.9-0.3-1.3,0.5-1.9,1c-1.9,1.9-1.9,5-3.7,7.2
		c2.9-4.1-1.1-7.1-1.1-10.7c0-5.2,0-10.3-0.2-15.5c-0.1-5.2-0.3-10.3-0.6-15.4c-0.4-5.4-1.8-6.3-6.6-4.6c-2.2,0.7-1.4-1.1-1.5-2.1
		c-0.6-7.5-1.2-15-1.7-22.5c-0.2-2.6-1.1-4.5-3.6-4.2c-2.4,0.3-2.4,2.3-2.7,4.6c-0.9,6.4,1.1,12.8-0.8,19.2c-0.9-0.2-1-1.2-1-1.8
		c1-11.8-1.2-23.4-2.1-35c-0.1-1-0.3-1.9-0.6-2.9c-0.3-1.2-0.9-2.1-2.1-2c-1.4,0.1-1.4,1.3-1.4,2.5c0,8,0,16,0.1,24.1
		c0.1,4.6-0.6,9.2,0.1,14.3c-2.4-1.1-1.3-4.3-4.2-5.4c2.4,16.4,4.6,32.3,7,48.4c-4-1-6.8-4.2-10.7-4.9c-6.6-1.1-13.1,0.3-19.6-0.9
		c-7.2-1.3-14.5-2.4-21.8-3.6c0,261.9,0,523.9-0.1,785.8c0,1.9,0.2,2.9,1,3.4c0,14.5,0,29.1,0,43.6c0,2.9,0.6,3.5,3.5,3.5
		c649.2-0.1,1298.3-0.1,1947.5,0c2.9,0,3.5-0.6,3.5-3.5C5027.1,38,5027.1-245.4,5027.1-528.7z M4452.2-192.9
		c-0.9-0.1-1.3-0.6-1.4-1.4C4451.7-194.3,4452.1-193.7,4452.2-192.9z M4448.5-198.3c0.8,0.2,1.3,1.1,0.9,1.6
		c-0.7,0.9-0.9-0.2-1.2-0.6C4448-197.6,4447.9-198,4448.5-198.3z M4351.5-241.9c0.7-0.1,0.7,0.4,0.8,0.9c-0.5,0.1-0.9,0-1-0.6
		C4351.3-241.7,4351.4-241.9,4351.5-241.9z M4330.2-165.4c0.4-2,2.3-2.4,3.9-3C4333.2-166.9,4331.8-166.1,4330.2-165.4z
		 M4214.9-166.1c1.2-0.2,2.4-0.4,3.7-0.6C4217-164.3,4216.9-164.3,4214.9-166.1z M4171.9-193c0,0,0.1,0.1,0.1,0.1
		c-0.1,0-0.2-0.1-0.3-0.1C4171.7-193.1,4171.8-193.1,4171.9-193z M4142.9-214c-0.1,0-0.2-0.1-0.3-0.1c0.1-0.2,0.2-0.4,0.3-0.6
		c0,0,0.2,0.1,0.3,0.1C4143.1-214.4,4143-214.2,4142.9-214z M4145.2-216.6c-0.1,0-0.3-0.2-0.3-0.2c0.1-0.7,0.5-1.1,1.2-1.2
		C4146-217.4,4145.9-216.8,4145.2-216.6z M4142.5-188.4c0.2-0.3,0.3-0.5,0.5-0.8C4143.3-188.5,4142.8-188.5,4142.5-188.4z
		 M4138.5-151.6C4138.5-151.6,4138.5-151.6,4138.5-151.6l0.1-0.1C4138.6-151.7,4138.5-151.6,4138.5-151.6z M3877.9-315.1
		c-0.3,0.7-0.6,1.4-2.2,1.8C3876.8-314.2,3877.3-314.7,3877.9-315.1C3877.9-315.1,3877.9-315.2,3877.9-315.1L3877.9-315.1
		C3877.9-315.1,3877.9-315.1,3877.9-315.1z M4132.5-119.2c0.5,0,1,0,1.5,0c-2,2.1-6.1,3.6-10.2,4.3v-4.6
		C4126.7-119,4129.6-119.2,4132.5-119.2z M3138.6-508.5c-0.6-1.9-0.6-1.9,0-6.4C3138.6-512.1,3138.6-510.5,3138.6-508.5z
		 M3137.9-517.6c0-1.9,0-3.7,0-5.6C3138.9-521.4,3138.7-519.5,3137.9-517.6z M4123.8-73.8c1.4-0.2,2.8-0.3,4.3-0.1
		c-1.5,0.4-3,0.7-4.3,1V-73.8z M4124.1-79.9c2.1-2.1,3.8-1.5,5.3,0.8l0.1,0.1l-0.1-0.1C4127.7-80,4126-80.5,4124.1-79.9z
		 M4123.8-79.7v-0.1c0,0,0.1,0,0.1,0C4123.9-79.8,4123.9-79.8,4123.8-79.7z M3926-281c0.2,0.4,0.5,0.7,0.7,1.1
		c0.1,0.1,0.1,0.1,0.2,0.2c0.1,0.2,0.1,0.4,0.2,0.6c-0.1-0.2-0.1-0.3-0.2-0.5c0-0.1-0.1-0.1-0.1-0.2c-0.3-0.3-0.6-0.5-0.9-0.8
		C3925.8-280.8,3925.9-280.9,3926-281z M3924.2-277c0.6,0.3,0.8,0.9,0.8,1.8c-0.2,0.2-0.4,0.4-0.6,0.6c-0.3-0.5-0.7-1-0.9-1.6
		C3923.3-276.7,3923.5-277.3,3924.2-277z M3850.4-239.9c0.7,2.6,1.2,4.7,1.8,6.7c0.5,1.5,1.5,2.6,2.9,3.1c0.6,0.2,1.3,0.4,1.8-0.2
		c0.5-0.7,0.2-1.3-0.2-1.9c-1.8-2.4-2-5.5-2.7-8.3c-0.4-1.7-0.2-2.7,2-2.9c4.3-0.5,8.6,0,12.9-1.8c-0.2,0.5-0.2,0.8-0.4,1
		c-0.7,1-2.9,1.2-2.2,2.9c0.6,1.5,2.3,0.4,3.5,0.2c6.2-1.3,10.3-6.3,15.3-10.9c-0.3,4.1-0.7,7.9-0.9,11.7c-2.5,1.8-5.6,3.1-8.6,4.5
		c-1.5,0.7-4.3,1.1-3.7,3.1c0.6,2,3.2,0.6,4.7,0.2c2-0.4,3.9-1.7,6.1-2.3c-2.5,1.4-4.6,3.4-6.7,5.3c-0.9,0.7-2.2,1.3-1.3,2.7
		c0.8,1.2,2.2,1.4,3.4,0.7c1.7-1,3.5-1.8,5.2-2.8c-1.1,4.6-3.9,8-8.5,10.4c-4.1,2.1-8.2,3.8-12.8,3.8c-5.1,0-9-3.6-10.1-9.8
		c0.8,0,0.9,0.9,1.2,1.4c0.8,1.2,1.2,3.7,2.7,2.9c1.9-1.1,0.5-3.3-0.2-4.8c-1.3-2.9-4-4.8-4.8-8
		C3850.3-235.1,3849.7-237.1,3850.4-239.9z M3808.4-279.6L3808.4-279.6c-0.2,0.6-0.5,1.1-0.7,1.7l0,0
		C3807.9-278.5,3808.2-279.1,3808.4-279.6z M3581.4-395.1c0.8,0.2,1.2,0.9,1.5,1.7c-0.1,0.7-0.4,1-1,0.9c-0.9-0.1-1.2-0.9-1.4-1.8
		C3580.4-394.9,3580.9-395.3,3581.4-395.1z M3137.8-536.7c1.3,1.4,1,2.4,0.4,3.6C3137-534.2,3137.5-535.3,3137.8-536.7z
		 M4133.8-61.8c-1,0.2-2.6-0.6-3,0.8c-0.4,1.4,1.5,1.7,2.5,2.6c-1.7,2.1-3.8,3.2-6,4.2c-1.2,0.5-2.4,0.8-3.4,0.8V-67
		c6.2-0.5,12.2-2,17.6-5.5c4.1-2.7,8.2-5.3,12.3-8C4152.2-70.5,4140.3-63.2,4133.8-61.8z M4152.5-94.3c-3.8,3-7.5,5.9-11.3,8.8
		c-1.2,0.9-2.7,1.3-4.3,1.3c-4.3,0-8.6,0-12.9,0.1c0,0-0.1,0-0.1,0v-26.2c1.6,0.1,3.2,0,4.8-0.4c0.6-0.2,1.3-0.2,1.9,0
		c9.1,3.4,14-3.1,19.5-8.1c0.2-0.2,0.4-0.3,0.6-0.4c0.1,2-0.9,3.7-3.1,5.6c-1.3,1.2-2.6,2.4-3.9,3.7c-0.8,0.8-1.9,1.9-1,2.9
		c1,1.3,2.5,0.2,3.4-0.4c1.4-0.9,2.4-2.2,3.8-3.1c1.4-1,2.1-2.5,3.3-3.9c2.2,5.6,0.8,11.2,1.6,16.7
		C4154.9-96.3,4153.6-95.2,4152.5-94.3z M4206.7-135.1c-1.3,2.5-4.2,2.9-5.6,4.8c-3.6,0.1-6.7,2.8-10.7,2.3
		C4194.6-133.1,4199.7-135.7,4206.7-135.1z M4207.8-124.3c-6.7,7.6-14.5,7.1-22.8,3.3c-1.7-0.8-3.5-1.4-5.4-1.9
		c5.2-0.1,10.3-0.6,15.2-1.9c2.9-0.7,5.8-1.8,6.2-5.5c1.6,0.1,3.2,0.1,4.9,0.2c1.6,0,2.7,0.8,3.3,2.2
		C4209.8-126.3,4208.8-125.4,4207.8-124.3z M4234-206.6c0.1-0.9,0.6-1.4,1.5-1.4C4235.3-207.2,4235-206.6,4234-206.6z M4235.5-208.2
		c0-0.2,0.1-0.3,0.1-0.5C4236.1-208.4,4235.7-208.3,4235.5-208.2z M4256.2-224.3c-0.2-0.1-0.3-0.3-0.4-0.5c0.2-0.1,0.3-0.3,0.5-0.4
		c0.2,0.2,0.4,0.5,0.5,0.7C4256.6-224.4,4256.3-224.3,4256.2-224.3z M4296.9-122.4c-0.5-0.8,0-2.2,0.6-2.4c2.2-0.6,2.6,1.6,4,3
		C4299.5-121.1,4298-120.5,4296.9-122.4z M4305.7-123.7c-2.5-0.8-1.2-3.1-0.9-4.1c0.6-2.1,3.6-2.2,4.4-1.2c2,2.4,4.1,1.8,6.6,1.1
		C4314.1-125.5,4307.7-123,4305.7-123.7z M4329.5-134.7c-0.7,0.3-1.6,0.2-2-0.5c-0.6-1-0.1-1.8,0.7-2.2c1.9-0.8,3.4-2.5,5.6-2.7
		C4334.4-136.7,4332.1-135.6,4329.5-134.7z M4356-193.5c-0.7,0.9-1.8,1.3-2.6,0.5c-2.6-2.8-5.1-5.8-6.6-9.4c2.6,2.6,5.5,4.5,8.3,6.5
		C4355.9-195.3,4357-194.8,4356-193.5z M4385.9-173.1c-3.8,4.2-8.3,7.4-13.3,9.9c-2.3,1.1-3.6,0-4-2.3c-0.3-1.8-0.7-3.5-1.1-5.2
		c-1.2-4.4-0.5-5.4,4.2-5.6c1.9-0.1,3.9,0.9,5.4-1.5c0.5-0.9,1.9,0,2.6,0.7c0.8,0.8-0.1,1.4-0.6,1.9c-1.8,1.7-3.6,3.4-6.2,5.8
		c6.2,0.2,9.1-4.1,13.2-5.7C4387.1-174.2,4386.3-173.6,4385.9-173.1z M4427.3-185.4c0,0.1,0,0.2,0,0.3c-0.1,0-0.2,0.1-0.3,0.1
		c-0.1,0-0.1-0.1-0.2-0.2C4427-185.3,4427.1-185.4,4427.3-185.4z M4400-142.6c6-0.4,10.3-5.1,16.2-5.4
		C4414.1-140.9,4405.7-138,4400-142.6z M4403.5-153.8c1.9,0.8,3.1,2.9,5.5,3.1C4406-148.3,4405.1-148.8,4403.5-153.8z M4415.9-157.5
		c0.8,1.1-1.2,3.7-3.8,3.3c-2.4-0.3-4.7-0.8-7.1-1.2c-0.9-0.2-1.7-0.3-2.3,0.6c-3.3-2.7-0.6-4.7,0.6-7.2c1.3,1.7,2.5,3.1,3.7,4.5
		c0.2-0.2,0.4-0.5,0.6-0.7c1.4-3.8-1.1-6.8-2.2-10.2c3.5-0.6,6.1,1.8,9.5,1.7c-0.8,1.8-3.8,0.3-3.1,2.2c0.7,2,3.3,1.9,5.9,2.1
		C4415.8-160.9,4413.8-160.2,4415.9-157.5z M4425.9-169.4c-1.1,0.9-2.3,0.8-3.1,0c-1.1-1.2,0.5-1.6,1.1-2.1c1.5-1.1,3.1-2,4.6-3
		C4428.1-172.5,4427.5-170.7,4425.9-169.4z M4447.5-170.6c0-0.1,0.4-0.3,0.5-0.3c0.7,0.3,1,0.9,1.2,1.6
		C4448.2-169.2,4447.6-169.5,4447.5-170.6z M4451.3-154c-2.2-0.1-2.2-2.6-3.3-4c1.6,0.6,3.9-0.4,4.5,1.9
		C4452.7-155.3,4452-153.9,4451.3-154z M4794.9-449.5c-0.2-3.4,2.3-5.8,3-9.8C4800.1-454.3,4799.4-451.3,4794.9-449.5z
		 M4809.8-461.2c-2,0.5-1.3-1.9-1.6-3.1c-1.9-6.9-1.6-14-1.4-21.9c2.4,3.1,4.2,5.7,7,7.2c0.7,0.4,1.1,1,1.2,1.8
		c0.3,4.1,1.1,8.3,1.1,12.4C4816.2-461.6,4812.1-461.8,4809.8-461.2z M4826.6-467c-0.2,1.1-1.4,0.9-2.2,1.1
		c-5.7,1.9-5.9,1.8-6.3-4.5c-0.1-1.2,0-2.5,0-3.7c2,2.4,4.9,3,6.9,4.7C4825.7-468.8,4826.8-468.1,4826.6-467z M4930.5-521.2
		c-0.2,0-0.4-0.1-0.6-0.2c0.1-0.2,0.2-0.5,0.3-0.5c0.2-0.1,0.4,0.1,0.6,0.2C4930.7-521.6,4930.6-521.2,4930.5-521.2z M4967-470.6
		c-0.2,0.9-1.1,0.9-1.8,1c-0.7,0.2-1.4,0.2-2.1,0.4c0.2-0.7,0.4-1.4,0.8-2c0.6-1,1.5-0.7,2.3-0.4
		C4966.6-471.5,4967.1-471.3,4967-470.6z"/>
	<path class="st35" d="M4848.4-495.7c0.5-0.7,1-1.5,1.4-2.4C4848.3-497.4,4847.9-496.6,4848.4-495.7z"/>
</g>
<g class="st36">
	
		<linearGradient id="SVGID_4_" gradientUnits="userSpaceOnUse" x1="3597.4878" y1="2072.5342" x2="4719.9409" y2="197.4911" gradientTransform="matrix(1 0 0 -1 0 1080)">
		<stop  offset="0" style="stop-color:#FABE78"/>
		<stop  offset="9.350000e-02" style="stop-color:#ECBA7C"/>
		<stop  offset="0.2705" style="stop-color:#C7AE86"/>
		<stop  offset="0.5124" style="stop-color:#8B9C96"/>
		<stop  offset="0.8064" style="stop-color:#3A83AC"/>
		<stop  offset="1" style="stop-color:#0071BC"/>
	</linearGradient>
	<rect x="3089.3" y="-779.1" class="st37" width="1925.2" height="1091.5"/>
</g>
<g>
	<g>
		<path class="st38" d="M5568.2-2431.3h7.4c1.1,0,2-1,2-2.3l-4.9-167.3c0-1.2-0.9-2.2-2-2.2l0,0c-1.1,0-1.9,1-2,2.2l-2.5,167.3
			C5566.2-2432.4,5567.1-2431.3,5568.2-2431.3z"/>
		<path class="st38" d="M5569.2-2525.3l2.1,8.5c0.9,1,5-2,5.8-3l39.5-47.7c0.8-1,0.8-2.5,0-3.4l0,0c-0.8-0.9-2-1-2.9-0.1l-44.4,42.1
			C5568.4-2528,5568.3-2526.4,5569.2-2525.3z"/>
		<path class="st38" d="M5546.9-2589.2L5546.9-2589.2c-0.4,0.8-0.2,1.9,0.5,2.5l21.3,16.7c0.9,0.7,2.2,0.2,2.5-1l0.7-2.3
			c0.2-0.8-0.1-1.8-0.7-2.2l-22-14.4C5548.3-2590.4,5547.3-2590.1,5546.9-2589.2z"/>
		<path class="st38" d="M5571.7-2484.7L5571.7-2484.7c-0.4,0.7-1.2,0.8-1.8,0.4l-28.1-21.4c-0.6-0.4-0.7-1.3-0.3-2l0,0
			c0.4-0.7,1.2-0.8,1.8-0.4l29.3,18.8C5573.2-2488.9,5572.1-2485.4,5571.7-2484.7z"/>
		<g>
			<g>
				<ellipse class="st39" cx="5573.5" cy="-2534.1" rx="50.9" ry="57.8"/>
				<ellipse class="st39" cx="5572.8" cy="-2583.6" rx="65.6" ry="75.6"/>
				<ellipse class="st39" cx="5570.7" cy="-2656.9" rx="78.8" ry="92.7"/>
			</g>
		</g>
	</g>
	<g>
		<path class="st38" d="M5505.4-2433.3h10.2c1.5,0,2.8-1.1,2.7-2.3l-6.8-170.4c0-1.2-1.2-2.2-2.7-2.2l0,0c-1.5,0-2.7,1-2.7,2.2
			l-3.4,170.4C5502.7-2434.4,5503.9-2433.3,5505.4-2433.3z"/>
		<path class="st40" d="M5561.2-2471.7H5458c-2.8,0-4.9-2-4.5-4.3c5.9-28.5,36.9-189.9,50.9-189.9c14.1,0,53.7,160.8,61.2,189.8
			C5566.3-2473.9,5564.1-2471.7,5561.2-2471.7z"/>
	</g>
	<g>
		<path class="st38" d="M5214-2429.8h14c2.1,0,3.8-1.7,3.7-3.8l-9.3-277.5c-0.1-2-1.7-3.6-3.7-3.6l0,0c-2,0-3.7,1.6-3.7,3.6
			l-4.7,277.5C5210.2-2431.5,5211.9-2429.8,5214-2429.8z"/>
		<path class="st40" d="M5290.3-2483.9H5149c-3.8,0-6.8-3.4-6.1-7.2c8.1-48.2,50.5-321,69.7-321c19.2,0,73.4,271.8,83.8,320.7
			C5297.2-2487.5,5294.3-2483.9,5290.3-2483.9z"/>
	</g>
	<g>
		<path class="st38" d="M5116.3-2432.3h17.5c2.6,0,4.7-2.2,4.6-4.8l-11.7-347.6c-0.1-2.5-2.1-4.5-4.6-4.5l0,0c-2.5,0-4.6,2-4.6,4.6
			l-5.9,347.6C5111.6-2434.4,5113.7-2432.3,5116.3-2432.3z"/>
		<path class="st40" d="M5211.9-2500h-177c-4.8,0-8.5-4.3-7.7-9c10.1-60.3,63.2-402,87.3-402c24.1,0,92,340.4,104.9,401.7
			C5220.5-2504.6,5216.8-2500,5211.9-2500z"/>
	</g>
	<g>
		<path class="st38" d="M5064.1-2423h4c4.9,0,8.8-4,8.8-8.8V-2787c0-4.9-4-8.8-8.8-8.8h-4c-4.9,0-8.8,4-8.8,8.8v355.2
			C5055.3-2426.9,5059.2-2423,5064.1-2423z"/>
		<g>
			<path class="st39" d="M5032.5-2793.3h67.3c0,0-30.5-54.9-33.7-71.8C5063-2865.1,5032.5-2793.3,5032.5-2793.3z"/>
			<path class="st39" d="M4998.3-2711.3H5134c0,0-62.6-66.3-67.8-124.7C5061.9-2778.6,4998.3-2711.3,4998.3-2711.3z"/>
			<path class="st39" d="M4958.8-2601.1h214.7c0,0-95.8-98.4-107.4-197.6C5050.3-2721.6,4958.8-2601.1,4958.8-2601.1z"/>
			<path class="st39" d="M4936.3-2499.5h259.6c0,0-116.1-134.5-129.8-249.1C5066.1-2662.5,4936.3-2499.5,4936.3-2499.5z"/>
		</g>
	</g>
	<g>
		<path class="st38" d="M5234.9-2432.4L5234.9-2432.4c4,0,7.3-3.3,7.3-7.3v-236.5c0-4-3.3-7.3-7.3-7.3l0,0c-4,0-7.3,3.3-7.3,7.3
			v236.5C5227.6-2435.7,5230.9-2432.4,5234.9-2432.4z"/>
		<g>
			<path class="st39" d="M5212.3-2681.8h45.3c0,0-20.5-37-22.7-48.4C5232.8-2730.1,5212.3-2681.8,5212.3-2681.8z"/>
			<path class="st39" d="M5189.2-2626.5h91.4c0,0-42.1-44.6-45.7-84C5232.1-2671.9,5189.2-2626.5,5189.2-2626.5z"/>
			<path class="st39" d="M5162.6-2552.3h144.6c0,0-64.5-66.3-72.3-133C5224.3-2633.5,5162.6-2552.3,5162.6-2552.3z"/>
			<path class="st39" d="M5147.5-2483.9h174.8c0,0-78.2-90.6-87.4-167.7C5234.9-2593.7,5147.5-2483.9,5147.5-2483.9z"/>
		</g>
	</g>
	<g>
		<path class="st38" d="M5322.3-2423L5322.3-2423c4.9,0,8.8-4,8.8-8.8v-285.9c0-4.9-4-8.8-8.8-8.8l0,0c-4.9,0-8.8,4-8.8,8.8v285.9
			C5313.5-2426.9,5317.5-2423,5322.3-2423z"/>
		<g>
			<path class="st39" d="M5294.9-2724.4h54.8c0,0-24.8-44.7-27.4-58.5C5319.8-2782.9,5294.9-2724.4,5294.9-2724.4z"/>
			<path class="st39" d="M5267.1-2657.7h110.4c0,0-50.9-54-55.2-101.5C5318.9-2712.5,5267.1-2657.7,5267.1-2657.7z"/>
			<path class="st39" d="M5234.9-2567.9h174.8c0,0-78-80.1-87.4-160.8C5309.4-2666.1,5234.9-2567.9,5234.9-2567.9z"/>
			<path class="st39" d="M5216.7-2485.3H5428c0,0-94.5-109.5-105.7-202.7C5322.3-2618,5216.7-2485.3,5216.7-2485.3z"/>
		</g>
	</g>
	<rect x="4846.1" y="-2425.8" class="st38" width="2067.9" height="57.3"/>
	<g>
		<image style="overflow:visible;" width="2141" height="83" xlink:href="AADC460B.png"  transform="matrix(1 0 0 1 4810 -2467)">
		</image>
	</g>
	<rect x="4845.1" y="-2438.5" class="st41" width="2067.9" height="15.2"/>
	<path class="st42" d="M5878.5-2565.1v130.7h23.5v-129.3C5894.2-2564.1,5886.3-2564.6,5878.5-2565.1z"/>
	<path class="st42" d="M6082.8-2565.1c-7.9,0.6-15.7,1.1-23.6,1.5v129.3h23.6V-2565.1z"/>
	
		<rect x="6238.9" y="-2856.9" transform="matrix(-1 -5.031232e-11 5.031232e-11 -1 12912.8135 -5414.8271)" class="st43" width="435" height="299"/>
	<path class="st43" d="M6217.1-2747.8c160,3.1,319.5,3.1,478.5,0v-109.1h-478.5V-2747.8z"/>
	
		<rect x="6200" y="-3207.3" transform="matrix(-1 -5.033719e-11 5.033719e-11 -1 12913.958 -6093.7344)" class="st43" width="514" height="320.8"/>
	<polygon class="st44" points="6509,-2905.2 6431,-2906.1 6592.6,-3210.5 6670.6,-3209.6 	"/>
	<polygon class="st44" points="6543.5,-2902.5 6520.8,-2902.5 6682.4,-3206.9 6705,-3206.9 	"/>
	<path class="st45" d="M6195.4-2435.8c172.5,5.8,346.5,5.8,522,0v-124.4h-522V-2435.8z"/>
	<path class="st45" d="M6202-2855.6c170,2.4,340,2.4,510,0c3.6,0,6.6-3.3,6.6-7.4v-13.5c0-4.1-2.9-7.4-6.6-7.4h-510
		c-3.6,0-6.6,3.3-6.6,7.4v13.5C6195.4-2858.9,6198.3-2855.6,6202-2855.6z"/>
	<path class="st46" d="M6183.9-2876.2h547.2v-22c0-9.8-7.1-17.8-15.9-17.8c-171.8,4.1-343.6,4.1-515.4,0c-8.8,0-15.9,8-15.9,17.8
		V-2876.2z"/>
	<path class="st47" d="M6180.5-2876.2c184.7,3.4,369.4,3.4,554.1,0v-10.3c-184.7,3.4-369.4,3.4-554.1,0V-2876.2z"/>
	<path class="st43" d="M6195.4-2558.2c174.8,5.2,348.8,5.2,522,0v-128h-522V-2558.2z"/>
	<path class="st45" d="M6224.5-2737.6c153.5,3.6,308.1,3.6,463.9,0c4.1,0,7.3-3.7,7.3-8.2v-2c-159.5,3.1-319,3.1-478.5,0v2
		C6217.1-2741.3,6220.4-2737.6,6224.5-2737.6z"/>
	<path class="st45" d="M6195.4-2680.7c173.1,2.2,347.1,2.2,522,0v-2.6c0-4.7-3.1-8.5-7-8.5c-169.3,2.8-338.7,2.8-508,0
		c-3.9,0-7,3.8-7,8.5V-2680.7z"/>
	<ellipse class="st18" cx="6457" cy="-3205.4" rx="257" ry="3.2"/>
	<ellipse class="st45" cx="6457" cy="-3215.6" rx="257" ry="3.2"/>
	
		<rect x="6200" y="-3215" transform="matrix(-1 -5.032342e-11 5.032342e-11 -1 12913.958 -6419.7124)" class="st18" width="514" height="10.3"/>
	<path class="st48" d="M6714-3173.9c-171.3,5.1-342.7,5.1-514,0"/>
	<path class="st48" d="M6714-3105.9c-171.3,5.1-342.7,5.1-514,0"/>
	<path class="st48" d="M6714-3037.9c-171.3,5.1-342.7,5.1-514,0"/>
	<path class="st48" d="M6718-2643.2c-171.3,5.6-342.7,5.6-514,0"/>
	<path class="st48" d="M6718-2596.9c-171.3,5.6-342.7,5.6-514,0"/>
	<path class="st48" d="M6714-2969.9c-171.3,5.1-342.7,5.1-514,0"/>
	<line class="st48" x1="6631.6" y1="-3202.2" x2="6631.6" y2="-2914.7"/>
	<line class="st48" x1="6543.4" y1="-3202.2" x2="6543.4" y2="-2914.7"/>
	<line class="st48" x1="6455.3" y1="-3202.2" x2="6455.3" y2="-2914.7"/>
	<line class="st48" x1="6367.1" y1="-3202.2" x2="6367.1" y2="-2914.7"/>
	<line class="st48" x1="6279" y1="-3202.2" x2="6279" y2="-2914.7"/>
	<line class="st48" x1="6631.6" y1="-2858.9" x2="6631.6" y2="-2554"/>
	<line class="st48" x1="6543.4" y1="-2858.9" x2="6543.4" y2="-2554"/>
	<line class="st48" x1="6455.3" y1="-2858.9" x2="6455.3" y2="-2554"/>
	<line class="st48" x1="6367.1" y1="-2858.9" x2="6367.1" y2="-2554"/>
	<line class="st48" x1="6279" y1="-2858.9" x2="6279" y2="-2554"/>
	<path class="st49" d="M6450.5-3217.6l0.2-20.2c0-1.5,2-2.7,4.5-2.7c2.5,0,4.5,1.3,4.4,2.8l-0.2,20.2c-1.4,0-2.7,0-4.1-0.1
		C6453.8-3217.6,6452.1-3217.6,6450.5-3217.6z"/>
	<path class="st43" d="M5878.5-2686.3v118.9v2.3c68.4,4.9,136.5,4.9,204.3,0h0v-121.1H5878.5z"/>
	<path class="st45" d="M5878.5-2680.7c67.7,2.2,135.8,2.2,204.3,0v-2.6c0-4.7-1.2-8.5-2.7-8.5c-66.3,2.8-132.6,2.8-198.8,0
		c-1.5,0-2.7,3.8-2.7,8.5V-2680.7z"/>
	
		<rect x="6079.5" y="-2666.9" transform="matrix(-1 -5.047441e-11 5.047441e-11 -1 12281.3643 -5239.0386)" class="st43" width="122.4" height="94.7"/>
	<line class="st48" x1="6074.7" y1="-2647.2" x2="6203" y2="-2647.2"/>
	<line class="st48" x1="6073.8" y1="-2613.7" x2="6202.1" y2="-2613.7"/>
	<path class="st50" d="M6173.9-2625"/>
	<rect x="6079.5" y="-2574.9" class="st45" width="118.9" height="2.7"/>
	<path class="st50" d="M6195.4-2666.9c4.7,0,8.5,21.4,8.5,47.8c0,26.4-3.8,47.8-8.5,47.8"/>
	<path class="st50" d="M6082.3-2666.9c-4.7,0-8.5,21.4-8.5,47.8c0,26.4,3.8,47.8,8.5,47.8"/>
	<path class="st48" d="M6217.3-2818c159.4,4.4,318.8,4.4,478.2,0"/>
	<path class="st48" d="M6218.1-2779.9c159.6,4.2,319,4.2,478.2,0"/>
	<path class="st45" d="M6195.7-2570.3h-113.6c-1.1,0-2.2-0.8-2.5-1.9l-4.2-19.1h126.4l-3.6,18.8
		C6198-2571.2,6197-2570.3,6195.7-2570.3z"/>
	<path class="st48" d="M5878.5-2654.1c67.2,2.4,133,2.5,197,0"/>
	<path class="st48" d="M5878.5-2626.5c65.5,3.5,130.6,3.5,195.3,0"/>
	<path class="st48" d="M5878.5-2590c65.5,3.5,130.6,3.5,195.3,0"/>
	<line class="st48" x1="5909.3" y1="-2679.7" x2="5909.3" y2="-2578.2"/>
	<line class="st48" x1="5946.6" y1="-2680.7" x2="5946.6" y2="-2576.2"/>
	<line class="st48" x1="5981.4" y1="-2679.7" x2="5981.4" y2="-2576.2"/>
	<line class="st48" x1="6016.3" y1="-2679.7" x2="6016.3" y2="-2576.2"/>
	<line class="st48" x1="6051.1" y1="-2679.7" x2="6051.1" y2="-2578.2"/>
	<polygon class="st42" points="6054,-2440.4 5905.3,-2440.4 5905.3,-2440.4 5901,-2440.4 5901,-2440.4 6058.2,-2440.4 
		6058.2,-2440.4 6054,-2440.4 	"/>
	<path class="st51" d="M6059.2-2573.9c0-2.4-1.9-4.3-4.2-4.3c-49.6,3-99.2,3-148.8,0c-2.3,0-4.2,1.9-4.2,4.3v29.8c0,0-0.1,0-0.1,0
		v109.7h4.3c0,0,0,0,0,0H6055c0,0,0,0,0,0h4.2v-109.7V-2573.9z"/>
	<line class="st3" x1="5980.6" y1="-2561.5" x2="5980.6" y2="-2445.2"/>
	<line class="st3" x1="6059.2" y1="-2563.4" x2="6059.2" y2="-2434.4"/>
	<line class="st3" x1="5902" y1="-2563.4" x2="5902" y2="-2434.4"/>
	<g>
		<path class="st52" d="M5716.2-2439.2L5716.2-2439.2c0,0-5.3,2.2-5.3-0.6v-42.4c0-2.8,2.3-5.1,5.1-5.1h0.4c2.8,0,5.1,2.3,5.1,5.1
			v42.4C5721.5-2437,5716.2-2439.2,5716.2-2439.2z"/>
		<g>
			<path class="st53" d="M5734.2-2473l-38.6-2.1c-0.4,0-0.7-0.3-0.7-0.7l1.4-17.8c0-0.3,0.3-0.6,0.7-0.6l40.9,0.9
				c0.4,0,0.8,0.4,0.7,0.8l-3.7,19.1C5734.9-2473.2,5734.6-2473,5734.2-2473z"/>
			
				<rect x="5733.8" y="-2498.6" transform="matrix(0.963 0.2695 -0.2695 0.963 -457.2609 -1638.066)" class="st54" width="6.5" height="28.5"/>
			
				<rect x="5692.2" y="-2498.3" transform="matrix(0.9962 8.690066e-02 -8.690066e-02 0.9962 -194.4232 -504.34)" class="st54" width="6.5" height="26.2"/>
			
				<rect x="5714.8" y="-2518" transform="matrix(2.263001e-02 0.9997 -0.9997 2.263001e-02 3095.3303 -8154.0796)" class="st54" width="6.5" height="48.2"/>
			
				<rect x="5712.9" y="-2497.2" transform="matrix(-5.064386e-02 0.9987 -0.9987 -5.064386e-02 3533.5598 -8309.4229)" class="st54" width="6.5" height="43.8"/>
			<circle class="st55" cx="5698.3" cy="-2495.4" r="0.4"/>
			<circle class="st55" cx="5695.1" cy="-2492.2" r="0.4"/>
			<circle class="st55" cx="5698.7" cy="-2492.2" r="0.4"/>
			<circle class="st55" cx="5695.1" cy="-2495.4" r="0.4"/>
			<circle class="st55" cx="5694.3" cy="-2478.4" r="0.3"/>
			<circle class="st55" cx="5693.8" cy="-2475.8" r="0.3"/>
			<circle class="st55" cx="5697.1" cy="-2475.4" r="0.3"/>
			<circle class="st55" cx="5697.4" cy="-2478" r="0.3"/>
			<circle class="st55" cx="5730.8" cy="-2473.4" r="0.3"/>
			<circle class="st55" cx="5733.8" cy="-2473.4" r="0.3"/>
			<circle class="st55" cx="5740.7" cy="-2495.4" r="0.3"/>
			<circle class="st55" cx="5738.3" cy="-2495.8" r="0.3"/>
			<circle class="st55" cx="5732.5" cy="-2476" r="0.3"/>
			<circle class="st55" cx="5740.2" cy="-2491.9" r="0.3"/>
			<circle class="st55" cx="5736.9" cy="-2491.9" r="0.3"/>
		</g>
		<path class="st52" d="M5718.7-2459.2c0,0,4.5-2.4,5.3-3.3c0.8-0.4,3.7,0,3.7,0l-0.4,0.8l0.4,0.4v0.4c0,0-2.4-0.4-3.3,0
			s-5.7,2.9-5.7,2.9V-2459.2z"/>
		<path class="st56" d="M5711-2455.9c3.7,1,7.2,1,10.6,0"/>
		<path class="st56" d="M5711-2466.5c3.7,1,7.2,1,10.6,0"/>
	</g>
	<path class="st52" d="M6081.8-2432.4h-205.3c-1.3,0-2.3-1-2.3-2.3v-0.3c0-1.3,1-2.3,2.3-2.3h205.3c1.3,0,2.3,1,2.3,2.3v0.3
		C6084.2-2433.4,6083.1-2432.4,6081.8-2432.4z"/>
	<path class="st52" d="M6716.4-2431.4h-521.7c-1.3,0-2.3-1-2.3-2.3v-0.3c0-1.3,1-2.3,2.3-2.3h521.7c1.3,0,2.3,1,2.3,2.3v0.3
		C6718.8-2432.5,6717.7-2431.4,6716.4-2431.4z"/>
</g>
</svg>
