<?xml version="1.0" encoding="utf-8"?>
<!-- Generator: Adobe Illustrator 23.0.2, SVG Export Plug-In . SVG Version: 6.00 Build 0)  -->
<svg version="1.1" id="Calque_1" xmlns="http://www.w3.org/2000/svg" xmlns:xlink="http://www.w3.org/1999/xlink" x="0px" y="0px"
	 viewBox="0 0 3578.7 1080" style="enable-background:new 0 0 3578.7 1080;" xml:space="preserve">
<style type="text/css">
	.st0{fill:url(#SVGID_1_);}
	.st1{fill:#F3FBFC;}
	.st2{fill:#F9FDFD;}
</style>
<g>
	<linearGradient id="SVGID_1_" gradientUnits="userSpaceOnUse" x1="0" y1="540" x2="3581.7153" y2="540">
		<stop  offset="0" style="stop-color:#A9DDF3"/>
		<stop  offset="0.3855" style="stop-color:#6BB5DF"/>
		<stop  offset="1" style="stop-color:#0071BC"/>
	</linearGradient>
	<rect class="st0" width="3581.7" height="1080"/>
</g>
<path class="st1" d="M2946.7,199.9c-55.2,0-110.5,0.1-165.7-0.1c-6.8,0-16,2.8-18.8-6c-2.3-7.1,2.3-14.8,8.2-18.8
	c14.4-9.8,21.6-24.2,30.5-38.4c13.6-21.7,34.9-33.3,61.5-27.4c13,2.8,20.3-1.5,28.8-10.7c39.4-43,101.9-40,137.6,6.5
	c8.7,11.3,16.6,20,32.2,21.1c8.1,0.6,17.7,5.4,23.2,11.5c13.7,15,24.4,32.5,44.8,40.3c5.7,2.2,9.7,9.8,7.6,16.3
	c-2.6,7.6-10.7,5.6-16.8,5.6c-57.6,0.1-115.3,0.1-172.9,0.1C2946.7,199.8,2946.7,199.8,2946.7,199.9z"/>
<path class="st1" d="M918.4,343.9c-55.2,0-110.5,0.1-165.7-0.1c-6.8,0-16,2.8-18.8-6c-2.3-7.1,2.3-14.8,8.2-18.8
	c14.4-9.8,21.6-24.2,30.5-38.4c13.6-21.7,34.9-33.2,61.5-27.4c13,2.8,20.3-1.5,28.8-10.7c39.4-43,101.9-40,137.6,6.5
	c8.7,11.3,16.6,20,32.2,21.1c8.1,0.6,17.7,5.4,23.2,11.5c13.7,15,24.4,32.5,44.8,40.3c5.7,2.2,9.7,9.8,7.6,16.3
	c-2.6,7.6-10.7,5.5-16.8,5.6c-57.6,0.1-115.3,0.1-172.9,0.1C918.4,343.8,918.4,343.8,918.4,343.9z"/>
<path class="st1" d="M2834.2,374c10,0,20,0,30.1,0c2.4,0,4.8,0.1,4.9,3.3s-2.1,3.9-4.8,3.9c-11.8,0-23.6,0-35.4,0.1
	c-1.6,0-3.4-0.1-4.3,1.6c-1.4,2.5,0.1,5,3.4,5.1c5.8,0.3,11.7,0.1,17.5,0.2c1.4,0,2.8,0,4.2,0c2.4,0,4.4,0.8,4.3,3.6
	c-0.1,2.8-2.1,3.5-4.5,3.5c-4.8,0-9.6,0-14.4,0c-2.2,0-3.8,0.9-3.8,3.3c-0.1,2.6,1.6,3.5,4,3.5c1.8,0,3.6,0,5.3,0.1
	c2.4,0.1,4.4,0.8,4.3,3.7c-0.1,2.9-2.1,3.5-4.4,3.5c-12.1,0-24.1,0-36.1,0c-2.4,0-4.8,0-7.2,0c-2.3,0-3.6-1.1-3.7-3.4
	c-0.1-2.3,1.3-3.5,3.5-3.7c2.5-0.1,5.1-0.1,7.6-0.1c2.3,0,4.6-0.3,4.7-3.2c0.1-3.2-2.4-3.5-4.8-3.5c-9.5,0-19,0-28.5,0
	c-4.4,0-8.9,0-13.3,0c-2.6,0-4.7-1-4.6-3.9c0.1-2.6,2.1-3.3,4.6-3.3c14.8,0,29.7,0,44.5,0c1.3,0,2.6,0,3.8-0.2
	c1.8-0.3,3.1-1.2,3.1-3.2c0-2.1-1.1-3.4-3.2-3.5c-2.7-0.2-5.3-0.1-8-0.1c-2.3-0.1-4-0.9-4-3.5c0-2.8,1.6-3.7,4.2-3.7
	C2813.4,374,2823.8,374,2834.2,374z"/>
<path class="st1" d="M212.3,441.1c16.5,0,33,0,49.6,0c4,0,8,0.1,8.1,4.8c0.1,4.7-3.5,5.6-8,5.6c-19.5,0-38.9,0.1-58.4,0.1
	c-2.7,0-5.5-0.2-7.2,2.4c-2.3,3.5,0.2,7.2,5.6,7.4c9.6,0.4,19.2,0.2,28.9,0.3c2.3,0,4.6,0,6.9,0c4,0,7.2,1.1,7.1,5.2
	c-0.1,4-3.5,5.1-7.4,5.1c-7.9,0.1-15.9,0-23.8,0c-3.7,0-6.2,1.3-6.3,4.7c-0.1,3.8,2.7,5,6.6,5c2.9,0,5.9,0,8.8,0.1
	c3.9,0.1,7.2,1.2,7.1,5.3c-0.1,4.1-3.4,5.1-7.3,5.1c-19.9,0-39.7,0-59.6,0c-4,0-7.9,0-11.9,0c-3.7,0-6-1.6-6.1-5
	c-0.1-3.3,2.1-5.1,5.8-5.3c4.2-0.2,8.4-0.1,12.5-0.1c3.8,0,7.6-0.4,7.7-4.6c0.1-4.6-4-5-7.9-5c-15.7-0.1-31.4,0-47.1,0
	c-7.3,0-14.6-0.1-22-0.1c-4.4,0-7.8-1.5-7.6-5.5c0.1-3.8,3.5-4.8,7.6-4.8c24.5,0.1,48.9,0,73.4,0c2.1,0,4.2,0,6.3-0.2
	c3-0.4,5.1-1.7,5.1-4.6c0-3-1.9-4.9-5.3-5.1c-4.4-0.2-8.8-0.1-13.2-0.2c-3.8-0.1-6.6-1.3-6.6-5.1c0-4,2.7-5.3,6.9-5.3
	C178,441.1,195.1,441.1,212.3,441.1z"/>
<path class="st2" d="M3340.1,124.6c2.8-4.1,0.1-5.6,10.2-8.5c10.8-2.1,5.5-3.3,13.5-9c13.9-11.1,22.3-26.7,33-40.4
	c26.1-33.1,78.2-27.1,97.8,10.3c4.2,8.1,10.6,10.3,17.8,14.4c18.9,10.8,39.3,20.8,52.2,39.9c3.6,7-2.7,9.4-2.7,9.4
	c-19,0.2-37.9,0.7-56.9,0.7c-59.7-0.1-119.5-0.3-179.2-0.5C3324.2,133,3338.5,125.2,3340.1,124.6z"/>
<path class="st2" d="M462.8,146.8c2.8-4.1,0.1-5.6,10.2-8.5c10.8-2.1,5.5-3.3,13.5-9c13.9-11.1,22.3-26.7,33-40.4
	c26.1-33.1,78.2-27.1,97.8,10.3c4.2,8.1,10.6,10.3,17.8,14.4c18.9,10.8,39.3,20.8,52.2,39.9c3.6,7-2.7,9.4-2.7,9.4
	c-19,0.2-37.9,0.7-56.9,0.7c-59.7-0.1-119.5-0.3-179.2-0.5C446.9,155.2,461.2,147.4,462.8,146.8z"/>
<path class="st1" d="M2450.7,438.1c-12.8,0-25.7,0-38.5,0c-3.2,0-7.7,0.7-7.6-4c0.1-4.6,4.6-3.7,7.8-3.8c3.9-0.1,7.9,0,11.8-0.1
	c2.3-0.1,4.9-0.4,4.8-3.6c-0.2-3.1-2.7-3.2-5.1-3.2c-2.3,0-4.6,0-6.8-0.1c-2.3-0.1-4.1-1-4.1-3.6c-0.1-2.7,1.6-3.7,4-3.7
	c18.6,0,37.3,0.1,55.9,0.1c2.2,0,4.3,0.6,4.3,3.4c0,3-2.2,3.7-4.7,3.8c-4.8,0.1-9.5,0-14.3,0.1c-2.5,0-5.6,0-5.5,3.4
	c0.1,3.4,3.2,3.3,5.6,3.4c9.3,0.1,18.6,0,28,0.1c1.7,0,3.3,0,5,0c2.7,0,5.3,0.8,5.2,4c0,3.2-2.7,3.8-5.4,3.8
	C2477.7,438.1,2464.2,438.1,2450.7,438.1C2450.7,438.1,2450.7,438.1,2450.7,438.1z"/>
<path class="st1" d="M683.2,452.1c-12.8,0-25.7,0-38.5,0c-3.2,0-7.7,0.7-7.6-4c0.1-4.6,4.6-3.7,7.8-3.8c3.9-0.1,7.9,0,11.8-0.1
	c2.3-0.1,4.9-0.4,4.8-3.6c-0.2-3.1-2.7-3.2-5.1-3.2c-2.3,0-4.6,0-6.8-0.1c-2.3-0.1-4.1-1-4.1-3.6c0-2.7,1.6-3.7,4-3.7
	c18.6,0,37.3,0.1,55.9,0.1c2.2,0,4.3,0.6,4.3,3.4c0,3-2.2,3.7-4.7,3.8c-4.8,0.1-9.5,0-14.3,0.1c-2.5,0-5.6,0-5.5,3.4
	c0.1,3.4,3.2,3.3,5.6,3.4c9.3,0.1,18.6,0,28,0.1c1.7,0,3.3,0,5,0c2.7,0,5.3,0.8,5.2,4c0,3.2-2.7,3.8-5.3,3.8
	C710.2,452.1,696.7,452.1,683.2,452.1C683.2,452.1,683.2,452.1,683.2,452.1z"/>
<path class="st1" d="M1609.4,405.1c29.5,0,59,0,88.5,0c7.4,0,17.7-0.7,17.4,4c-0.3,4.6-10.7,3.7-18,3.8c-9,0.1-18.1,0-27.1,0.1
	c-5.3,0.1-11.3,0.4-10.9,3.6c0.4,3.1,6.3,3.2,11.7,3.2c5.2,0,10.5,0,15.7,0.1c5.3,0.1,9.4,1,9.5,3.6c0.1,2.7-3.7,3.7-9.2,3.7
	c-42.8,0-85.6-0.1-128.4-0.1c-5.1,0-9.9-0.6-9.8-3.4c0.1-3,5.1-3.7,10.8-3.8c10.9-0.1,21.9,0,32.8-0.1c5.8,0,12.8,0,12.6-3.4
	c-0.2-3.4-7.2-3.3-12.9-3.4c-21.4-0.1-42.8,0-64.2-0.1c-3.8,0-7.6,0-11.4,0c-6.2,0-12.1-0.8-12-4c0.1-3.2,6.1-3.8,12.3-3.8
	C1547.5,405.1,1578.4,405.1,1609.4,405.1C1609.4,405.1,1609.4,405.1,1609.4,405.1z"/>
<path class="st2" d="M1707.9,156.5c3-7.4,9.8-6.8,13.8-10.3c-23.2-17.9-29.7-34.3-20.4-52.2c6.7-13,17.1-22.9,30.4-28.5
	c24.7-10.4,48.1-6.2,69.4,9.3c12.3,9,19.2,21.6,18.5,37.4c-0.3,6.8,2,8.2,7.5,4.1c5.9-4.4,12.6-7,19.9-8.2
	c15.7-2.7,26.6,2.9,31.6,17.9c2.2,6.7,5.2,8.4,11.9,7.4c22.7-3.3,40,7.5,58.3,23.2C1867.1,156.5,1788,156.5,1707.9,156.5z"/>
<path class="st2" d="M141.7,304.8c3-7.4,9.8-6.8,13.8-10.3c-23.2-17.9-29.7-34.3-20.4-52.2c6.7-13,17-22.9,30.4-28.5
	c24.7-10.4,48.1-6.2,69.4,9.3c12.3,9,19.2,21.6,18.5,37.4c-0.3,6.8,2,8.2,7.5,4.1c5.9-4.4,12.6-7,19.9-8.2
	c15.7-2.7,26.6,2.9,31.6,17.9c2.2,6.7,5.2,8.4,11.9,7.4c22.7-3.3,40,7.5,58.3,23.2C300.9,304.8,221.9,304.8,141.7,304.8z"/>
<path class="st2" d="M2516.7,249c-152.5,0-305.1,0-459.6,0c8.5-12.2,20.4-14.3,31.7-16c13.6-2,27.5-3.1,41.3-2.8
	c11.5,0.3,18-3.7,23.2-14.1c11.5-23.3,29.9-38,56.8-40c10.7-0.8,21.4-0.1,30,6.8c8.3,6.7,10.3,2.9,13.3-5
	c12.3-32.2,35.5-44.7,69.4-38.2c20.6,3.9,33.6,19.6,34.7,44.4c0.5,13.2,2.4,16.6,15.9,9.9c29.1-14.3,54-6.3,70.7,21.9
	c4.7,8,10.4,11.3,18.7,10.2C2484.5,223.5,2500.7,235,2516.7,249z"/>
<path class="st2" d="M1657.3,219.1c-152.5,0-305.1,0-459.6,0c8.5-12.2,20.4-14.3,31.7-16c13.6-2,27.5-3.1,41.3-2.8
	c11.5,0.3,18-3.7,23.2-14.1c11.5-23.3,29.9-38,56.8-40c10.7-0.8,21.4-0.1,30,6.8c8.3,6.7,10.3,2.9,13.3-5
	c12.3-32.2,35.5-44.7,69.4-38.2c20.6,3.9,33.6,19.6,34.7,44.4c0.5,13.2,2.4,16.6,15.9,9.9c29.1-14.3,54-6.3,70.7,21.9
	c4.7,8,10.4,11.3,18.7,10.2C1625.1,193.6,1641.4,205.1,1657.3,219.1z"/>
</svg>
