<?xml version="1.0" encoding="utf-8"?>
<!-- Generator: Adobe Illustrator 23.0.2, SVG Export Plug-In . SVG Version: 6.00 Build 0)  -->
<svg version="1.1" id="Calque_1" xmlns="http://www.w3.org/2000/svg" xmlns:xlink="http://www.w3.org/1999/xlink" x="0px" y="0px"
	 viewBox="0 0 1920 1080" style="enable-background:new 0 0 1920 1080;" xml:space="preserve">
<style type="text/css">
	.st0{fill:url(#SVGID_1_);}
	.st1{fill:#333333;}
	.st2{fill:#BEB53A;}
	.st3{fill:none;stroke:#000000;stroke-width:0.25;stroke-miterlimit:10;}
	.st4{fill:#666666;}
	.st5{fill:#C2C2C2;}
	.st6{fill:#717171;}
	.st7{fill:#5F5B1D;}
	.st8{fill:#8F882C;}
	.st9{opacity:0.44;fill:url(#SVGID_2_);enable-background:new    ;}
	.st10{fill:none;stroke:#000000;stroke-width:0.5;stroke-miterlimit:10;}
	.st11{fill:none;stroke:#000000;stroke-width:0.5;stroke-miterlimit:10;stroke-dasharray:12.2363,12.2363;}
	.st12{fill:none;stroke:#000000;stroke-width:0.5;stroke-miterlimit:10;stroke-dasharray:11.9713,11.9713;}
	.st13{fill:none;stroke:#333333;stroke-width:10;stroke-miterlimit:10;}
	.st14{fill:#1A1A1A;}
	.st15{fill:#FDF14D;}
	.st16{fill:#FFFFFF;}
	.st17{fill:#F8D0D3;}
	.st18{fill:#4D4D4D;}
	.st19{fill:#B3B3B3;stroke:#000000;stroke-width:0.25;stroke-miterlimit:10;}
	.st20{fill:#CCCCCC;stroke:#000000;stroke-width:0.25;stroke-miterlimit:10;}
	.st21{fill:none;stroke:#FDF14D;stroke-linecap:round;stroke-miterlimit:10;}
	.st22{fill:#F9D9DC;}
	.st23{fill:none;stroke:#333333;stroke-miterlimit:10;}
	.st24{fill:none;stroke:#333333;stroke-width:0.5;stroke-miterlimit:10;}
	.st25{fill:#F2F2F2;stroke:#666666;stroke-miterlimit:10;}
	.st26{fill:none;stroke:#666666;stroke-linecap:round;stroke-miterlimit:10;}
	.st27{fill:none;stroke:#666666;stroke-width:3;stroke-linecap:round;stroke-miterlimit:10;}
	.st28{fill:none;stroke:#FDF14D;stroke-width:3;stroke-linecap:round;stroke-miterlimit:10;}
	.st29{fill:#B3B3B3;stroke:#000000;stroke-width:0.5;stroke-miterlimit:10;}
	.st30{fill:#FCECED;}
	.st31{fill:none;stroke:#FFCADE;stroke-miterlimit:10;}
	.st32{fill:#FFCADE;}
	.st33{fill:#A9DDF3;}
	.st34{fill:#F3FBFC;}
	.st35{fill:#F9FDFD;}
	.st36{fill:#538970;}
	.st37{fill:#6EB795;}
	.st38{fill:#082223;}
	.st39{opacity:0.43;}
	.st40{fill:url(#SVGID_3_);}
</style>
<linearGradient id="SVGID_1_" gradientUnits="userSpaceOnUse" x1="1890.2303" y1="1676.9617" x2="2847.7695" y2="3335.4683" gradientTransform="matrix(1 0 0 -1 0 1080)">
	<stop  offset="5.780000e-02" style="stop-color:#E2AF9D"/>
	<stop  offset="0.2543" style="stop-color:#DFAC9E"/>
	<stop  offset="0.4255" style="stop-color:#D7A1A2"/>
	<stop  offset="0.5871" style="stop-color:#C98FA8"/>
	<stop  offset="0.743" style="stop-color:#B576B0"/>
	<stop  offset="0.8934" style="stop-color:#9B56BB"/>
	<stop  offset="1" style="stop-color:#853AC4"/>
</linearGradient>
<rect x="1375" y="-1958" class="st0" width="1988" height="1063.6"/>
<g>
	<g>
		<polygon class="st1" points="2076.5,-1607.6 2037.3,-1607.6 2037.3,-1849 2076.5,-1838.3 		"/>
		<polygon class="st1" points="2037.3,-1607.6 1965.7,-1607.6 1965.7,-1845.3 2037.3,-1849 		"/>
		<polygon class="st1" points="1660.6,-1607.6 1688.5,-1607.6 1688.5,-1800.8 1660.6,-1801.1 		"/>
		<polygon class="st1" points="1688.5,-1607.6 1727.3,-1607.6 1727.3,-1798.2 1688.5,-1800.8 		"/>
		<polygon class="st1" points="1843.7,-1607.6 1766.9,-1607.6 1766.9,-1800 1842.9,-1799.1 		"/>
		<polygon class="st1" points="1863.5,-1607.6 1842.9,-1607.6 1842.9,-1799.1 1863.5,-1797.3 		"/>
		<polygon class="st1" points="1515.6,-1607.6 1438.8,-1607.6 1438.8,-1862 1514.8,-1880 		"/>
		<polygon class="st1" points="1602.8,-1607.6 1514.8,-1607.6 1514.8,-1880 1602.8,-1867.5 		"/>
		<polygon class="st1" points="1523.2,-1607.6 1593.2,-1607.6 1593.2,-1830.5 1523.2,-1826.1 		"/>
		<polygon class="st1" points="1593.2,-1607.6 1663.1,-1607.6 1663.1,-1824 1593.2,-1830.5 		"/>
		<polygon class="st1" points="1722.1,-1607.6 1645.3,-1607.6 1645.3,-1743.8 1721.3,-1745.1 		"/>
		<polygon class="st1" points="1645.3,-1607.6 1604.9,-1607.6 1604.9,-1749.2 1644.8,-1743.1 		"/>
		<polygon class="st1" points="1721.3,-1745.1 1644.1,-1743.2 1604.9,-1749.2 1678,-1750.3 		"/>
		<polygon class="st1" points="1830.8,-1607.6 1756,-1607.6 1756,-1768 1830.8,-1766.9 		"/>
		<polygon class="st1" points="1756,-1607.6 1707.1,-1607.6 1707.1,-1769 1756,-1768 		"/>
		<polygon class="st1" points="1970.2,-1607.6 1941.1,-1607.6 1941.1,-1828.4 1970.2,-1823.4 		"/>
		<polygon class="st1" points="1941.1,-1607.6 1859.4,-1607.6 1859.4,-1825.8 1941.1,-1828.4 		"/>
		<polygon class="st1" points="2007,-1607.6 1977.9,-1607.6 1977.9,-1763.8 2007,-1761.9 		"/>
		<polygon class="st1" points="1977.9,-1607.6 1896.2,-1607.6 1894.2,-1764.6 1977.9,-1763.8 		"/>
		<polygon class="st1" points="1569.3,-1607.6 1478,-1607.6 1478,-1781.3 1569.3,-1778.9 		"/>
		<polygon class="st1" points="1478,-1607.6 1402,-1607.6 1402,-1783.1 1478,-1781.3 		"/>
	</g>
	<g>
		<polygon class="st1" points="2696.4,-1551.8 2657.2,-1551.8 2657.2,-1793.2 2696.4,-1782.5 		"/>
		<polygon class="st1" points="2657.2,-1551.8 2585.6,-1551.8 2585.6,-1789.5 2657.2,-1793.2 		"/>
		<polygon class="st1" points="2280.5,-1551.8 2308.4,-1551.8 2308.4,-1745 2280.5,-1745.3 		"/>
		<polygon class="st1" points="2308.4,-1551.8 2347.2,-1551.8 2347.2,-1742.4 2308.4,-1745 		"/>
		<polygon class="st1" points="2463.6,-1551.8 2386.8,-1551.8 2386.8,-1744.2 2462.8,-1743.3 		"/>
		<polygon class="st1" points="2483.4,-1551.8 2462.8,-1551.8 2462.8,-1743.3 2483.4,-1741.5 		"/>
		<polygon class="st1" points="2135.5,-1551.8 2058.7,-1551.8 2058.7,-1806.2 2134.7,-1824.2 		"/>
		<polygon class="st1" points="2222.8,-1551.8 2134.7,-1551.8 2134.7,-1824.2 2222.8,-1811.7 		"/>
		<polygon class="st1" points="2143.1,-1551.8 2213.1,-1551.8 2213.1,-1774.7 2143.1,-1770.3 		"/>
		<polygon class="st1" points="2213.1,-1551.8 2283,-1551.8 2283,-1768.2 2213.1,-1774.7 		"/>
		<polygon class="st1" points="2342,-1551.8 2265.2,-1551.8 2265.2,-1688 2341.2,-1689.3 		"/>
		<polygon class="st1" points="2265.2,-1551.8 2224.8,-1551.8 2224.8,-1693.4 2264.8,-1687.3 		"/>
		<polygon class="st1" points="2341.2,-1689.3 2264,-1687.4 2224.8,-1693.4 2297.9,-1694.5 		"/>
		<polygon class="st1" points="2450.7,-1551.8 2375.9,-1551.8 2375.9,-1712.2 2450.7,-1711.1 		"/>
		<polygon class="st1" points="2375.9,-1551.8 2327,-1551.8 2327,-1713.2 2375.9,-1712.2 		"/>
		<polygon class="st1" points="2590.1,-1551.8 2561,-1551.8 2561,-1772.6 2590.1,-1767.7 		"/>
		<polygon class="st1" points="2561,-1551.8 2479.4,-1551.8 2479.4,-1770 2561,-1772.6 		"/>
		<polygon class="st1" points="2626.9,-1551.8 2597.8,-1551.8 2597.8,-1708 2626.9,-1706.1 		"/>
		<polygon class="st1" points="2597.8,-1551.8 2516.1,-1551.8 2514.1,-1708.8 2597.8,-1708 		"/>
		<polygon class="st1" points="2189.2,-1551.8 2097.9,-1551.8 2097.9,-1725.5 2189.2,-1723.1 		"/>
		<polygon class="st1" points="2097.9,-1551.8 2021.9,-1551.8 2021.9,-1727.3 2097.9,-1725.5 		"/>
	</g>
	<g>
		<polygon class="st1" points="3351,-1589.2 3311.8,-1589.2 3311.8,-1830.6 3351,-1819.9 		"/>
		<polygon class="st1" points="3311.8,-1589.2 3240.3,-1589.2 3240.3,-1826.9 3311.8,-1830.6 		"/>
		<polygon class="st1" points="2935.2,-1589.2 2963.1,-1589.2 2963.1,-1782.4 2935.2,-1782.7 		"/>
		<polygon class="st1" points="2963.1,-1589.2 3001.9,-1589.2 3001.9,-1779.8 2963.1,-1782.4 		"/>
		<polygon class="st1" points="3118.2,-1589.2 3041.4,-1589.2 3041.4,-1781.6 3117.4,-1780.7 		"/>
		<polygon class="st1" points="3138,-1589.2 3117.4,-1589.2 3117.4,-1780.7 3138,-1778.9 		"/>
		<polygon class="st1" points="2790.1,-1589.2 2713.3,-1589.2 2713.3,-1843.6 2789.3,-1861.6 		"/>
		<polygon class="st1" points="2877.4,-1589.2 2789.3,-1589.2 2789.3,-1861.6 2877.4,-1849.1 		"/>
		<polygon class="st1" points="2797.8,-1589.2 2867.7,-1589.2 2867.7,-1812.1 2797.8,-1807.7 		"/>
		<polygon class="st1" points="2867.7,-1589.2 2937.6,-1589.2 2937.6,-1805.6 2867.7,-1812.1 		"/>
		<polygon class="st1" points="2996.6,-1589.2 2919.8,-1589.2 2919.8,-1725.4 2995.8,-1726.7 		"/>
		<polygon class="st1" points="2919.8,-1589.2 2879.4,-1589.2 2879.4,-1730.8 2919.4,-1724.7 		"/>
		<polygon class="st1" points="2995.8,-1726.7 2918.6,-1724.8 2879.4,-1730.8 2952.6,-1731.9 		"/>
		<polygon class="st1" points="3105.3,-1589.2 3030.5,-1589.2 3030.5,-1749.6 3105.3,-1748.6 		"/>
		<polygon class="st1" points="3030.5,-1589.2 2981.6,-1589.2 2981.6,-1750.6 3030.5,-1749.6 		"/>
		<polygon class="st1" points="3244.7,-1589.2 3215.6,-1589.2 3215.6,-1810 3244.7,-1805.1 		"/>
		<polygon class="st1" points="3215.6,-1589.2 3134,-1589.2 3134,-1807.4 3215.6,-1810 		"/>
		<polygon class="st1" points="3281.5,-1589.2 3252.4,-1589.2 3252.4,-1745.4 3281.5,-1743.5 		"/>
		<polygon class="st1" points="3252.4,-1589.2 3170.8,-1589.2 3168.8,-1746.2 3252.4,-1745.4 		"/>
		<polygon class="st1" points="2843.8,-1589.2 2752.5,-1589.2 2752.5,-1762.9 2843.8,-1760.5 		"/>
		<polygon class="st1" points="2752.5,-1589.2 2676.5,-1589.2 2676.5,-1764.7 2752.5,-1762.9 		"/>
	</g>
	<rect x="1402" y="-1678.1" class="st1" width="1949" height="866.1"/>
</g>
<g>
	<path class="st2" d="M2734-924"/>
	<path class="st3" d="M3201-1047"/>
	<path class="st3" d="M3201-1047"/>
	<path class="st2" d="M2734-924"/>
	<path class="st3" d="M3201-1047"/>
	<rect x="2801" y="-1827.2" class="st4" width="377" height="1027.2"/>
	<polygon class="st5" points="3260,-800 3178,-800 3178,-1827.2 3260,-1792.8 	"/>
	<path class="st2" d="M3136.4-1743h-293.9c-4.7,0-8.6-3.8-8.6-8.6v-31.9c0-4.7,3.8-8.6,8.6-8.6h293.9c4.7,0,8.6,3.8,8.6,8.6v31.9
		C3145-1746.8,3141.2-1743,3136.4-1743z"/>
	<path class="st1" d="M3136.4-1661h-293.9c-4.7,0-8.6-3.8-8.6-8.6v-31.9c0-4.7,3.8-8.6,8.6-8.6h293.9c4.7,0,8.6,3.8,8.6,8.6v31.9
		C3145-1664.8,3141.2-1661,3136.4-1661z"/>
	<path class="st2" d="M3136.4-1579h-293.9c-4.7,0-8.6-3.8-8.6-8.6v-31.9c0-4.7,3.8-8.6,8.6-8.6h293.9c4.7,0,8.6,3.8,8.6,8.6v31.9
		C3145-1582.8,3141.2-1579,3136.4-1579z"/>
	<path class="st2" d="M3136.4-1497h-293.9c-4.7,0-8.6-3.8-8.6-8.6v-31.9c0-4.7,3.8-8.6,8.6-8.6h293.9c4.7,0,8.6,3.8,8.6,8.6v31.9
		C3145-1500.8,3141.2-1497,3136.4-1497z"/>
	<rect x="1555" y="-2077" class="st4" width="341.7" height="1277"/>
	<polygon class="st5" points="1971,-800 1896.7,-800 1896.7,-2077 1970.1,-1999.4 	"/>
	<path class="st3" d="M3190-688"/>
	<path class="st3" d="M3190-688"/>
	<path class="st3" d="M3190-688"/>
	<g>
		<rect x="1706" y="-1779.9" class="st6" width="377" height="979.9"/>
		<polygon class="st5" points="2165,-800 2083,-800 2083,-1779.9 2164,-1720.4 		"/>
		<rect x="1724" y="-1764" class="st2" width="345" height="19"/>
		<rect x="1724" y="-1726" class="st1" width="345" height="19"/>
		<rect x="1724" y="-1688" class="st2" width="345" height="19"/>
		<rect x="1724" y="-1650" class="st1" width="345" height="19"/>
		<rect x="1724" y="-1612" class="st1" width="345" height="19"/>
		<rect x="1724" y="-1574" class="st2" width="345" height="19"/>
		<rect x="1724" y="-1536" class="st2" width="345" height="19"/>
		<rect x="1724" y="-1498" class="st2" width="345" height="19"/>
		<rect x="1724" y="-1460" class="st2" width="345" height="19"/>
		<rect x="1724" y="-1422" class="st2" width="345" height="19"/>
		<rect x="1724" y="-1384" class="st1" width="345" height="19"/>
		<rect x="1724" y="-1346" class="st1" width="345" height="19"/>
		<rect x="1724" y="-1308" class="st2" width="345" height="19"/>
		<rect x="1724" y="-1270" class="st1" width="345" height="19"/>
		<rect x="1724" y="-1232" class="st1" width="345" height="19"/>
		<rect x="1724" y="-1194" class="st1" width="345" height="19"/>
		<rect x="1724" y="-1156" class="st2" width="345" height="19"/>
		<rect x="1724" y="-1118" class="st1" width="345" height="19"/>
		<rect x="1724" y="-1080" class="st2" width="345" height="19"/>
		<rect x="1724" y="-1042" class="st2" width="345" height="19"/>
		<rect x="1724" y="-1004" class="st2" width="345" height="19"/>
	</g>
	<g>
		<rect x="1428" y="-1632.4" class="st4" width="377" height="832.4"/>
		<polygon class="st5" points="1887,-800 1805,-800 1805,-1632.4 1886,-1581.8 		"/>
		<rect x="1443" y="-1615" class="st7" width="345" height="19"/>
		<rect x="1443" y="-1579" class="st7" width="345" height="19"/>
		<rect x="1443" y="-1543" class="st1" width="345" height="19"/>
		<rect x="1443" y="-1507" class="st7" width="345" height="19"/>
		<rect x="1443" y="-1471" class="st1" width="345" height="19"/>
		<rect x="1443" y="-1435" class="st7" width="345" height="19"/>
		<rect x="1443" y="-1399" class="st1" width="345" height="19"/>
		<rect x="1443" y="-1363" class="st7" width="345" height="19"/>
		<rect x="1443" y="-1327" class="st7" width="345" height="19"/>
		<rect x="1443" y="-1291" class="st7" width="345" height="19"/>
		<rect x="1443" y="-1255" class="st7" width="345" height="19"/>
		<rect x="1443" y="-1219" class="st1" width="345" height="19"/>
		<rect x="1443" y="-1183" class="st7" width="345" height="19"/>
		<rect x="1443" y="-1147" class="st7" width="345" height="19"/>
		<rect x="1443" y="-1111" class="st7" width="345" height="19"/>
		<rect x="1443" y="-1075" class="st1" width="345" height="19"/>
		<rect x="1443" y="-1039" class="st1" width="345" height="19"/>
		<rect x="1443" y="-1003" class="st1" width="345" height="19"/>
		<rect x="1443" y="-967" class="st7" width="345" height="19"/>
		<rect x="1443" y="-931" class="st7" width="345" height="19"/>
		<rect x="1479" y="-1624" class="st4" width="18" height="732"/>
		<rect x="1534" y="-1633" class="st4" width="18" height="732"/>
		<rect x="1725" y="-1633" class="st4" width="18" height="732"/>
		<rect x="1660" y="-1633" class="st4" width="18" height="732"/>
		<rect x="1597" y="-1621" class="st4" width="18" height="732"/>
	</g>
	<polygon class="st5" points="2370,-800 2324.4,-800 2324.4,-1716.9 2369,-1686.5 	"/>
	<rect x="2115" y="-1716.9" class="st4" width="209.4" height="916.9"/>
	<rect x="2128" y="-1700" class="st8" width="50" height="50"/>
	<rect x="2195" y="-1700" class="st8" width="50" height="50"/>
	<rect x="2261" y="-1700" class="st1" width="50" height="50"/>
	<rect x="2128" y="-1637" class="st1" width="50" height="50"/>
	<rect x="2195" y="-1637" class="st8" width="50" height="50"/>
	<rect x="2261" y="-1637" class="st8" width="50" height="50"/>
	<rect x="2128" y="-1511" class="st1" width="50" height="50"/>
	<rect x="2195" y="-1511" class="st8" width="50" height="50"/>
	<rect x="2261" y="-1511" class="st8" width="50" height="50"/>
	<rect x="2128" y="-1448" class="st8" width="50" height="50"/>
	<rect x="2195" y="-1448" class="st1" width="50" height="50"/>
	<rect x="2261" y="-1448" class="st8" width="50" height="50"/>
	<rect x="2128" y="-1385" class="st1" width="50" height="50"/>
	<rect x="2195" y="-1385" class="st1" width="50" height="50"/>
	<rect x="2261" y="-1385" class="st8" width="50" height="50"/>
	<rect x="2128" y="-1259" class="st1" width="50" height="50"/>
	<rect x="2195" y="-1259" class="st1" width="50" height="50"/>
	<rect x="2261" y="-1259" class="st8" width="50" height="50"/>
	<rect x="2128" y="-1196" class="st1" width="50" height="50"/>
	<rect x="2195" y="-1196" class="st1" width="50" height="50"/>
	<rect x="2261" y="-1196" class="st1" width="50" height="50"/>
	<rect x="2128" y="-1133" class="st1" width="50" height="50"/>
	<rect x="2195" y="-1133" class="st8" width="50" height="50"/>
	<rect x="2261" y="-1133" class="st1" width="50" height="50"/>
	<rect x="2128" y="-1007" class="st8" width="50" height="50"/>
	<rect x="2195" y="-1007" class="st1" width="50" height="50"/>
	<rect x="2261" y="-1007" class="st1" width="50" height="50"/>
	<rect x="2128" y="-944" class="st8" width="50" height="50"/>
	<rect x="2195" y="-944" class="st8" width="50" height="50"/>
	<rect x="2261" y="-944" class="st1" width="50" height="50"/>
	<rect x="2289" y="-1554" class="st6" width="197.9" height="754"/>
	<polygon class="st5" points="2530,-800 2486.9,-800 2486.9,-1554 2529.5,-1508.2 	"/>
	<rect x="2349" y="-1527" class="st2" width="69" height="26"/>
	<rect x="2349" y="-1479" class="st1" width="69" height="26"/>
	<rect x="2349" y="-1431" class="st2" width="69" height="26"/>
	<rect x="2349" y="-1383" class="st2" width="69" height="26"/>
	<rect x="2349" y="-1335" class="st2" width="69" height="26"/>
	<rect x="2349" y="-1287" class="st2" width="69" height="26"/>
	<rect x="2349" y="-1239" class="st1" width="69" height="26"/>
	<rect x="2349" y="-1191" class="st2" width="69" height="26"/>
	<rect x="2349" y="-1143" class="st1" width="69" height="26"/>
	<rect x="2350" y="-1064" class="st1" width="69" height="82"/>
	<rect x="2601" y="-1734.7" class="st4" width="243.1" height="934.7"/>
	<polygon class="st5" points="2897,-800 2844.1,-800 2844.1,-1734.7 2896,-1723.8 	"/>
	<rect x="2629" y="-1712" class="st2" width="80" height="18"/>
	<rect x="2740" y="-1712" class="st2" width="80" height="18"/>
	<rect x="2629" y="-1646" class="st1" width="80" height="18"/>
	<rect x="2740" y="-1646" class="st1" width="80" height="18"/>
	<rect x="2629" y="-1580" class="st2" width="80" height="18"/>
	<rect x="2740" y="-1580" class="st2" width="80" height="18"/>
	<rect x="2629" y="-1514" class="st1" width="80" height="18"/>
	<rect x="2740" y="-1514" class="st2" width="80" height="18"/>
	<rect x="2629" y="-1448" class="st1" width="80" height="18"/>
	<rect x="2740" y="-1448" class="st1" width="80" height="18"/>
	<rect x="2629" y="-1382" class="st1" width="80" height="18"/>
	<rect x="2740" y="-1382" class="st1" width="80" height="18"/>
	<rect x="2629" y="-1316" class="st1" width="80" height="18"/>
	<rect x="2740" y="-1316" class="st2" width="80" height="18"/>
	<rect x="2629" y="-1250" class="st1" width="80" height="18"/>
	<rect x="2740" y="-1250" class="st2" width="80" height="18"/>
	<rect x="2629" y="-1184" class="st2" width="80" height="18"/>
	<rect x="2740" y="-1184" class="st1" width="80" height="18"/>
	<rect x="2629" y="-1118" class="st2" width="80" height="18"/>
	<rect x="2740" y="-1118" class="st2" width="80" height="18"/>
	<rect x="2629" y="-1052" class="st1" width="80" height="18"/>
	<rect x="2740" y="-1052" class="st2" width="80" height="18"/>
	<rect x="2881" y="-1632.3" class="st6" width="209.4" height="832.3"/>
	<polygon class="st5" points="3136,-800 3090.4,-800 3090.4,-1632.3 3135,-1626.3 	"/>
	<rect x="2898" y="-1605" class="st2" width="25.9" height="78"/>
	<rect x="2969.1" y="-1605" class="st2" width="25.9" height="78"/>
	<rect x="3040.1" y="-1605" class="st1" width="25.9" height="78"/>
	<rect x="2898" y="-1500" class="st2" width="25.9" height="78"/>
	<rect x="2969.1" y="-1500" class="st1" width="25.9" height="78"/>
	<rect x="3040.1" y="-1500" class="st1" width="25.9" height="78"/>
	<rect x="2898" y="-1395" class="st1" width="25.9" height="78"/>
	<rect x="2969.1" y="-1395" class="st2" width="25.9" height="78"/>
	<rect x="3040.1" y="-1395" class="st1" width="25.9" height="78"/>
	<rect x="2898" y="-1290" class="st1" width="25.9" height="78"/>
	<rect x="2969.1" y="-1290" class="st1" width="25.9" height="78"/>
	<rect x="3040.1" y="-1290" class="st2" width="25.9" height="78"/>
	<rect x="2898" y="-1185" class="st1" width="25.9" height="78"/>
	<rect x="2969.1" y="-1185" class="st1" width="25.9" height="78"/>
	<rect x="3040.1" y="-1185" class="st2" width="25.9" height="78"/>
	<rect x="2898" y="-1080" class="st2" width="25.9" height="78"/>
	<rect x="2969.1" y="-1080" class="st2" width="25.9" height="78"/>
	<rect x="3040.1" y="-1080" class="st2" width="25.9" height="78"/>
	<rect x="2898" y="-975" class="st2" width="25.9" height="78"/>
	<rect x="2969.1" y="-975" class="st1" width="25.9" height="78"/>
	<rect x="3040.1" y="-975" class="st1" width="25.9" height="78"/>
</g>
<linearGradient id="SVGID_2_" gradientUnits="userSpaceOnUse" x1="1891.584" y1="1622.6254" x2="2842.416" y2="3269.5146" gradientTransform="matrix(1 0 0 -1 0 1080)">
	<stop  offset="5.780000e-02" style="stop-color:#E2AF9D"/>
	<stop  offset="0.2543" style="stop-color:#DFAC9E"/>
	<stop  offset="0.4255" style="stop-color:#D7A1A2"/>
	<stop  offset="0.5871" style="stop-color:#C98FA8"/>
	<stop  offset="0.743" style="stop-color:#B576B0"/>
	<stop  offset="0.8934" style="stop-color:#9B56BB"/>
	<stop  offset="1" style="stop-color:#853AC4"/>
</linearGradient>
<rect x="1373" y="-1890.1" class="st9" width="1988" height="1048.1"/>
<rect x="-1000" y="-981" class="st1" width="2099" height="104"/>
<g>
	
		<image style="overflow:visible;enable-background:new    ;" width="2171" height="97" xlink:href="C3827F91.png"  transform="matrix(1 0 0 1 -1036 -1028)">
	</image>
</g>
<g>
	<g>
		<path class="st10" d="M-230-1326c2,0.4,3.9,0.8,5.9,1.2"/>
		<path class="st11" d="M-212.1-1322.5c175.5,32.9,351.9,32.2,529.2-1.2"/>
		<path class="st10" d="M323.1-1324.9c2-0.4,3.9-0.8,5.9-1.1"/>
	</g>
</g>
<g>
	<g>
		<path class="st10" d="M329-1323c2,0.4,3.9,0.8,5.9,1.2"/>
		<path class="st12" d="M346.6-1319.5c171.7,32.9,344.2,32.1,517.6-1.2"/>
		<path class="st10" d="M870.1-1321.8c2-0.4,3.9-0.8,5.9-1.2"/>
	</g>
</g>
<line class="st13" x1="873" y1="-1001" x2="873" y2="-1381"/>
<path class="st13" d="M836-1378c-3-64,37-67,37.4-2.1"/>
<path class="st14" d="M836-1318L836-1318c-17.5,0-31.7-14.2-31.7-31.7v-23.3c0-4.4,3.6-8,8-8h47.3c4.4,0,8,3.6,8,8v23.3
	C867.7-1332.2,853.5-1318,836-1318z"/>
<path class="st14" d="M836-1309L836-1309c-22,0-39.8-17.8-39.8-39.8v-11.7c0-7.6,6.1-13.7,13.7-13.7h52.3c7.6,0,13.7,6.1,13.7,13.7
	v11.7C875.8-1326.8,858-1309,836-1309z"/>
<path class="st15" d="M836-1314.1L836-1314.1c-19.3,0-35-15.7-35-35v-11c0-4.9,4-8.9,8.9-8.9h52.3c4.9,0,8.9,4,8.9,8.9v11
	C871-1329.8,855.3-1314.1,836-1314.1z"/>
<path class="st1" d="M890-1001h-34l3-220.8c9.2-2.9,18.2-3,27,0L890-1001z"/>
<g>
	<rect x="-834" y="-1457" class="st16" width="427" height="450"/>
</g>
<g>
	<rect x="-846" y="-1614.1" class="st17" width="451" height="264.8"/>
</g>
<g>
	<path class="st18" d="M-411.4-1284h-418.1c-22.5,0-19.3-18.7-19.3-41.7l0,0c0-23,18.3-41.7,40.8-41.7H-433
		c22.5,0,40.8,18.7,40.8,41.7l0,0C-392.2-1302.7-388.9-1284-411.4-1284z"/>
</g>
<rect x="818.4" y="-1046.1" transform="matrix(0.3284 -0.9445 0.9445 0.3284 1563.561 128.911)" class="st18" width="108" height="22"/>
<rect x="807.1" y="-1056" transform="matrix(0.3284 -0.9445 0.9445 0.3284 1559.6821 115.5609)" class="st4" width="108" height="34"/>
<rect x="672.5" y="-1087.1" transform="matrix(0.9445 -0.3284 0.3284 0.9445 377.1919 167.1572)" class="st18" width="22" height="108"/>
<rect x="677.8" y="-1091" transform="matrix(0.9445 -0.3284 0.3284 0.9445 379.1133 170.6635)" class="st4" width="34" height="108"/>
<polygon class="st14" points="913.7,-1021 641.6,-1021 593,-1037 608.4,-1073.8 613,-1081 689.2,-1107 872.9,-1107 947,-1082 
	951,-1073.6 963,-1039.1 "/>
<polygon class="st1" points="903.2,-1055 658.9,-1055 608,-1074 635.5,-1115.9 701.6,-1120 866.5,-1120 932,-1116 951,-1074.1 "/>
<polygon class="st19" points="901,-1063 661,-1063 612,-1080 638,-1120 703,-1124 865,-1124 930,-1121 948,-1081 "/>
<polygon class="st20" points="892,-1104 673,-1104 638,-1120 638,-1120 703,-1124 865,-1124 930,-1121 930,-1121 "/>
<line class="st21" x1="914" y1="-1041" x2="951.5" y2="-1053.5"/>
<line class="st21" x1="643.5" y1="-1041" x2="606" y2="-1053.5"/>
<line class="st21" x1="662.5" y1="-1038" x2="892.5" y2="-1038"/>
<g>
	<polygon class="st22" points="-771,-1352.9 -837,-1352.9 -687,-1634 -621,-1634 	"/>
</g>
<g>
	<polygon class="st22" points="-731,-1352.9 -752,-1352.9 -602,-1634 -581,-1634 	"/>
</g>
<g>
	<path class="st1" d="M-391.9-1325.7H-849c-2.7,0-4.9-2.2-4.9-4.9v-31.8c0-2.7,2.2-4.9,4.9-4.9h457.1c2.7,0,4.9,2.2,4.9,4.9v31.8
		C-387-1327.9-389.2-1325.7-391.9-1325.7z"/>
</g>
<g>
	<path class="st1" d="M-394.8-1612h-451.4c-4.3,0-7.8-3.5-7.8-7.8v-7.4c0-4.3,3.5-7.8,7.8-7.8h451.4c4.3,0,7.8,3.5,7.8,7.8v7.4
		C-387-1615.5-390.5-1612-394.8-1612z"/>
</g>
<g>
	<path class="st1" d="M-462.6-1628h-315.7c-4.2,0-7.7-3.4-7.7-7.7l0,0c0-8.5,6.9-15.3,15.3-15.3h300.3c8.5,0,15.4,6.9,15.4,15.3l0,0
		C-455-1631.4-458.4-1628-462.6-1628z"/>
</g>
<g>
	<path class="st1" d="M-519.5-1640h-202c-6.3,0-11.5-5.2-11.5-11.5l0,0c0-6.3,5.2-11.5,11.5-11.5h202c6.3,0,11.5,5.2,11.5,11.5l0,0
		C-508-1645.2-513.2-1640-519.5-1640z"/>
</g>
<g>
	<rect x="-684.5" y="-1770" class="st1" width="30.3" height="120.2"/>
</g>
<g>
	<polygon class="st1" points="-645.4,-1721.1 -693.3,-1721.1 -705,-1770 -633.7,-1770 	"/>
</g>
<g>
	<rect x="-620.2" y="-1714.7" class="st1" width="23" height="63.9"/>
</g>
<g>
	<rect x="-612" y="-1714.7" class="st1" width="26" height="15.6"/>
</g>
<line class="st23" x1="-834" y1="-1229" x2="-407" y2="-1229"/>
<line class="st13" x1="-847" y1="-1481.5" x2="-394.5" y2="-1481.5"/>
<line class="st13" x1="-501" y1="-1616" x2="-501" y2="-1347"/>
<line class="st13" x1="-741" y1="-1616" x2="-741" y2="-1347"/>
<line class="st24" x1="-834" y1="-1187.5" x2="-407" y2="-1187.5"/>
<line class="st24" x1="-834" y1="-1146" x2="-407" y2="-1146"/>
<line class="st24" x1="-834" y1="-1104.5" x2="-407" y2="-1104.5"/>
<line class="st24" x1="-834" y1="-1063" x2="-407" y2="-1063"/>
<path class="st25" d="M-540.7-999.5h-161.5c-8.1,0-14.7-6.6-14.7-14.7v-141c0-8.1,6.6-14.7,14.7-14.7h161.5
	c8.1,0,14.7,6.6,14.7,14.7v141C-526-1006.1-532.6-999.5-540.7-999.5z"/>
<g>
	<rect x="-854" y="-1014" class="st1" width="467" height="16"/>
</g>
<line class="st26" x1="-621.5" y1="-1145.5" x2="-621.5" y2="-1025.5"/>
<line class="st27" x1="-576.5" y1="-1100.5" x2="-576.5" y2="-1064.5"/>
<line class="st27" x1="-670.5" y1="-1100.5" x2="-670.5" y2="-1064.5"/>
<line class="st13" x1="-230" y1="-1000" x2="-230" y2="-1380"/>
<path class="st13" d="M-267-1377c-3-64,37-67,37.4-2.1"/>
<path class="st14" d="M-267-1317L-267-1317c-17.5,0-31.7-14.2-31.7-31.7v-23.3c0-4.4,3.6-8,8-8h47.3c4.4,0,8,3.6,8,8v23.3
	C-235.3-1331.2-249.5-1317-267-1317z"/>
<path class="st14" d="M-267-1308L-267-1308c-22,0-39.8-17.8-39.8-39.8v-11.7c0-7.6,6.1-13.7,13.7-13.7h52.3
	c7.6,0,13.7,6.1,13.7,13.7v11.7C-227.2-1325.8-245-1308-267-1308z"/>
<path class="st15" d="M-267-1313.1L-267-1313.1c-19.3,0-35-15.7-35-35v-11c0-4.9,4-8.9,8.9-8.9h52.3c4.9,0,8.9,4,8.9,8.9v11
	C-232-1328.8-247.7-1313.1-267-1313.1z"/>
<path class="st1" d="M-213-1000h-34l3-220.8c9.2-2.9,18.2-3,27,0L-213-1000z"/>
<line class="st13" x1="329" y1="-1002" x2="329" y2="-1382"/>
<path class="st13" d="M292-1379c-3-64,37-67,37.4-2.1"/>
<path class="st14" d="M292-1319L292-1319c-17.5,0-31.7-14.2-31.7-31.7v-23.3c0-4.4,3.6-8,8-8h47.3c4.4,0,8,3.6,8,8v23.3
	C323.7-1333.2,309.5-1319,292-1319z"/>
<path class="st14" d="M292-1310L292-1310c-22,0-39.8-17.8-39.8-39.8v-11.7c0-7.6,6.1-13.7,13.7-13.7h52.3c7.6,0,13.7,6.1,13.7,13.7
	v11.7C331.8-1327.8,314-1310,292-1310z"/>
<path class="st15" d="M292-1315.1L292-1315.1c-19.3,0-35-15.7-35-35v-11c0-4.9,4-8.9,8.9-8.9h52.3c4.9,0,8.9,4,8.9,8.9v11
	C327-1330.8,311.3-1315.1,292-1315.1z"/>
<path class="st1" d="M346-1002h-34l3-220.8c9.2-2.9,18.2-3,27,0L346-1002z"/>
<line class="st28" x1="-787.5" y1="-1346.5" x2="-455.5" y2="-1346.5"/>
<g>
	<ellipse class="st29" cx="49.4" cy="-1032" rx="23.1" ry="6.3"/>
	<ellipse class="st29" cx="214.4" cy="-1032" rx="23.1" ry="6.3"/>
	<polygon class="st29" points="262.5,-1042.5 1.5,-1042.5 36.5,-1059.5 227.5,-1059.5 	"/>
	<rect x="0.5" y="-1042.2" class="st29" width="262" height="10.2"/>
	<rect x="34.6" y="-1081.4" class="st29" width="194.8" height="25.4"/>
	<rect x="34.6" y="-1104" class="st29" width="194.8" height="18.1"/>
</g>
<g>
	<path class="st14" d="M-70.3-999h-112.4c-2.9,0-5.3-2.4-5.3-5.3v-164.4c0-2.9,2.4-5.3,5.3-5.3h112.4c2.9,0,5.3,2.4,5.3,5.3v164.5
		C-65-1001.4-67.4-999-70.3-999z"/>
	<path class="st1" d="M-74.3-999h-108.4c-2.9,0-5.3-2.4-5.3-5.3v-161.1c0-2.9,2.4-5.3,5.3-5.3h108.4c2.9,0,5.3,2.4,5.3,5.3v161.1
		C-69-1001.4-71.4-999-74.3-999z"/>
	<path class="st18" d="M-140.4-1024.5h-40.1c-0.8,0-1.5-0.8-1.5-1.8v-11c0-1,0.7-1.8,1.5-1.8h24.9c0.4,0,0.7,0.1,0.9,0.4
		c4.3,4.1,9.3,7.7,14.8,10.8C-138.3-1027-138.8-1024.5-140.4-1024.5z"/>
	<g>
		<path class="st30" d="M-76.9-1024.6h-26.7c-41.1,0-74.4-33.3-74.4-74.4v-17.4c0-26.6,21.6-48.2,48.1-48.2h4.8
			c26.6,0,48.1,21.6,48.1,48.2L-76.9-1024.6L-76.9-1024.6z"/>
	</g>
	<line class="st31" x1="-108" y1="-1136" x2="-108" y2="-1035"/>
	<path class="st32" d="M-89.5-1127h-11c-1.9,0-3.5-1.6-3.5-3.5l0,0c0-1.9,1.6-3.5,3.5-3.5h11c1.9,0,3.5,1.6,3.5,3.5l0,0
		C-86-1128.6-87.6-1127-89.5-1127z"/>
	<path class="st32" d="M-89.5-1116h-11c-1.9,0-3.5-1.6-3.5-3.5l0,0c0-1.9,1.6-3.5,3.5-3.5h11c1.9,0,3.5,1.6,3.5,3.5l0,0
		C-86-1117.6-87.6-1116-89.5-1116z"/>
	<path class="st32" d="M-89.5-1105h-11c-1.9,0-3.5-1.6-3.5-3.5l0,0c0-1.9,1.6-3.5,3.5-3.5h11c1.9,0,3.5,1.6,3.5,3.5l0,0
		C-86-1106.6-87.6-1105-89.5-1105z"/>
	<path class="st32" d="M-89.5-1094h-11c-1.9,0-3.5-1.6-3.5-3.5l0,0c0-1.9,1.6-3.5,3.5-3.5h11c1.9,0,3.5,1.6,3.5,3.5l0,0
		C-86-1095.6-87.6-1094-89.5-1094z"/>
	<path class="st32" d="M-89.5-1083h-11c-1.9,0-3.5-1.6-3.5-3.5l0,0c0-1.9,1.6-3.5,3.5-3.5h11c1.9,0,3.5,1.6,3.5,3.5l0,0
		C-86-1084.6-87.6-1083-89.5-1083z"/>
	<path class="st32" d="M-89.5-1072h-11c-1.9,0-3.5-1.6-3.5-3.5l0,0c0-1.9,1.6-3.5,3.5-3.5h11c1.9,0,3.5,1.6,3.5,3.5l0,0
		C-86-1073.6-87.6-1072-89.5-1072z"/>
	<path class="st32" d="M-89.5-1061h-11c-1.9,0-3.5-1.6-3.5-3.5l0,0c0-1.9,1.6-3.5,3.5-3.5h11c1.9,0,3.5,1.6,3.5,3.5l0,0
		C-86-1062.6-87.6-1061-89.5-1061z"/>
	<path class="st32" d="M-89.5-1050h-11c-1.9,0-3.5-1.6-3.5-3.5l0,0c0-1.9,1.6-3.5,3.5-3.5h11c1.9,0,3.5,1.6,3.5,3.5l0,0
		C-86-1051.6-87.6-1050-89.5-1050z"/>
	<path class="st32" d="M-89.5-1039h-11c-1.9,0-3.5-1.6-3.5-3.5l0,0c0-1.9,1.6-3.5,3.5-3.5h11c1.9,0,3.5,1.6,3.5,3.5l0,0
		C-86-1040.6-87.6-1039-89.5-1039z"/>
</g>
<rect x="-1001" y="-1004" class="st14" width="2099" height="37"/>
<line class="st3" x1="892" y1="-1104" x2="901" y2="-1063"/>
<line class="st3" x1="673" y1="-1104" x2="661" y2="-1063"/>
<g>
	<rect x="3725" y="-1244.5" class="st33" width="1920" height="1080"/>
</g>
<path class="st34" d="M5010-1044.6c-55.2,0-110.5,0.1-165.7-0.1c-6.8,0-16,2.8-18.8-6c-2.3-7.1,2.3-14.8,8.2-18.8
	c14.4-9.8,21.6-24.2,30.5-38.4c13.6-21.7,34.9-33.3,61.5-27.4c13,2.8,20.3-1.5,28.8-10.7c39.5-43,101.9-40,137.6,6.5
	c8.7,11.3,16.6,20,32.2,21.1c8.1,0.6,17.7,5.4,23.2,11.5c13.7,15,24.4,32.5,44.8,40.3c5.7,2.2,9.7,9.8,7.6,16.3
	c-2.6,7.6-10.7,5.5-16.8,5.6c-57.6,0.2-115.3,0.1-172.9,0.1C5010-1044.7,5010-1044.6,5010-1044.6z"/>
<path class="st34" d="M4897.5-870.5c10,0,20,0,30.1,0c2.4,0,4.8,0.1,4.9,3.3s-2.1,3.9-4.8,3.9c-11.8,0-23.6,0-35.4,0.1
	c-1.6,0-3.4-0.1-4.3,1.6c-1.4,2.5,0.1,5,3.4,5.1c5.8,0.3,11.7,0.1,17.5,0.2c1.4,0,2.8,0,4.2,0c2.4,0,4.4,0.8,4.3,3.6
	c0,2.8-2.1,3.5-4.5,3.5c-4.8,0-9.6,0-14.5,0c-2.2,0-3.8,0.9-3.8,3.3c-0.1,2.6,1.6,3.5,4,3.5c1.8,0,3.5,0,5.3,0.1
	c2.4,0.1,4.4,0.8,4.3,3.7c-0.1,2.9-2.1,3.5-4.4,3.5c-12.1,0-24.1,0-36.1,0c-2.4,0-4.8,0-7.2,0c-2.3,0-3.6-1.1-3.7-3.4
	c-0.1-2.3,1.3-3.5,3.5-3.7c2.5-0.1,5.1-0.1,7.6-0.1c2.3,0,4.6-0.3,4.7-3.2c0.1-3.2-2.4-3.5-4.8-3.5c-9.5,0-19,0-28.5,0
	c-4.4,0-8.9,0-13.3,0c-2.6,0-4.7-1-4.6-3.9c0.1-2.6,2.1-3.3,4.6-3.3c14.8,0,29.7,0,44.5,0c1.3,0,2.6,0,3.8-0.2
	c1.8-0.3,3.1-1.2,3.1-3.2c0-2.1-1.1-3.4-3.2-3.5c-2.7-0.2-5.3-0.1-8-0.1c-2.3-0.1-4-0.9-4-3.5c0-2.8,1.6-3.7,4.2-3.7
	C4876.7-870.4,4887.1-870.5,4897.5-870.5z"/>
<path class="st35" d="M5403.4-1119.9c2.8-4.1,0.1-5.6,10.2-8.5c10.8-2.1,5.5-3.3,13.5-9c13.9-11.1,22.3-26.7,33-40.4
	c26.1-33.1,78.2-27.1,97.8,10.3c4.2,8,10.6,10.3,17.8,14.4c18.9,10.8,39.3,20.8,52.2,39.9c3.6,7-2.7,9.4-2.7,9.4
	c-19,0.2-38,0.7-56.9,0.7c-59.7-0.1-119.5-0.3-179.2-0.5C5387.5-1111.5,5401.8-1119.3,5403.4-1119.9z"/>
<path class="st34" d="M4514-806.3c-12.8,0-25.7,0-38.5,0c-3.2,0-7.7,0.7-7.6-4c0.1-4.6,4.6-3.7,7.8-3.8c3.9-0.1,7.9,0,11.8-0.1
	c2.3-0.1,4.9-0.4,4.8-3.6c-0.2-3.1-2.7-3.2-5.1-3.2c-2.3,0-4.6,0-6.8-0.1c-2.3-0.1-4.1-1-4.1-3.6c-0.1-2.7,1.6-3.7,4-3.7
	c18.6,0,37.3,0.1,55.9,0.1c2.2,0,4.3,0.6,4.3,3.4c0,3-2.2,3.7-4.7,3.8c-4.8,0.1-9.5,0-14.3,0.1c-2.5,0-5.6,0-5.5,3.4
	c0.1,3.4,3.1,3.3,5.6,3.4c9.3,0.1,18.6,0,28,0.1c1.7,0,3.3,0,5,0c2.7,0,5.3,0.8,5.2,4c0,3.2-2.7,3.8-5.3,3.8
	C4540.9-806.4,4527.5-806.4,4514-806.3C4514-806.4,4514-806.3,4514-806.3z"/>
<path class="st35" d="M3844.7-1032.5c3-7.4,9.8-6.8,13.9-10.3c-23.2-17.9-29.7-34.3-20.4-52.2c6.7-13,17.1-22.9,30.4-28.5
	c24.7-10.4,48.1-6.2,69.4,9.3c12.3,9,19.2,21.6,18.5,37.4c-0.3,6.8,2,8.2,7.5,4.1c5.9-4.4,12.6-7,19.9-8.2
	c15.7-2.7,26.6,2.9,31.6,17.9c2.2,6.7,5.2,8.4,11.9,7.4c22.7-3.3,40.1,7.5,58.3,23.2C4003.9-1032.5,3924.8-1032.5,3844.7-1032.5z"/>
<path class="st35" d="M4580-995.5c-152.5,0-305.1,0-459.6,0c8.5-12.2,20.4-14.3,31.7-16c13.6-2,27.5-3.1,41.3-2.8
	c11.5,0.3,18-3.7,23.2-14.1c11.5-23.3,29.9-38,56.8-40c10.7-0.8,21.4-0.2,30,6.8c8.3,6.7,10.3,2.8,13.3-5
	c12.3-32.2,35.5-44.7,69.5-38.2c20.6,3.9,33.6,19.6,34.6,44.4c0.5,13.2,2.4,16.6,15.9,9.9c29.1-14.3,54-6.3,70.7,21.9
	c4.7,8,10.4,11.3,18.7,10.2C4547.8-1020.9,4564-1009.5,4580-995.5z"/>
<path class="st36" d="M1903,280.1l-25-22.9v-12.5l-68-11.8c0,0-35-17.7-50-22.8c-15-5.2-30-17.7-46-31.7c-16-14-98-16.2-98-16.2
	l-12-5.2l-31,6.6l2,19.9l8,24.3l-7,37.6l-13,16.2l-9,19.9l3,30.2l19,33.9l-13,23.6c0,0-9,33.9-21,41.3c-12,7.4-18,9.6-18,9.6v21.4
	v10.3l-8,7.4l-19-7.4h-9l-57,53.8l-24-2.2l-31-9.6h-27c0,0-7-8.1-38-14s-40-9.6-40-9.6l-17,4.4l-14,5.9l-7,1.5l-21,14l-16-3l-11,3
	c0,0-9-0.7-17,5.2s-59,12.5-59,12.5l-3-0.7l-5-2.2l-3-3.7l-3-0.7l-9-3h-11l-8-3l-6-2.2l-6-2.2l-7-1.5l-4-3.7l-3-1.5l-8-2.2l-8-4.4
	v2.2l-14-5.2v9.6l-8,6.6l-5-2.2l-4-0.7l-3-2.2l-4-1.5l-8-5.9l-2,5.2l-9-3.7c0,0-5-5.2-6-6.6c-1-1.5-17-3.7-17-3.7L934,488l-6,3.7
	l-5-1.5l-4,5.2v5.9l-7,2.2l-14,11.8l-5-1.5l-29,3l-46-7.4l-10,8.8l-30.6-8.9l-45.3-51.9l-82.2-50.1l0.5,11.2L581,368.4l-10.8,0.9
	L502.3,333h-26.2l-24.7-24.2l-18.5-32.9l-135.7,54.5l-12.3-6.9L248.3,340l-76.1,34.4L144.4,435l-18.5-1.7l-54,38.9L1,535.2h4V1063
	h1920V619.3v-84V388.5v-87.2L1903,280.1z M1151,565.4c-3,2.2-16,2.2-18,1.5c-2-1.5-5-3.7-3-4.4c3.2-0.8,11.7-0.5,21,0
	C1153.9,562.6,1154,563.5,1151,565.4z M1269,569.8c-2,0-16,6.6-16,6.6s-2,6.6-8,5.2c-6-1.5-33,6.6-34,8.8c-1,2.2,5,0.7,5,0.7
	s29.3-0.1,25,2.2c-3.8,2-15,5.6-16,5.2c0,0-1-2.9-14-1.5c-13,1.5-18-6.6-18-6.6s2,3.7-10,0.7c0-2.2-3-2.2-3-4.4
	c4-5.2,42-3.7,42-12.5c-15-1.5-21-5.2-21-5.2c0-2.2,3-0.7,4-0.7s3-1.5,12,0.7C1230,569.8,1271,569.8,1269,569.8z M1442,627.4l2,2.2
	c0,0-3,3.7-7,3c4,3-18,8.1-22,9.6c-5-2.2-4-7.4-4-7.4s-2,6.6-11,7.4s-21-0.7-21-0.7s-2-10.3-9-8.8c-7,1.5-28,3.7-28,3.7
	s-14-8.1-12-10.3s-7-13.3-7-13.3l2-4.4c0,0,35,1.5,50,1.5c2,5.2-11,3-11,3s-12.2,9.8-6,8.8c7.5-1.2,66,2.2,84,3
	C1450,626.6,1442,627.4,1442,627.4z"/>
<path class="st37" d="M1897,282.1l-25-22.9v-12.5l-68-11.8c0,0-35-17.7-50-22.8c-15-5.2-30-17.7-46-31.7s-98-16.2-98-16.2l-12-5.2
	l-31,6.6l2,19.9l8,24.3l-7,37.6l-13,16.2l-9,19.9l3,30.2l19,33.9l-13,23.6c0,0-9,33.9-21,41.3c-12,7.4-18,9.6-18,9.6v21.4v10.3
	l-8,7.4l-19-7.4h-9l-57,53.8l-24-2.2l-31-9.6h-27c0,0-7-8.1-38-14s-40-9.6-40-9.6l-17,4.4l-14,5.9l-7,1.5l-21,14l-16-3l-11,3
	c0,0-9-0.7-17,5.2s-59,12.5-59,12.5l-3-0.7l-5-2.2l-3-3.7l-3-0.7l-9-3h-11l-8-3l-6-2.2l-6-2.2l-7-1.5l-4-3.7l-3-1.5l-8-2.2l-8-4.4
	v2.2l-14-5.2v9.6l-8,6.6l-5-2.2l-4-0.7l-3-2.2l-4-1.5l-8-5.9l-2,5.2l-9-3.7c0,0-5-5.2-6-6.6c-1-1.5-17-3.7-17-3.7L928,490l-6,3.7
	l-5-1.5l-4,5.2v5.9l-7,2.2l-14,11.8l-5-1.5l-29,2.9l-46-7.4l-10,8.9l-30.6-9l-45.3-51.9l-82.2-50.1l0.5,11.2L575,370.4l-10.8,0.9
	L496.3,335h-26.2l-24.7-24.2l-18.5-32.9l-135.7,54.5l-12.3-6.9L242.3,342l-76.1,34.5L138.4,437l-18.5-1.7l-54,38.9L-1,533v4.2V1065
	h1920V621.3v-84V390.5v-87.2L1897,282.1z M1145,567.4c-3,2.2-16,2.2-18,1.5c-2-1.5-5-3.7-3-4.4c3.2-0.8,11.7-0.5,21,0
	C1147.9,564.6,1148,565.5,1145,567.4z M1263,571.8c-2,0-16,6.6-16,6.6s-2,6.6-8,5.2c-6-1.5-33,6.6-34,8.8c-1,2.2,5,0.7,5,0.7
	s29.3-0.1,25,2.2c-3.8,2-15,5.6-16,5.2c0,0-1-2.9-14-1.5c-13,1.5-18-6.6-18-6.6s2,3.7-10,0.7c0-2.2-3-2.2-3-4.4
	c4-5.2,42-3.7,42-12.5c-15-1.5-21-5.2-21-5.2c0-2.2,3-0.7,4-0.7s3-1.5,12,0.7C1224,571.8,1265,571.8,1263,571.8z M1436,629.4l2,2.2
	c0,0-3,3.7-7,3c4,3-18,8.1-22,9.6c-5-2.2-4-7.4-4-7.4s-2,6.6-11,7.4s-21-0.7-21-0.7s-2-10.3-9-8.8c-7,1.5-28,3.7-28,3.7
	s-14-8.1-12-10.3s-7-13.3-7-13.3l2-4.4c0,0,35,1.5,50,1.5c2,5.2-11,3-11,3s-12.2,9.8-6,8.8c7.5-1.2,66,2.2,84,3
	C1444,628.6,1436,629.4,1436,629.4z"/>
<g>
	<path class="st38" d="M1232.4,663.8c0,0,0.1,0,0.1,0c0,0,0,0,0,0L1232.4,663.8z"/>
	<path class="st38" d="M1921.8,383.3c-3.7,0.5-6.5,3.6-7.4,8.5c-0.2,1.1-0.2,2.2-1.3,2.9c-1.2,2.1-2.3,2.8-4.4,0.7
		c-3.6-3.6-9.2-3.5-13.3-6.4c-0.6-0.4-1.5-0.6-1.8-1.1c-2.9-4.4-7.3-5.8-12.3-6.1c-1.3,0.8-3.6-0.6-4.3,1.7
		c-1.4-3.3-4.1,2.3-5.6-0.9c-0.2-0.3-1.2-0.4-1.3,0.6c0,0.4,1,2.1-0.4,0.8c-2.6-2.3-4.4-0.3-6.3,0.5c-3.7,1.6-7.5,3.2-10.9,5.4
		c-2.8,1.7-5.9,2.1-9.2,1.6c-1.3-0.2-2.9-0.2-2.4,2.1c0.2,0.8,1.6,1.6-0.1,2.4c-1.2,0.5-2,0.4-3.2-0.1c-2.9-1.4-5.3-3.5-9.2-4.4
		c2.9,0,4.6-3,3.6-5c-1.1-2.3-3.2-3.8-4.9-5.5c-1-1-1.4-2.3-1.9-3.5c-0.2-1.1,0.2-2.1,1.1-2.6c3.9-2.2,4.3-5,2.2-9.5
		c-3.2-6.6-5.8-13.5-5.1-21.2c0.1-1.6-0.5-3.3-0.8-5.4c-3.4,2.3-4.1,5.9-5.5,8.9c-3.9,8.3-6.7,17.1-13.1,24c-2.4,2.6-2,3.6,1.1,4.5
		c-3.2,3-5.9,6.3-9.9,8.3c-0.7,0.3-1.1,1-1.7,1.4c-0.9,0.6-1.5,1.3-0.9,2.5c0.6,1.1,1.5,1,2.5,0.6c1.6-0.6,3.3-1.1,4.9-1.6
		c0.3-0.3,0.7-0.6,1.1-0.1c0.1,0.1-0.3,0.5-0.4,0.7c-4.6,3.3-8.8,7.2-14.5,8.6c-0.8,0.2-1.7,0.8-1.6,1.8c0.1,1,1,1.1,1.6,1.3
		c1.6,0.5,3.3,1,5.5,0.7c-2.7,1.9-2.7,5.5-5.7,6.7c1.2,2.5,3.5,2,6.3,1.9c-4.3,2.4-8.4,3.7-12.5,5.1c2.7,0.5,4.1,2.8,6.4,3.6
		c1.9,0.7,1.6,2.7,0.8,3.8c-1.4,2.1-3.6,4.4-6,3.8c-4.5-1.1-6.9,1.9-9.9,3.8c-1.8,1.1-3,3-5.9,2c-1.5-0.5-3.7,1.1-5,2.7
		c-0.8,1-1.5,1.7-2.8,0.8c-3.4-2.7-7.7-4.8-7.6-10.1c0-0.4-0.1-0.8-0.3-1.1c-2.6-2.8-1.7-4.4,1.7-5.3c0.3-0.1,0.4-0.6,0.6-0.9
		c-1.9,0.6-3.7,0.5-5-1.2c-0.1-0.1-0.2-0.2-0.2-0.4c-1.1,1.5-2.3,2.6-3.9,3.4c-1.5,0.8-3,1.4-4.1,2.7c-0.1,1.4-0.1,2.9-1.1,4.1
		c-1.2,4-4.3,7.8-1.6,12.3c0.3,0.5,0,0.9-0.3,1.3c-0.4,0.3-0.7,0.7-1.1,1c-1.8,1.2-3.7,3.2-5.6,3.4c-2,0.2-2.5-3-4.1-4.3
		c-2-1.7-4.6-3-5.1-6.1c-0.3-0.5-0.7-1.1-1.1-1.6c-0.2-0.2-0.4-0.4-0.6-0.6c-0.4-0.5-0.8-1-1.3-1.4l-0.2-0.2c-2-1.6-2.8-4.6-5.9-5.1
		c-0.3-0.3-0.6-0.6-0.8-0.9c-1.3-1.6-2.5-3.3-3.8-5c-0.1-1-0.3-1.9-0.4-2.9c-3.6-0.1-3.5-2.3-3.4-5.1c0.2-6.6,0-13.1-0.1-19.7
		c-0.1-2.5-0.3-5.1-0.4-7.7c-2.4-10.3-5.1-20.5-4.5-31.3c0-1.4-0.1-2.7-0.1-4.1c-0.4-0.6-0.4-1.3-0.1-1.9c-0.2-2.2-0.4-4.5-0.6-6.7
		c-0.1-1.2-0.4-2.4-1.9-2.2c-1.2,0.2-1.7,1.2-1.7,2.5c0.3,5.6,0.8,11.2,0.7,16.7c-0.4,18.1,0.5,36.3,1.2,54.4
		c0.1,3.3,0.4,6.7,0.6,10c1.8,11.4,2.4,22.5-4.6,32.7c-2.3,3.3-2.6,7.9-4.7,11.3c-3.1,5.1-4.8,10.6-6.7,16c-0.5,1.5-1.1,4.1-3.9,2.2
		c-0.6-0.4-1.3-0.2-1.5,0.5c-2.1,7.7-8.6,10.3-15,13.2c-5.6,2.6-10.9,5.9-16.8,7.9c-1,0.4-2.3,0.9-2.8,1.8
		c-3.2,5.1-8.8,7.1-13.3,10.5c-6.6,5-13.7,8-21.5,9.8c-2,0.5-3.2,1.8-4.5,3.2c-7.5,8.3-15.6,16-23.7,24c-1.4-1.5,0.3-3.7-1.6-4.8
		c0.5-11.4,3.8-22.5,4.5-34c-3.4,3.8-2.8,8.9-5.1,13.2c1.5-17.8,4.2-35.3,4.5-53.1c-2.6,3.6-1.8,8-3.2,11.9c0.2-2,0.3-3.9-0.1-5.8
		c-0.1-0.7-0.2-1.6-1.3-1.5c-0.7,0.1-0.8,0.8-1,1.4c-4.3,12.1-4,25-5.9,37.6c-0.5,3.1-0.5,6.2-0.7,9.3c-0.1,1.2-0.1,2-1.9,2.7
		c-2.4,1-2.5,4.7-2.4,7.2c0.1,7.9-0.7,15.7-1.5,23.6c-0.2,2.4,0.3,4.9-0.6,7.4c-0.3-4.3-0.6-8.6-0.9-12.8c-1.9,3.9-1,7.9-1.1,11.8
		c-0.2,5.3,0,5.3-5.2,5c-4.6-0.3-9.2-0.7-13.8-0.8c-1.9,0-3.2-1.3-4.8-1.8c-4.8-1.5-9.7-0.7-14.5-0.6c-11.8,0.1-23.5,0.1-35.2-0.7
		c-6.3-0.4-12.6-0.6-18.9-0.6c-5.2,0-8.1,1.7-9.6,8.5c-1.6,7.4-4.4,14.5-5.9,21.9c-0.8,4.3-1.4,8.2,2.8,11.2
		c1.5,1.1,2.5,2.6,2.5,4.8c0,0.8,0.6,1.7,1.2,2.3c5.1,5,8.6,11.3,14,15.9c6.7,5.7,8.7,12.8,6.1,21.2c-1.4,4.8-2.7,9.6-4.2,14.4
		c-1,3.2-1,6.2,1,8.9c1.7,2.4,1.1,3.9-1.4,5.3c-4.3,2.5-8.2,5.7-11.8,9.1c-3.8,3.6-9.2,4.3-13.8,6.4c-4.8,2.1-9.9,3.5-14.1,6.9
		c-0.9,0.7-2.1,1.2-2.1,2.5c0.1,5.1-3.5,8.4-6.1,12.1c-2,2.9-4.7,3.3-7.4,1.3c-2.8-2.1-5.6-3.2-9-1.7c-0.3,0.2-0.8,0.2-1.1,0.1
		c-6.4-2.6-11.7,0.8-16.8,3.6c-2.9,1.6-5.8,2.3-8.9,2c-2.3-0.2-4.2,0.3-5.4,2.5c-0.4,0.7-1.1,1.5-1.8,1.8c-6.1,2.3-7.6,7.8-9,13.2
		c-0.2,0.8-0.5,1.8-1.3,1.1c-2.9-2.5-7.5-3-8.9-7.3c2.6,0.3,4.1,3.1,7.9,3.2c-6.8-7.4-5.9-17.2-10.8-24.9c2.7,1.5,4.9,3.2,8,1.9
		c0.4-1.8-2.3-1.8-2.1-3.5c2-0.1,2.7-0.7,1.6-2.8c-1.5-2.8-2.8-5.8-4.1-8.7c-0.3-0.5-1-1.4-0.3-1.6c4.6-1,1.3-3.2,0.8-4.9
		c-1.7-6-4-11.8-3.3-18.2c0.2-1.5,0.3-3.2-1-4.6c-3.2,2.1-4.3,5.6-5.6,8.5c-1.9,4.5-5.6,7.6-7.7,11.7c-0.4,0.8-1.8,1.7-1,2.5
		c1.2,1.2,1.8-0.5,2.7-1c0.4-0.2,0.9-0.3,1.3-0.5c-2.6,8.5-8.4,14.4-15.4,19.4c-0.3,0.2-0.7,0.3-1,0.5c-0.9,0.7-2.8,1.2-2,2.6
		c0.7,1.3,1.9-0.2,2.9-0.4c0.7-0.2,1.3-0.5,2-0.7c2.3,4.4-2.4,5.8-3.8,8.8c3,0.8,4.5-2.6,8-1.6c-5.5,3.9-9.6,8.9-16,10.3
		c-3,0.6-5.6-0.3-6-4.3c-0.2-2.1-1-4.1-0.7-6.7c2.3,2.3,5.1,1.9,7.6,2.6c0.8,0.2,1.6,0.1,1.8-0.9c0.2-1-0.1-1.8-1.3-1.8
		c-3.5,0-5.1-2.7-6.3-5.2c-2.3-5.1-4.7-10.3-2.8-16.2c0.2-0.6,0.3-1.3,0.1-1.8c-0.8-1.7,0-4.8-2.3-5.1c-2.8-0.3-2.3,2.8-2.7,4.5
		c-1.9,8-6,14.8-11.7,20.5c-2.1,2.1-2.4,3.8,0.9,4.7c-0.4,1.5-1.5,2.7-2.9,2c-3-1.5-6.7-1.3-9.5-3.9c3.5-1.2,4.1-4,3.9-7.1
		c-0.1-1.5-0.9-2.7-2.5-2.9c-1.4-0.2-2.6,0.6-2.9,1.9c-0.6,3.1-2.8,2-4.3,1.6c-3.2-0.8-1.3-3.6-1.6-5.4c-0.3-2.2,1.6-1.5,2.9-1.5
		c3,0.2,5.9,0.3,8.7-0.9c0.2-1.1-0.6-1.3-1.1-1.4c-5.9-0.5-10.8-3.6-16-6c-4.8-2.2-7.6-6.6-10.7-10.5c-0.6-0.8-0.9-1.8,0-2.7
		c0.9-0.9,1.7-0.4,2.7,0c3.8,1.2,6.4,4.9,10.7,5.1c0.7,0,1.5,0.3,2.2,0.3c1.1,0,2.6,0.4,2.8-1.1c0.2-1.3-0.8-1.9-2.1-2.2
		c-1.5-0.3-2.7-1.2-3.9-2.5c2.7-1.8,6.6-0.3,8.8-3.8c-10.8,0-16.8-5.4-18-15.9c2,1.8,3.9,3.8,6.5,4.7c1.7,0.6,3.9,1.5,3.1-2
		c-0.4-1.5,1-1.2,1.7-1.2c2.8,0,5.3-1.1,8.7-2.7c-4.5-1.5-8.6-1.4-12.1-3.2c-4.1-2.1-4.7-5.6-5.1-9.7c2.5-0.1,2.9,2.3,4.4,3.2
		c1.2,0.7,2.1,1.8,3.6,1.7c1.1,0,1.7-0.5,1.1-1.6c-0.4-0.8-0.8-1.5-1.4-2.2c-3.7-4.2-5.3-9.4-7.1-14.5c-0.9-2.7-0.4-5.5,0.3-8.1
		c0.7-2.6,0.1-4.8-1.3-7.4c-2.1,2.1-3.5,4.3-5,6.6c-1.6,2.5-3.9,4.5-7,5.3c-0.8,0.2-2.1,0.3-1.8,1.4c0.3,1.5,1.5,0.7,2.4,0.6
		c2.8-0.3,5.1-1.8,8.3-2.7c-1.9,5.2-5.9,7.5-10.1,9.7c0.9,0.8,1.8,1.4,2.8,1.3c1.1-0.2,2.5-1.5,3.3,0c0.6,1.1-0.9,2.2-1.6,3.2
		c-0.4,0.6-0.9,1.2-1.5,1.6c-0.7,0.6-2.1,0.9-1.7,2.1c0.3,1.1,1.3,0.8,2.2,0.6c0.8-0.1,1,0.4,1.1,1.1c0.4,4.8-2.5,7.8-7.4,7.3
		c-1.1-0.1-2.2-0.3-2.4,0.9c-0.2,1.1,1.2,1.1,1.9,1.4c1.4,0.7,3.3-0.1,4.8,2c-3.7,1.3-7.2,2.5-11,0.8c-0.5,0-0.9,0.1-1.4,0.1
		c-0.3-0.1-0.5-0.1-0.8-0.2c-1.5-0.4-2-2.3-3.7-2.3c-0.6,1.4-0.2,2.5,0.7,3.6c1.4,2,4,1.5,6.1,2.8c-1.9,1.6-3.7,1.7-5.8,1.3
		c-1.2-0.2-3.3-0.9-3.6,0.7c-0.4,1.6,1.7,1.8,2.9,2.1c0.7,0.2,1.3,0.5,2.2,0.7c-1.5,1.6-3.9,0.5-5.3,2.5c5.2,1.8,9.8,0.8,14.5-1
		c1.4-0.5,3-2.4,4.3-0.6c1.2,1.7,0.5,3.8-0.8,5.5c-2.3,3.2-5.8,4.8-9.2,6.2c-5.3,2.2-10.9,3.6-16.6,0.7c-0.6-0.3-1.1-0.6-1.8,0
		c1.7,4.5,6.3,3.4,10.4,5c-2.8,0.5-4.6,1.1-6.6,0.5c-0.9-0.3-2.2-0.3-2.6,0.9c-0.4,1.4,0.7,2.2,1.7,2.5c4.8,1,9.4,4.3,14.6,1.3
		c0.7-0.4,1.8-0.9,2.4-0.1c0.8,1-0.3,1.8-0.8,2.6c-2.1,2.7-5.2,3.8-8.2,4.9c-1.3,0.5-2.6,0.7-4,1.1c2.4,4,4.9,3.7,16.5-1.6
		c-2.5,8.3-4.6,8.8-9.6,11.5c-4.7,2.6-9.8,4.1-15.4,2.8c2.6,2.9,5.9,3.3,10.2,3.2c-3,2.3-5.9,2.6-8.8,3.9c4.4,3.4,8.7,0.7,13.5,0.3
		c-1.9,2.5-4.3,3.3-6.7,4c-0.6,0.2-1.2,0.2-1.8,0.2c-2.7,0.4-5.1,1.3-8-1c-3-2.4-4.1-1.4-4.9,2.3c-0.2,0.8-0.3,1.5,0.8,1.6
		c4.4,0.4,8.2,3.7,12.8,3.2l-0.1-0.1c1.8-0.1,3.4-1.5,5.5-1.1c-0.7,2.2-3.6,1.9-4.3,4.3c3.3,1.4,6.7-1,9.9-0.2
		c-5.2,3.7-10.3,6.5-17.2,4c-2.8-1-6.2,2.1-9.7,0.5c2.2,1.9,4.1,3.6,4.6,6.4c0.2,1,0.7,1,1.8,1c4,0,7.9-1.3,12.2,0.7
		c2.5,1.2,5.7-2.3,8.5-3.8c1.7-0.9,3.2-2.2,5.5-3.8c-0.8,3.8-1.8,6.3-5,7.5c-7,2.5-13.5,6.5-21.3,6c-3.3-0.2-4.7,2.4-3.4,5.6
		c0.3,0.7,0.3,1.2-0.3,1.6c-1.7,1.1-2.1,3-3.2,5c-3.1-2.6-4.9-5.8-7.1-10.2c2.8,2.3,4.4,4.7,7.4,3.2c0.2-0.2,0.3-0.3,0.5-0.5
		c-0.6-2.2-1.5-3.7-3.7-5.1c-2.3-1.4-2.4-4.9-2.8-7.6c-0.7-4.7-0.5-9.5,0.8-14.1c0.2-0.8,1.1-2.1-0.4-2.5c-1.3-0.4-2.9-0.2-3.3,1.6
		c-1.2,5.1-5.6,8.5-6.8,13.8c-0.8,3.5-4,5.9-7.5,8c2.6-4-0.2-4.5-2.7-5.2c-5-1.4-6.8-4.6-5.3-9.4c0.6-1.9,0.3-3.1-1.5-3.9
		c-1.9-0.8-3.7-1.8-6.2-3c2.4-0.3,4.5,1,5.5-0.7c0.9-1.4-1.8-1.4-1.9-3c0.8-0.3,1.7-0.6,2.6-0.8c1.5-0.5,1.3-1.3,0.4-2.1
		c-1.9-1.6-3.8-3.2-5.8-4.7c-2.5-1.9-4.4-4.3-6-7c-0.6-1-1.8-2.1-0.6-3.4c1.2-1.3,2.3-0.2,3.4,0.2c1.9,0.6,3.8,1.3,5.7,1.8
		c1,0.3,2.1,0.1,2.6-0.9c0.6-1.2-0.8-1.4-1.3-1.9c-2.1-1.8-4.3-3.4-6.3-5.2c-0.7-0.5-1.4-1.2-0.9-2.2c0.6-1,1.5-0.7,2.3-0.3
		c2.9,1.1,5.9,1.6,9.7,0c-4.4-1.6-7.8-3.4-10.9-5.8c-1.1-0.8-2.8-1.5-2.4-3c0.4-1.7,1.9-1.4,3.4-1.2c1.6,0.2,2.8-5,1.6-6.8
		c-0.5-0.7-1.3-1.2-2.2-2c2.6-0.9,4.7,1.3,7.1,0.1c-2.4-2.6-3.9-5.8-7.2-7.2c-1-0.4-1-1.3-1.1-2.2c-0.2-0.4-0.3-0.9-0.6-1.3
		c-2.6-3.7,0-5.2,2.7-6.8c0.8-0.1,1.6-0.1,2.3-0.2c-3.2-2.2-3.6-6.1-5.5-9.1c-1.6-2.5-4.2-4.3-5.1-7.3c-0.1-0.3-0.3-0.6-0.4-0.9
		c0.3,0,0.6,0,0.9,0c2.3,0.1,3.2,2.8,5.4,3c1.3,0.1,2.6,0.7,2.4-1.5c-5.4-0.7-7-5.3-8.9-9.3c-1.1-2.3-1.3-5-2-7.5
		c-0.3-1-0.1-2.6-1.6-2.5c-1.4,0-2.6,0.6-3,2.3c-1.2,5.3-5.3,8.9-7.7,13.5c-0.3,0.6-1.1,0.9-1.7,1.3c1.7,2.3,3.3-0.2,5.3,0
		c-1.1,4.2-2.8,7.8-6.7,10.1c-2.8,1.6-4.9,3.7-6.4,6.5c0.2-0.1,0.4-0.1,0.5,0.1c1.9-0.8,3.8-1.5,5.7-2.3c0.7,3.6-1.2,5.8-4.2,7.3
		c-0.5,0.7-0.6,1.4,0.2,2c1-0.3,2.1-0.6,3.1-1c0.4-0.5,1.1-1.5,1.6-1c0.9,1-0.3,1.3-1,1.7c-1.1,1.2-2.2,2.3-3.3,3.5
		c0,0.4,0.1,0.7,0.1,1.1c0.1,1,2.2-0.1,1.5,1.6c-2.1,2.5-5.7,2.9-7.8,5.5c1.1,1.4,2.8,0.2,4,1.4c-1.7,2-4.7,2.3-6.1,4.5
		c0.2,2.2,3.6-0.3,3.3,2.4c-0.2,1.9-2.1,2.2-3.5,3c1.7,1.6,3.3,0,5.1,0.6c-1,2.4-3.9,3.1-4.7,5.4l0.1,0.1c3.9,0.4,6.6-2.2,9.7-3.8
		c0.3,1.6-0.4,2.7-1.7,3.8c-3.9,3.2-7.7,6.5-11.6,10.5c4.5-3.3,5.4,3.6,9.1,2.5c-3.3,4-7.6,6-12.9,6.7c1.5,2.1,3.4,0.8,5,1.7
		c-1,1.4-2.7,1.7-4,2.4c-0.9,0.5-2.1,0.7-1.4,2.1c0.5,1.2,1.5,1,2.6,0.6c3-1.1,6-2,9.2-2.6c-3.3,1.9-5.8,4.9-8.9,6.7
		c-2.5,1.4-3.9,2.8-4,5.5c-2.4,1.1-0.9,2.7-0.3,4c0.6,1.5,1.8,0.9,2.9,0.5c0.7-0.3,1.4-0.6,2.1-0.6c1.1,0,2.6-1.5,3.2,0.3
		c0.7,2-1.1,2.6-2.5,3c-2.1,0.5-4.2,0.7-6.3,1.1c-1.4,0.3-3.3,0.1-3.8,1.8c-0.6,1.8,1.9,1.6,2.5,3c-1.3,0.9-2.7,1.7-3.9,2.7
		c-0.6,0.5-1.3,1.4-0.7,2.3c0.5,0.7,1.4,0.4,2.1,0.2c1.9-0.5,3.8-1,5.8-1.6c-1.7,8.7-34.8,18.1-46.3,13.2c0.7-1.7,2.3-1.7,3.6-2.2
		c2.1-1,2.9-2,0.6-3.6c-2.8-1.9-4.4-5-6.9-7.3c-0.6-0.5-1-1.5-1.3-2.3c-0.6-1.4-0.1-2.8,0.7-3.9c1-1.3,2.3-0.3,3.4,0.1
		c7.3,2.9,14.2,2.8,20.6-0.2c-7.6-1.6-15.6-2-22-8.2c9.9,3.2,19.4,4.7,28.9,0.3c-8.7,0-17.5,0.7-25-5.2c-7.3-5.7-11.7-12.7-11-22.5
		c11.3,7.6,23.5,6.5,36,4.1c-5.3-1.6-10.4-3.8-16.1-4c-2.7-0.1-5.8,1-8-1.5c4.2-0.7,8.7-0.3,12.5-3.7c-2.7-1.4-5.4-0.7-8-1
		c-5.2-0.7-10-2-14.3-5.5c-4.5-3.7-3.2-8.8-4.2-13.4c-0.2-0.9,0.7-1.3,1.5-0.7c1.2,0.7,2.3,1.5,3.4,2.3c2.6,1.8,5.2,3.4,9,2.3
		c-1.8-2.4-5.5-2.4-6.5-6.2c4.6,3.2,8.9,2.5,14.6,0.9c-6.5-2-11.2-5.3-16.4-7.7c-4.4-2-6.8-4.8-5.7-10.1c1.6,1,3.2,2.3,5.2,2.5
		c0.9,0.1,1.8-0.2,2.3-0.9c0.8-1.1-0.3-1.5-0.9-2c-3.5-3.6-6.6-7.5-6.9-12.9c-0.1-0.9-0.4-2.1-1.6-2.3c-1.2-0.2-1.7,0.9-2.3,1.7
		c-1.9,2.2-2,5.2-3.9,7.5c-2.7,3.3-6.5,5.3-9.3,8.5c-0.8,0.9-2.5,1.4-1.4,2.9c1.1,1.5,2.7,1,4,0.2c2.8-1.9,5.6-3.8,8.4-5.8
		c-3.3,9.5-8,18.1-16.8,23.8c-0.8,0.5-1.5,1.2-2.7,1.1c-1.3-0.2-2.3,0.3-2.1,1.8c0.3,1.4,1.4,1.4,2.6,1.4c2.4-0.1,4.2-1.5,6.1-2.7
		c0.7-0.4,1.2-1.3,2.2-1c0.7,1.3-2.1,2.1-0.7,3.2c1.4,1.1,2.5-0.6,3.5-1.3c2.1-1.5,4.1-3.2,6.2-4.8c2.4,8-9,24.2-21,30.1
		c0.2,0.2,0.3,0.4,0.5,0.6c4.2-0.1,8-1.3,11.6-3.4c-1.8,3.2-5.7,3.7-8.3,5.8c-1.5,1.2-3.6,1.6-4.7,3.5c1.6,1.3,3-0.1,4.8,0
		c-2.6,2-5,3.8-7.3,5.7c-0.7,0.6-1.9,1.3-1.4,2.4c0.6,1.4,2,0.8,3,0.5c5.4-2,10.3-5.1,14.5-8.9c2.8-2.5,5.8-4.8,7.5-8.3
		c0.3-0.7,0.9-1.3,1.8-1.1c1,0.3,0.5,1.2,0.5,1.9c0.2,5.3,0.5,10.6,0.6,15.9c0.1,3.8-3.1,5.5-5.5,7.5c-5.4,4.5-11.9,6.6-18.5,8.6
		c-1.8,0.5-4.9,0.6-4.5,2.8c0.4,2.3,3.2,0.8,4.9,0.6c2.9-0.3,5.9-0.7,8.8-1c-0.4,1.2-3,1.3-2,2.9c0.8,1.3,2.6,0.4,3.9,0.1
		c5.7-1.5,9.4-5.8,13.7-10c1.4,3.2,0,6.3,0.2,9.2c0.1,1.7-0.3,3.5,0,5.2c1.1,6.5-2.1,11.8-8.1,14.8c-6.6,3.2-13.4,4.5-20.5,4.2
		c0,0,4.3-13,0-17s-4.3-0.4-6-2.7c-2.4-3.2-5.6-5.5-8.9-7.5c-3.5-2.1-7-4.1-9.9-7.4c-2.6-3.1-6.6-2.2-10-2.7
		c-3.9-0.6-6.7-1.6-8.2-6.3c-1.4-4.5-5.6-6.5-8.7-9.5c-1.7-1.7-2.3-3.1-1.4-5.3c4.3-10,4.2-21.2,7.7-31.5
		c1.1-3.2-7.7-16.6-10.7-16.8c-16.7-1.2-33.4-1.3-49.7,3.8c-4.1,1.3-8.3,1.7-12.5,2.5c-2.3,0.5-3.8-0.8-4.6-2.6c-1-2,0.5-3.3,2-4.1
		c0.7-0.4,1.5-0.7,1.1-1.8c-0.5-1.4-1.5-2.2-2.8-2.6c-2.3-0.7-4.5-1.6-5.4-5.1c2.3,0.6,4.3,1.7,6.5,1c0.7-0.2,1.6-0.4,1.7-1.4
		c0.1-1-0.8-1.3-1.5-1.5c-2.5-0.5-4.1-2.4-5.9-4.3c3.3-1.1,3.3-2.9,1.4-5.3c-0.6-0.8-1.2-1.7-1.8-2.5c0,0-0.1,0-0.1,0
		c0,0,0-0.1,0-0.1c-0.2-0.1-0.4-0.2-0.5-0.3c-0.2-0.3-0.1-0.5,0.2-0.2c0.2,0.1,0.2,0.4,0.3,0.6c0,0,0.1,0,0.1,0c0,0,0,0.1,0.1,0.1
		c0.7,0.2,1.4,0.4,2.1,0.6c0.7,0.2,1.6,0.5,2-0.5s-0.3-1.6-0.8-2.1c-1.9-1.8-3.7-3.6-5-6.1c-2.9-5.6-4-11.6-3.5-18
		c0.1-1.2,0.1-2.5,0-3.7c-0.1-1.1,0-2.4-1.4-2.5c-1.2-0.1-1.5,1.1-1.9,2.2c-2,7-4.1,13.9-6.2,20.8c-1.4,4.5-2.9,8.9-6.5,11.8
		c-0.7,0.6-2,1.4-0.9,2.6c0.9,1.1,1.8,0,2.6-0.7c0.9-0.8,1.7-1.6,3.3-3.1c-1.4,4.1-3.1,6.7-4.8,9.3c-0.8,1.3-1.8,2.9-0.5,4.1
		c1.2,1.2,2.2-0.6,3.1-1.4c1.9-1.6,3.2-3.8,4.7-5.9c-1.1,4.8-2.7,9.3-6.3,12.4c-1.5,1.3-2.4,3.1-3.5,4.8c-0.4,0.6-0.6,1.3,0,1.9
		c0.7,0.7,1.1,0,1.5-0.5c1-1.3,2.3-2.1,4.1-2.2c-0.1,2.4-3.6,4.2-0.8,6.9c0.3,0.3-0.5,2.6-1.8,2.8c-3,0.4-4.7,2.8-6,5.1
		c-3.1,5.4-8.4,5.5-12.9,7.3c-0.3,0.1-0.9,0.2-1.1,0c-1.4-1.7-2.4-3.4-4.8-4.2c-2.6-0.8-1.9-4-1.6-6.5c0.3-2.3-0.5-4-2.5-4.8
		c0.5-1.5,1.8-1.4,2.4-2.3c0.8-1,1.6-2,1-3.3c-0.6-1.3-1.7-0.7-2.6-0.3c-1.7,0.7-2.9-0.2-3.9-1.5c-1.3-1.6,0.6-1.7,1.1-2.4
		c0.6-1,0.2-1.5-0.5-2c-1-0.7-2.1-1.4-3-2.8c1.2,0.3,2.4,0.7,3.5,1c0.6,0.2,1.3,0.1,1.6-0.6c0.4-0.8-0.1-1.5-0.7-1.7
		c-4.6-2-5.7-7.9-9.9-10.4c-2.9-1.7-1.7-4.4-0.2-6.2c1.8-2.1,1.1-3.2-0.5-4.6c-1.4-1.3-2.9-2.7-3.9-4.4c-0.9-1.6-3.1-3.5,0.4-5.5
		c1.2-0.7,2.2-4.9,0.7-7.2c-3.6-5.7-4.8-12-5.5-18.7c-0.2-1.7-0.3-3.9-2.2-4.4c-2.2-0.5-2.3,2-3.2,3.4c-3.1,4.9-6.3,9.6-9.5,14.4
		c-0.5,0.8-2.1,1.4-1,2.6c1,1.1,2.1,0.1,3-0.8c0.7-0.7,1.4-1.4,2.2-2c0,0,0-0.1,0-0.1c0.1-0.2,0.1-0.3,0.2-0.5
		c0,0.2-0.1,0.3-0.2,0.5c0,0-0.1,0.1-0.1,0.1c-1.7,4.7-2.9,9.6-5.3,14c-1.4,2.7-2.9,2.9-4.8,1.1c-5.3-5.3-8.7-11.3-9.4-19.7
		c-0.7-8.7,1.5-17.3-1-26.8c5.3,2.3,8,8.7,14,6.8c-1.4-2.8-5-3-5.8-7.1c4.5,3.2,8.9,3.5,13.7,1.7c-5.1-2.3-9.6-5.7-14.3-8.7
		c-1.3-0.8-2.7-1.6-3.8-2.6c-1.1-1-2.6-1.9-2.6-3.9c2,0,2.4-3.1,4.7-2.7c2,0.3,4.2,0.3,2.2-3.2c-1.4-2.3,0.5-2,1.6-2.2
		c2.2-0.4,4.9,1.3,6.5-2.2c0.4-0.9,3.2-0.1,2.2-2.6c-1.2-3.3-0.8-8.2-5.1-8.8c-2.9-0.4-5-2.5-7.6-3.1c-1.6-0.4-1.7-2.1-1.8-3.7
		c0-0.9,0.8-2.8-0.8-2.6c-1.9,0.3-5.3-1-5.3,2.4c-0.2,10.9-7.6,14-14.6,17.7c-1.5,0.8-4.2,1.2-3.6,3.3c0.6,2.1,3.2,0.6,4.7,0.3
		c2-0.5,3.8-1.8,6-2.5c-2.5,1.6-4.5,3.7-6.6,5.8c-0.8,0.8-2.1,1.4-1.2,2.9c0.8,1.4,2.1,1.5,3.3,0.8c3-2,6.3-3.2,9-6
		c-2.3,7.4-5.7,14.1-10.7,19.5c-2.9,3.1-5.9,6.5-10.4,6.9c-0.8,0.1-1.3,0.8-1.1,1.8c0.1,0.9,0.7,1.5,1.5,1.6c1.8,0.4,3.5-0.2,5-1.1
		c1.3-0.8,2.5-1.6,3.7-2.5c1,1.4-1.4,2.4,0.1,3.4c1,0.7,1.9-0.3,2.7-0.9c2.3-1.6,4.5-3.4,7.1-5.3c0.5,3.3,0.7,6-1.2,8.7
		c-3.8,5.4-5.4,12.1-8.2,18.1c-1.1,2.5,1.2,0.8,2.2,1.2c-3.9,3.2-7.5,6.1-11.1,9c-0.9,0.7-1.3,1.2,0.3,1.7c1.5,0.5-0.1,1.2-0.3,1.5
		c-1.8,2.5-3.7,5-5.3,7.8c9.5-3.9,17.2-10.4,23.6-20.3c0.7,8.6,0.5,15.9-0.1,23.3c-0.2,2.8-2.6,4.3-4.4,5.9c-5.5,5-12.2,7.3-19,9.2
		c-0.2,0.1-0.5,0.1-0.7,0.1c-2.2,0.3-4.7,2.9-6.3,1.5c-1.7-1.5-2.1-4.8-3.1-7.4c-0.2-0.6-0.4-1.3-0.6-2c-0.3-0.9-0.5-2.2-1.4-2.2
		c-1.3-0.1-1.3,1.5-1.6,2.4c-1.3,4.5-3.3,8.7-4.2,13.3c-0.1,0.6-0.6,1.7-0.9,1.7c-4.4-0.3-3.1,3.4-3.6,5.9c-0.2,1,0.7,3-1.4,2.5
		c-1.6-0.4-1.4-1.2-0.4-2.6c1-1.4-0.8-1.6-1.6-2c-1.7-0.9-4-0.6-5.1-3.3c1.7-0.5,2.3,1.1,3.3,1.5c1.3,0.5,2.7,1.7,3.7,0.1
		c0.9-1.4-0.6-2.5-1.4-3.4c-0.6-0.7-1.5-1.1-2-1.9c-0.7-1.2-1.7-2.8-0.2-4c2.3-1.8,1.3-3.1-0.2-4.6c-3-3-4.7-6.9-6.2-11.1
		c2-0.4,3.3,2.5,4.4,0.9c1.1-1.6-0.9-3.2-1.9-4.5c-2.6-3.6-4.4-7.6-5.5-12.2c1.3,1.7,2.5,3.4,3.9,5c1.1,1.2,2.3,2.3,3.9,0.8
		c1.4-1.3,0.8-2.8,0-4.1c-2.2-3.8-4.5-7.6-6.7-11.5c-0.5-0.8-1.4-2-0.4-2.9c0.8-0.7,1.6,0.4,2.3,1c1,0.8,2,1.5,3,0.5
		c1.2-1.2,0.2-2.6-0.3-3.8c-1-2.3-3.1-3.9-3.9-6.9c1.2,0.4,1.9,0.8,2.7,1c0.6,0.2,1.3,0.1,1.7-0.6c0.4-0.7,0-1.4-0.5-1.8
		c-5.4-4.8-6.6-11.7-7.5-18.7c-0.2-1.2,0-3.3-1.6-3.3c-1.7,0-1.3,2-1.4,3.3c-0.5,3.3-1.8,6.4-3.4,9c-4,6.4-7.3,13.3-12.1,18.9
		c-0.3,0.3-0.3,0.9-0.6,1.9c4.8-1,6.7-5.8,10.3-7.8c0,0,0-0.1,0-0.1c0-0.1,0.1-0.2,0.1-0.2c0-0.1,0-0.2,0.1-0.3c0,0.1,0,0.2,0,0.2
		c0,0,0,0,0,0.1c0,0.1,0,0.2-0.1,0.3c0,0-0.1,0-0.1,0c-3,6.6-3.5,14.3-8.2,20.1c-1,1.3-3.2,2.8-1.6,4.9c1.6,2.2,3-0.6,5-1.1
		c-2.3,4.4-5.1,7.8-8,11.1c-1.6,1.8-1.6,3.8,0.3,4.7c2.8,1.4,1,2.6,0.1,3.6c-1.8,2.2-3.9,4.3-5.9,6.4c-1.2,1.3-2.4,2.6-1.9,4.6
		c0.5,1.9,2.3,1.8,3.7,2.1c0,0,0,0,0,0c0,0,0,0,0,0c0,0,0,0-0.1,0c-0.3,0.8-0.8,1.5-1.7,1.3c-4.2-1-4.6,2-4.5,5.3
		c0.2,5.6-0.4,11-2,16.4c-0.5,1.6-0.8,3-2.9,2.8c0-7.5,0.1-15-0.1-22.5c-0.1-2.2-2.3-3.1-3.7-4.5c-0.5-0.5-1.3-1.3-0.7-2.1
		c0.3-0.4,1.1-0.5,1.7-0.5c0.5,0,1,0.1,1.5,0.2c1.6,0.3,3.6,1.2,4.4-0.9c0.8-2.2-1.4-2.9-2.7-3.8c-0.6-0.5-1.3-0.7-0.9-1.8
		c1.3-3.3-0.3-5.5-2.2-7.7c-1-1.2-1.9-2.6-2.7-3.9c-1.2-1.8-1.3-3,1.2-3c1,0,2-0.5,2.2-1.8c0.1-1.2-0.9-1.4-1.6-1.9
		c-5.3-3.6-8.3-9-9-15.6c-0.4-4.1-3.1-7.4-3-11.7c0-0.7-0.8-1.4-1.7-1.4c-1.1,0-1.6,0.9-1.6,2c-0.3,10.4-5.6,18.8-9,27.9
		c-0.5,1.4-1,2.6-0.3,4.3c1.1,2.5-1.6,3.4-2.2,5.2c-0.6,1.7-3.7,2.6-1.4,5.1c2,2.2,3.6,0.3,5.1-1.2c0.7-0.7,1.5-1.3,3-2.6
		c-1.6,5-4.7,7.8-6.9,11.1c-1.6,2.3-2.5,4.3-1.3,7.1c1.2,2.7-1.3,3.8-2.3,5.4c-0.6,1.1-2,1.6-3.5,2.8c3,0.3,3.4,5,7,3
		c-0.3,2.2-1.6,3-2.7,4.2c-1.1,1.2-2.2,2.3-2.2,4.2c0,2.5-0.7,4.4-3.6,3.9c-0.4-0.1-1.1,0.3-1.2,0.7c-1.4,5.3-3.1,1.1-4,0
		c-1.7-2.3-3-5-4.5-7.5c0,0,0,0,0,0l0,0c0,0,0,0,0,0c3.9-1.9-0.5-3.9,0-5.9c1-0.6,1.9,0.3,2.8,0.6c1.1,0.4,2.2,1,3-0.3
		c0.6-1,0.2-2.1-0.4-3.1c-1.2-1.9-3.3-3.4-1.3-6.5c0.6-1-0.9-4-2.5-5.5c-1.2-1.1-2.5-2.3-3-4.1c0,0,0,0,0,0l0,0c0,0,0,0,0,0
		c1.3,0.1,2.6,0.3,3-1.5c0.3-1.3-0.2-2.5-1.1-3.3c-1.8-1.6-3.3-3.4-3.8-6c-0.3-1.8-0.2-3.2,2-2.1c1.3,0.6,2.8,1.3,3.5-0.7
		c0.7-1.8-0.7-2.8-1.8-3.6c-3.2-2-3.7-5.6-4.5-9.3c0.7,0,1-0.1,1.3-0.1c1.1,0.1,2.2,2.3,3.3,0.8c1-1.4-0.7-2.4-1.3-3.5
		c-2-3.1-3.4-6.4-2.9-10.4c0.1-1,0.3-2.1-0.8-2.5c-1.1-0.5-1.6,0.6-1.9,1.5c-1.2,3.8-3.8,6.5-6,9.5c-1.4,2-2.9,3.7-3.1,6.8
		c-0.2,2.9-3.3,3.8-5.3,5.4c-1.3,1-4.1,1.1-3.4,3.5c0.7,2.2,3.1,1.7,5,1.4c1.1-0.2,2.3-0.5,2.9,1c0.5,1.3-0.4,2.1-1.2,2.8
		c-3.1,2.6-6.3,5-9.3,7.6c-0.8,0.7-2.7,0.4-2.2,2.2c0.4,1.5,1.3,3.1,3.1,3.2c1.1,0,2.2-0.1,3.3-0.2c-0.2,1.2-1,1.2-1.7,1.5
		c-4.4,1.8-5.1,3.2-3.7,8c0.5,1.7-2.9,6.5-4.3,6.3c-0.3,0-0.9-0.4-0.9-0.6c-0.4-4.2-5-6.6-3.8-11.8c0.9-3.8,1.4-7.8,1-12.4
		c-1.5,1.7-1.3,3.5-1.9,5.4c-3.2-3.2-4.7-7.5-6.6-11.8c1.6-0.5,4.6,2.2,4-2.2c-0.1-1,0.9-0.4,1.4-0.2c1.2,0.6,2.3,0.8,2.9-0.7
		c0.6-1.5-0.6-2.3-1.5-3c-2.6-2-4.8-4.3-7.1-7.8c2.9,0.8,4.8,2.6,7.2,2.2c1.1-0.2,2.5,0,2.8-1.5c0.3-1.6-1.2-1.7-2.1-2.4
		c-4.2-3-9.9-4.4-11-11.2c0,0,0,0,0,0l0,0c0,0,0,0,0,0c0.3,0.1,0.7,0.2,1,0.3c1.8,0.6,3.9,2.5,5.4,0c1.6-2.8-0.4-4.7-2.1-6.3
		c-3-3-5.6-6.2-7.8-11.3c2.6,1.8,3.9,4.2,6.2,4.8c1.2,0.3,2.7,0.8,3.5-0.4c1.1-1.6-0.6-2.4-1.4-3.3c-2.1-2.1-4.3-4.2-6.5-6.2
		c0.4-0.4,0.7-0.8,1.1-1.3c1.8,1.9,3.5,3.9,5.4,5.7c1.2,1.1,2.7,3,4.2,1.6c1.7-1.6-0.1-3.3-1.1-4.6c-2.4-3.3-5-6.5-7.4-9.8
		c-1.3-1.8-1.9-3.8-1.8-6.8c2,2.6,3.5,5.2,5.8,6.8c1,0.7,2.2,1.4,3.3,1.8c1,0.3,2.4,0.5,3-1c0.6-1.5-0.4-2.4-1.3-3.1
		c-3.4-2.4-6.4-5.2-7.9-10.4c2,2,3.6,3.6,5.3,5.2c0.9,0.9,2,1.4,3,0.3c1.1-1.2,0.3-2.3-0.5-3.2c-3.3-4-5.9-8.5-7.6-13.8
		c1.5,0.4,1.7,1.8,2.5,2.6c1.1,1.2,2.1,3.8,3.7,2.5c1.9-1.6-0.2-3.6-1.1-4.9c-2.1-2.9-3.6-5.9-4.3-9.5c-0.8-4.1-0.5-8,0.6-11.9
		c0.3-1.1,0.8-2.2-0.3-3c-1.2-0.8-1.7,0.7-2.5,1.2c-1,0.7-1.6,1.8-1.8,3c-1.3,7.9-7,12.5-11.3,18.2c-1.1,1.5-2.5,0.7-3.7-0.1
		c-5-3.4-9.9-6.9-14.9-10.4c-1.3-0.9-2.6-2-2.6-3.8c0.2-4-2.2-5.7-4.9-7c-3.9-1.8-7.8-3.8-11.1-6.8c-0.6-0.5-1.5-1.3-1.9-1.1
		c-6.8,3.1-12-4.4-18.7-3.3c-3.6,0.6-7.4-0.8-11.1-1.1c-5.2-0.3-9.5-4-14.9-3.9c-2.4,0-3.9-3.9-2.7-6.4c1.2-2.6-0.5-4.6-1.2-6.6
		c-1.1-3.6-1.7-7.1-0.6-10.8c0.6-2.3-1-2.5-2.3-2.8c-3.9-0.9-7.8-1.6-11.7-2.5c-4.3-1-11.2-10.1-11-14.2c0.1-2.1,0.6-3.1,2.4-1.3
		c0.6,0.7,1.2,1.4,2.2,1.3c1.6-0.2,3.8,0.5,4.5-1c0.7-1.5-1.3-2.7-2.1-3.9c-5.3-7.6-9.6-15.7-10.5-25.4c-0.1-1-0.1-1.9-0.4-2.9
		c-0.4-1.3-1.4-1.5-2.4-1.4c-1.3,0.1-1,1.1-1,2.1c-0.1,5.8,0.5,11.5-0.1,17.4c-0.6,6.4-3.5,10.6-7.3,14.7c-1.3,1.4-2.6,3-3.7,4.6
		c-0.9,1.3-2.1,3-0.9,4.5c1.4,1.6,3.4,0.5,4.3-0.7c1.6-2.1,4.4-2.5,5.5-5.3c0.4-0.9,1.8-1.3,3-2.1c0.5,4.1-2.4,6.3-4.1,8.7
		c-5,7-9.2,14.8-16.8,19c-0.9,0.5-1.5,1.4-2.2,2.3c-0.7,0.9-0.9,2-0.4,3.1c0.5,1,1.5,0.6,2.4,0.5c4.7-0.2,8.1-3.2,11.5-6.3
		c1.2-1.1,2.1-2.8,4.8-3.9c-2.2,3.3-3.8,5.7-5.5,8c-0.7,0.9-2.2,1.4-1.2,2.9c0.9,1.4,2.5,1.7,3.7,0.7c1.9-1.5,3.6-3.4,5.4-5.1
		c1.6-1.5,2.8-2.5,3.5,1c2,10-0.5,12.6-9.3,18.1c-3,1.9-6.8,2-9.5,4.8c-0.8,0.8-2.3,1.2-1.7,2.8c0.5,1.2,1.8,0.9,2.7,0.9
		c1.9-0.1,3.7-0.5,6-0.9c-6.5,7.8-16.1,10.7-21.3,19.8c8.5-2.5,16.7-5.5,23.9-11.6c-1.6,2.1-3.4,4.1-4.7,6.4c-1.5,2.5-3.3,4.5-5,6.7
		c-1,1.3-2.4,2.9-1.5,4.3c1.1,1.9,2.9,0.5,4.4-0.2c5.2-2.4,8.2-7.5,12-11.7c1.6-1.8,3-5.5,5-4.4c2.3,1.2,0.8,5.2,0.1,7.4
		c-0.9,2.7-1.4,4.3,0.8,6.5c1,1,0.6,2,0,3c-0.5-0.3-1.1-0.4-1.8-0.3c-1.3,0.1-1,1-1,1.9c0,0.8,0,1.6,0,2.4
		c-3.2,4.1-7.2,7.2-11.5,9.9c-2.2,1.4-4.7,2.1-5.9,5.6c-0.7,2.1-4.4,2.8-7,2.7c-2.2,0-4.2,0.4-6.3,1c-0.9,0.2-1.8,0.5-2,1.6
		c-0.3,1.4,0.6,2.2,1.5,2.5c2.8,1,2.4,2.8,0.7,4.4c-1.3,1.2-0.8,3.1-1.9,4.3c-3.5-2.8-4-4.3-2.3-8.3c0.5-1.3,0.1-2-0.2-3
		c-0.7-2.2-1.4-4.4-2-6.7c-0.1-0.2,0.2-0.5,0.3-0.8c1.6,0.1,1.7,4.1,3.5,2.4c1.4-1.3-0.9-3.1-1.3-4.7c-0.3-1.3-3.1-3.8,1.1-3.6
		c1.3,0.1,1.5-1,0.9-2c-2.7-4.4-2.3-9.5-2.4-14.5c0-1.4,0.1-3.3-1.2-3.6c-1.6-0.5-1.6,1.6-2.2,2.8c-2,4.5-4.1,8.8-7.3,12.5
		c-1.1,1.3-2.6,3.1,0.8,3.2c0,0,0,0,0,0l0.1-0.3l-0.1,0.3c0,0,0,0,0,0c-0.7,2.3-2.2,3.9-3.6,5.7c-1.2,1.4-3.1,2.6-1.5,5.2
		c0.5,0.9-0.4,1.7-0.9,2.5c-1,1.6-2,3.1-2.9,4.8c-0.5,1-0.4,2.9-1.7,2.8c-1.6-0.2-0.8-2.3-1.3-3.4l-0.1-0.1
		c-2.2,0.2-1.5,3.4-3.3,4.1c-1.4-1.5-0.9-3.4-1-5.1c-0.1-2-0.2-3.9-2.1-5c-1-0.6-1.5-1.3-1.1-2.7c0.6-2.5-0.7-3.5-2.6-4.1
		c-1.7-0.6-3.2-0.9-3.8,1.6c-0.1,0.7-0.6,1.3-1.3,1.1c-0.7-0.2-0.9-0.9-1-1.6c-0.6-2.6-1-5.2-0.4-7.8c0.3-1.7,0.5-3.7-1.5-3.8
		c-2-0.1-3.7,0.9-3.2,3.8c0.3,1.5-0.3,2.7-1,4.9c-0.4-4.1-0.8-7.4-5-6.7c-0.4,0.1-1.2-0.5-1.5-1.1c-1.9-3.8-3.4-1.3-4.8,0.4
		c-0.6,0.8-0.9,2-1.6,2.8c-1.3,1.4-2.6,1.6-3.4-0.7c-1.1-2.9-2.3-5.5-6-4.4c-0.6,0.2-1.8-0.4-2.3-1c-2.3-2.4-4.8-2.4-7.6-1.2
		c-2.3,1-4.1,0.5-5.9-1.8c-4.1-5.5-7-11.9-10.2-18.2c1.4,1.2,2.8,2.4,4.2,3.6c0.9,0.8,1.7,1.2,2.6,0.4c1.1-1,0.6-2,0-2.9
		c-3.5-5-5.7-10.7-8.3-16.2c-2-4.1-3.3-8.6-4.7-13c-1-2.8-1.5-5.9-3.4-9.1c2.7,1.4,3.9,3.4,5.4,5c0.9,1,2,1.7,3.2,2
		c0.9,0.2,1.9,0.8,2.8-0.3c0.9-1.2,0.6-2.4-0.1-3.4c-1.7-2.7-3.3-5.6-5.4-7.9c-4.2-4.9-7-10.6-10-17.5c1.9,2,3.1,3.4,4.4,4.7
		c0.6,0.6,1.3,1.7,2.2,1c1-0.7,0.6-2,0.2-3c-0.6-1.5-1.2-3.1-2-4.4c-3.2-5.2-4.5-11.2-6.8-16.9c3,3.1,5.1,7.2,9.3,8.5
		c0.3-0.4,0.5-0.7,0.8-1.1c-1-1.9-1.8-4-3.2-5.5c-5.4-5.9-6.9-13.5-8.1-21.4c-0.6-4.3-1.6-8.5-2.6-13.7c-1.4,3.3-0.7,5.6-1.1,8.2
		c-2-3.1,0.4-7.7-3.3-10c-2.2,4.1-2.6,8.8-3.2,13.3c-0.6,4.7-3.3,8.3-4.2,12.8c-0.2,1.1-1.7,1.4-2.7,2c-2.3,1.5-4.9,3-4.4,6.8
		c0.2,1.4-0.6,2-1.5,2.5c-1,0.5-1.9,0.6-2.8-0.4c-3.2-3.7-6.1-7.7-7.6-12.6c-0.3-0.8,0.2-2.2-1-2.3c-1,0-1.2,1.2-1.7,2
		c-2.8,4.3-3.4,10.2-8.5,13.4c4.1,1.5,3.1,3.6,1.2,5.9c-1.2,1.4-1.5,2.5,0.6,3.2c2.2,0.7,2,2,0.6,3.6c-2,2.3-4.1,4.4-6.6,6.1
		c-1.6,1.1-2,2.3-0.1,3.8c2.5,1.9,2.2,4-0.9,4.8c-2.4,0.6-3.5,1.9-4.5,4.2c-0.9,2.3-2.2,4.2-5.2,3.2c-1.4-0.5-3.2,0.1-4.8,0.6
		c-8.5,2.7-10.2-1.1-13.1-8c-1.6-3.8-3.7-7.3-4.7-11.6c-2,3.5-2.3,7.3-3.3,11c-2.4,8.8-5.5,17.1-11.3,24c-1.1,1.3-2.4,1.9-3.7,2.8
		c-0.9,0.6-2.2,1.5-1.7,2.8c0.5,1.6,2.1,1.8,3.5,1.7c3.3-0.3,5.7-2.5,8.3-4.4c-2.2,4.5-5.2,8.2-8.7,11.3c-3.2,2.8-4.1,8.1-8.5,9.4
		c-0.2,0.1-0.4,0.7-0.4,1c0.1,0.8,0.8,1,1.4,1.1c1.7,0.3,2.7-1,4-1.9c1.4-0.9,2.4-2.9,5-1.9c-3.5,4.8-7.3,8.9-11.8,12.1
		c-1.5,1.1-2.4-0.1-3.3-0.9c-1.3-1,0.1-1.9,0.5-2.7c0.6-1.1,2.1-2.3,0.7-3.6c-1.3-1.2-2.6,0.1-3.2,1.1c-1.7,2.7-2.4,1.5-3.1-0.7
		c-2.4-7.7-7.5-13.6-10.7-20.7c-1.3-2.8-3.9-4.4-6.4-4.3c-7.5,0.5-14.7-2.3-22.1-1.4c-6.9,0.9-13.7,3.2-20.7,2
		c-7.7-1.3-15,1.1-22.4,2.4c-3.4,0.6-5.8,3.5-7.3,7.1c-1.2,3-2.6,3.5-4.8,1.2c-1.6-1.8-3.4-2.3-5.3-0.5c-0.3,0.3-1,0.7-1.3,0.5
		c-4.3-2.2-3.6,1.9-4.3,4.2c-0.2,0.9,0.9,2.6-0.8,2.5c-1.5-0.1-2.9-1.3-2.6-3.4c0.2-1.3,0.9-2.6,1.6-3.7c0.9-1.4,2.7-2.8,1-4.5
		c-1.6-1.6-4.5-0.2-5,0.7c-1.5,2.5-5,3.7-4,8.4c-2.6-2.5-4.9-4-4.5-7.7c0.2-1.8-0.5-3.4-2.6-3.1c-2.1,0.3-2.6,2-2.2,4
		c0.3,1.2,0.9,2.2,1.4,3.3c1.1,2.6-0.7,4.2-2.1,5.1c-0.8,0.5-1.4,0.2-1.8-0.5c0-1,0.1-2,0.1-3c0-0.9,0.1-1.8,0-2.6
		c0-0.8-0.4-1.5-1.2-1.7c-0.3-0.1-0.6-0.1-0.8,0c-0.1-1.6,0-3.3-0.1-4.8c-0.2-8.5-2.1-16.7-2.4-25.1c-0.5-12.3-0.7-24.5-0.3-36.7
		c0.6-16.5,3.6-32.8,3.6-49.4c0-1,0.1-1.9,0-2.9c0-0.9-0.4-1.6-1.2-1.9c-0.9-0.3-1.3,0.5-1.8,1c-1.9,1.9-1.8,4.9-3.7,7
		c2.9-4-1.1-7-1.1-10.5c0-5.1,0-10.2-0.2-15.2c-0.1-5.1-0.3-10.1-0.6-15.2c-0.3-5.3-1.7-6.1-6.5-4.5c-2.1,0.7-1.4-1.1-1.5-2.1
		c-0.6-7.4-1.2-14.7-1.7-22.1c-0.2-2.6-1-4.4-3.6-4.1c-2.3,0.3-2.4,2.3-2.7,4.5c-0.9,6.2,1.1,12.6-0.8,18.9c-0.8-0.2-1-1.2-0.9-1.8
		c1-11.6-1.2-22.9-2.1-34.4c-0.1-1-0.3-1.9-0.5-2.8c-0.3-1.2-0.9-2-2.1-1.9c-1.4,0.1-1.4,1.3-1.4,2.4c0,7.9,0,15.8,0.1,23.6
		c0,4.5-0.6,9.1,0.1,14c-2.4-1.1-1.3-4.2-4.1-5.3c2.3,16.1,4.6,31.7,6.8,47.5c-4-1-6.6-4.1-10.5-4.8c-6.4-1-12.9,0.3-19.3-0.9
		c-7.1-1.3-14.3-2.4-21.4-3.6c0,257.3,0,514.7-0.1,772c0,1.8,0.2,2.8,1,3.3c0,14.3,0,28.6,0,42.8c0,2.8,0.6,3.4,3.4,3.4
		c637.8-0.1,1275.5-0.1,1913.3,0c2.8,0,3.4-0.6,3.4-3.4C1921.8,940,1921.8,661.6,1921.8,383.3z M1357,713.2
		c-0.8-0.1-1.3-0.6-1.4-1.4C1356.4,711.8,1356.9,712.4,1357,713.2z M1353.3,707.9c0.8,0.2,1.3,1.1,0.9,1.6c-0.7,0.9-0.9-0.2-1.2-0.6
		C1352.8,708.5,1352.7,708.1,1353.3,707.9z M1258,665.1c0.7-0.1,0.7,0.4,0.8,0.9c-0.5,0-0.9,0-1-0.6
		C1257.8,665.3,1257.9,665.1,1258,665.1z M1237.1,740.2c0.4-2,2.2-2.3,3.8-3C1240,738.8,1238.6,739.5,1237.1,740.2z M1123.8,739.5
		c1.2-0.2,2.4-0.4,3.7-0.6C1125.8,741.3,1125.8,741.3,1123.8,739.5z M1081.5,713c0,0,0.1,0,0.1,0.1c-0.1,0-0.2-0.1-0.3-0.1
		C1081.4,713,1081.5,713,1081.5,713z M1053.1,692.4c-0.1,0-0.2-0.1-0.3-0.1c0.1-0.2,0.2-0.4,0.3-0.5c0,0,0.2,0.1,0.3,0.1
		C1053.3,692.1,1053.2,692.3,1053.1,692.4z M1055.3,689.9c-0.1,0-0.3-0.2-0.3-0.2c0.1-0.7,0.5-1.1,1.2-1.2
		C1056.1,689.1,1056,689.7,1055.3,689.9z M1052.6,717.7c0.2-0.3,0.3-0.5,0.5-0.8C1053.5,717.5,1052.9,717.5,1052.6,717.7z
		 M1048.8,753.8C1048.8,753.8,1048.8,753.8,1048.8,753.8l0.1-0.1C1048.9,753.6,1048.8,753.8,1048.8,753.8z M792.7,593.1
		c-0.3,0.6-0.6,1.4-2.2,1.8C791.6,594,792.2,593.6,792.7,593.1C792.7,593.1,792.7,593.1,792.7,593.1L792.7,593.1
		C792.7,593.1,792.7,593.1,792.7,593.1z M1042.8,785.6c0.5,0,1,0,1.5,0c-2,2-6,3.6-10,4.2v-4.5
		C1037.1,785.8,1040,785.6,1042.8,785.6z M66.5,403.1c-0.6-1.9-0.6-1.9,0-6.3C66.5,399.6,66.5,401.2,66.5,403.1z M65.7,394.2
		c0-1.8,0-3.7,0-5.5C66.8,390.5,66.5,392.3,65.7,394.2z M1034.3,830.2c1.3-0.2,2.7-0.3,4.2-0.1c-1.5,0.3-2.9,0.7-4.2,1V830.2z
		 M1034.6,824.2c2.1-2.1,3.7-1.5,5.2,0.8l0.1,0.1l-0.1-0.1C1038.1,824.1,1036.4,823.6,1034.6,824.2z M1034.3,824.4v-0.1
		c0,0,0.1,0,0.1,0C1034.4,824.3,1034.4,824.3,1034.3,824.4z M840,626.7c0.2,0.3,0.5,0.7,0.7,1.1c0.1,0,0.1,0.1,0.2,0.2
		c0.1,0.2,0.1,0.4,0.2,0.6c-0.1-0.2-0.1-0.3-0.2-0.5c0-0.1-0.1-0.1-0.1-0.2c-0.3-0.3-0.6-0.5-0.9-0.8
		C839.8,626.8,839.9,626.8,840,626.7z M838.2,630.6c0.6,0.3,0.8,0.9,0.8,1.8c-0.2,0.2-0.4,0.4-0.6,0.6c-0.3-0.5-0.7-1-0.9-1.6
		C837.3,630.9,837.6,630.3,838.2,630.6z M765.7,667c0.7,2.5,1.1,4.6,1.7,6.6c0.5,1.5,1.4,2.6,2.8,3.1c0.6,0.2,1.3,0.4,1.7-0.2
		c0.5-0.7,0.2-1.3-0.2-1.9c-1.7-2.4-1.9-5.4-2.7-8.1c-0.4-1.6-0.2-2.6,1.9-2.9c4.2-0.5,8.5,0,12.7-1.8c-0.2,0.5-0.2,0.8-0.4,1
		c-0.7,1-2.8,1.2-2.2,2.8c0.6,1.5,2.3,0.4,3.4,0.2c6.1-1.3,10.1-6.2,15-10.7c-0.3,4-0.7,7.8-0.9,11.5c-2.5,1.8-5.5,3.1-8.4,4.5
		c-1.5,0.7-4.2,1.1-3.6,3c0.6,1.9,3.2,0.6,4.7,0.2c2-0.4,3.8-1.7,6-2.2c-2.5,1.4-4.5,3.4-6.6,5.2c-0.8,0.7-2.1,1.3-1.2,2.6
		c0.8,1.2,2.1,1.4,3.3,0.7c1.7-1,3.4-1.8,5.2-2.7c-1.1,4.5-3.8,7.9-8.3,10.2c-4,2-8,3.8-12.5,3.7c-5,0-8.8-3.6-9.9-9.6
		c0.8,0,0.9,0.8,1.2,1.4c0.7,1.2,1.2,3.6,2.6,2.8c1.9-1.1,0.5-3.2-0.2-4.7c-1.2-2.9-3.9-4.8-4.7-7.9
		C765.6,671.8,765,669.7,765.7,667z M724.5,628L724.5,628c-0.2,0.6-0.4,1.1-0.7,1.7l0,0C724,629.1,724.2,628.5,724.5,628z
		 M501.5,514.5c0.8,0.2,1.2,0.9,1.4,1.7c-0.1,0.7-0.4,1-1,0.9c-0.9-0.1-1.2-0.9-1.3-1.7C500.5,514.8,500.9,514.4,501.5,514.5z
		 M65.6,375.4c1.2,1.4,1,2.3,0.4,3.5C64.9,377.9,65.3,376.9,65.6,375.4z M1044.1,842c-1,0.2-2.6-0.6-2.9,0.8
		c-0.4,1.4,1.5,1.7,2.4,2.5c-1.6,2.1-3.7,3.1-5.9,4.1c-1.2,0.5-2.3,0.8-3.4,0.8v-13.3c6.1-0.5,12-1.9,17.3-5.4
		c4-2.6,8.1-5.2,12.1-7.9C1062.2,833.4,1050.6,840.6,1044.1,842z M1062.5,810.1c-3.7,2.9-7.4,5.8-11.1,8.7c-1.2,0.9-2.7,1.3-4.2,1.3
		c-4.2,0-8.5,0-12.7,0.1c0,0-0.1,0-0.1,0v-25.8c1.6,0.1,3.1,0,4.7-0.4c0.6-0.2,1.3-0.2,1.9,0c8.9,3.3,13.8-3,19.2-8
		c0.2-0.2,0.4-0.3,0.6-0.4c0.1,1.9-0.9,3.6-3,5.5c-1.3,1.2-2.6,2.3-3.8,3.6c-0.8,0.8-1.8,1.9-1,2.9c1,1.2,2.4,0.2,3.4-0.4
		c1.3-0.8,2.4-2.2,3.7-3.1c1.4-1,2.1-2.4,3.2-3.8c2.2,5.5,0.8,11,1.5,16.4C1064.9,808,1063.6,809.2,1062.5,810.1z M1115.7,770
		c-1.3,2.5-4.1,2.8-5.5,4.7c-3.6,0.1-6.6,2.8-10.6,2.2C1103.9,772,1108.9,769.4,1115.7,770z M1116.8,780.6c-6.6,7.5-14.2,7-22.4,3.3
		c-1.7-0.8-3.5-1.3-5.3-1.8c5.1-0.1,10.1-0.6,14.9-1.9c2.8-0.7,5.7-1.8,6.1-5.4c1.6,0.1,3.2,0.1,4.8,0.2c1.6,0,2.6,0.8,3.2,2.2
		C1118.8,778.6,1117.8,779.5,1116.8,780.6z M1142.5,699.7c0.1-0.9,0.6-1.3,1.4-1.4C1143.8,699.1,1143.5,699.8,1142.5,699.7z
		 M1144.1,698.2c0-0.2,0.1-0.3,0.1-0.5C1144.6,698,1144.3,698,1144.1,698.2z M1164.3,682.3c-0.2,0-0.3-0.3-0.4-0.5
		c0.2-0.1,0.3-0.3,0.5-0.4c0.2,0.2,0.3,0.5,0.5,0.7C1164.7,682.2,1164.5,682.4,1164.3,682.3z M1204.3,782.4c-0.5-0.8,0-2.2,0.6-2.3
		c2.2-0.6,2.6,1.5,3.9,2.9C1206.9,783.7,1205.4,784.3,1204.3,782.4z M1213,781.2c-2.5-0.8-1.2-3-0.8-4c0.6-2,3.5-2.1,4.3-1.2
		c1.9,2.3,4,1.7,6.5,1.1C1221.3,779.4,1215,781.9,1213,781.2z M1236.4,770.4c-0.7,0.3-1.5,0.2-2-0.5c-0.6-0.9-0.1-1.8,0.7-2.2
		c1.9-0.8,3.4-2.5,5.5-2.7C1241.2,768.4,1238.9,769.5,1236.4,770.4z M1262.5,712.6c-0.7,0.9-1.8,1.3-2.6,0.5c-2.6-2.8-5-5.7-6.5-9.2
		c2.5,2.6,5.4,4.4,8.2,6.4C1262.4,710.8,1263.4,711.3,1262.5,712.6z M1291.8,732.6c-3.7,4.1-8.1,7.3-13.1,9.7
		c-2.3,1.1-3.5,0-3.9-2.3c-0.3-1.7-0.6-3.4-1.1-5.1c-1.2-4.4-0.5-5.3,4.1-5.5c1.9-0.1,3.9,0.9,5.3-1.4c0.5-0.9,1.9,0,2.6,0.7
		c0.8,0.8-0.1,1.3-0.6,1.8c-1.8,1.7-3.6,3.3-6.1,5.7c6.1,0.2,8.9-4,12.9-5.6C1293,731.5,1292.2,732.2,1291.8,732.6z M1332.5,720.6
		c0,0.1,0,0.2,0,0.3c-0.1,0-0.2,0.1-0.3,0.1c-0.1,0-0.1-0.1-0.2-0.2C1332.2,720.7,1332.3,720.6,1332.5,720.6z M1305.7,762.7
		c5.9-0.4,10.2-5,15.9-5.3C1319.5,764.2,1311.3,767.1,1305.7,762.7z M1309.1,751.6c1.9,0.8,3,2.9,5.4,3
		C1311.5,757,1310.7,756.5,1309.1,751.6z M1321.2,748c0.8,1.1-1.2,3.6-3.7,3.3c-2.3-0.3-4.7-0.7-7-1.2c-0.9-0.2-1.7-0.3-2.3,0.5
		c-3.3-2.6-0.6-4.6,0.6-7c1.3,1.6,2.5,3,3.6,4.5c0.2-0.2,0.4-0.5,0.6-0.7c1.3-3.7-1.1-6.7-2.2-10.1c3.4-0.6,6,1.8,9.4,1.7
		c-0.8,1.8-3.7,0.3-3,2.1c0.7,1.9,3.3,1.8,5.8,2C1321.2,744.6,1319.2,745.4,1321.2,748z M1331.1,736.3c-1,0.9-2.3,0.8-3,0
		c-1.1-1.2,0.5-1.6,1.1-2c1.4-1.1,3-2,4.5-2.9C1333.3,733.2,1332.7,735,1331.1,736.3z M1352.3,735.1c0-0.1,0.4-0.3,0.5-0.3
		c0.7,0.3,1,0.9,1.2,1.6C1353.1,736.5,1352.4,736.2,1352.3,735.1z M1356.1,751.5c-2.2-0.1-2.2-2.5-3.2-4c1.6,0.6,3.9-0.4,4.4,1.9
		C1357.5,750.2,1356.8,751.5,1356.1,751.5z M1693.7,461.1c-0.2-3.3,2.3-5.7,3-9.6C1698.7,456.4,1698,459.4,1693.7,461.1z
		 M1708.3,449.6c-2,0.5-1.3-1.9-1.6-3c-1.9-6.8-1.6-13.8-1.4-21.5c2.4,3,4.1,5.6,6.9,7.1c0.7,0.4,1.1,1,1.2,1.8
		c0.3,4.1,1.1,8.2,1.1,12.2C1714.5,449.2,1710.6,449.1,1708.3,449.6z M1724.7,443.9c-0.2,1.1-1.4,0.8-2.2,1.1
		c-5.6,1.9-5.8,1.7-6.2-4.4c-0.1-1.2,0-2.4,0-3.6c2,2.4,4.8,3,6.8,4.6C1723.9,442.1,1724.9,442.8,1724.7,443.9z M1826.9,390.6
		c-0.2,0-0.4-0.1-0.6-0.2c0.1-0.2,0.2-0.5,0.3-0.5c0.2,0,0.4,0.1,0.6,0.2C1827,390.3,1827,390.6,1826.9,390.6z M1862.7,440.3
		c-0.2,0.9-1.1,0.9-1.8,1c-0.7,0.2-1.4,0.2-2.1,0.4c0.2-0.7,0.4-1.4,0.7-2c0.6-1,1.4-0.7,2.3-0.4
		C1862.3,439.5,1862.8,439.7,1862.7,440.3z"/>
	<path class="st38" d="M1746.2,415.7c0.5-0.7,1-1.5,1.4-2.3C1746.1,414.1,1745.7,414.8,1746.2,415.7z"/>
</g>
<g class="st39">
	
		<linearGradient id="SVGID_3_" gradientUnits="userSpaceOnUse" x1="509.6372" y1="1294.2211" x2="1624.7769" y2="-568.6053" gradientTransform="matrix(1 0 0 -1 0 1080)">
		<stop  offset="0" style="stop-color:#FABE78"/>
		<stop  offset="9.350000e-02" style="stop-color:#ECBA7C"/>
		<stop  offset="0.2705" style="stop-color:#C7AE86"/>
		<stop  offset="0.5124" style="stop-color:#8B9C96"/>
		<stop  offset="0.8064" style="stop-color:#3A83AC"/>
		<stop  offset="1" style="stop-color:#0071BC"/>
	</linearGradient>
	<rect x="1.1" class="st40" width="1920" height="1080"/>
</g>
<image style="overflow:visible;" width="1920" height="1080" xlink:href="cityAlayerA.png"  transform="matrix(0.9999 0 0 0.9999 -2193.875 616.9955)">
</image>
<image style="overflow:visible;" width="1920" height="1080" xlink:href="cityBlayerA.png"  transform="matrix(0.9999 0 0 0.9999 1956.9965 7.025604e-02)">
</image>
<image style="overflow:visible;opacity:0.33;" width="1920" height="1080" xlink:href="cityBlayerA.png"  transform="matrix(0.9999 0 0 0.9999 1956.9965 1106.9199)">
</image>
</svg>
