<?xml version="1.0" encoding="utf-8"?>
<!-- Generator: Adobe Illustrator 23.0.2, SVG Export Plug-In . SVG Version: 6.00 Build 0)  -->
<svg version="1.1" id="Calque_1" xmlns="http://www.w3.org/2000/svg" xmlns:xlink="http://www.w3.org/1999/xlink" x="0px" y="0px"
	 viewBox="0 0 1920 1080" style="enable-background:new 0 0 1920 1080;" xml:space="preserve">
<style type="text/css">
	.st0{fill:#42210B;}
	.st1{fill:#809B28;}
	.st2{fill:#8BC74B;}
	.st3{fill:#0E874E;}
	.st4{opacity:0.99;fill:#B3B3B3;enable-background:new    ;}
	.st5{fill:#603813;}
	.st6{fill:#806042;}
	.st7{fill:#534741;}
	.st8{fill:#999999;}
	.st9{fill:none;stroke:#754C24;stroke-width:0.75;stroke-miterlimit:10;}
</style>
<g>
	<path class="st0" d="M652.7,1031.5h7.4c1.1,0,2-1,2-2.3l-4.9-167.3c0-1.2-0.9-2.2-2-2.2l0,0c-1.1,0-1.9,1-2,2.2l-2.5,167.3
		C650.7,1030.5,651.6,1031.5,652.7,1031.5z"/>
	<path class="st0" d="M653.7,937.5l2.1,8.5c0.9,1,5-2,5.8-3l39.5-47.7c0.8-1,0.8-2.5,0-3.4l0,0c-0.8-0.9-2.1-1-2.9-0.1l-44.4,42.1
		C652.9,934.8,652.8,936.5,653.7,937.5z"/>
	<path class="st0" d="M631.4,873.7L631.4,873.7c-0.4,0.8-0.2,1.9,0.5,2.5l21.3,16.7c0.9,0.7,2.2,0.2,2.5-1l0.7-2.3
		c0.2-0.8-0.1-1.8-0.7-2.2l-22-14.4C632.8,872.5,631.8,872.8,631.4,873.7z"/>
	<path class="st0" d="M656.2,978.1L656.2,978.1c-0.4,0.7-1.2,0.8-1.8,0.4l-28.1-21.4c-0.6-0.4-0.7-1.3-0.3-2l0,0
		c0.4-0.7,1.2-0.8,1.8-0.4l29.3,18.8C657.7,973.9,656.6,977.5,656.2,978.1z"/>
	<g>
		<g>
			<ellipse class="st1" cx="658" cy="928.7" rx="50.9" ry="57.8"/>
			<ellipse class="st1" cx="657.3" cy="879.2" rx="65.6" ry="75.6"/>
			<ellipse class="st1" cx="655.2" cy="805.9" rx="78.8" ry="92.7"/>
		</g>
	</g>
</g>
<g>
	<path class="st0" d="M589.9,1029.5h10.2c1.5,0,2.8-1.1,2.7-2.3L596,856.8c0-1.2-1.2-2.2-2.7-2.2l0,0c-1.5,0-2.7,1-2.7,2.2
		l-3.4,170.4C587.2,1028.5,588.4,1029.5,589.9,1029.5z"/>
	<path class="st2" d="M645.7,991.1H542.5c-2.8,0-4.9-2-4.5-4.3c5.9-28.5,36.9-189.9,50.9-189.9c14.1,0,53.7,160.8,61.2,189.8
		C650.8,989,648.6,991.1,645.7,991.1z"/>
</g>
<g>
	<path class="st0" d="M298.5,1033h14c2.1,0,3.8-1.7,3.7-3.8l-9.3-277.5c-0.1-2-1.7-3.6-3.7-3.6l0,0c-2,0-3.7,1.6-3.7,3.6l-4.7,277.5
		C294.7,1031.3,296.4,1033,298.5,1033z"/>
	<path class="st2" d="M374.8,978.9H233.5c-3.8,0-6.8-3.4-6.1-7.2c8.1-48.2,50.5-321,69.7-321s73.4,271.8,83.8,320.7
		C381.7,975.3,378.8,978.9,374.8,978.9z"/>
</g>
<g>
	<path class="st0" d="M200.8,1030.5h17.5c2.6,0,4.7-2.2,4.6-4.8l-11.7-347.6c-0.1-2.5-2.1-4.5-4.6-4.5l0,0c-2.5,0-4.6,2-4.6,4.6
		l-5.9,347.6C196.1,1028.4,198.2,1030.5,200.8,1030.5z"/>
	<path class="st2" d="M296.4,962.8h-177c-4.8,0-8.5-4.3-7.7-9c10.1-60.3,63.2-402,87.3-402s92,340.4,105,401.6
		C305,958.3,301.3,962.8,296.4,962.8z"/>
</g>
<g>
	<path class="st0" d="M148.6,1039.9h4c4.9,0,8.8-4,8.8-8.8V675.8c0-4.9-4-8.8-8.8-8.8h-4c-4.9,0-8.8,4-8.8,8.8V1031
		C139.8,1035.9,143.7,1039.9,148.6,1039.9z"/>
	<g>
		<path class="st1" d="M117,669.5h67.3c0,0-30.5-54.9-33.7-71.8C147.5,597.7,117,669.5,117,669.5z"/>
		<path class="st1" d="M82.8,751.6h135.7c0,0-62.6-66.3-67.8-124.7C146.4,684.2,82.8,751.6,82.8,751.6z"/>
		<path class="st1" d="M43.3,861.8H258c0,0-95.8-98.4-107.4-197.6C134.8,741.2,43.3,861.8,43.3,861.8z"/>
		<path class="st1" d="M20.8,963.4h259.6c0,0-116.1-134.5-129.8-249.1C150.6,800.3,20.8,963.4,20.8,963.4z"/>
	</g>
</g>
<g>
	<path class="st0" d="M319.4,1030.4L319.4,1030.4c4,0,7.3-3.3,7.3-7.3V786.7c0-4-3.3-7.3-7.3-7.3l0,0c-4,0-7.3,3.3-7.3,7.3v236.5
		C312.1,1027.2,315.4,1030.4,319.4,1030.4z"/>
	<g>
		<path class="st1" d="M296.8,781.1h45.3c0,0-20.5-37-22.7-48.4C317.3,732.7,296.8,781.1,296.8,781.1z"/>
		<path class="st1" d="M273.7,836.3h91.4c0,0-42.1-44.6-45.7-84C316.6,791,273.7,836.3,273.7,836.3z"/>
		<path class="st1" d="M247.1,910.5h144.6c0,0-64.5-66.3-72.3-133C308.8,829.3,247.1,910.5,247.1,910.5z"/>
		<path class="st1" d="M232,978.9h174.8c0,0-78.2-90.6-87.4-167.7C319.4,869.1,232,978.9,232,978.9z"/>
	</g>
</g>
<g>
	<path class="st0" d="M406.8,1039.9L406.8,1039.9c4.9,0,8.8-4,8.8-8.8V745.2c0-4.9-4-8.8-8.8-8.8l0,0c-4.9,0-8.8,4-8.8,8.8v285.9
		C398,1035.9,402,1039.9,406.8,1039.9z"/>
	<g>
		<path class="st1" d="M379.4,738.4h54.8c0,0-24.8-44.7-27.4-58.5C404.3,679.9,379.4,738.4,379.4,738.4z"/>
		<path class="st1" d="M351.6,805.2H462c0,0-50.9-54-55.2-101.5C403.4,750.4,351.6,805.2,351.6,805.2z"/>
		<path class="st1" d="M319.4,894.9h174.8c0,0-78-80.1-87.4-160.8C393.9,796.8,319.4,894.9,319.4,894.9z"/>
		<path class="st1" d="M301.2,977.6h211.3c0,0-94.5-109.5-105.7-202.7C406.8,844.9,301.2,977.6,301.2,977.6z"/>
	</g>
</g>
<rect x="-69.4" y="1037.1" class="st0" width="2067.9" height="57.3"/>
<g>
</g>
<rect x="-70.3" y="1024.3" class="st3" width="2067.9" height="15.2"/>
<polygon class="st4" points="1138.5,1022.5 989.8,1022.5 989.8,1022.5 985.5,1022.5 985.5,1022.5 1142.7,1022.5 1142.7,1022.5 "/>
<g>
	<path class="st5" d="M800.7,1023.6L800.7,1023.6c0,0-5.3,2.2-5.3-0.6v-42.4c0-2.8,2.3-5.1,5.1-5.1h0.4c2.8,0,5.1,2.3,5.1,5.1v42.4
		C806,1025.8,800.7,1023.6,800.7,1023.6z"/>
	<g>
		<path class="st6" d="M818.7,989.9l-38.6-2.1c-0.4,0-0.7-0.3-0.7-0.7l1.4-17.8c0-0.3,0.3-0.6,0.7-0.6l40.9,0.9
			c0.4,0,0.8,0.4,0.7,0.8l-3.7,19.1C819.4,989.7,819.1,989.9,818.7,989.9z"/>
		
			<rect x="807.3" y="975.3" transform="matrix(0.2695 -0.963 0.963 0.2695 -342.1962 1505.9554)" class="st7" width="28.5" height="6.5"/>
		
			<rect x="766.8" y="974.3" transform="matrix(8.690213e-02 -0.9962 0.9962 8.690213e-02 -261.7269 1669.6151)" class="st7" width="26.2" height="6.5"/>
		
			<rect x="778.5" y="965.6" transform="matrix(0.9997 -2.263100e-02 2.263100e-02 0.9997 -21.721 18.4111)" class="st7" width="48.2" height="6.5"/>
		
			<rect x="797.4" y="965.7" transform="matrix(5.064471e-02 -0.9987 0.9987 5.064471e-02 -226.2025 1737.1776)" class="st7" width="6.5" height="43.8"/>
		<circle class="st8" cx="782.8" cy="967.4" r="0.4"/>
		<circle class="st8" cx="779.6" cy="970.6" r="0.4"/>
		<circle class="st8" cx="783.2" cy="970.6" r="0.4"/>
		<circle class="st8" cx="779.6" cy="967.4" r="0.4"/>
		<circle class="st8" cx="778.8" cy="984.4" r="0.3"/>
		<circle class="st8" cx="778.3" cy="987" r="0.3"/>
		<circle class="st8" cx="781.6" cy="987.4" r="0.3"/>
		<circle class="st8" cx="781.9" cy="984.8" r="0.3"/>
		<circle class="st8" cx="815.3" cy="989.5" r="0.3"/>
		<circle class="st8" cx="818.3" cy="989.5" r="0.3"/>
		<circle class="st8" cx="825.2" cy="967.5" r="0.3"/>
		<circle class="st8" cx="822.8" cy="967.1" r="0.3"/>
		<circle class="st8" cx="817" cy="986.9" r="0.3"/>
		<circle class="st8" cx="824.7" cy="971" r="0.3"/>
		<circle class="st8" cx="821.4" cy="971" r="0.3"/>
	</g>
	<path class="st5" d="M803.2,1003.7c0,0,4.5-2.4,5.3-3.3c0.8-0.4,3.7,0,3.7,0l-0.4,0.8l0.4,0.4v0.4c0,0-2.4-0.4-3.3,0
		s-5.7,2.9-5.7,2.9V1003.7z"/>
	<path class="st9" d="M795.5,1006.9c3.7,1,7.2,1,10.6,0"/>
	<path class="st9" d="M795.5,996.3c3.7,1,7.2,1,10.6,0"/>
</g>
</svg>
