<?xml version="1.0" encoding="utf-8"?>
<!-- Generator: Adobe Illustrator 23.0.2, SVG Export Plug-In . SVG Version: 6.00 Build 0)  -->
<svg version="1.1" id="Calque_1" xmlns="http://www.w3.org/2000/svg" xmlns:xlink="http://www.w3.org/1999/xlink" x="0px" y="0px"
	 viewBox="0 0 154 154" style="enable-background:new 0 0 154 154;" xml:space="preserve">
<style type="text/css">
	.st0{opacity:0.5;fill:#B3B3B3;}
</style>
<circle class="st0" cx="76.8" cy="77.3" r="76.7"/>
<g>
	<path d="M27,36.9v0.3h-3.5v-3.1h5.9l1.5,3.1h-3.9L27,36.9z M27,65h-3.5V40.3H27V65z M41.8,66.6L28.7,40.3h3.8l9.3,19l9.4-19H55
		L41.8,66.6z M56.8,36.7l-0.3,0.5h-3.9l1.6-3.1h6v3.1h-3.5V36.7z M60.3,65h-3.5V40.3h3.5V65z"/>
	<path d="M65.8,65l12.4-24.6h3.7L69.7,65H65.8z M92.9,61.9L82.4,40.3h3.7L98.4,65H76.2l2.1-3.1H92.9z M79.7,37.2l2.4-4.8l2.4,4.8
		H79.7z"/>
	<path d="M103.9,37.2v-3.1h3.5v3.1H103.9z M103.9,65V40.3h3.5V65H103.9z"/>
	<path d="M114.3,37.2v-3.1h3.5v3.1H114.3z M114.3,65V40.3h3.5v21.5h20V65H114.3z"/>
	<path d="M50.5,96.3v0.3H47v-3.1h5.9l1.5,3.1h-3.9L50.5,96.3z M50.5,124.4H47V99.7h3.5V124.4z M65.3,126L52.2,99.7H56l9.3,19l9.4-19
		h3.9L65.3,126z M80.3,96.1L80,96.6h-3.9l1.6-3.1h6v3.1h-3.5V96.1z M83.8,124.4h-3.5V99.7h3.5V124.4z"/>
	<path d="M90.7,96.6v-3.1h23.5v3.1H90.7z M90.7,124.4V99.7h3.5v21.5h20v3.1H90.7z M113.8,108.2v3.1H99v-3.1H113.8z"/>
</g>
</svg>
