<?xml version="1.0" encoding="utf-8"?>
<!-- Generator: Adobe Illustrator 23.0.2, SVG Export Plug-In . SVG Version: 6.00 Build 0)  -->
<svg version="1.1" id="Calque_1" xmlns="http://www.w3.org/2000/svg" xmlns:xlink="http://www.w3.org/1999/xlink" x="0px" y="0px"
	 viewBox="0 0 154 154" style="enable-background:new 0 0 154 154;" xml:space="preserve">
<style type="text/css">
	.st0{opacity:0.51;fill:#B3B3B3;}
</style>
<circle class="st0" cx="76.8" cy="77.3" r="76.7"/>
<g>
	<path d="M32.2,79.4c0-2.5,0.4-4.9,1.2-7.1c0.8-2.3,1.8-4.3,3.2-6.3h6.8c-2,1.7-3.6,3.7-4.7,6c-1.1,2.4-1.7,4.8-1.7,7.4
		c0,2.4,0.5,4.7,1.4,6.8c1,2.1,2.3,4,3.9,5.7s3.5,2.9,5.7,3.9c2.2,1,4.5,1.4,6.9,1.4c1.7,0,3.3-0.2,4.9-0.7c1.6-0.5,3.1-1.1,4.4-1.9
		c1.4-0.8,2.6-1.8,3.7-2.9c1.1-1.1,2.1-2.4,2.8-3.8l3.5,3.5c-2,3.2-4.7,5.7-8,7.7c-3.3,1.9-7.1,2.9-11.3,2.9c-3.2,0-6.1-0.6-8.9-1.8
		c-2.8-1.2-5.2-2.8-7.2-4.9c-2-2-3.7-4.4-4.9-7.2C32.8,85.5,32.2,82.6,32.2,79.4z M55,56.8c2.6,0,5.1,0.4,7.4,1.3
		c2.4,0.8,4.5,2,6.4,3.5H41.1c1.9-1.5,4-2.7,6.4-3.5C49.8,57.2,52.3,56.8,55,56.8z M71.7,72.7c-0.6-1.2-1.3-2.4-2.1-3.5
		C68.8,68,67.8,67,66.8,66h6.6c0.5,0.7,0.9,1.3,1.3,2c0.4,0.7,0.8,1.3,1.2,2L71.7,72.7z"/>
	<path d="M79.3,57h5.8l2.2,4.5h-5.7L79.3,57z M89.4,66l13.4,27.4L116.4,66h5.6l-19.2,38.2L83.8,66H89.4z M126.6,57l-2.3,4.5h-5.7
		l2.2-4.5H126.6z"/>
</g>
</svg>
