<?xml version="1.0" encoding="utf-8"?>
<!-- Generator: Adobe Illustrator 23.0.2, SVG Export Plug-In . SVG Version: 6.00 Build 0)  -->
<svg version="1.1" id="Calque_1" xmlns="http://www.w3.org/2000/svg" xmlns:xlink="http://www.w3.org/1999/xlink" x="0px" y="0px"
	 viewBox="0 0 52 52" style="enable-background:new 0 0 52 52;" xml:space="preserve">
<style type="text/css">
	.st0{fill:#FFFFFF;}
	.st1{fill:#1A1A1A;}
	.st2{fill:#593D81;}
</style>
<polygon class="st0" points="41.5,52.3 0.1,52.3 0.1,0.5 51.8,0.5 51.8,42 "/>
<polygon class="st1" points="40.3,50.2 2.1,50.2 2.1,2.6 49.7,2.6 49.7,40.8 "/>
<path class="st2" d="M13.2,14.9c0.3,0,0.6,0.2,0.8,0.3c0.2,0.2,0.3,0.5,0.3,0.8v2.4c0,0.3-0.2,0.6-0.3,0.8c-0.2,0.2-0.5,0.3-0.8,0.3
	l0,0l0,0c0.3,0,0.6,0.2,0.8,0.3c0.2,0.2,0.3,0.5,0.3,0.8v2.5c0,0.3-0.2,0.6-0.3,0.8c-0.2,0.2-0.5,0.3-0.8,0.3H5v-5.8h2.4l0,0h4.3
	c0.2,0,0.2,0,0.3-0.2c0.2-0.2,0.2-0.2,0.2-0.3v-0.3c0-0.2,0-0.2-0.2-0.3c0,0-0.2,0-0.3,0H8.2l0,0H5v-2.4h1.7H13.2z M12.1,21.4v-0.2
	c0-0.2,0-0.3-0.2-0.3c-0.2-0.2-0.2-0.2-0.3-0.2H7.4v1.1h4.1c0.2,0,0.3,0,0.3-0.2C12.1,21.7,12.1,21.6,12.1,21.4z"/>
<path class="st2" d="M20.6,14.9c0.6,0,1.3,0.2,1.9,0.3c0.6,0.3,1.1,0.6,1.4,0.9c0.5,0.5,0.8,0.9,0.9,1.4c0.3,0.6,0.3,1.1,0.3,1.9
	c0,0.6-0.2,1.3-0.3,1.9c-0.3,0.6-0.6,1.1-0.9,1.4c-0.5,0.5-0.9,0.8-1.4,0.9c-0.6,0.3-1.1,0.3-1.9,0.3c-0.6,0-1.3-0.2-1.9-0.3
	c-0.6-0.3-1.1-0.6-1.4-0.9c-0.5-0.5-0.8-0.9-0.9-1.4c-0.3-0.6-0.3-1.1-0.3-1.9c0-0.5,0-0.8,0.2-1.1h2.5c-0.2,0.3-0.3,0.8-0.3,1.1
	c0,0.5,0.2,0.8,0.3,1.1c0.2,0.3,0.5,0.6,0.8,0.8c0.3,0.2,0.8,0.3,1.1,0.3c0.5,0,0.8-0.2,1.1-0.3c0.3-0.2,0.6-0.5,0.8-0.8
	c0.2-0.3,0.3-0.8,0.3-1.1c0-0.5-0.2-0.8-0.3-1.1c-0.2-0.3-0.5-0.6-0.8-0.8c-0.3-0.3-0.6-0.3-1.1-0.3h-4.1c0.3-0.5,0.6-0.9,1.1-1.3
	c0.5-0.3,0.9-0.6,1.4-0.8C19.5,14.9,20,14.9,20.6,14.9z"/>
<path class="st2" d="M31.5,14.9c0.6,0,1.3,0.2,1.9,0.3c0.6,0.3,1.1,0.6,1.4,0.9c0.5,0.5,0.8,0.9,0.9,1.4c0.3,0.6,0.3,1.1,0.3,1.9
	c0,0.6-0.2,1.3-0.3,1.9c-0.3,0.6-0.6,1.1-0.9,1.4c-0.5,0.5-0.9,0.8-1.4,0.9c-0.6,0.3-1.1,0.3-1.9,0.3s-1.3-0.2-1.9-0.3
	c-0.6-0.3-1.1-0.6-1.4-0.9c-0.5-0.5-0.8-0.9-0.9-1.4C27,20.8,27,20.3,27,19.5c0-0.5,0-0.8,0.2-1.1h2.4c-0.2,0.3-0.3,0.8-0.3,1.1
	c0,0.5,0.2,0.8,0.3,1.1c0.2,0.3,0.5,0.6,0.8,0.8s0.8,0.3,1.1,0.3s0.8-0.2,1.1-0.3c0.3-0.2,0.6-0.5,0.8-0.8c0.2-0.3,0.3-0.8,0.3-1.1
	c0-0.5-0.2-0.8-0.3-1.1c-0.2-0.3-0.5-0.6-0.8-0.8c0-0.3-0.5-0.3-0.9-0.3h-4.1c0.3-0.5,0.6-0.9,1.1-1.3c0.5-0.3,0.9-0.6,1.4-0.8
	C30.4,14.9,31.1,14.9,31.5,14.9z"/>
<path class="st2" d="M37.9,17.3v-2.4h9.3v2.4h-3.5v3.5v1.1v2.4h-2.4v-2.4v-1.1v-3.5H37.9z"/>
<path class="st2" d="M5,29c0-0.4,0.1-0.6,0.3-0.9c0.1-0.3,0.4-0.5,0.6-0.6s0.5-0.3,0.9-0.3h5.6v1.9H7.3c-0.1,0-0.3,0-0.3,0.1
	c-0.1,0.1-0.1,0.1-0.1,0.3l0,0c0,0.1,0,0.3,0.1,0.4C7.2,30,7.3,30,7.3,30h3.4c0.4,0,0.6,0.1,0.9,0.3s0.5,0.4,0.6,0.6
	s0.3,0.6,0.3,0.9v1c0,0.4-0.1,0.6-0.3,0.9s-0.4,0.5-0.6,0.6s-0.6,0.3-0.9,0.3H5v-1.9h5.1c0.1,0,0.3,0,0.4-0.1
	c0.1-0.1,0.1-0.3,0.1-0.4c0-0.1,0-0.3-0.1-0.4c-0.1-0.1-0.3-0.1-0.4-0.1H6.8c-0.3,0-0.6-0.1-0.9-0.3c-0.3-0.1-0.5-0.4-0.6-0.6
	C5.1,30.5,5,30.3,5,29.9C5,29.9,5,29,5,29z"/>
<path class="st2" d="M13.7,29.1v-1.9h7.4v1.9h-2.8v2.8v0.9v1.9h-1.9v-1.9v-0.9v-2.8H13.7z"/>
<path class="st2" d="M27.9,27.3c0.4,0,0.6,0.1,1,0.3c0.3,0.1,0.5,0.4,0.8,0.8c0.1,0.3,0.3,0.6,0.3,1V30c0,0.4-0.1,0.6-0.3,1
	c-0.1,0.3-0.4,0.5-0.8,0.8c-0.3,0.1-0.6,0.3-1,0.3H27l2.8,2.8H27L24.2,32v2.8h-1.9v-4.6h1.9l0,0h3.3c0.1,0,0.3,0,0.3-0.1
	c0.1-0.1,0.1-0.1,0.1-0.3v-0.3c0-0.1,0-0.3-0.1-0.3c-0.1-0.1-0.1-0.1-0.3-0.1h-5.1v-1.9h2l0,0C24.3,27.3,27.9,27.3,27.9,27.3z"/>
<path class="st2" d="M33.7,27.3h1.9l2.8,7.4h-1.9L34.6,30l-1.9,4.6h-1.9L33.7,27.3z"/>
<path class="st2" d="M45.2,27.3c0.4,0,0.6,0.1,1,0.3c0.3,0.1,0.5,0.4,0.8,0.8c0.1,0.3,0.3,0.6,0.3,1V30c0,0.4-0.1,0.6-0.3,1
	c-0.1,0.3-0.4,0.5-0.8,0.8c-0.3,0.1-0.6,0.3-1,0.3h-3.6v2.8h-1.9v-4.6h1.9l0,0h3.3c0.1,0,0.3,0,0.3-0.1c0.1-0.1,0.1-0.1,0.1-0.3
	v-0.3c0-0.1,0-0.3-0.1-0.3c-0.1-0.1-0.1-0.1-0.3-0.1h-5.1v-1.9C39.6,27.3,45.2,27.3,45.2,27.3z"/>
</svg>
