<?xml version="1.0" encoding="utf-8"?>
<!-- Generator: Adobe Illustrator 23.0.2, SVG Export Plug-In . SVG Version: 6.00 Build 0)  -->
<svg version="1.1" id="Calque_1" xmlns="http://www.w3.org/2000/svg" xmlns:xlink="http://www.w3.org/1999/xlink" x="0px" y="0px"
	 viewBox="0 0 52 52" style="enable-background:new 0 0 52 52;" xml:space="preserve">
<style type="text/css">
	.st0{fill:#FFFFFF;}
	.st1{fill:#1A1A1A;}
	.st2{fill:#9194C1;}
</style>
<polygon class="st0" points="41.2,52.3 -0.2,52.3 -0.2,0.5 51.5,0.5 51.5,42 "/>
<polygon class="st1" points="40,50.2 1.8,50.2 1.8,2.6 49.4,2.6 49.4,40.8 "/>
<g>
	<g>
		<path class="st2" d="M15.4,20.6c0.5,0,1.1,0.1,1.5,0.4c0.5,0.3,0.8,0.6,1.1,1.1c0.3,0.5,0.4,1,0.4,1.5v1.3c0,0.6-0.1,1.1-0.4,1.5
			s-0.6,0.8-1.1,1.1c-0.5,0.3-1,0.4-1.5,0.4H9.7v4.4H6.8v-7.3h2.9v0h5.2c0.2,0,0.3-0.1,0.5-0.2c0.1-0.1,0.2-0.3,0.2-0.4v-0.2
			c0-0.2-0.1-0.3-0.2-0.4c-0.1-0.1-0.3-0.2-0.5-0.2H6.8v-2.9L15.4,20.6L15.4,20.6z"/>
		<path class="st2" d="M27.6,25v-4.4h2.9v11.6h-2.9v-4.4h-4.4v4.4h-2.9V20.6h2.9V25L27.6,25L27.6,25z"/>
		<path class="st2" d="M41.2,20.6c0.5,0,1.1,0.1,1.5,0.4c0.5,0.3,0.8,0.6,1.1,1.1c0.3,0.5,0.4,1,0.4,1.5v1.3c0,0.6-0.1,1.1-0.4,1.5
			c-0.3,0.4-0.6,0.8-1.1,1.1c-0.5,0.3-1,0.4-1.5,0.4h-5.7v4.4h-2.9v-7.3h2.9v0h5.2c0.2,0,0.3-0.1,0.5-0.2c0.1-0.1,0.2-0.3,0.2-0.4
			v-0.2c0-0.2-0.1-0.3-0.2-0.4c-0.1-0.1-0.3-0.2-0.5-0.2h-8.1v-2.9L41.2,20.6L41.2,20.6z"/>
	</g>
</g>
</svg>
