<?xml version="1.0" encoding="utf-8"?>
<!-- Generator: Adobe Illustrator 23.0.2, SVG Export Plug-In . SVG Version: 6.00 Build 0)  -->
<svg version="1.1" id="Calque_1" xmlns="http://www.w3.org/2000/svg" xmlns:xlink="http://www.w3.org/1999/xlink" x="0px" y="0px"
	 viewBox="0 0 52 52" style="enable-background:new 0 0 52 52;" xml:space="preserve">
<style type="text/css">
	.st0{fill:#FFFFFF;}
	.st1{fill:#1A1A1A;}
	.st2{fill:#E579FF;}
</style>
<g>
	<polygon class="st0" points="41.9,51.7 0.5,51.7 0.5,0 52.2,0 52.2,41.5 	"/>
	<polygon class="st1" points="40.7,49.7 2.5,49.7 2.5,2.1 50.1,2.1 50.1,40.2 	"/>
	<g>
		<path class="st2" d="M10.6,35.4v-21H22c0.6,0,1.3,0.2,1.8,0.5c0.6,0.3,1.1,0.8,1.5,1.3c0.4,0.6,0.8,1.3,1,2
			c0.3,0.8,0.4,1.6,0.4,2.5c0,0.8-0.1,1.6-0.4,2.3c-0.2,0.7-0.6,1.4-1,2s-0.9,1-1.5,1.4c-0.6,0.3-1.2,0.5-1.8,0.5h-3.4v-3h3
			c0.4,0,0.7-0.1,1-0.3c0.3-0.2,0.5-0.5,0.7-0.8c0.2-0.3,0.3-0.7,0.4-1c0.1-0.4,0.1-0.7,0.1-1.1c0-0.4-0.1-0.7-0.2-1.1
			c-0.1-0.4-0.3-0.8-0.4-1.1c-0.2-0.3-0.4-0.6-0.7-0.8c-0.3-0.2-0.6-0.3-0.9-0.3h-8.3v18H10.6z"/>
		<path class="st2" d="M39.8,35.4L36,26.9h2.4c0.3,0,0.5-0.1,0.7-0.2c0.2-0.1,0.4-0.3,0.5-0.6s0.2-0.5,0.3-0.8
			c0.1-0.3,0.1-0.5,0.1-0.8c0-0.3,0-0.5-0.1-0.8c-0.1-0.3-0.2-0.6-0.3-0.8c-0.1-0.2-0.3-0.5-0.5-0.6c-0.2-0.2-0.4-0.2-0.7-0.2h-6.1
			v13.2h-2V19.9h8.4c0.5,0,0.9,0.1,1.3,0.4c0.4,0.2,0.8,0.6,1.1,1c0.3,0.4,0.6,0.9,0.8,1.5c0.2,0.6,0.3,1.2,0.3,1.9
			c0,0.5-0.1,1.1-0.2,1.6c-0.2,0.5-0.4,1-0.6,1.4c-0.3,0.4-0.6,0.8-0.9,1c-0.4,0.3-0.7,0.5-1.2,0.5l2.8,6.2H39.8z"/>
	</g>
</g>
</svg>
