<?xml version="1.0" encoding="utf-8"?>
<!-- Generator: Adobe Illustrator 23.0.2, SVG Export Plug-In . SVG Version: 6.00 Build 0)  -->
<svg version="1.1" id="Calque_1" xmlns="http://www.w3.org/2000/svg" xmlns:xlink="http://www.w3.org/1999/xlink" x="0px" y="0px"
	 viewBox="0 0 52 52" style="enable-background:new 0 0 52 52;" xml:space="preserve">
<style type="text/css">
	.st0{fill:#FFFFFF;}
	.st1{fill:#1A1A1A;}
	.st2{fill:#76CAED;}
</style>
<polygon class="st0" points="41.3,51.3 -0.2,51.3 -0.2,-0.5 51.5,-0.5 51.5,41 "/>
<polygon class="st1" points="40.1,49.2 1.9,49.2 1.9,1.6 49.5,1.6 49.5,39.8 "/>
<g>
	<path class="st2" d="M10.7,13.7c0.3,0,0.6,0.1,0.9,0.2c0.3,0.2,0.5,0.4,0.7,0.7c0.2,0.3,0.2,0.6,0.2,0.9v0.8c0,0.3-0.1,0.6-0.2,0.9
		c-0.2,0.3-0.4,0.5-0.7,0.7c-0.3,0.2-0.6,0.2-0.9,0.2H9.9l2.6,2.6H9.9l-2.6-2.6v2.6H5.6v-4.4h1.8v0h3.1c0.1,0,0.2,0,0.3-0.1
		c0.1-0.1,0.1-0.2,0.1-0.3v-0.1c0-0.1,0-0.2-0.1-0.3c-0.1-0.1-0.2-0.1-0.3-0.1H5.6v-1.8h1.9h0H10.7z"/>
	<path class="st2" d="M13.7,15.4v-1.8h7v1.8H13.7z M13.7,20.7v-4.4h7v1.8h-5.3v0.9h5.3v1.8H13.7z"/>
	<path class="st2" d="M24.6,13.7h1.7l2.6,7h-1.8l-1.8-4.4l-1.7,4.4H22L24.6,13.7z"/>
	<path class="st2" d="M30.1,15.4c0-0.3,0.1-0.6,0.2-0.8c0.2-0.3,0.4-0.5,0.6-0.6c0.3-0.2,0.5-0.2,0.8-0.2h5.3v1.8L30.1,15.4
		L30.1,15.4z M31.9,18c0,0.3,0.1,0.5,0.3,0.7c0.2,0.2,0.4,0.3,0.7,0.3h4.3v1.8h-5.4c-0.3,0-0.6-0.1-0.8-0.2
		c-0.2-0.1-0.4-0.3-0.6-0.6c-0.1-0.2-0.2-0.5-0.2-0.8v-2.8h1.8V18z"/>
	<path class="st2" d="M38.3,15.4v-1.8h7v1.8h-2.6v2.6v0.9v1.8h-1.8v-1.8v-0.9v-2.6H38.3z"/>
</g>
<g>
	<path class="st2" d="M31.2,28.8c0,0.7-0.1,1.5-0.3,2.2c0,0.1,0,0.1,0.1,0.2c0.9,0.3,1.7,0.6,2.4,1.1c0.5,0.3,0.9,0.7,1.2,1.2
		c0.4,0.6,0.3,1.2,0,1.8c-0.3,0.5-0.8,0.9-1.3,1.2c-0.7,0.4-1.4,0.7-2.2,1c-0.1,0-0.1,0.1-0.1,0.2c0.2,0.8,0.3,1.7,0.3,2.5
		c0,0.7-0.1,1.3-0.6,1.9c-0.4,0.5-1,0.7-1.6,0.7c-0.9-0.1-1.7-0.5-2.4-1.1c-0.4-0.3-0.8-0.6-1.1-0.9c-0.1-0.1-0.1,0-0.2,0
		c-0.5,0.5-1.1,0.9-1.7,1.3c-0.5,0.3-1.1,0.6-1.7,0.7c-0.9,0.1-1.6-0.2-2-1.1c-0.2-0.5-0.3-1-0.3-1.5c0-0.9,0.1-1.7,0.3-2.5
		c0-0.1,0-0.2-0.1-0.2c-0.6-0.2-1.2-0.4-1.8-0.7c-0.5-0.3-1-0.6-1.4-1c-0.3-0.3-0.5-0.7-0.6-1.1c-0.1-0.5,0-0.9,0.2-1.3
		c0.3-0.5,0.8-0.9,1.3-1.2c0.7-0.5,1.5-0.8,2.3-1c0.2-0.1,0.2-0.1,0.1-0.2c-0.1-0.6-0.2-1.1-0.2-1.7c0-0.7,0-1.5,0.3-2.2
		c0.2-0.5,0.5-0.9,1-1.1c0.4-0.2,0.8-0.2,1.2-0.1c0.8,0.2,1.5,0.6,2.2,1c0.4,0.3,0.7,0.6,1.1,0.9c0.1,0.1,0.1,0.1,0.2,0
		c0.7-0.7,1.5-1.2,2.4-1.6c0.4-0.2,0.9-0.4,1.4-0.3c0.7,0,1.2,0.3,1.5,0.9c0.2,0.4,0.3,0.9,0.4,1.4C31.2,28.3,31.2,28.5,31.2,28.8z
		 M25.4,37.4c0.5,0,1.1,0,1.6-0.1c0.1,0,0.1,0,0.2-0.1c0.6-0.9,1.2-1.9,1.6-2.9c0-0.1,0-0.1,0-0.2c-0.5-1-1-2-1.7-2.9
		c0,0-0.1-0.1-0.1-0.1c-0.3,0-0.6,0-0.9-0.1c-0.8,0-1.6,0-2.4,0.1c-0.1,0-0.1,0-0.2,0.1c-0.2,0.3-0.4,0.6-0.6,0.9
		c-0.4,0.6-0.7,1.3-1.1,2c0,0.1-0.1,0.1,0,0.2c0.5,1,1,2,1.7,2.9c0,0,0.1,0.1,0.1,0.1C24.3,37.3,24.9,37.4,25.4,37.4z M34.1,34.3
		C34.1,34.2,34.1,34.2,34.1,34.3c0-0.1,0-0.2-0.1-0.2c-0.1-0.4-0.4-0.6-0.7-0.9c-0.7-0.6-1.6-0.9-2.5-1.2c-0.1,0-0.1,0-0.1,0.1
		c-0.2,0.7-0.5,1.5-0.8,2.2c0,0,0,0.1,0,0.1c0.3,0.7,0.6,1.4,0.8,2.2c0,0.1,0.1,0.1,0.2,0.1c0.6-0.2,1.2-0.4,1.8-0.8
		c0.4-0.2,0.8-0.5,1.1-0.9C34,34.7,34.1,34.5,34.1,34.3z M29.3,26.7c-0.1,0-0.1,0-0.2,0c-0.4,0.1-0.8,0.2-1.2,0.4
		c-0.7,0.4-1.2,0.8-1.8,1.3c-0.1,0.1-0.1,0.1,0,0.1c0.1,0.1,0.1,0.2,0.2,0.2c0.5,0.5,0.9,1,1.3,1.6c0,0,0.1,0.1,0.1,0.1
		c0.8,0.1,1.5,0.2,2.3,0.4c0.1,0,0.1,0,0.1-0.1c0.2-0.8,0.3-1.6,0.2-2.4c0-0.3-0.1-0.7-0.2-1C30,26.9,29.7,26.7,29.3,26.7z
		 M20.5,39.7c0,0.2,0,0.5,0,0.7c0,0.3,0.1,0.6,0.3,0.9c0.2,0.4,0.5,0.5,0.9,0.5c0.3,0,0.5-0.1,0.8-0.2c0.9-0.4,1.6-0.9,2.3-1.6
		c0.1-0.1,0-0.1,0-0.2c-0.5-0.5-0.9-1-1.3-1.6c-0.1-0.2-0.2-0.3-0.5-0.3c-0.1,0-0.2,0-0.2,0c-0.6-0.1-1.2-0.2-1.8-0.3
		c-0.1,0-0.1,0-0.1,0.1C20.6,38.4,20.5,39.1,20.5,39.7z M16.8,34.3c0,0.2,0.1,0.3,0.2,0.5c0.2,0.3,0.5,0.6,0.8,0.8
		c0.7,0.5,1.5,0.8,2.3,1.1c0.1,0,0.1,0,0.2-0.1c0.2-0.7,0.4-1.4,0.7-2c0.1-0.2,0.1-0.3,0-0.4c-0.3-0.7-0.5-1.3-0.7-2
		c0-0.1-0.1-0.1-0.2-0.1c-0.7,0.2-1.3,0.5-1.9,0.8c-0.4,0.2-0.8,0.5-1.1,0.9C16.9,33.8,16.8,34,16.8,34.3z M21.5,26.7
		c-0.3,0-0.6,0.2-0.8,0.5c-0.1,0.2-0.1,0.3-0.2,0.5c-0.1,0.5-0.1,1-0.1,1.6c0,0.5,0.1,1,0.2,1.5c0,0.1,0.1,0.1,0.1,0.1
		c0.7-0.2,1.4-0.3,2.2-0.4c0.1,0,0.2,0,0.2-0.1c0.5-0.6,0.9-1.2,1.5-1.8c0.1-0.1,0.1-0.1,0-0.2c-0.1-0.1-0.2-0.2-0.3-0.3
		c-0.5-0.4-1.1-0.9-1.7-1.2C22.3,26.8,22,26.7,21.5,26.7z M30.4,39.8c0-0.7-0.1-1.4-0.2-2c0-0.1-0.1-0.1-0.2-0.1
		c-0.7,0.2-1.3,0.3-2,0.4c-0.1,0-0.3,0-0.4,0.1c-0.4,0.6-0.9,1.2-1.4,1.7c-0.1,0.1-0.1,0.1,0,0.2c0.2,0.2,0.4,0.3,0.5,0.5
		c0.6,0.5,1.2,0.9,1.9,1.1c0.3,0.1,0.5,0.1,0.8,0.1c0.4,0,0.6-0.2,0.8-0.6C30.3,40.7,30.4,40.3,30.4,39.8z M26.5,30.3
		c-0.3-0.4-0.7-0.8-1-1.2c-0.1-0.1-0.1,0-0.1,0c-0.2,0.3-0.5,0.6-0.7,0.8c-0.1,0.1-0.2,0.2-0.2,0.3C25.1,30.3,25.8,30.3,26.5,30.3z
		 M24.4,38.2C24.4,38.2,24.4,38.2,24.4,38.2c0.3,0.5,0.7,0.8,1,1.2c0.1,0.1,0.1,0,0.1,0c0.3-0.3,0.5-0.5,0.7-0.8
		c0.1-0.1,0.2-0.2,0.2-0.3C25.8,38.2,25.1,38.2,24.4,38.2z M29.4,35.3C29.4,35.4,29.3,35.4,29.4,35.3c-0.3,0.6-0.6,1.2-1,1.7
		c0,0-0.1,0.1,0,0.1c0,0,0.1,0,0.1,0c0.4-0.1,0.9-0.2,1.3-0.3c0.1,0,0.1-0.1,0.1-0.1c-0.1-0.3-0.2-0.5-0.3-0.8
		C29.5,35.7,29.5,35.5,29.4,35.3z M22.6,31.4c-0.5,0.1-1,0.2-1.5,0.3c-0.1,0-0.1,0.1-0.1,0.1c0.1,0.4,0.3,0.8,0.4,1.2
		c0,0.1,0,0.1,0.1,0.2C21.8,32.6,22.2,32,22.6,31.4z M21.5,35.3C21.5,35.4,21.5,35.4,21.5,35.3c-0.2,0.5-0.4,1-0.5,1.4
		c0,0.1,0,0.1,0.1,0.1c0.4,0.1,0.8,0.2,1.2,0.2c0.1,0,0.2,0.1,0.3,0C22.2,36.5,21.8,36,21.5,35.3z M29.4,33.2
		C29.4,33.2,29.4,33.1,29.4,33.2c0.2-0.5,0.3-0.9,0.5-1.3c0.1-0.2,0.1-0.2-0.2-0.3c-0.4-0.1-0.9-0.2-1.4-0.3c0.3,0.5,0.6,1,0.9,1.5
		C29.3,33,29.3,33.1,29.4,33.2z"/>
	<path class="st2" d="M25.4,36c-0.9,0-1.8-0.8-1.8-1.8c0-1,0.8-1.8,1.8-1.8c1,0,1.8,0.8,1.8,1.8C27.2,35.3,26.4,36,25.4,36z"/>
</g>
</svg>
