<?xml version="1.0" encoding="utf-8"?>
<!-- Generator: Adobe Illustrator 23.0.2, SVG Export Plug-In . SVG Version: 6.00 Build 0)  -->
<svg version="1.1" id="Calque_1" xmlns="http://www.w3.org/2000/svg" xmlns:xlink="http://www.w3.org/1999/xlink" x="0px" y="0px"
	 viewBox="0 0 52 52" style="enable-background:new 0 0 52 52;" xml:space="preserve">
<style type="text/css">
	.st0{fill:#FFFFFF;}
	.st1{fill:#1A1A1A;}
	.st2{fill:#31A7DB;}
</style>
<polygon class="st0" points="41.5,51.5 0,51.5 0,-0.2 51.7,-0.2 51.7,41.2 "/>
<polygon class="st1" points="40.3,49.4 2.1,49.4 2.1,1.8 49.7,1.8 49.7,40 "/>
<g>
	<g>
		<path class="st2" d="M7.5,17.9c0-0.5,0.1-0.9,0.4-1.3c0.2-0.4,0.6-0.7,0.9-0.9c0.4-0.2,0.8-0.4,1.3-0.4h8.3V18H7.5V17.9z M10.2,22
			c0,0.4,0.1,0.7,0.4,1s0.6,0.4,1,0.4h6.7v2.7H10c-0.5,0-0.9-0.1-1.3-0.3s-0.7-0.5-0.9-0.9c-0.2-0.4-0.3-0.8-0.3-1.3v-4.3h2.7
			L10.2,22L10.2,22z"/>
		<path class="st2" d="M20.2,17.9c0-0.5,0.1-0.9,0.4-1.3c0.2-0.4,0.5-0.7,0.9-0.9c0.4-0.2,0.8-0.4,1.3-0.4h8.3V18h-7.5
			c-0.2,0-0.3,0.1-0.4,0.2c-0.1,0.1-0.2,0.3-0.2,0.4v0.1c0,0.2,0.1,0.3,0.2,0.5c0.1,0.1,0.3,0.2,0.5,0.2h4.9c0.5,0,0.9,0.1,1.3,0.4
			s0.7,0.6,1,1c0.2,0.4,0.4,0.8,0.4,1.3v1.5c0,0.5-0.1,0.9-0.4,1.3c-0.2,0.4-0.6,0.7-1,1s-0.8,0.4-1.3,0.4h-8.2v-2.7h7.5
			c0.2,0,0.3-0.1,0.5-0.2c0.1-0.1,0.2-0.3,0.2-0.5c0-0.2-0.1-0.4-0.2-0.5c-0.1-0.1-0.3-0.2-0.5-0.2h-5.1c-0.4,0-0.9-0.1-1.2-0.3
			s-0.7-0.5-0.9-0.9c-0.2-0.4-0.3-0.8-0.3-1.2L20.2,17.9L20.2,17.9z"/>
		<path class="st2" d="M32.9,17.9c0-0.5,0.1-0.9,0.4-1.3c0.2-0.4,0.5-0.7,0.9-0.9c0.4-0.2,0.8-0.4,1.3-0.4h8.3V18h-7.5
			c-0.2,0-0.3,0.1-0.4,0.2c-0.1,0.1-0.2,0.3-0.2,0.4v0.1c0,0.2,0.1,0.3,0.2,0.5c0.1,0.1,0.3,0.2,0.5,0.2h4.9c0.5,0,0.9,0.1,1.3,0.4
			c0.4,0.2,0.7,0.6,1,1s0.4,0.8,0.4,1.3v1.5c0,0.5-0.1,0.9-0.4,1.3c-0.2,0.4-0.6,0.7-1,1c-0.4,0.2-0.8,0.4-1.3,0.4h-8.2v-2.7h7.5
			c0.2,0,0.3-0.1,0.5-0.2C41,23.1,41,23,41,22.8c0-0.2-0.1-0.4-0.2-0.5c-0.1-0.1-0.3-0.2-0.5-0.2h-5.1c-0.4,0-0.9-0.1-1.2-0.3
			c-0.4-0.2-0.7-0.5-0.9-0.9c-0.2-0.4-0.3-0.8-0.3-1.2L32.9,17.9L32.9,17.9z"/>
	</g>
</g>
<g>
	<path class="st2" d="M22.2,31h7.5v2.1l-2.5,2.5l2.5,2.5v2.1h-7.5v-2.1h4.2l-2.5-2.5l2.6-2.5h-4.3L22.2,31L22.2,31z"/>
</g>
</svg>
