<?xml version="1.0" encoding="utf-8"?>
<!-- Generator: Adobe Illustrator 23.0.2, SVG Export Plug-In . SVG Version: 6.00 Build 0)  -->
<svg version="1.1" id="Calque_1" xmlns="http://www.w3.org/2000/svg" xmlns:xlink="http://www.w3.org/1999/xlink" x="0px" y="0px"
	 viewBox="0 0 52 52" style="enable-background:new 0 0 52 52;" xml:space="preserve">
<style type="text/css">
	.st0{fill:#FFFFFF;}
	.st1{fill:#1A1A1A;}
	.st2{fill:#EB672C;}
</style>
<polygon class="st0" points="41.4,51.5 0,51.5 0,-0.2 51.7,-0.2 51.7,41.2 "/>
<polygon class="st1" points="40.2,49.4 2,49.4 2,1.8 49.6,1.8 49.6,40 "/>
<path class="st2" d="M11.8,23.9v-3.8h2.5v10.1h-2.5v-3.8H8v3.8H5.5V20.1H8v3.8H11.8L11.8,23.9z"/>
<path class="st2" d="M16.1,22.5V20h10.1v2.5h-3.8v3.8v1.2v2.5h-2.5v-2.5v-1.2v-3.8H16.1z"/>
<path class="st2" d="M32.4,23.2l2.5-3.1h2.5v10.1H35v-6.3l-2.5,3.1l-2.5-3.1v6.3h-2.5V20.1h2.5L32.4,23.2z"/>
<path class="st2" d="M41.7,20.1v7.5h5.1v2.5h-5.4h-2.2V20.1L41.7,20.1L41.7,20.1z"/>
</svg>
