<?xml version="1.0" encoding="utf-8"?>
<!-- Generator: Adobe Illustrator 23.0.2, SVG Export Plug-In . SVG Version: 6.00 Build 0)  -->
<svg version="1.1" id="Calque_1" xmlns="http://www.w3.org/2000/svg" xmlns:xlink="http://www.w3.org/1999/xlink" x="0px" y="0px"
	 viewBox="0 0 96.6 96.3" style="enable-background:new 0 0 96.6 96.3;" xml:space="preserve">
<style type="text/css">
	.st0{fill:#E5E5E5;}
</style>
<g>
	<path class="st0" d="M79.8,48.4c0,17.3-13.9,31.2-31.1,31.2c-17.3,0-31.2-13.9-31.2-31.1c0-17.3,13.9-31.2,31.1-31.2
		C65.9,17.2,79.8,31.1,79.8,48.4z M48.8,19.1c-16.2-0.1-29.4,13-29.5,29.1c-0.1,16.2,13,29.5,29,29.6C64.7,77.9,78,64.7,78,48.5
		C78,32.4,64.9,19.1,48.8,19.1z"/>
	<path class="st0" d="M42.2,64.3c-3.1-9.2-6-17.8-8.9-26.2c-0.5-1.3,0-1.8,1.3-1.9c0.8-0.1,2.1,0,1.9-1.3c-0.2-1.5-1.5-1-2.4-1
		c-2.2,0.1-4.3,0.2-6.7,0.4c6.5-12.9,27.3-15.8,38-5.4c-4.4,2.8-5.1,5-2.3,9.3c3.4,5.2,3.8,10.5,1.7,16.2c-1.1,3-2,6.1-3.1,9.9
		c-3.1-9.2-6-17.8-8.9-26.4c-0.6-1.7,0.9-1.4,1.7-1.6c0.7-0.2,1.7-0.2,1.6-1.3c-0.1-1.1-1.1-1-1.8-1c-4,0.4-8,0.4-12,0
		c-0.8-0.1-1.7,0-1.9,0.9c-0.2,1,0.7,1.4,1.5,1.4c2-0.1,2.3,1.4,3.1,2.8c2.9,5.6,3.1,11,0.4,16.8C44,58.1,43.3,60.9,42.2,64.3z"/>
	<path class="st0" d="M49.1,50.7c2.7,7.5,5.1,14.2,7.6,21c0.5,1.3-0.3,1.5-1.2,1.8c-4.3,1.2-8.5,1.3-12.9,0.3
		c-1.7-0.4-1.1-1.4-0.8-2.3C44.2,64.8,46.5,58.2,49.1,50.7z"/>
	<path class="st0" d="M25.1,38.3c4,11,7.9,21.8,12,33C24.9,66.1,19,49.4,25.1,38.3z"/>
	<path class="st0" d="M62.3,69.5c2.1-6.1,4.1-12.1,6.2-18.2c1.5-4.4,3.4-8.8,3-14.1c6.7,9.9,2,26.7-8.8,32.7
		C62.7,69.8,62.5,69.6,62.3,69.5z"/>
	<path class="st0" d="M62.8,69.9c-0.1,0.3-0.2,0.6-0.6,0.3c-0.1-0.1,0.1-0.5,0.1-0.8C62.5,69.6,62.7,69.8,62.8,69.9z"/>
</g>
</svg>
