<?xml version="1.0" encoding="utf-8"?>
<!-- Generator: Adobe Illustrator 23.0.2, SVG Export Plug-In . SVG Version: 6.00 Build 0)  -->
<svg version="1.1" id="Calque_1" xmlns="http://www.w3.org/2000/svg" xmlns:xlink="http://www.w3.org/1999/xlink" x="0px" y="0px"
	 viewBox="0 0 52 52" style="enable-background:new 0 0 52 52;" xml:space="preserve">
<style type="text/css">
	.st0{fill:#FFFFFF;}
	.st1{fill:#1A1A1A;}
	.st2{fill:#FF3F94;}
</style>
<g>
	<polygon class="st0" points="41.7,51.7 0.2,51.7 0.2,0 51.9,0 51.9,41.5 	"/>
	<polygon class="st1" points="40.5,49.7 2.3,49.7 2.3,2.1 49.9,2.1 49.9,40.2 	"/>
	<g>
		<path class="st2" d="M16.1,35.9V14h3.3v21.9H16.1z"/>
		<path class="st2" d="M23.9,35.9V19.8h6.7c1.1,0,2.2,0.2,3.2,0.6c1,0.4,1.8,1,2.6,1.7s1.3,1.6,1.7,2.6c0.4,1,0.6,2,0.6,3.1
			c0,1.1-0.2,2.2-0.7,3.1c-0.5,1-1.1,1.8-1.8,2.5c-0.8,0.7-1.6,1.3-2.6,1.7c-1,0.4-2,0.6-3,0.6H23.9z M26.3,22.2v11.4h4.3
			c0.7,0,1.4-0.2,2.1-0.5c0.7-0.3,1.3-0.7,1.8-1.2c0.5-0.5,1-1.1,1.3-1.8c0.3-0.7,0.5-1.4,0.5-2.2c0-0.8-0.2-1.5-0.5-2.2
			c-0.3-0.7-0.7-1.3-1.2-1.8c-0.5-0.5-1.1-0.9-1.8-1.3c-0.7-0.3-1.4-0.5-2.2-0.5H26.3z"/>
	</g>
</g>
</svg>
