<?xml version="1.0" encoding="utf-8"?>
<!-- Generator: Adobe Illustrator 23.0.2, SVG Export Plug-In . SVG Version: 6.00 Build 0)  -->
<svg version="1.1" id="Calque_1" xmlns="http://www.w3.org/2000/svg" xmlns:xlink="http://www.w3.org/1999/xlink" x="0px" y="0px"
	 viewBox="0 0 52 52" style="enable-background:new 0 0 52 52;" xml:space="preserve">
<style type="text/css">
	.st0{fill:#FFFFFF;}
	.st1{fill:#1A1A1A;}
	.st2{fill:#0769AC;}
</style>
<polygon class="st0" points="41.7,52.3 0.3,52.3 0.3,0.5 52,0.5 52,42 "/>
<polygon class="st1" points="40.5,50.2 2.3,50.2 2.3,2.6 49.9,2.6 49.9,40.8 "/>
<g>
	<g>
		<path class="st2" d="M9,19.6l0-4.5l1.6,0l0,4.8c0,0.3-0.1,0.6-0.2,0.8c-0.2,0.2-0.3,0.4-0.6,0.6c-0.2,0.2-0.5,0.2-0.8,0.2l-1,0
			l0,0c-0.3,0-0.5-0.1-0.7-0.2s-0.4-0.3-0.5-0.5c-0.1-0.2-0.2-0.5-0.2-0.7l0-0.7c0-0.1,0-0.1,0.1-0.2c0.1-0.1,0.1-0.1,0.2-0.1l1.4,0
			l0,0.4c0,0.1,0,0.2,0.1,0.3c0.1,0.1,0.2,0.1,0.3,0.1l0,0c0.1,0,0.2,0,0.3-0.1C9,19.8,9,19.7,9,19.6z"/>
		<path class="st2" d="M16.5,18.7c0-0.1,0-0.2,0-0.3c0,0,0,0,0,0c0-0.3-0.1-0.6-0.2-0.8c-0.1-0.2-0.3-0.4-0.6-0.6s-0.5-0.2-0.8-0.2
			c-0.3,0-0.6,0.1-0.8,0.2s-0.4,0.3-0.6,0.6s-0.2,0.5-0.2,0.8s0.1,0.6,0.2,0.8c0.2,0.2,0.3,0.4,0.6,0.6s0.5,0.2,0.8,0.2
			c0.1,0,0.2,0,0.3,0l-0.5-0.8l1.6,0l1,1.4l0.7,1l-1.6,0l-0.2-0.3c-0.4,0.2-0.8,0.3-1.3,0.3c-0.4,0-0.9-0.1-1.3-0.2
			c-0.4-0.2-0.7-0.4-1-0.7c-0.3-0.3-0.5-0.6-0.7-1c-0.2-0.4-0.3-0.8-0.3-1.3s0.1-0.9,0.2-1.3c0.2-0.4,0.4-0.7,0.7-1
			c0.3-0.3,0.6-0.5,1-0.7c0.4-0.2,0.8-0.3,1.3-0.3c0.4,0,0.9,0.1,1.3,0.2s0.7,0.4,1,0.7c0.3,0.3,0.5,0.6,0.7,1
			c0.2,0.4,0.3,0.8,0.3,1.3c0,0.3,0,0.6-0.1,0.9c-0.1,0.3-0.2,0.5-0.3,0.8c0,0.1-0.1,0.1-0.1,0.2L16.5,18.7z"/>
		<path class="st2" d="M23.2,19l0-4l1.6,0l0,4.1c0,0.4-0.1,0.8-0.3,1.2c-0.2,0.4-0.5,0.7-0.9,0.9s-0.8,0.3-1.2,0.3l-0.8,0
			c-0.4,0-0.8-0.1-1.2-0.3c-0.4-0.2-0.7-0.5-0.9-0.9s-0.3-0.8-0.3-1.2l0-4.1l1.6,0l0,4c0,0.2,0.1,0.4,0.3,0.6
			c0.2,0.2,0.4,0.2,0.6,0.2l0.7,0c0.2,0,0.4-0.1,0.6-0.3C23.1,19.5,23.2,19.3,23.2,19z"/>
		<path class="st2" d="M25.9,16.6l0-1.6l6.5,0l0,1.6L25.9,16.6z M25.9,21.5l0-4l6.5,0l0,1.6l-4.9,0l0,0.8l4.9,0l0,1.6L25.9,21.5z"/>
		<path class="st2" d="M38.3,15c0.3,0,0.6,0.1,0.8,0.2c0.3,0.1,0.5,0.3,0.6,0.6c0.2,0.3,0.2,0.5,0.2,0.8l0,0.7
			c0,0.3-0.1,0.6-0.2,0.8c-0.2,0.3-0.4,0.5-0.6,0.6c-0.3,0.2-0.5,0.2-0.8,0.2l-0.8,0l2.4,2.4l-2.4,0L35.1,19l0,2.4l-1.6,0l0-4l1.6,0
			l0,0l2.9,0c0.1,0,0.2,0,0.2-0.1c0.1-0.1,0.1-0.2,0.1-0.2l0-0.1c0-0.1,0-0.2-0.1-0.2c-0.1-0.1-0.2-0.1-0.2-0.1l-4.5,0l0-1.6l1.7,0
			l0,0L38.3,15L38.3,15z"/>
		<path class="st2" d="M43.5,16.9l1.3-2l2,0l-2.4,3.3l0,3.3l-1.6,0l0-3.3L40.3,15l2,0L43.5,16.9z"/>
	</g>
</g>
<g>
	<path class="st2" d="M31.7,37.9c-2.3,3.3-6.5,3.8-9.8,1.5c-2.8-2-4.6-6.4-1.8-9.5c-0.5,3.4,0.5,5.9,3.1,7.7
		C25.7,39.4,28.5,39.5,31.7,37.9z"/>
	<path class="st2" d="M23.2,29.5c0.9,4.5,3.6,6.1,8.5,5.1c-1.4,2-4.3,2.3-6.6,0.8C22.9,34,22.1,31.5,23.2,29.5z"/>
	<path class="st2" d="M26.5,28.1c0.7,2.9,2,3.9,4.9,3.6c-1.3,1.1-2.5,1.2-3.8,0.3C26.2,31,25.9,29.7,26.5,28.1z"/>
</g>
</svg>
