<?xml version="1.0" encoding="utf-8"?>
<!-- Generator: Adobe Illustrator 23.0.2, SVG Export Plug-In . SVG Version: 6.00 Build 0)  -->
<svg version="1.1" id="Calque_1" xmlns="http://www.w3.org/2000/svg" xmlns:xlink="http://www.w3.org/1999/xlink" x="0px" y="0px"
	 viewBox="0 0 52 52" style="enable-background:new 0 0 52 52;" xml:space="preserve">
<style type="text/css">
	.st0{fill:#FFFFFF;}
	.st1{fill:#1A1A1A;}
	.st2{fill:#EFBD27;}
</style>
<polygon class="st0" points="41.7,51.5 0.3,51.5 0.3,-0.2 52,-0.2 52,41.2 "/>
<polygon class="st1" points="40.5,49.4 2.3,49.4 2.3,1.8 49.9,1.8 49.9,40 "/>
<g>
	<g>
		<path class="st2" d="M18.5,27.5l0-10.3l3.8,0l0,11.2c0,0.7-0.2,1.3-0.5,1.9c-0.3,0.6-0.8,1-1.4,1.3c-0.6,0.3-1.2,0.5-1.9,0.5
			l-2.3,0l0,0c-0.6,0-1.2-0.2-1.7-0.4c-0.5-0.3-0.9-0.7-1.2-1.2c-0.3-0.5-0.4-1.1-0.5-1.6l0-1.7c0-0.2,0-0.3,0.2-0.4
			c0.1-0.1,0.3-0.2,0.4-0.2l3.2,0l0,1c0,0.3,0.1,0.5,0.3,0.6c0.2,0.2,0.4,0.3,0.6,0.3l0.1,0c0.3,0,0.5-0.1,0.6-0.3
			C18.4,27.9,18.5,27.7,18.5,27.5z"/>
		<path class="st2" d="M24.7,20.7c0-0.7,0.2-1.3,0.5-1.8s0.7-1,1.3-1.3c0.5-0.3,1.1-0.5,1.8-0.5l11.4,0l0,3.7l-10.4,0
			c-0.3,0-0.5,0.1-0.6,0.3c-0.2,0.2-0.3,0.4-0.3,0.6l0,0.1c0,0.3,0.1,0.5,0.3,0.6c0.2,0.2,0.4,0.3,0.6,0.3l6.7,0
			c0.7,0,1.3,0.2,1.8,0.5c0.5,0.3,1,0.8,1.3,1.3c0.3,0.6,0.5,1.2,0.5,1.8l0,2.1c0,0.7-0.2,1.3-0.5,1.8c-0.3,0.6-0.8,1-1.3,1.3
			c-0.6,0.3-1.2,0.5-1.8,0.5l-11.3,0l0-3.7l10.3,0c0.3,0,0.5-0.1,0.7-0.3c0.2-0.2,0.3-0.4,0.3-0.7c0-0.3-0.1-0.5-0.3-0.7
			c-0.2-0.2-0.4-0.3-0.7-0.3l-7,0c-0.6,0-1.2-0.2-1.7-0.5c-0.5-0.3-0.9-0.7-1.2-1.2c-0.3-0.5-0.4-1.1-0.5-1.7L24.7,20.7z"/>
	</g>
</g>
</svg>
