<?xml version="1.0" encoding="utf-8"?>
<!-- Generator: Adobe Illustrator 23.0.2, SVG Export Plug-In . SVG Version: 6.00 Build 0)  -->
<svg version="1.1" id="Calque_1" xmlns="http://www.w3.org/2000/svg" xmlns:xlink="http://www.w3.org/1999/xlink" x="0px" y="0px"
	 viewBox="0 0 52 52" style="enable-background:new 0 0 52 52;" xml:space="preserve">
<style type="text/css">
	.st0{fill:#FFFFFF;}
	.st1{fill:#1A1A1A;}
	.st2{fill:#00C9FF;}
</style>
<g>
	<polygon class="st0" points="41.6,51.7 0.2,51.7 0.2,0 51.9,0 51.9,41.5 	"/>
	<polygon class="st1" points="40.4,49.7 2.2,49.7 2.2,2.1 49.8,2.1 49.8,40.2 	"/>
	<g>
		<path class="st2" d="M11.8,35.4V14.6h11.3c0.6,0,1.2,0.2,1.8,0.5c0.6,0.3,1.1,0.8,1.5,1.3c0.4,0.6,0.8,1.2,1,2
			c0.3,0.8,0.4,1.6,0.4,2.5c0,0.8-0.1,1.6-0.4,2.3c-0.2,0.7-0.6,1.4-1,1.9c-0.4,0.6-0.9,1-1.5,1.3c-0.6,0.3-1.1,0.5-1.8,0.5h-3.3v-3
			h3c0.4,0,0.7-0.1,1-0.3s0.5-0.5,0.7-0.8c0.2-0.3,0.3-0.7,0.4-1c0.1-0.4,0.1-0.7,0.1-1.1c0-0.4-0.1-0.7-0.2-1.1
			c-0.1-0.4-0.3-0.7-0.4-1.1c-0.2-0.3-0.4-0.6-0.7-0.8c-0.3-0.2-0.6-0.3-0.9-0.3h-8.2v17.8H11.8z"/>
		<path class="st2" d="M42.4,22.2h-7.6c-0.6,0-1.1,0.2-1.4,0.6c-0.3,0.4-0.5,0.9-0.5,1.6c0,0.6,0.1,1.1,0.4,1.4
			c0.3,0.4,0.7,0.6,1.2,0.8v2.2c-0.5,0-1-0.1-1.4-0.3c-0.5-0.2-0.8-0.5-1.2-0.9c-0.3-0.4-0.6-0.9-0.8-1.4c-0.2-0.5-0.3-1.1-0.3-1.7
			c0-0.7,0.1-1.3,0.3-1.8c0.2-0.5,0.4-1,0.7-1.4c0.3-0.4,0.7-0.7,1.1-0.9c0.4-0.2,0.9-0.3,1.3-0.3h8.2V22.2z M31,33.2h7.6
			c0.6,0,1.1-0.2,1.4-0.6c0.3-0.4,0.5-0.9,0.5-1.6c0-0.6-0.1-1-0.4-1.4c-0.3-0.4-0.7-0.6-1.2-0.8v-2.2c0.5,0,1,0.1,1.4,0.3
			c0.5,0.2,0.8,0.5,1.2,0.9c0.3,0.4,0.6,0.9,0.8,1.4c0.2,0.5,0.3,1.1,0.3,1.7c0,0.7-0.1,1.3-0.3,1.8c-0.2,0.5-0.4,1-0.7,1.4
			c-0.3,0.4-0.7,0.7-1.1,0.9s-0.9,0.3-1.3,0.3H31V33.2z"/>
	</g>
</g>
</svg>
