<?xml version="1.0" encoding="utf-8"?>
<!-- Generator: Adobe Illustrator 23.0.2, SVG Export Plug-In . SVG Version: 6.00 Build 0)  -->
<svg version="1.1" id="Calque_1" xmlns="http://www.w3.org/2000/svg" xmlns:xlink="http://www.w3.org/1999/xlink" x="0px" y="0px"
	 viewBox="0 0 52 52" style="enable-background:new 0 0 52 52;" xml:space="preserve">
<style type="text/css">
	.st0{fill:#FFFFFF;}
	.st1{fill:#1A1A1A;}
	.st2{fill:#CE659B;}
</style>
<polygon class="st0" points="41.9,51.5 0.5,51.5 0.5,-0.2 52.2,-0.2 52.2,41.2 "/>
<polygon class="st1" points="40.7,49.4 2.5,49.4 2.5,1.8 50.1,1.8 50.1,40 "/>
<g>
	<g>
		<path class="st2" d="M5.8,23.2c0-0.4,0.1-0.8,0.3-1.1c0.2-0.3,0.5-0.6,0.8-0.8s0.7-0.3,1.1-0.3h7v2.3H8.6c-0.2,0-0.3,0-0.4,0.2
			c-0.1,0.1-0.2,0.2-0.2,0.4v0.1c0,0.2,0.1,0.3,0.2,0.4c0.1,0.1,0.2,0.2,0.4,0.2h4.1c0.4,0,0.8,0.1,1.1,0.3s0.6,0.5,0.8,0.8
			c0.2,0.3,0.3,0.7,0.3,1.1v1.3c0,0.4-0.1,0.8-0.3,1.1c-0.2,0.3-0.5,0.6-0.8,0.8c-0.3,0.2-0.7,0.3-1.1,0.3H5.8v-2.3h6.3
			c0.2,0,0.3-0.1,0.4-0.2c0.1-0.1,0.2-0.2,0.2-0.4c0-0.2-0.1-0.3-0.2-0.4c-0.1-0.1-0.2-0.2-0.4-0.2H7.8c-0.4,0-0.7-0.1-1-0.3
			S6.3,26,6.1,25.7c-0.2-0.3-0.3-0.7-0.3-1L5.8,23.2L5.8,23.2z"/>
		<path class="st2" d="M19.8,21.1h2.3l3.4,9.1h-2.3L21,24.5l-2.3,5.7h-2.3L19.8,21.1z"/>
		<path class="st2" d="M27,23.2c0-0.4,0.1-0.8,0.3-1.1c0.2-0.3,0.5-0.6,0.8-0.8c0.3-0.2,0.7-0.3,1.1-0.3h7v2.3h-6.3
			c-0.2,0-0.3,0-0.4,0.2c-0.1,0.1-0.2,0.2-0.2,0.4v0.1c0,0.2,0.1,0.3,0.2,0.4c0.1,0.1,0.2,0.2,0.4,0.2H34c0.4,0,0.8,0.1,1.1,0.3
			c0.3,0.2,0.6,0.5,0.8,0.8s0.3,0.7,0.3,1.1v1.3c0,0.4-0.1,0.8-0.3,1.1c-0.2,0.3-0.5,0.6-0.8,0.8c-0.3,0.2-0.7,0.3-1.1,0.3h-6.9
			v-2.3h6.3c0.2,0,0.3-0.1,0.4-0.2c0.1-0.1,0.2-0.2,0.2-0.4c0-0.2-0.1-0.3-0.2-0.4c-0.1-0.1-0.2-0.2-0.4-0.2h-4.2
			c-0.4,0-0.7-0.1-1-0.3c-0.3-0.2-0.6-0.4-0.7-0.7c-0.2-0.3-0.3-0.7-0.3-1L27,23.2L27,23.2z"/>
		<path class="st2" d="M37.6,23.2c0-0.4,0.1-0.8,0.3-1.1c0.2-0.3,0.5-0.6,0.8-0.8s0.7-0.3,1.1-0.3h7v2.3h-6.3c-0.2,0-0.3,0-0.4,0.2
			c-0.1,0.1-0.2,0.2-0.2,0.4v0.1c0,0.2,0.1,0.3,0.2,0.4c0.1,0.1,0.2,0.2,0.4,0.2h4.1c0.4,0,0.8,0.1,1.1,0.3c0.3,0.2,0.6,0.5,0.8,0.8
			s0.3,0.7,0.3,1.1v1.3c0,0.4-0.1,0.8-0.3,1.1c-0.2,0.3-0.5,0.6-0.8,0.8c-0.3,0.2-0.7,0.3-1.1,0.3h-6.9v-2.3h6.3
			c0.2,0,0.3-0.1,0.4-0.2c0.1-0.1,0.2-0.2,0.2-0.4c0-0.2-0.1-0.3-0.2-0.4c-0.1-0.1-0.2-0.2-0.4-0.2h-4.2c-0.4,0-0.7-0.1-1-0.3
			s-0.6-0.4-0.7-0.7c-0.2-0.3-0.3-0.7-0.3-1L37.6,23.2L37.6,23.2z"/>
	</g>
</g>
</svg>
